<?xml version="1.0" encoding="utf-8"?>
<!-- Generator: Adobe Illustrator 22.0.1, SVG Export Plug-In . SVG Version: 6.00 Build 0)  -->
<svg version="1.1" id="Layer_1" xmlns="http://www.w3.org/2000/svg" xmlns:xlink="http://www.w3.org/1999/xlink" x="0px" y="0px"
	 viewBox="0 0 1088 298" style="enable-background:new 0 0 1088 298;" xml:space="preserve">
<style type="text/css">
	.st0{fill:#EEF5FE;}
	.st1{fill:#D9EBFF;}
	.st2{fill:#C5DCFE;}
	.st3{fill:#8295C4;}
	.st4{fill:#8295C4;stroke:#CCF2FF;stroke-miterlimit:10;}
	.st5{fill:#A1B0D3;}
	.st6{fill:#CCE5FF;}
	.st7{fill:#F5F5F5;}
	.st8{fill:#FFFFFF;}
	.st9{display:none;}
	.st10{display:inline;fill:#FFFFFF;}
	.st11{opacity:0.7;fill:#FFFFFF;enable-background:new    ;}
	.st12{fill:#FFBAAF;}
	.st13{fill:#BF7367;enable-background:new    ;}
	.st14{fill:#1A2E35;}
	.st15{opacity:0.4;fill:#FFFFFF;enable-background:new    ;}
	.st16{fill:#48585E;}
	.st17{fill:#007CFF;}
	.st18{fill:#FD897B;}
	.st19{fill:#FD5652;}
	.st20{fill:none;stroke:#1A2E35;stroke-width:0.7247;stroke-linecap:round;stroke-linejoin:round;stroke-miterlimit:10;}
	.st21{fill:none;}
	.st22{fill:#FF1F1F;enable-background:new    ;}
	.st23{fill:#FCB373;}
	.st24{fill:#FF9989;enable-background:new    ;}
	.st25{fill:#FFC2B8;}
	.st26{fill:#FFC0B6;}
	.st27{fill:#EC873E;}
	.st28{fill:#04FF9D;enable-background:new    ;}
	.st29{fill:#00BF6B;enable-background:new    ;}
	.st30{fill:#B4BBBD;}
	.st31{fill:#394769;}
	.st32{fill:#79AFFE;}
	.st33{fill:#A6CAFF;}
	.st34{fill:#5375BD;}
	.st35{fill:#F6F9FE;}
	.st36{fill:#959595;}
	.st37{fill:#5F9FFE;}
	.st38{fill:#F4F2A1;}
	.st39{fill:#6F7FA3;}
	.st40{fill:#35383F;}
	.st41{fill:#80A4EE;}
	.st42{fill:#5F7850;}
	.st43{fill:#636E7F;}
	.st44{fill:#73492A;}
	.st45{fill:#231F20;}
	.st46{fill:#8FA7BF;}
	.st47{fill:#FF77E8;}
</style>
<g>
	<g>
		<polygon class="st0" points="1088,0 0.2,0 0.2,298 1088,298 		"/>
		<path id="_271769008" class="st1" d="M1088,92c-0.3,0-0.5,0-0.8,0c-6.3,0-12.2,1.6-17.6,4.5c-9.1-14.7-23.9-24.3-40.5-24.3
			c-5.9,0-11.6,1.2-16.9,3.4c-9-15.3-24.1-25.3-41.2-25.3c-21.6,0-40.1,16.1-47.1,38.8c-18.8,0.4-35.9,9.6-48.5,24.3
			c-4.4-1.7-9.1-2.6-14-2.6c-15.7,0-29.6,9.5-38,24.1c-7.7-7.1-17.4-11.3-27.8-11.3c-14,0-26.5,7.5-35,19.4
			c-7-10.9-17.9-17.9-30.2-17.9c-8.9,0-17.1,3.7-23.6,9.9c-10.2-17-26.8-28-45.5-28c-16.2,0-30.7,8.3-41,21.5
			c-7.3-9.2-17.7-15-29.3-15c-2.4,0-4.8,0.3-7.1,0.7c-4.8-19-19.3-32.8-36.5-32.8c-15.4,0-28.6,11-34.7,26.9
			c-2.5-0.5-5.2-0.8-7.8-0.8c-9.1,0-17.5,3.2-24.6,8.6c-4.3-4.8-10.1-7.7-16.4-7.7c-6.2,0-11.9,2.8-16.2,7.4
			c-11.4-9.3-25-14.8-39.8-14.8c-15.1,0-29.1,5.7-40.6,15.4c-6.6-6.6-15.1-10.6-24.3-10.6c-0.6,0-1.1,0-1.7,0
			c-2.9-4.2-6.2-8.1-9.7-11.5c2-4.3,3.1-9.2,3.1-14.4c0-16.4-11-29.7-24.5-29.7c-7.5,0-14.2,4.1-18.7,10.5
			c-5.7-3.7-12.4-5.9-19.4-5.9c-4.2,0-8.2,0.8-12,2.2c-6.9-8.7-16.6-14.1-27.4-14.1c-6.5,0-12.5,1.9-17.9,5.4
			C209.2,23.4,189.8,5,166.7,5h-0.2c-1.5-31-23.3-55.6-50-55.6c-7.8,0-15.1,2.1-21.7,5.8c-9-10-21.1-16.1-34.4-16.1
			c-6.9,0-13.5,1.6-19.5,4.6C39-82.5,22.1-103.8,0.2-108.5v116c3.7-0.8,7.2-2,10.5-3.7c1,12.2,5.2,23.4,11.5,32.3
			c-1.7-0.3-3.5-0.5-5.3-0.5c-6,0-11.7,1.8-16.7,5v119.9H1088V92L1088,92z M79.7,50.5c8.7,9.9,20.4,16,33.3,16h0.2
			c0.5,10.7,3.4,20.7,8,29.1c-4,3.2-7.7,6.8-11,10.9c-3.9-3.5-8.7-5.6-13.9-5.6c-5.8,0-11.1,2.6-15.3,6.9
			c-9.6-7.7-19.9-14-30.9-18.6c0.7-3.5,1.1-7.2,1.1-11c0-9-2.2-17.4-6-24.3c4.3,1.5,8.8,2.3,13.4,2.3C66.2,56.3,73.4,54.2,79.7,50.5
			L79.7,50.5z"/>
		<rect y="160" class="st2" width="1088" height="92.6"/>
	</g>
	<g>
		<g>
			<rect y="229.7" class="st3" width="1088.1" height="2.7"/>
		</g>
		<g>
			<rect y="238" class="st3" width="1088.1" height="2.7"/>
		</g>
		<g>
			<path class="st3" d="M51.4,245.2c-0.9,0-1.6-0.4-1.6-1v-16.7c0-0.5,0.7-1,1.6-1c0.9,0,1.6,0.4,1.6,1v16.7
				C53,244.7,52.3,245.2,51.4,245.2z"/>
		</g>
		<g>
			<path class="st3" d="M266.7,245.2c-0.9,0-1.6-0.4-1.6-1v-16.7c0-0.5,0.7-1,1.6-1s1.6,0.4,1.6,1v16.7
				C268.2,244.7,267.5,245.2,266.7,245.2z"/>
		</g>
		<g>
			<path class="st3" d="M159,245.2c-0.9,0-1.6-0.4-1.6-1v-16.7c0-0.5,0.7-1,1.6-1s1.6,0.4,1.6,1v16.7
				C160.6,244.7,159.9,245.2,159,245.2z"/>
		</g>
		<g>
			<path class="st3" d="M374.3,245.2c-0.9,0-1.6-0.4-1.6-1v-16.7c0-0.5,0.7-1,1.6-1c0.9,0,1.6,0.4,1.6,1v16.7
				C375.9,244.7,375.2,245.2,374.3,245.2z"/>
		</g>
		<g>
			<path class="st3" d="M481.9,245.2c-0.9,0-1.6-0.4-1.6-1v-16.7c0-0.5,0.7-1,1.6-1c0.9,0,1.6,0.4,1.6,1v16.7
				C483.5,244.7,482.8,245.2,481.9,245.2z"/>
		</g>
		<g>
			<path class="st4" d="M697.2,245.2c-0.9,0-1.6-0.4-1.6-1v-16.7c0-0.5,0.7-1,1.6-1c0.9,0,1.6,0.4,1.6,1v16.7
				C698.7,244.7,698,245.2,697.2,245.2z"/>
		</g>
		<g>
			<path class="st3" d="M589.5,245.2c-0.9,0-1.6-0.4-1.6-1v-16.7c0-0.5,0.7-1,1.6-1c0.9,0,1.6,0.4,1.6,1v16.7
				C591.1,244.7,590.4,245.2,589.5,245.2z"/>
		</g>
		<g>
			<path class="st3" d="M804.8,245.2c-0.9,0-1.6-0.4-1.6-1v-16.7c0-0.5,0.7-1,1.6-1c0.9,0,1.6,0.4,1.6,1v16.7
				C806.3,244.7,805.6,245.2,804.8,245.2z"/>
		</g>
		<g>
			<path class="st3" d="M1020,245.2c-0.9,0-1.6-0.4-1.6-1v-16.7c0-0.5,0.7-1,1.6-1c0.9,0,1.6,0.4,1.6,1v16.7
				C1021.6,244.7,1020.9,245.2,1020,245.2z"/>
		</g>
		<g>
			<path class="st3" d="M912.4,245.2c-0.9,0-1.6-0.4-1.6-1v-16.7c0-0.5,0.7-1,1.6-1c0.9,0,1.6,0.4,1.6,1v16.7
				C914,244.7,913.3,245.2,912.4,245.2z"/>
		</g>
	</g>
	<g>
		<g>
			<g>
				<rect y="244.5" class="st5" width="1088" height="53.5"/>
			</g>
			<rect x="9.8" y="276.5" class="st6" width="53.6" height="4"/>
		</g>
		<g>
			<path class="st6" d="M921.1,280.5H813.9v-4h107.2V280.5z M706.7,280.5H599.4v-4h107.2V280.5z M492.2,280.5H385v-4h107.2V280.5z
				 M277.8,280.5H170.6v-4h107.2V280.5z"/>
		</g>
		<g>
			<rect x="1028.3" y="276.5" class="st6" width="53.6" height="4"/>
		</g>
	</g>
</g>
<path id="_x3C_Path_x3E__2_" class="st7" d="M357.1,281.2"/>
<g>
	<g>
		<g>
			<g>
				<path class="st8" d="M1131.4,423.1c0,0,32.7-168.1-134.9-342.2l20.2-7.4c0,0,144.4,117.3,161,345.3L1131.4,423.1z"/>
			</g>
		</g>
		<g class="st9">
			<path class="st10" d="M1084.4,154.7c33.7-12,78.9,11.7,81.7,45.5c0,0-5.3-2.4-14.3-5.2c-1.5-8.6-3.1-16.1-3.1-16.1v15.2
				c-2.8-0.8-5.8-1.6-9.1-2.3l-1.3-8.3l-1.9,7.6c-4.2-0.9-8.8-1.6-13.7-2.2l-3.3-24.1l-5.8,23.2c-4.6-0.3-9.4-0.4-14.3-0.3
				l-1.9-16.4l-1.9,16.5c-4,0.2-8.1,0.6-12.3,1.2l-1.7-24.3c0,0-1.4,13.6-2.9,25.1c-10.6,1.9-21.5,5.1-32.4,10.3v-3
				C1046.3,197.2,1053.6,165.7,1084.4,154.7z"/>
			<path class="st10" d="M1041.1,141.9c-23.5-19.6-79.7-9.4-103.3,21c0,0,6.4-0.9,16.3-1.1c6.7-7.5,12.9-14,12.9-14l-9.5,14
				c3,0,6.3,0,9.7,0.2l6.3-7.2l-2.9,7.4c4.4,0.3,9.1,0.8,13.9,1.4l18-21.2l-9.2,22.8c4.4,0.9,8.9,2,13.3,3.4l11.9-14.5l-8.5,15.6
				c3.5,1.2,7.1,2.6,10.5,4.2l16.7-21.9c0,0-7.2,12.8-12.9,23.8c8.5,4.4,16.6,10.2,23.4,17.7l1.9-2.7
				C1049.6,190.6,1062.5,159.7,1041.1,141.9z"/>
			<path class="st10" d="M1011.5,184.4c27.4-14.8,45.1,0,45.1,0c-9.8,1.2-18.8,4.7-26.9,9.4l-3.1-3v5c-1.9,1.2-3.8,2.5-5.6,3.9
				l-4.9-8.8l1.2,11.7c-2.6,2.1-5.1,4.3-7.3,6.4l-1.6-8.6l-1.1,11.2c-2.4,2.4-4.6,4.8-6.6,7.1l-1-15.7L997,223
				c-4.8,6-7.4,10.3-7.4,10.3S984.1,199.2,1011.5,184.4z"/>
			<path class="st10" d="M1076.5,225.4l-5.5,1.7c-0.5-2.6-1.1-5.4-1.8-8.2l4.1-4l-4.7,1.6c-0.3-0.9-0.5-1.9-0.8-2.8l5.5-8l-7.3,3
				c-2.9-7.6-6.9-14.4-12.5-17.8c0,0,57.4,14.7,19.6,53.7c0,0-0.3-6.5-1.8-15L1076.5,225.4z"/>
			<path class="st10" d="M1129.5,241.7l-4.8,11.3c-1.4-2.9-3.3-6.7-5.7-10.9l5.1-16.6l-7.3,12.9c-3.6-5.8-8.2-12.1-13.7-18l6.8-11.4
				l-9.9,8.2c-1.6-1.6-3.3-3.1-5-4.6l3.9-7.2l-5.5,5.9c-1.2-1-2.5-1.9-3.7-2.8l4.9-9.6l-7,8.2c-3.6-2.4-7.5-4.5-11.7-6.3l7.5-11.7
				c0,0-4.9,4.7-10.8,10.4c-5.8-2-12.2-3.3-19-3.5c0,0,12.9-11.4,34.9-14.5c21.9-3.1,65.2,23.8,39,77.6c0,0-0.5-1.3-1.4-3.5
				L1129.5,241.7z"/>
			<path class="st10" d="M1106.2,133.8l2.9,7.1c-1.2,0-2.5,0-4.1,0.2l-3.4-9.2l1.9,9.4c-2.4,0.3-5.2,0.9-8.2,1.9l-4.7-12.5l2.1,13.5
				c-1,0.4-2.1,0.9-3.1,1.4l-5.6-11.8l3.8,12.7c-4.4,2.4-9.2,5.7-14.1,10.3v-16.9l-5.6,22.8c-4.9,5.7-9.8,12.8-14.6,21.6
				c0,0,3.2-61.2,26.9-67c23.8-5.8,34.1,24.2,34.1,24.2s-1.1-0.3-3.1-0.5L1106.2,133.8z"/>
			<path class="st10" d="M1065.6,200.2l-3.4,11.5l-5.6-11.5l-10.4,8.3l-2.7-8.3l-11.4,5.3c0,0,3-14.7,10.6-21.1
				C1050.4,177.9,1070.5,183.6,1065.6,200.2z"/>
		</g>
		<g>
			<path class="st8" d="M962.5,31.1c-49.8-20.1-122.9-7.8-132.4,25c0,0,8.5-1.1,22.7-1.6c3.7-8.1,7.3-15.2,7.3-15.2l-2.4,15
				c4.3-0.1,9.1-0.1,14.2-0.1l3.3-7.8l1.7,7.9c6.6,0.2,13.8,0.6,21.3,1.2l9-23.9l5,25.3c7.1,0.8,14.5,1.9,22,3.2l3.8-5.8l1.9,6.9
				c6.1,1.2,12.3,2.6,18.6,4.2l6.4-23.6c0,0,0,13.8,0.6,25.5c15.9,4.4,32.2,10.3,48.1,18l0.5-3C1014.2,82.4,1008,49.4,962.5,31.1z"
				/>
			<path class="st8" d="M1031.7,32.4c105.5-69,192.2,28.5,161.5,7.1c0,0-10,0-25.3,1.1c-11.1-6.5-21.1-12.2-21.1-12.2l15.8,12.7
				c-4.7,0.4-9.7,0.9-15,1.5l-10.4-6.4l5.2,7c-6.8,0.9-14,2-21.4,3.3l-29.7-18.8l16.1,21.5c-6.7,1.5-13.5,3.2-20.3,5.2l-19.6-12.9
				l14.5,14.4c-5.4,1.7-10.7,3.6-15.9,5.6l-27.7-19.6c0,0,12.2,11.8,22,22c-12.8,5.5-24.7,12.3-34.6,20.7l-3.1-2.5
				C1022.7,82,1000.1,53.1,1031.7,32.4z"/>
			<path class="st8" d="M1095.7,82c-51.1-24.5-75.1-2.5-78.5,0c17.1,1.8,32.8,7.3,46.8,14.5l5.5-4.7v7.7c3.4,1.9,6.6,3.9,9.8,6
				l8.5-13.6l-2.1,18.1c4.5,3.3,8.8,6.6,12.8,10l6.3-9.4l-1.6,13.5c4.2,3.8,8,7.5,11.4,11l1.8-24.2l4.6,31
				c8.4,9.3,12.9,15.9,12.9,15.9S1143.4,104.9,1095.7,82z"/>
			<path class="st8" d="M971.9,134.3l8.6,3.1c0.7-4.9,1.6-10,2.7-15.2l-6.3-7.4l7.3,2.9c0.4-1.7,0.8-3.4,1.3-5.2l-8.6-14.8l11.3,5.5
				c4.5-14,10.7-26.5,19.4-32.7c0,0-89.1,27.1-30.5,98.9c0,0,0.5-11.9,2.7-27.6L971.9,134.3z"/>
			<path class="st8" d="M1030.2,75.8l-36.9,7.8c-4.4,1.8-10,4.4-16.3,7.8l-23.5-9.4l17.9,12.5c-8.7,5-18.2,11.5-27.4,19.5
				l-15.7-11.6l10.8,16c-2.4,2.3-4.8,4.8-7.2,7.4l-10-6.8l7.9,9.1c-1.5,1.8-3,3.6-4.5,5.5l-13.3-8.5l11.1,11.5
				c-3.9,5.4-7.3,11.2-10.2,17.5l-16.1-12.7c0,0,6.2,8,13.9,17.7c-3.6,8.8-6,18.5-7,29.1c0,0-15.1-21.1-17.3-55.3
				c-2.3-34.2,41.1-98.6,116-52.9c0,0-1.9,0.6-5.1,1.9L1030.2,75.8z"/>
			<path class="st8" d="M952.5,1.4l-6.6,5.2c1.7,0.6,3.7,1.4,5.9,2.3l8.1-6.9l-6,7.9c3.4,1.6,7.3,3.6,11.3,6.1l11.1-9.3l-7.6,11.6
				c1.3,0.9,2.7,1.9,4.1,2.9l12.1-8.1L975,23c5.7,4.6,11.5,10.2,17,17.1l5.7-15.9l0.5,24.4c5.2,7.9,10,17.2,14,28.1
				c0,0,16.1-59.2-16.6-77.3c-32.7-18-58.1,4.8-58.1,4.8s1.7,0.3,4.7,1.2L952.5,1.4z"/>
		</g>
	</g>
	<g>
		<g>
			<path class="st8" d="M161.5,571.7c0,0-16.8-166.6-102.9-383.6l17.5-8.4c0,0,75.5,78.4,151.3,382.2L161.5,571.7z"/>
		</g>
		<g>
			<path class="st8" d="M38.5,137.5c-40.5-14.4-94.8,14-98.1,54.7c0,0,6.4-2.9,17.1-6.2c1.9-10.3,3.7-19.4,3.7-19.4v18.3
				c3.3-0.9,6.9-1.9,10.9-2.8l1.6-9.9l2.3,9.1c5.1-1,10.6-1.9,16.4-2.7l4-28.9l6.9,27.9c5.5-0.4,11.3-0.5,17.2-0.3l2.2-19.7
				l2.3,19.8c4.8,0.3,9.7,0.8,14.7,1.5l2-29.2c0,0,1.7,16.3,3.5,30.1c12.7,2.3,25.8,6.2,38.9,12.3v-3.6
				C84.2,188.6,75.4,150.6,38.5,137.5z"/>
			<path class="st8" d="M90.4,122c28.2-23.5,95.7-11.2,124,25.2c0,0-7.7-1.1-19.6-1.3c-8.1-9-15.5-16.8-15.5-16.8l11.4,16.8
				c-3.6,0-7.5,0-11.7,0.2l-7.6-8.7l3.5,8.9c-5.3,0.3-10.9,0.9-16.7,1.7l-21.6-25.5l11,27.4c-5.3,1.1-10.6,2.4-16,4.1l-14.3-17.5
				l10.2,18.8c-4.3,1.5-8.5,3.2-12.6,5.1l-20-26.3c0,0,8.6,15.4,15.5,28.5c-10.3,5.3-19.9,12.2-28.1,21.2l-2.2-3.3
				C80.2,180.6,64.7,143.5,90.4,122z"/>
			<path class="st8" d="M38.1,254.2l8.5,3.6c0.7-5.6,1.6-11.5,2.7-17.5l-6.3-8.6l7.3,3.4c0.4-2,0.8-4,1.3-6L43,212.1l11.2,6.3
				c4.5-16.2,10.7-30.5,19.3-37.7c0,0-88.7,31.2-30.3,114c0,0,0.5-13.7,2.7-31.8L38.1,254.2z"/>
			<path class="st8" d="M112.9,179.3l9.8-14.1l-3,14.4c1.1,0.1,2.3,0.1,3.5,0.2l13.3-12.3l-2.1,13.6c4.8,0.7,9.8,1.6,15.1,2.8
				c5.3,1.2,10.6,2.6,15.8,4.2l5.8-12.2l-1.8,13.5c5.1,1.6,10,3.4,14.7,5.2l2.4-10.7l1,12c5.8,2.3,11.4,4.7,16.5,7l-2.6-19l6.7,20.9
				c5.2,2.5,10,4.8,14,7l-0.9-13.2l7.1,16.5c5.8,3.2,9.2,5.3,9.2,5.3c-8.1-46-38.1-63.1-84.9-65.9c-46.9-2.8-76.7,29.5-76.7,29.5
				S89.3,178.9,112.9,179.3z"/>
			<path class="st8" d="M-15.7,242l5.8,13.6c1.6-3.5,3.9-8,6.9-13.1l-6.1-20l8.7,15.6c4.3-6.9,9.8-14.5,16.5-21.6l-8.2-13.7
				l11.9,9.9c1.9-1.9,3.9-3.7,6.1-5.5l-4.7-8.6l6.6,7.1c1.5-1.2,3-2.3,4.5-3.4l-5.9-11.5l8.4,9.8c4.4-2.9,9-5.5,14.1-7.5l-9-14
				c0,0,5.8,5.6,13,12.5c7-2.5,14.6-4,22.8-4.2c0,0-15.5-13.7-41.9-17.4c-26.4-3.7-78.3,28.6-46.9,93.2c0,0,0.6-1.5,1.7-4.1
				L-15.7,242z"/>
			<path class="st8" d="M-11.7,95.8l-6.8,7.5c2.2,0.4,4.7,0.9,7.4,1.5l8.2-9.8l-5.4,10.5c4.4,1.2,9.4,2.8,14.7,4.9l14.3-12.7
				L11,112.4c1.8,0.8,3.6,1.7,5.5,2.6l12.7-12.2l-9.6,13.8c7.7,4.2,15.8,9.7,23.8,16.7l3.5-20l5.6,28.8c7.9,8.3,15.5,18.3,22.5,30.3
				c0,0,6.8-73.4-35.8-88c-42.6-14.5-67.9,17.6-67.9,17.6s2.1,0,5.8,0.4L-11.7,95.8z"/>
		</g>
	</g>
	<g>
		<path class="st8" d="M-83.4,597.7"/>
		<path class="st11" d="M-83.4,597.7"/>
	</g>
	<g>
		<g>
			<g>
				<path class="st8" d="M175,548.1c0,0-51.7-236.4,70.5-480.4l-18.8-9.4c0,0-142.6,184.4-124.3,496.2L175,548.1z"/>
			</g>
		</g>
		<g>
			<path class="st8" d="M278.8,3.6c44.3-18.4,109.5,11.3,118.1,57.3c0,0-7.6-3-20.2-6.2c-3.3-11.6-6.6-21.8-6.6-21.8l2.2,20.8
				c-3.9-0.9-8.1-1.8-12.7-2.6l-3-11.2l-1.5,10.4c-5.9-0.9-12.3-1.7-19-2.2l-8-32.7l-4.5,32.1c-6.3-0.1-12.9,0-19.6,0.5l-4.9-22.2
				l-0.2,22.6c-5.4,0.5-11,1.3-16.6,2.4l-5.8-33.1c0,0,0,18.6-0.4,34.4c-14.2,3.2-28.6,8.3-42.8,15.9l-0.4-4.1
				C233,63.9,238.4,20.4,278.8,3.6z"/>
			<path class="st8" d="M217.9-11.4C183-36.8,107.8-19.5,80,23.4c0,0,8.6-1.6,22.1-2.5C110.2,10.3,117.6,1,117.6,1l-10.9,19.6
				c4.1-0.2,8.6-0.3,13.3-0.3l7.6-10.3l-3,10.3c6.1,0.1,12.5,0.5,19.2,1.2l21.5-30.1l-9.2,31.6c6.1,1,12.4,2.2,18.7,3.9L189,6.4
				l-9.4,21.8c5,1.5,10,3.2,14.9,5.2l19.6-30.9c0,0-7.9,17.9-14.2,33.2c12.3,5.5,24.1,12.9,34.4,22.7l2.1-3.9
				C236.6,54.6,249.7,11.7,217.9-11.4z"/>
			<path class="st8" d="M183.7,48.4c35.3-21.8,61.6-2.7,61.6-2.7c-13.2,2.2-25,7.5-35.4,14.4l-4.7-4l0.7,6.8
				c-2.5,1.8-4.8,3.7-7.1,5.6l-8-11.7l3.3,15.9c-3.3,3-6.3,6.1-9.1,9.2l-3.5-11.6l0.2,15.4c-3,3.5-5.6,6.9-8,10.1l-3.7-21.3
				l-0.7,27.6c-5.7,8.5-8.7,14.5-8.7,14.5S148.3,70.2,183.7,48.4z"/>
			<path class="st8" d="M278.2,100.5l-7.3,2.7c-1-3.6-2.2-7.3-3.6-11.1l5-5.8l-6.2,2.4c-0.5-1.3-1-2.5-1.5-3.8l6.4-11.3l-9.5,4.5
				c-5-10.2-11.5-19.2-19.6-23.5c0,0,80.5,16.7,34.5,72.2c0,0-1.4-8.8-4.6-20.4L278.2,100.5z"/>
			<path class="st8" d="M199.2,54.8l-12.8-15.6l5.2,16.2c-1.3,0.1-2.6,0.3-3.9,0.4l-16.6-13.4l4,15.3c-5.4,1-11,2.3-16.8,3.9
				c-5.9,1.6-11.8,3.5-17.5,5.6l-8-13.6l3.7,15.2c-5.5,2.1-10.9,4.3-16.1,6.6l-4-12l0.3,13.7c-6.4,2.9-12.4,5.9-17.9,8.8l0.7-21.7
				l-5.1,24.1c-5.7,3.1-10.7,6-15.1,8.6l-0.5-15.1L72.6,101c-6.2,3.9-9.8,6.4-9.8,6.4c3.6-52.7,35.7-73.6,88.6-79
				c52.9-5.5,90.8,29.7,90.8,29.7S226,53.2,199.2,54.8z"/>
			<path class="st8" d="M353,119.7l-5,15.7c-2.3-3.9-5.4-8.9-9.4-14.5l4.5-23l-8.1,18.1c-5.8-7.7-12.9-16-21.3-23.8l7.6-15.9
				l-12.3,11.8c-2.4-2.1-4.9-4.1-7.6-6l4.4-10l-6.7,8.4c-1.8-1.3-3.6-2.5-5.5-3.6l5.3-13.4L290.7,75c-5.3-3.1-10.9-5.8-16.9-7.9
				l8.5-16.3c0,0-6,6.6-13.3,14.8c-8.3-2.5-17.1-3.8-26.5-3.6c0,0,16-16.3,45.5-21.8c29.5-5.5,92.5,28.7,64.4,103.6
				c0,0-0.8-1.7-2.4-4.6L353,119.7z"/>
			<path class="st8" d="M305.6-26.3l4.9,9.5c-1.6,0.1-3.5,0.2-5.5,0.5l-6-12.4l3.9,12.7c-3.3,0.6-6.9,1.6-10.9,3.1l-8.2-16.8
				l4.8,18.3c-1.3,0.6-2.7,1.3-4.1,2.1l-9.3-15.7l7,17.1c-5.7,3.5-11.7,8.3-17.7,14.9L262.2-16l-4.4,31.4c-5.9,8-11.6,18-16.8,30.4
				c0,0-4.5-83.7,27.1-93.1c31.6-9.4,50.1,31,50.1,31s-1.6-0.3-4.3-0.5L305.6-26.3z"/>
		</g>
	</g>
</g>
<g>
	<path class="st12" d="M780.4,183.6c0,0-1.3,1.5-2.8,3c-1.4,1.3-2.3,2.5-4.1,3.8c-1.4,0.9-9.6,5.2-9.6,4.6c0-0.5-3.7-1.6-3.1-1.6
		c-0.1-0.8,3.4-0.2,3.4-0.2s8.2-5.9,8.8-6c2.9-0.6,5.6-7.4,7.2-7.4l0.1,1.6L780.4,183.6z"/>
	<path class="st13" d="M780.4,183.6c0,0-1.3,1.5-2.8,3c-0.3-2.2,2.3-4.9,2.7-5.3L780.4,183.6z"/>
	<path class="st14" d="M783.6,172.2c0,0-1.1-2.6,2.6-3.6c3.7-1.1,5-1,6,0.5c1,1.5,0.5,2.6,2.7,2.5c2.2-0.1,4.1-1,5.6,0.1
		c1.5,1.1,1.1,2.7,2.9,1.2c1.7-1.5,1.9-1.3,3-0.7c0,0-1.1,0.5-1,1c0.1,0.5,1.6,0.4,1,1.3c-0.6,0.8-2.2,2.5-4.4,1.6
		c-2.3-0.9-3.1-0.1-3.1-0.1s1.7-0.2,2.7,0.8c0.9,0.9,1.5,0.7,3.1,0.4c0,0-1.1,2.1-3.8,1.3c-2.7-0.8-3-0.6-5.9,0
		c-2.9,0.6-7.4,0.3-9.7-1.6C782.9,175.1,783.6,172.2,783.6,172.2z"/>
	<path class="st14" d="M778.9,198.8c0,0-6.3,12.9-7.3,18.6c-1,5.7,21.6,20.9,21.6,20.9l2.3-2.1c0,0-16.8-14.9-16.8-17.4
		c0-2.6,6.5-14.2,6.5-14.2S785.8,199.9,778.9,198.8z"/>
	<path class="st15" d="M783.5,231.3c2.3,1.8,4.5,3.5,6.3,4.7c2,1.4,3.3,2.3,3.3,2.3l2.3-2.1c0,0-2.3-2-5.2-4.7
		c-2.3-2.1-4.9-4.7-7.1-6.9c-2.5-2.6-4.5-4.9-4.5-5.8c0-1.3,1.8-5.2,3.5-8.6c1.5-3,3-5.6,3-5.6s0.1-0.7-0.2-1.6
		c-0.4-1.5-1.8-3.5-6.1-4.1c0,0-6.3,12.9-7.3,18.6C771,220.5,777.5,226.5,783.5,231.3z"/>
	<path class="st16" d="M782.1,210.2c1.5-3,3-5.6,3-5.6s0.1-0.7-0.2-1.6c-0.4-0.2-0.7-0.3-0.7-0.3S782.4,205.3,782.1,210.2z"/>
	<path class="st14" d="M784.2,202.7l-0.4,18.2v18.6h3.7c8.6-35.3,2.7-44.1,2.7-44.1l0,0c0,0,0,0,0,0c-1.4-2.6-10.4-0.7-10.4-0.7
		c-0.7,2.2-1.1,6.6-1.1,6.6L784.2,202.7z"/>
	<path class="st15" d="M784.2,202.7l-0.4,18.2v18.6h3.7c8.6-35.3,2.7-44.1,2.7-44.1l0,0c0,0,0,0,0,0c-1.4-2.6-10.4-0.7-10.4-0.7
		c-0.7,2.2-1.1,6.6-1.1,6.6L784.2,202.7z"/>
	<polygon class="st14" points="790.1,194 790.1,195.4 779.6,194.7 779.6,193.1 	"/>
	<polygon class="st14" points="786.5,195.8 787,195.8 787.2,193.5 786.6,193.5 	"/>
	<polygon class="st8" points="781.9,194.9 784.2,195.1 784.4,193.6 782.1,193.4 	"/>
	<polygon class="st14" points="780.1,195.2 780.6,195.2 780.8,192.9 780.2,192.9 	"/>
	<polygon class="st15" points="786.5,195.8 787,195.8 787.2,193.5 786.6,193.5 	"/>
	<polygon class="st15" points="780.1,195.2 780.6,195.2 780.8,192.9 780.2,192.9 	"/>
	<path class="st17" d="M779.6,193.3l10.5,0.8c0.2-3.4,0.5-5.5,2.8-11.5c0.2-0.5,0.4-1.1,0.7-1.7c-1.4-0.4-2.9-0.7-4.3-0.9
		c-1.6-0.2-3.1-0.4-4.7-0.4c-2,0-4.4,0.2-4.4,0.2s-0.3,0.1-0.5,1.9C779.4,183.4,779.2,186.9,779.6,193.3z"/>
	<path class="st18" d="M785.4,181.5c2.6-0.3,3.4-1.2,3.4-1.2c-1.6-1.3-0.3-3.6-0.3-3.6l-3.1,0.5c0.1,0.4,0.1,0.8,0.1,1.1
		c0,1.6-0.8,1.6-0.8,1.6C784.1,180.8,785.4,181.5,785.4,181.5z"/>
	<path class="st13" d="M785.4,177.2c0.1,0.4,0.1,0.8,0.1,1.1c1.5-0.3,3-1.6,3-1.6L785.4,177.2z"/>
	<g>
		<path class="st12" d="M788.1,169.7c-2.6-0.5-3.8,0.5-4.7,2.8c-1,2.9-0.9,5.1,2.6,5.2C790.8,177.8,792.5,170.6,788.1,169.7z"/>
		<path class="st19" d="M785.2,172.8c0,0-0.5,0.5-1,0.8c0,0,0.1,0.4,0.6,0.4L785.2,172.8z"/>
		<path class="st20" d="M788.4,171.9"/>
		<path class="st20" d="M787.3,171.4"/>
		<g>
			<path class="st14" d="M785.3,172.3c-0.2-0.2-0.4-0.4-0.6-0.4c-0.2,0-0.5,0.1-0.7,0.2c0.2-0.2,0.4-0.4,0.7-0.5
				c0.2,0,0.3,0.1,0.5,0.2C785.3,172,785.3,172.1,785.3,172.3z"/>
		</g>
		<g>
			<path class="st14" d="M788,172.5c-0.2-0.2-0.4-0.4-0.6-0.4c-0.2,0-0.5,0.1-0.7,0.2c0.2-0.2,0.4-0.4,0.7-0.5
				c0.2,0,0.3,0.1,0.5,0.2C787.9,172.2,788,172.4,788,172.5z"/>
		</g>
		<g>
			<path class="st14" d="M784.9,174.6c0.1,0.3,0.1,0.9,0.1,0.9c0.1,0,0.1,0,0.2,0c0.8,0.1,1.2-0.1,1.4-0.3c0.1-0.1,0.2-0.3,0.2-0.4
				c0-0.1,0-0.2,0-0.2c-0.4,0.2-1.2,0.1-1.6,0.1C785.1,174.7,784.9,174.6,784.9,174.6z"/>
			<path class="st8" d="M785.2,174.7l0,0.3c0.7,0.1,1.3,0.1,1.5-0.1c0-0.1,0-0.2,0-0.2C786.4,174.7,785.6,174.7,785.2,174.7z"/>
			<path class="st19" d="M785.2,175.5c0.8,0.1,1.2-0.1,1.4-0.3c-0.3,0-0.6,0-0.9,0C785.5,175.3,785.3,175.4,785.2,175.5z"/>
		</g>
		<path class="st14" d="M790,174.2c0,0-0.7-2.1-0.1-3.5c0,0-4.7-2.9-6.2,1.6c0,0,0.6-4.2,5.2-3.3c4.5,0.8,3,6.5,0.2,7.8
			C788.9,176.7,790.4,175.5,790,174.2z"/>
		<path class="st12" d="M789.4,174.5c0.1-0.4,0.7-0.9,1.5-0.7c0.8,0.2,0.8,1.8-1.3,1.7C789.2,175.6,789.1,175.3,789.4,174.5z"/>
		<path class="st21" d="M786.5,172.1c0.3-0.3,0.9-0.2,1.3,0.1"/>
	</g>
	<g>
		<path class="st22" d="M793.6,180.9c-0.2,0.6-0.5,1.1-0.7,1.7c-0.6,1.6-1.1,2.9-1.5,4.1c-1,3.1-1.2,5-1.4,7.4l-10.5-0.8
			c-0.3-3.9-0.3-6.7-0.2-8.7c0-1.3,0.1-2.2,0.2-2.9c0.2-1.9,0.5-1.9,0.5-1.9s0.6-0.1,1.5-0.1c0.3,0,0.5,0,0.8,0c0.7,0,1.4,0,2.1,0
			c1.6,0,3.2,0.2,4.7,0.4c0.6,0.1,1.2,0.2,1.8,0.3c0.4,0.1,0.8,0.2,1.2,0.2C792.6,180.6,793.1,180.7,793.6,180.9z"/>
		<path class="st12" d="M791,180.3c-1.4,1.5-4.7,4.6-7.4,3.8c-2.5-0.7-1.7-3.2-1.1-4.5c0.7,0,1.4,0,2.1,0c1.6,0,3.2,0.2,4.7,0.4
			C789.8,180.1,790.4,180.1,791,180.3z"/>
		<path class="st12" d="M793.6,180.9c-0.2,0.6-0.5,1.1-0.7,1.7c-0.6,1.6-1.1,2.9-1.5,4.1c-1.3-2,0-4.8,0.7-6.1
			C792.6,180.6,793.1,180.7,793.6,180.9z"/>
		<path class="st18" d="M781.6,179.6c-0.4,1-1.4,3.4-2.2,4.9c0-1.3,0.1-2.2,0.2-2.9c0.2-1.9,0.5-1.9,0.5-1.9
			S780.8,179.7,781.6,179.6z"/>
	</g>
	<path class="st12" d="M793.6,180.9c1.8,0.5,6.9,1,8,0.7c1-0.4,8.7-5.9,8.7-5.9l0.9,1.1c0,0-7.4,7.1-8.4,7.3c-1,0.2-10.6,0-10.6,0
		L793.6,180.9z"/>
	<path class="st13" d="M792.4,183.9l1.3-0.7c0,0-1.9-0.8-2.8,0.8c-0.9,1.6,0.5,2.8,0.5,2.8L792.4,183.9z"/>
	<path class="st12" d="M810.3,176.7c0,0-0.7-1.2-0.5-1.6c0.2-0.4,3.8-1.7,4.7-1.7c0.9,0,1.1,1.9,0.6,2.6
		C814.4,176.7,810.9,177.3,810.3,176.7z"/>
</g>
<g id="_x3C_Group_x3E__168_">
	<path class="st23" d="M788.5,203.8c0,0-7.6,4-8.1,4.1c-0.5,0.1-8.5-5.1-8.5-5.1l-1.8,1.9c0,0,7.3,5.7,9,6.5
		c1.7,0.7,9.7-2.3,9.7-2.3L788.5,203.8z"/>
	<path class="st24" d="M788.5,203.8c0,0-7.6,4-8.1,4.1c-0.5,0.1-8.5-5.1-8.5-5.1l-1.8,1.9c0,0,7.3,5.7,9,6.5
		c1.7,0.7,9.7-2.3,9.7-2.3L788.5,203.8z"/>
	<path class="st25" d="M794.9,201.5c0.9-0.3,1.4-0.8,1.6-1.5c0.1-0.4,0.1-0.9,0.1-1.4c0-0.3-0.1-0.5-0.1-0.8l4.3-3.3
		c-0.5,2.1-1.1,5.9,0.3,7.4C797.7,204,794.9,201.5,794.9,201.5z"/>
	<path class="st13" d="M799.8,196.5c-0.1,2.5-2.3,3.3-3.3,3.5c0.1-0.4,0.1-0.9,0.1-1.4L799.8,196.5z"/>
	<g>
		<path class="st26" d="M799.4,197.7c-1.3,1.2-3.1,1.3-4.5,0.6c-0.9-0.5-1.6-1.3-2-2.3c0-0.1-0.1-0.3-0.1-0.4
			c-0.6-2.6,0-6.8,2.9-7.9c2.1-0.8,4.4,0.2,5.2,2.2c0.2,0.6,0.3,1.2,0.3,1.8C801,194.6,801,196.3,799.4,197.7z"/>
		<path class="st14" d="M796.7,192.4c0,0.2-0.1,0.4-0.3,0.4s-0.3-0.2-0.3-0.4c0-0.2,0.1-0.4,0.3-0.4
			C796.6,192,796.7,192.2,796.7,192.4z"/>
		<path class="st14" d="M794,192.4c0,0.2-0.1,0.4-0.3,0.4c-0.2,0-0.3-0.2-0.3-0.4c0-0.2,0.1-0.4,0.3-0.4
			C793.9,191.9,794,192.1,794,192.4z"/>
		<path class="st27" d="M794.8,192.5c-0.3,0.7-0.7,1.4-1.2,2c0.3,0.2,0.8,0.3,1.2,0.2L794.8,192.5z"/>
		<g>
			<path d="M792.1,191.2c0,0,0.8-0.3,2.2,0.1l0,0c0,0,0.6-0.2,1.3,0.1c0.4,0,1.5,0,2.7,0.4l2.8,0.9l0,0.3l-2.8-0.6
				c-0.2,0.7-0.8,1.7-1.8,1.6c-1.3-0.2-1.2-1.5-1.2-2.1c-0.3-0.3-0.8-0.3-0.9-0.1c-0.1,0.5-0.4,1.7-1.7,1.7
				C791.4,193.6,792.1,191.2,792.1,191.2z"/>
		</g>
		<path class="st26" d="M802.4,194.1c-0.3,0.6-0.9,1.1-1.7,1.3c-0.9,0.3-1.4-0.5-1.2-1.4c0.2-0.8,1-1.9,1.9-1.8
			C802.5,192.4,802.9,193.3,802.4,194.1z"/>
		<g>
			<path class="st14" d="M794.8,195.5c0.3,0.4,0.4,0.8,1,0.9c0.6,0.2,1.1-0.3,1.4-0.7c0.3-0.5,0.1-1.4,0.1-1.4s-0.3,1.4-2,1.3
				C795.1,195.7,794.8,195.5,794.8,195.5z"/>
		</g>
		<path d="M792.4,187.9c0.7,1.7,2.9,1.3,2.9,1.3s4.1-0.2,4.5,1.1s0.6,3,0.6,3s4.9-2.1,1.7-6.3c-1.6-2.1-3.8-0.5-4.7-1
			c-1.5-0.9-0.4-3.7-0.4-3.7S791.7,186.2,792.4,187.9z"/>
	</g>
	<g>
		<path class="st28" d="M790.4,210.1l-0.4,0l-4,0.4l-0.8-2.1l-1.1-3c0,0,4.6-3.4,6.9-3l-0.3,3.8l-0.2,2.8L790.4,210.1z"/>
		<path class="st29" d="M790.5,208.9c-0.1,0.4-0.3,0.8-0.5,1.2l-4,0.4l-0.8-2.1c1.8-2.1,5.3-2.9,5.3-2.9c0.1,0.2,0.1,0.4,0.1,0.6
			C791,207,790.8,207.9,790.5,208.9z"/>
	</g>
	<path class="st28" d="M805.6,216.4c-0.1,0.6-0.2,0.9-0.2,0.9h-18.8c1.4-11.6,4.3-15,4.3-15s1.8-0.6,4.1-1c0.1,0.1,0.4,0.2,1.3,0.3
		c1.3,0.1,3.5-0.4,4.5-0.6c2.3,0.4,3.7,1.9,4.5,3.8C807,208.6,806,214.2,805.6,216.4z"/>
	<path class="st29" d="M805.6,216.4c-4.1,1.2-10.3-0.2-11.4-4.2c-1.6-6.2,6.8-8.2,6.8-8.2c1.8-0.1,3.2,0.1,4.3,0.8
		C807,208.6,806,214.2,805.6,216.4z"/>
	<path class="st23" d="M771.3,204.2l0.6-1.5c0,0-4.7-2.5-5.4-1.8c-0.7,0.7-1.3,3.3,0,3.9c1.3,0.6,2.9,1,3.6,0.7
		C770.7,205.2,771.3,204.2,771.3,204.2z"/>
	<path class="st24" d="M771.3,204.2l0.6-1.5c0,0-4.7-2.5-5.4-1.8c-0.7,0.7-1.3,3.3,0,3.9c1.3,0.6,2.9,1,3.6,0.7
		C770.7,205.2,771.3,204.2,771.3,204.2z"/>
	<path d="M772.7,215.4L772.7,215.4c-0.3,0.1-0.7,0-0.9-0.3l-4.9-11.3c-0.1-0.3,0-0.7,0.4-0.8l0,0c0.3-0.1,0.7,0,0.9,0.3l4.9,11.3
		C773.2,214.9,773.1,215.2,772.7,215.4z"/>
</g>
<g>
	<g>
		<polygon class="st16" points="668.9,248.8 669.9,251.3 686.1,252.5 686.1,248.5 		"/>
	</g>
	<g>
		<g>
			<path class="st30" d="M889.3,264.9c0,1.2-50.9,2.1-113.7,2.1s-113.7-0.9-113.7-2.1c0-1.2,50.9-2.1,113.7-2.1
				S889.3,263.8,889.3,264.9z"/>
		</g>
	</g>
	<g>
		<g>
			<g>
				<path class="st31" d="M805.7,211.3c0.9-3.1,1.8-6.1,2.7-9.2c0.7-3.4,2.9-6,5.6-6.6c0.7-0.2,1.3-0.2,1.9-0.1c0.9,0.1,1.6,1,1.4,2
					c-1.1,5.3-2.2,10.5-3.4,15.8L805.7,211.3z"/>
			</g>
		</g>
	</g>
	<g>
		<g>
			<path class="st32" d="M893.7,227.9c-0.6-2-4.9-7-6-8.5c-0.4-2.3-0.7-4.6-1.1-6.8c-5.8-1.6-12.3-3-19.4-4.1
				c-6.6-1-22.9-2.1-24.6-2.2l-7.1,2.2c-24.7,2.2-76,2.6-85.2,2.7c-28.4,0.4-52.1,2.8-67.3,5.3c-6.4,1-13.2,2.3-15.5,4.4
				c-4.1,3.6-3.6,16.9-3.6,16.9c0,8,2.7,10.8,2.7,10.8l19.6,2.8l0-2.8c0-0.3,0-0.7,0-1c0,0,8.9-19,17.2-20.2
				c10.2-1.4,19.8,5.1,22.3,14.9c0,0,0.6,5.1,0.6,8.3h107.1v-1.9l40.1-3.1l0.2,2.1c0,0,0,0,0,0c4.4-0.5,8.9-1,13.3-1.5
				c1-0.1,1.8-0.7,2.2-1.6c1.7-4.2,3-7.9,4.1-10.8C893.7,232,894.3,230.1,893.7,227.9z"/>
		</g>
	</g>
	<g>
		<g>
			<g>
				<path class="st33" d="M886.6,212.6c-31.4-9.1-23.3-0.1-43.6,1.5c-20.8,0.7-43.7,0.5-81.3,1.5c-27.5,2-104-5.8-96.7,18.2
					c0.3,0.8,1.3,1.2,2,0.8c14.7-8,24.8-13,39-13C824.1,221.6,883.8,226,886.6,212.6z"/>
			</g>
		</g>
	</g>
	<g>
		<g>
			<g>
				<path class="st31" d="M763.9,195.3c0-1.3-1.1-2.2-2.4-2.1c-2.3,0.2-4.3,1.2-6.8,2.3c-8.6,3.7-25.9,12.8-29,16.5
					c10.2-0.2,26-0.8,26-0.8v-6.6c5.9-3.2,9.1-5,12.3-6.7L763.9,195.3z"/>
			</g>
		</g>
	</g>
	<g>
		<g>
			<g>
				<g>
					<path class="st34" d="M726.1,244.4c-1.5-11-11.7-18.7-22.7-17.1c-10.5,1.5-17.9,10.8-17.3,21.2c13.4,0,26.7,0.1,40.1,0.1
						C726.3,247.2,726.3,245.8,726.1,244.4z"/>
				</g>
			</g>
		</g>
	</g>
	<g>
		<g>
			<g>
				<path class="st34" d="M873.3,244.4c-1.5-11-11.7-18.7-22.7-17.1c-10.5,1.5-18,10.9-17.3,21.3c1.1,0.1,2.3,0.1,3.5,0.2
					c12.2,0,36.7-2.2,36.6-3.4C873.4,245.1,873.3,244.8,873.3,244.4z"/>
			</g>
		</g>
	</g>
	<g>
		<circle class="st31" cx="853.3" cy="247.2" r="18.5"/>
		<g>
			<g>
				<g>
					<g>
						<g>
							<path class="st35" d="M853.4,261.5c-4.4,0-8.8-2-11.6-5.9c-4.7-6.4-3.3-15.3,3.1-20c6.4-4.7,15.3-3.3,20,3.1l0,0
								c4.7,6.4,3.3,15.3-3.1,20C859.3,260.6,856.3,261.5,853.4,261.5z M853.4,234c-2.7,0-5.4,0.8-7.8,2.5
								c-5.9,4.3-7.2,12.6-2.9,18.5c4.3,5.9,12.6,7.2,18.5,2.9c5.9-4.3,7.2-12.6,2.9-18.5C861.4,235.9,857.4,234,853.4,234z"/>
						</g>
					</g>
				</g>
			</g>
		</g>
		<g>
			<g>
				<g>
					<g>
						<path class="st35" d="M856.7,234c-0.4,0.4-0.7,0.7-1,1.1c-0.3,0.4-0.5,0.7-0.8,1.1c-0.2,0.4-0.4,0.7-0.5,1.1
							c-0.1,0.4-0.1,0.7-0.1,1.1c0,0.7,0.1,1.4,0.1,2.2c0.1,0.7,0.2,1.4,0.4,2.2h-2.9c0.2-0.7,0.3-1.4,0.4-2.2
							c0.1-0.7,0.1-1.4,0.1-2.2c0-0.4,0-0.7-0.1-1.1c-0.1-0.4-0.3-0.7-0.5-1.1c-0.2-0.4-0.5-0.7-0.8-1.1c-0.3-0.4-0.6-0.7-1-1.1
							H856.7z"/>
					</g>
				</g>
			</g>
		</g>
		<g>
			<g>
				<g>
					<g>
						<path class="st35" d="M843.6,237.8c0.1,0.5,0.3,1,0.4,1.4c0.2,0.4,0.4,0.8,0.6,1.2c0.2,0.4,0.4,0.7,0.7,1
							c0.3,0.3,0.6,0.5,0.9,0.6c0.6,0.4,1.3,0.7,1.9,1c0.7,0.3,1.4,0.5,2.1,0.7l-1.4,2.5c-0.5-0.5-1.1-1-1.7-1.4
							c-0.6-0.4-1.2-0.8-1.8-1.2c-0.3-0.2-0.6-0.4-1-0.4c-0.4-0.1-0.8-0.1-1.2-0.1c-0.4,0-0.9,0-1.3,0.1c-0.5,0.1-0.9,0.2-1.4,0.3
							L843.6,237.8z"/>
					</g>
				</g>
			</g>
		</g>
		<g>
			<g>
				<g>
					<g>
						<path class="st35" d="M840.3,251c0.5,0.2,1,0.3,1.4,0.3c0.5,0.1,0.9,0.1,1.3,0.1c0.4,0,0.8,0,1.2-0.1c0.4-0.1,0.7-0.3,1-0.4
							c0.6-0.4,1.2-0.8,1.8-1.2c0.6-0.4,1.1-0.9,1.7-1.4l1.4,2.5c-0.7,0.2-1.4,0.4-2.1,0.7c-0.7,0.3-1.3,0.6-1.9,1
							c-0.3,0.2-0.6,0.4-0.9,0.6c-0.3,0.3-0.5,0.6-0.7,1c-0.2,0.4-0.4,0.8-0.6,1.2c-0.2,0.4-0.3,0.9-0.4,1.4L840.3,251z"/>
					</g>
				</g>
			</g>
		</g>
		<g>
			<g>
				<g>
					<g>
						<path class="st35" d="M850.1,260.4c0.4-0.4,0.7-0.7,1-1.1c0.3-0.4,0.5-0.7,0.8-1.1c0.2-0.4,0.4-0.7,0.5-1.1
							c0.1-0.4,0.1-0.7,0.1-1.1c0-0.7-0.1-1.4-0.1-2.2c-0.1-0.7-0.2-1.4-0.4-2.2h2.9c-0.2,0.7-0.3,1.4-0.4,2.2
							c-0.1,0.7-0.1,1.4-0.1,2.2c0,0.4,0,0.7,0.1,1.1c0.1,0.4,0.3,0.7,0.5,1.1c0.2,0.4,0.5,0.7,0.8,1.1c0.3,0.4,0.6,0.7,1,1.1H850.1
							z"/>
					</g>
				</g>
			</g>
		</g>
		<g>
			<g>
				<g>
					<g>
						<path class="st35" d="M863.2,256.7c-0.1-0.5-0.3-1-0.4-1.4c-0.2-0.4-0.4-0.8-0.6-1.2c-0.2-0.4-0.4-0.7-0.7-1
							c-0.3-0.3-0.6-0.5-0.9-0.6c-0.6-0.4-1.3-0.7-1.9-1c-0.7-0.3-1.4-0.5-2.1-0.7l1.4-2.5c0.5,0.5,1.1,1,1.7,1.4
							c0.6,0.4,1.2,0.8,1.8,1.2c0.3,0.2,0.6,0.4,1,0.4c0.4,0.1,0.8,0.1,1.2,0.1c0.4,0,0.9,0,1.3-0.1c0.5-0.1,0.9-0.2,1.4-0.3
							L863.2,256.7z"/>
					</g>
				</g>
			</g>
		</g>
		<g>
			<g>
				<g>
					<g>
						<path class="st35" d="M866.4,243.5c-0.5-0.2-1-0.3-1.4-0.3c-0.5-0.1-0.9-0.1-1.3-0.1c-0.4,0-0.8,0-1.2,0.1
							c-0.4,0.1-0.7,0.3-1,0.4c-0.6,0.4-1.2,0.8-1.8,1.2c-0.6,0.4-1.1,0.9-1.7,1.4l-1.4-2.5c0.7-0.2,1.4-0.4,2.1-0.7
							c0.7-0.3,1.3-0.6,1.9-1c0.3-0.2,0.6-0.4,0.9-0.6c0.3-0.3,0.5-0.6,0.7-1c0.2-0.4,0.4-0.8,0.6-1.2c0.2-0.4,0.3-0.9,0.4-1.4
							L866.4,243.5z"/>
					</g>
				</g>
			</g>
		</g>
		<g>
			<g>
				<g>
					<g>
						<g>
							<g>
								<path class="st36" d="M857.4,244.2c1.6,2.3,1.2,5.4-1.1,7.1c-2.3,1.6-5.4,1.2-7.1-1.1c-1.6-2.3-1.2-5.4,1.1-7.1
									C852.6,241.5,855.8,242,857.4,244.2z"/>
							</g>
						</g>
					</g>
				</g>
			</g>
		</g>
	</g>
	<g>
		<circle class="st31" cx="706.3" cy="247.2" r="18.5"/>
		<g>
			<g>
				<g>
					<g>
						<g>
							<path class="st35" d="M706.4,261.5c-4.4,0-8.8-2-11.6-5.9c-4.7-6.4-3.3-15.3,3.1-20c6.4-4.7,15.3-3.3,20,3.1l0,0
								c4.7,6.4,3.3,15.3-3.1,20C712.3,260.6,709.3,261.5,706.4,261.5z M706.4,234c-2.7,0-5.4,0.8-7.8,2.5
								c-5.9,4.3-7.2,12.6-2.9,18.5c4.3,5.9,12.6,7.2,18.5,2.9c5.9-4.3,7.2-12.6,2.9-18.5C714.4,235.9,710.4,234,706.4,234z"/>
						</g>
					</g>
				</g>
			</g>
		</g>
		<g>
			<g>
				<g>
					<g>
						<path class="st35" d="M709.7,234c-0.4,0.4-0.7,0.7-1,1.1c-0.3,0.4-0.5,0.7-0.8,1.1c-0.2,0.4-0.4,0.7-0.5,1.1
							c-0.1,0.4-0.1,0.7-0.1,1.1c0,0.7,0.1,1.4,0.1,2.2c0.1,0.7,0.2,1.4,0.4,2.2h-2.9c0.2-0.7,0.3-1.4,0.4-2.2
							c0.1-0.7,0.1-1.4,0.1-2.2c0-0.4,0-0.7-0.1-1.1c-0.1-0.4-0.3-0.7-0.5-1.1c-0.2-0.4-0.5-0.7-0.8-1.1c-0.3-0.4-0.6-0.7-1-1.1
							H709.7z"/>
					</g>
				</g>
			</g>
		</g>
		<g>
			<g>
				<g>
					<g>
						<path class="st35" d="M696.6,237.8c0.1,0.5,0.3,1,0.4,1.4c0.2,0.4,0.4,0.8,0.6,1.2c0.2,0.4,0.4,0.7,0.7,1
							c0.3,0.3,0.6,0.5,0.9,0.6c0.6,0.4,1.3,0.7,1.9,1c0.7,0.3,1.4,0.5,2.1,0.7l-1.4,2.5c-0.5-0.5-1.1-1-1.7-1.4
							c-0.6-0.4-1.2-0.8-1.8-1.2c-0.3-0.2-0.6-0.4-1-0.4c-0.4-0.1-0.8-0.1-1.2-0.1c-0.4,0-0.9,0-1.3,0.1c-0.5,0.1-0.9,0.2-1.4,0.3
							L696.6,237.8z"/>
					</g>
				</g>
			</g>
		</g>
		<g>
			<g>
				<g>
					<g>
						<path class="st35" d="M693.3,251c0.5,0.2,1,0.3,1.4,0.3c0.5,0.1,0.9,0.1,1.3,0.1c0.4,0,0.8,0,1.2-0.1c0.4-0.1,0.7-0.3,1-0.4
							c0.6-0.4,1.2-0.8,1.8-1.2c0.6-0.4,1.1-0.9,1.7-1.4l1.4,2.5c-0.7,0.2-1.4,0.4-2.1,0.7c-0.7,0.3-1.3,0.6-1.9,1
							c-0.3,0.2-0.6,0.4-0.9,0.6c-0.3,0.3-0.5,0.6-0.7,1c-0.2,0.4-0.4,0.8-0.6,1.2c-0.2,0.4-0.3,0.9-0.4,1.4L693.3,251z"/>
					</g>
				</g>
			</g>
		</g>
		<g>
			<g>
				<g>
					<g>
						<path class="st35" d="M703.1,260.4c0.4-0.4,0.7-0.7,1-1.1c0.3-0.4,0.5-0.7,0.8-1.1c0.2-0.4,0.4-0.7,0.5-1.1
							c0.1-0.4,0.1-0.7,0.1-1.1c0-0.7-0.1-1.4-0.1-2.2c-0.1-0.7-0.2-1.4-0.4-2.2h2.9c-0.2,0.7-0.3,1.4-0.4,2.2
							c-0.1,0.7-0.1,1.4-0.1,2.2c0,0.4,0,0.7,0.1,1.1c0.1,0.4,0.3,0.7,0.5,1.1c0.2,0.4,0.5,0.7,0.8,1.1c0.3,0.4,0.6,0.7,1,1.1H703.1
							z"/>
					</g>
				</g>
			</g>
		</g>
		<g>
			<g>
				<g>
					<g>
						<path class="st35" d="M716.2,256.7c-0.1-0.5-0.3-1-0.4-1.4c-0.2-0.4-0.4-0.8-0.6-1.2c-0.2-0.4-0.4-0.7-0.7-1
							c-0.3-0.3-0.6-0.5-0.9-0.6c-0.6-0.4-1.3-0.7-1.9-1c-0.7-0.3-1.4-0.5-2.1-0.7l1.4-2.5c0.5,0.5,1.1,1,1.7,1.4
							c0.6,0.4,1.2,0.8,1.8,1.2c0.3,0.2,0.6,0.4,1,0.4c0.4,0.1,0.8,0.1,1.2,0.1c0.4,0,0.9,0,1.3-0.1c0.5-0.1,0.9-0.2,1.4-0.3
							L716.2,256.7z"/>
					</g>
				</g>
			</g>
		</g>
		<g>
			<g>
				<g>
					<g>
						<path class="st35" d="M719.4,243.5c-0.5-0.2-1-0.3-1.4-0.3c-0.5-0.1-0.9-0.1-1.3-0.1c-0.4,0-0.8,0-1.2,0.1
							c-0.4,0.1-0.7,0.3-1,0.4c-0.6,0.4-1.2,0.8-1.8,1.2c-0.6,0.4-1.1,0.9-1.7,1.4l-1.4-2.5c0.7-0.2,1.4-0.4,2.1-0.7
							c0.7-0.3,1.3-0.6,1.9-1c0.3-0.2,0.6-0.4,0.9-0.6c0.3-0.3,0.5-0.6,0.7-1c0.2-0.4,0.4-0.8,0.6-1.2c0.2-0.4,0.3-0.9,0.4-1.4
							L719.4,243.5z"/>
					</g>
				</g>
			</g>
		</g>
		<g>
			<g>
				<g>
					<g>
						<g>
							<g>
								<path class="st36" d="M710.4,244.2c1.6,2.3,1.2,5.4-1.1,7.1c-2.3,1.6-5.4,1.2-7.1-1.1c-1.6-2.3-1.2-5.4,1.1-7.1
									C705.6,241.5,708.8,242,710.4,244.2z"/>
							</g>
						</g>
					</g>
				</g>
			</g>
		</g>
	</g>
	<g>
		<g>
			<g>
				<path class="st33" d="M729.6,248.3l2.6-5.4c0,0,96.9,1,101.1-4.8c0,0-2.5,4.7-2.5,10.1L729.6,248.3z"/>
			</g>
		</g>
	</g>
	<g>
		<g>
			<g>
				<path class="st37" d="M818.9,246.7h-64.7c-2.5,0-4.5-2-4.5-4.5l0.6-31l1,0l-0.6,31c0,1.9,1.6,3.5,3.5,3.5h64.7
					c1.7,0,3.2-1.2,3.4-2.9l5.5-33.9l1,0.2l-5.5,33.9C822.9,245.2,821,246.7,818.9,246.7z"/>
			</g>
		</g>
	</g>
	<g>
		<g>
			<g>
				<path class="st38" d="M682.6,221.3l-0.1,3.5c0,0.4-0.3,0.8-0.7,0.9l-12.3,2.6h-2.9c-0.8,0-0.3-4.3,14.9-7.8
					C682.1,220.3,682.6,220.7,682.6,221.3z"/>
			</g>
		</g>
	</g>
	<g>
		<g>
			<g>
				<g>
					<path class="st38" d="M888.1,219.9c-1.4-0.1-4.6-0.1-6.5,2c-0.3,0.3-0.7,0.8-0.9,1.6c-0.6,2.6,2.4,4,2.6,4.1c3.7,0,7,0,10.4,0
						C893,225.8,889.6,221.8,888.1,219.9z"/>
				</g>
			</g>
		</g>
	</g>
	<g>
		<g>
			<g>
				<path class="st39" d="M759.7,193.6c-1.6,0.4-3.1,1.1-4.9,1.9c-8.6,3.7-27,12.9-30.2,16.6c1.3,0,5.5-0.3,5.5-0.3
					c28.8-14.1,24.3-12.5,30.2-15.2C762.4,195.6,760.7,194.2,759.7,193.6z"/>
			</g>
		</g>
	</g>
	<g>
		<g>
			<g>
				<g>
					<path class="st40" d="M736.6,209c1.4,0.1,2.5,0,3.4-0.2c0.2-0.1,0.5-0.2,0.7-0.5c0.3-0.3,0.3-0.7,0.3-1.8
						c0-1.1-0.1-1.7-0.2-1.8c-0.6-1-2.4-1.2-3.5-1c-2.5,0.4-4.8,2.7-4.3,4C733.3,208.6,735.3,208.8,736.6,209z"/>
				</g>
			</g>
		</g>
	</g>
	<g>
		<g>
			<g>
				<path class="st39" d="M751.7,211.2v-6.6l-11.6,7C746.2,211.5,751.7,211.2,751.7,211.2z"/>
			</g>
		</g>
	</g>
	<g>
		<path class="st31" d="M890.6,239.6c0,0-5.4-0.1-5.4,2.4c0,2.5,0,2.5,0,2.5l3.5,0L890.6,239.6z"/>
	</g>
	<g>
		<path class="st31" d="M676,237.1l-4.4,1.8c-1.1,0.5-2,1.2-2.7,2.2l-2.4,3.3c-0.3,0.4,0,1.1,0.6,1.1h5.6c0.2,0,0.4-0.1,0.5-0.2
			l3.5-4c0.1-0.1,0.2-0.3,0.2-0.4v-3.1C676.9,237.3,676.4,236.9,676,237.1z"/>
	</g>
	<g>
		<rect x="726.3" y="250.6" class="st16" width="107" height="1.9"/>
	</g>
	<g>
		<polygon class="st16" points="873.6,247.6 885.8,246.2 884.7,247.3 873.6,248.8 		"/>
	</g>
	<g>
		<path class="st41" d="M887.7,219.4c-0.4-2.3-0.7-4.6-1.1-6.8c-0.1,0-0.2-0.1-0.4-0.1l-0.7,2.2l1,5.2l1.5,0
			C887.9,219.7,887.8,219.5,887.7,219.4z"/>
		<path class="st31" d="M871.4,202.8c3.1,2.5-1.8,2.9-1.6,4.3c0.2,1.5,0.8,2.6,0.8,2.6l-51-0.3l1.3-6.1
			C821,203.5,868.3,200.3,871.4,202.8z"/>
	</g>
	<g>
		<path class="st42" d="M857.4,190.3h-26.3c-2,0-3.5-1.6-3.5-3.5v-5.1c0-2,1.6-3.5,3.5-3.5h26.3c2,0,3.5,1.6,3.5,3.5v5.1
			C861,188.7,859.4,190.3,857.4,190.3z"/>
		<path class="st43" d="M861.8,185h-1.6c-0.3,0-0.6-0.3-0.6-0.6l0,0c0-0.3,0.3-0.6,0.6-0.6h1.6c0.3,0,0.6,0.3,0.6,0.6l0,0
			C862.4,184.7,862.1,185,861.8,185z"/>
		<path class="st44" d="M859.9,203.5h-31.2c-2,0-3.5-1.6-3.5-3.5v-6c0-2,1.6-3.5,3.5-3.5h31.2c2,0,3.5,1.6,3.5,3.5v6
			C863.4,201.9,861.8,203.5,859.9,203.5z"/>
		<circle class="st45" cx="826.8" cy="181.8" r="0.8"/>
		<circle class="st45" cx="826.8" cy="187.8" r="0.8"/>
		<rect x="827.6" y="183.7" class="st45" width="33.2" height="1.2"/>
		<rect x="825.2" y="196.5" class="st46" width="38.3" height="1.2"/>
		<path class="st8" d="M847.1,197.7h-5.5c-0.3,0-0.6-0.3-0.6-0.6l0,0c0-0.3,0.3-0.6,0.6-0.6h5.5c0.3,0,0.6,0.3,0.6,0.6l0,0
			C847.7,197.5,847.4,197.7,847.1,197.7z"/>
		<rect x="855.9" y="196.1" class="st8" width="2.1" height="2.1"/>
		<rect x="830.1" y="196.1" class="st8" width="2.1" height="2.1"/>
	</g>
</g>
<g>
	<path class="st26" d="M803.5,208.9c0,0-7,7.2-8.5,8.2c-1.6,1-10.7-6.8-10.7-6.8s-4.9-1.1-5-1.1c-0.1,0,2.4-2.3,3.6-2.2
		c1.2,0,3.1,1.9,3.1,1.9c0.1,0,6.7,5.2,7.8,4.5c1.1-0.6,4.5-6,4.5-6L803.5,208.9z"/>
	<path class="st28" d="M804.1,202.1c3.3,2.3,1,7-3,10.9l-5.5-3.4C795.6,209.6,800.1,199.3,804.1,202.1z"/>
</g>
<g id="Yacht">
	<path id="Front_sail" class="st47" d="M289.6,167.6c0.1-8,1.1-14.8,2.2-20.2c-2.3,7.1-4.6,14.6-6.9,22.5c-2.2,7.8-4.2,15.4-6,22.7
		c4.2-0.9,8.4-1.8,12.6-2.6C290.5,184.2,289.5,176.5,289.6,167.6z"/>
	<path id="Back_sail_2_" class="st8" d="M295.2,188.5l13.8,0.2c0-0.3,0-0.7,0-1c-5.3-18.2-10.7-36.5-16-54.7l2.2,54.6"/>
	<path class="st8" d="M316.2,193.1c-7.2,0.1-14.4,0.1-21.5,0.2l0-0.4H294l0,0.4c-5.4,0.1-10.7,0.1-16.1,0.2c0.8,1.2,1.7,2.4,2.5,3.6
		h37.2C317.2,195.8,316.7,194.5,316.2,193.1z"/>
	<polygon class="st46" points="294.4,188.5 295.1,188.5 295.1,187.6 294.4,187.6 292.2,133 291.7,133.1 294.1,193.4 294.6,193.4 	
		"/>
	<line id="Back_sail_3_" class="st8" x1="295" y1="187.6" x2="295.2" y2="187.6"/>
</g>
<g id="Yacht_1_">
	<path id="Front_sail_1_" class="st28" d="M392.6,159.2c0.1-6,0.8-11.2,1.6-15.3c-1.7,5.4-3.4,11.1-5.1,17
		c-1.6,5.9-3.1,11.7-4.4,17.2c3.1-0.7,6.2-1.3,9.2-2C393.2,171.8,392.5,166,392.6,159.2z"/>
	<path id="Back_sail_4_" class="st8" d="M396.7,175.1l10.2,0.2c0-0.3,0-0.5,0-0.8c-3.9-13.8-7.9-27.6-11.8-41.4l1.6,41.4"/>
	<path class="st8" d="M412.1,178.5c-5.3,0.1-10.6,0.1-15.9,0.2l0-0.3h-0.4l0,0.3c-3.9,0-7.9,0.1-11.8,0.1c0.6,0.9,1.2,1.8,1.9,2.7
		h27.4C412.9,180.5,412.5,179.5,412.1,178.5z"/>
	<polygon class="st46" points="396.1,175 396.6,175.1 396.6,174.4 396.1,174.4 394.5,133 394.1,133.1 395.8,178.7 396.2,178.7 	"/>
	<line id="Back_sail_1_" class="st8" x1="396.5" y1="174.4" x2="396.6" y2="174.4"/>
</g>
</svg>
