<?xml version="1.0" encoding="utf-8"?>
<!-- Generator: Adobe Illustrator 22.0.1, SVG Export Plug-In . SVG Version: 6.00 Build 0)  -->
<svg version="1.1" id="Layer_1" xmlns="http://www.w3.org/2000/svg" xmlns:xlink="http://www.w3.org/1999/xlink" x="0px" y="0px"
	 viewBox="0 0 1088 298" style="enable-background:new 0 0 1088 298;" xml:space="preserve">
<style type="text/css">
	.st0{fill:#EEF5FE;}
	.st1{fill:#FFFAFC;}
	.st2{fill:#C6D2F2;}
	.st3{fill:#D5E6FE;}
	.st4{fill:none;}
	.st5{fill:#ADB9D8;}
	.st6{fill:#FFFFFF;}
	.st7{fill:#919ECC;}
	.st8{fill:#C4D1FF;}
	.st9{fill:#414152;}
	.st10{fill:#58595B;}
	.st11{fill:#ABCDFE;}
	.st12{fill:#70748D;}
	.st13{fill:#F8FAFF;}
	.st14{fill:#939DBF;}
	.st15{fill:#C5D2FF;}
	.st16{fill:#7686BF;}
	.st17{fill:#4F5A80;}
	.st18{fill:#88A3FF;}
	.st19{fill:#414042;}
	.st20{fill:#4F5AFF;}
	.st21{fill:#9EB4FF;}
	.st22{fill:none;stroke:#B4C7FF;stroke-width:2;stroke-linecap:round;stroke-linejoin:bevel;stroke-miterlimit:10;}
	.st23{fill:#009F70;}
	.st24{fill:#A88171;}
	.st25{fill:#E0AC97;}
	.st26{fill:#DF3200;}
	.st27{fill:#0E0956;}
	.st28{fill:#F36D83;}
	.st29{display:none;fill:#C4D1FF;}
	.st30{fill:#FF735D;}
	.st31{opacity:0.3;enable-background:new    ;}
	.st32{fill:#C5DCFE;}
	.st33{fill:#FAFAFA;}
	.st34{fill:#E2EDFE;}
	.st35{fill:#6309FF;}
	.st36{fill:#13F2B8;}
	.st37{fill:#F2511F;}
	.st38{fill:none;stroke:#697278;stroke-width:0.35;stroke-miterlimit:10;}
	.st39{fill:none;stroke:#9AA2AE;stroke-width:0.4;stroke-miterlimit:10;}
	.st40{fill:#FFFFFF;stroke:#697278;stroke-width:0.35;stroke-miterlimit:10;}
</style>
<rect x="0.3" y="0.5" class="st0" width="1088" height="298"/>
<path class="st1" d="M585.2,118.8C614,138,613,149.5,613,149.5s26.6-38.9,41.3-30.7s19.7,13.3,19.7,13.3s0.7-47.9,31.8-56
	C737,68,771.7,106,771.7,106S769,88.2,784,84s35.5,9,35.5,9s0.1-27,22.8-30c22.7-3,32.9,27.5,32.9,27.5s9.8-24.9,42.3-30.2
	s62.7,23,62.7,23s-0.7-27.1,17.8-29.6c10.2-1.4,25.8,11.5,25.8,11.5S1020,17,1052,17c98,0,77.8,160.7,77.8,160.7L502,167.6
	C502,167.6,556.4,99.6,585.2,118.8z"/>
<path class="st2" d="M797.1,229.9l314.7-0.7c0,0,17.3-2.9,18-16.5s-334,5.5-334,5.5L797.1,229.9z"/>
<g>
	<polygon class="st3" points="880.1,115.3 880.1,104.5 887.2,104.5 887.2,89.6 891.1,89.6 891.1,73.9 894.7,73.9 894.7,89.6 
		898.6,89.6 898.6,104.5 905.6,104.5 905.6,115.3 915.1,115.3 915.1,192.4 870.7,192.4 870.7,115.3 	"/>
	<polygon class="st3" points="962.7,136.1 962.7,144.2 979.5,144.2 979.5,114.8 1029.2,92.6 1029.2,192.4 979.5,192.4 924.1,192.4 
		924.1,144.2 924.1,136.1 	"/>
	<g>
		<polygon class="st3" points="832.8,119.8 832.8,113.1 846.6,113.1 846.6,119.8 846.6,143.4 870.7,143.4 870.7,192.4 846.6,192.4 
			818.8,192.4 791.1,192.4 791.1,104.5 818.8,119.8 		"/>
		<polygon class="st3" points="724.6,119.8 724.6,70.2 724.6,53.7 753.2,53.7 753.2,70.2 771.7,70.2 771.7,192.4 724.6,192.4 
			724.6,192.4 694.3,192.4 694.3,119.8 		"/>
		<rect x="756.4" y="162.6" class="st3" width="39.8" height="29.8"/>
	</g>
	<line class="st4" x1="915.1" y1="192.4" x2="870.7" y2="192.4"/>
	<polyline class="st3" points="1029.2,192.4 979.5,192.4 924.1,192.4 	"/>
	<polygon class="st3" points="675,103.1 675,86.8 689.3,86.8 689.3,103.1 689.3,192.4 649.7,192.4 649.7,103.1 	"/>
	<polygon class="st3" points="642.5,132.6 628.2,132.6 628.2,113.4 592.1,90.5 592.1,193 642.5,193 	"/>
	<polyline class="st3" points="585.2,193.2 585.2,119.1 575.8,119.1 575.8,95.7 563.4,95.7 563.4,75.6 558.2,75.6 558.2,53.7 
		553.8,53.7 553.8,75.8 549.7,75.8 549.7,96.1 539.6,96.1 539.6,120 531.7,120 531.7,193.2 585.2,193.2 	"/>
	<path class="st3" d="M413.4,117.1V105c0-5.2,6.4-9.5,14.4-9.8V88h4v7.3c7.1,0.9,12.6,4.9,12.6,9.7v10.3h10.4v79.3h-54.7v-77.4h13.3
		V117.1z"/>
	<g>
		<polyline class="st3" points="524.5,192.8 524.5,139.9 506.4,139.9 506.4,106.8 494.4,99.2 494.4,86.6 472.4,86.6 472.4,126.5 
			442.8,126.5 442.8,192.8 524.5,192.8 524.5,192.8 524.5,192.8 		"/>
		<rect x="495.7" y="117.6" class="st3" width="1.9" height="49.5"/>
		<rect x="490.6" y="110.6" class="st3" width="1.9" height="56.5"/>
		<rect x="480.3" y="110.6" class="st3" width="1.9" height="56.5"/>
		<rect x="445.9" y="131.8" class="st3" width="22.2" height="2"/>
		<rect x="445.9" y="135.9" class="st3" width="22.2" height="2"/>
		<rect x="445.9" y="152.4" class="st3" width="22.2" height="2"/>
	</g>
	<rect x="400.2" y="182.9" class="st3" width="687.7" height="19.3"/>
	<g>
		<path class="st3" d="M1035.4,168.5v-40.9h0.2c-0.1-0.5-0.2-0.9-0.2-1.3c0-3.8,3.5-6.9,8.1-7.3v-7.2h2v7.2c4.6,0.4,8.1,3.5,8.1,7.3
			c0,0.5-0.1,0.9-0.2,1.3h0.2v8h21.5v20h11.6v32.9h-37.9h-13.5h-26.1v-20.1L1035.4,168.5L1035.4,168.5z"/>
		<rect x="1066.8" y="146.1" class="st3" width="4" height="5.9"/>
	</g>
</g>
<g>
	<polygon class="st3" points="192.5,113.6 192.5,102.8 199.6,102.8 199.6,87.8 203.5,87.8 203.5,72.2 207.1,72.2 207.1,87.8 
		211,87.8 211,102.8 218,102.8 218,113.6 227.5,113.6 227.5,190.6 183.1,190.6 183.1,113.6 	"/>
	<g>
		<polygon class="st3" points="145.2,118 145.2,111.3 159,111.3 159,118 159,141.6 183.1,141.6 183.1,190.6 159,190.6 131.2,190.6 
			103.5,190.6 103.5,102.8 131.2,118 		"/>
		<polygon class="st3" points="37,118 37,68.5 37,52 65.6,52 65.6,68.5 84.1,68.5 84.1,190.6 37,190.6 37,190.6 6.7,190.6 6.7,118 
					"/>
		<rect x="68.8" y="160.8" class="st3" width="39.8" height="29.8"/>
	</g>
	<line class="st4" x1="227.5" y1="190.6" x2="183.1" y2="190.6"/>
	<polyline class="st3" points="341.6,190.6 291.9,190.6 236.5,190.6 	"/>
	<rect x="0.3" y="181.1" class="st3" width="400.1" height="19.3"/>
	<g>
		<rect x="379.2" y="144.3" class="st3" width="4" height="5.9"/>
	</g>
</g>
<g>
	<g>
		<rect x="753.2" y="78.4" class="st0" width="12.7" height="2.2"/>
		<rect x="729.5" y="78.4" class="st0" width="20" height="2.2"/>
		<rect x="729.5" y="129.1" class="st0" width="12.7" height="2.2"/>
		<rect x="729.5" y="124" class="st0" width="12.7" height="2.2"/>
		<rect x="729.5" y="119" class="st0" width="12.7" height="2.2"/>
		<rect x="699.5" y="124" class="st0" width="12.7" height="2.2"/>
		<rect x="753.2" y="82.2" class="st0" width="12.7" height="2.2"/>
		<rect x="729.5" y="82.2" class="st0" width="20" height="2.2"/>
		<rect x="753.2" y="85.8" class="st0" width="12.7" height="2.2"/>
		<rect x="753.2" y="89.3" class="st0" width="12.7" height="2.2"/>
		<rect x="729.5" y="89.3" class="st0" width="20" height="2.2"/>
		<rect x="729.5" y="85.8" class="st0" width="20" height="2.2"/>
		<rect x="907.6" y="119.8" class="st0" width="2" height="42.4"/>
		<rect x="902.4" y="119.8" class="st0" width="2" height="42.4"/>
		<rect x="880.1" y="119.8" class="st0" width="2" height="42.4"/>
		<rect x="875.2" y="119.8" class="st0" width="2" height="42.4"/>
		<rect x="897.6" y="111.1" class="st0" width="2" height="51"/>
		<rect x="893.7" y="111.1" class="st0" width="2" height="51"/>
		<rect x="994.8" y="113.1" class="st0" width="29" height="3.3"/>
		<rect x="994.8" y="119.8" class="st0" width="29" height="3.3"/>
		<rect x="983.5" y="126.5" class="st0" width="29" height="3.3"/>
		<rect x="928.9" y="141.7" class="st0" width="29" height="3.3"/>
		<rect x="928.9" y="149.5" class="st0" width="29" height="3.3"/>
		<rect x="796.2" y="114.8" class="st0" width="2.8" height="53"/>
		<rect x="802.1" y="121.7" class="st0" width="2.8" height="32.8"/>
		<rect x="812.5" y="131.3" class="st0" width="21.5" height="1.1"/>
		<rect x="812.5" y="128" class="st0" width="21.5" height="1.1"/>
		<rect x="812.5" y="134.6" class="st0" width="21.5" height="1.1"/>
		<rect x="812.5" y="149.7" class="st0" width="21.5" height="1.1"/>
		<rect x="812.5" y="152.7" class="st0" width="21.5" height="1.1"/>
	</g>
	<rect x="554" y="135.2" class="st0" width="1.9" height="41.1"/>
	<rect x="683.5" y="107.4" class="st0" width="1.9" height="41.1"/>
	<rect x="678.9" y="107.4" class="st0" width="1.9" height="41.1"/>
	<rect x="654.3" y="125" class="st0" width="1.9" height="41.1"/>
	<rect x="486.2" y="119.5" class="st0" width="1.9" height="41.1"/>
	<rect x="596.8" y="129.2" class="st0" width="22.2" height="2"/>
	<rect x="596.8" y="124.2" class="st0" width="22.2" height="2"/>
	<rect x="617.3" y="139.8" class="st0" width="22.2" height="2"/>
	<rect x="617.3" y="145.6" class="st0" width="22.2" height="2"/>
	<rect x="373.3" y="105.7" class="st0" width="2.6" height="9.3"/>
	<rect x="366.3" y="105.7" class="st0" width="2.6" height="9.3"/>
</g>
<path class="st5" d="M9.5,226.7l290.5-8.2l256-3.1c0,0-120.1,20.3-172.9,23.7C330.2,242.5,9.5,226.7,9.5,226.7z"/>
<polygon class="st6" points="154.8,94.1 200.3,103.3 201.7,106.1 158.2,100.5 "/>
<path class="st7" d="M154.4,98.2l47.3,7.9l1.1,2l-45.6-4.8C157.3,103.3,155.7,99.8,154.4,98.2z"/>
<path class="st8" d="M146.5,75.1l20.2,43l-23.4,9.8L133,58.8l2.9-1.7C137.3,56.2,145.7,73.3,146.5,75.1z"/>
<polygon class="st6" points="162.6,119.8 135.9,57.1 138.2,57.1 166.7,118.1 "/>
<g id="front_wheel">
	<path class="st9" d="M389.7,225.9c0,8-4.3,12.9-6.6,13.2c-2.3,0.4-5.2,0.4-5.2,0.4s-6.7-11.1-6.7-15.7c0-4.2-0.4-13.3,9.6-13.3
		C386.5,210.5,389.7,217.9,389.7,225.9z"/>
	<path class="st10" d="M385.8,226.4c0,8.1-3.7,13.9-8.3,13.1c-4.4-0.8-7.9-7.7-7.9-15.5s3.5-13.6,7.9-13.1
		C382.1,211.3,385.8,218.3,385.8,226.4z"/>
	<path class="st7" d="M381.6,225.4c0,4.3-2.2,7.4-4.8,6.9c-2.6-0.4-4.7-4.2-4.7-8.3c0-4.2,2.1-7.3,4.7-6.9
		C379.5,217.4,381.6,221.1,381.6,225.4z"/>
</g>
<path class="st7" d="M376.1,197.8v23.1c0,1.8,1,3.4,2.3,3.6l0,0c0.9,0.1,1.6-0.8,1.6-2.1v-24.2L376.1,197.8z"/>
<polygon class="st8" points="352.5,188.5 352.5,199.1 397.4,199.3 399.8,187 "/>
<path class="st6" d="M70.9,107.4l78.7-12.8c0,0,2,6.2-7.2,7.3c-8.1,1-74.9,9.3-74.9,9.3L70.9,107.4z"/>
<g>
	<path class="st8" d="M157.4,121.7l42.8-12.4c0,0,63.1-19,130.6,10.3c91.3,39.7,133.2-10.2,133.2-10.2s37.6,5.5,47.5,9.1
		c9.9,3.7,15.4,23.8-26.6,43.8c-43.7,20.8-74.8,27.8-143.6,26.3c-50.9-1.1-141.1-0.7-150.9-0.9s-40.1-7.7-54.9-38.8
		C135.4,149,141.5,130.6,157.4,121.7z"/>
	<path class="st6" d="M391.9,144.9c-48.7,2-193.3,12.3-226.7,8.8c-12.5-1.3-7.9-32-7.9-32c14.1-8,169.9-48,188.6-49.3
		c21.5-1.5,42.4,0.8,53.6,9.9c8.6,7,16,13.4,16,13.4s104.9,11,102.1,32.2C517.5,129.3,469.8,141.6,391.9,144.9z"/>
</g>
<path class="st11" d="M323.4,106.7c-11.7,2.4-21,3.9-21,3.9l2.1-10.7c1.2-6.2,5.3-11.1,10.2-12.2c0,0,4.6-1,11.3-2.3"/>
<path class="st12" d="M323.4,108.1"/>
<path class="st12" d="M330.2,106.7"/>
<path class="st11" d="M359.2,81.1c6.9-1.3,34.3,0,34.3,0l17.1,15.8c0,0-41.9,2.4-46.2,3.3"/>
<path class="st7" d="M495.5,156.7c2.4-1.5-50.7,16.1-111.7,17.3c-82.2,1.6-227.9,0.5-227.9,0.5s16.3,11.6,29.2,12.9
	c12.2,1.3,130.7,0.7,149.6,1C360.1,188.9,433,194.2,495.5,156.7z"/>
<path class="st13" d="M155.9,119.3c0,0-19-1.1-29.1,16.5c-1.8,3.2-1.8,9,0,11.9c4.1,6.6,13,16.5,28.7,14.7L155.9,119.3z"/>
<path class="st14" d="M144.8,145.9l-19.2-1.1c0,0,6.1,19.2,30,17.5C155.6,162.4,146.2,157.5,144.8,145.9z"/>
<path class="st15" d="M139,141.2c-0.1,11.5,7.2,21,16.6,21.2c9.7,0.2,17.9-9.5,18-21.8s-8-21.8-17.7-21.2
	C146.5,119.9,139.1,129.7,139,141.2z"/>
<path class="st16" d="M142.3,141c-0.1,9.8,5.9,18.5,12.6,18.6c6.9,0.2,11.8-8.8,11.9-19.2c0.1-10.4-6.1-18-13-17.5
	C147.1,123.4,142.3,131.2,142.3,141z"/>
<g>
	<path class="st17" d="M165.2,141.9c0.1-10.3-6.5-18.3-14.5-18.3c1.6-0.8,3.3-1.3,5.1-1.4c8.4-0.4,15.4,7.8,15.3,18.4
		c-0.1,10.6-7.1,19.1-15.5,18.9c-0.2,0-0.4,0-0.5,0C160.9,157.1,165.1,150.1,165.2,141.9z"/>
	<path class="st17" d="M141.2,141.2c0-7.3,3.5-13.8,8.4-16.9c6.4,1.8,11.1,8.9,11.1,17.7c0,7.6-3.7,14.1-8.8,17
		C145.6,156.8,141.1,149.6,141.2,141.2z"/>
</g>
<path class="st14" d="M147.5,135.2L147.5,135.2c0.1,0,0.1,0,0.2,0c1,0,5.5,0.2,8.1,3.3c1.3,1.5,1.3,4.1,0.1,5.8
	c-1.4,1.8-4,3.9-8.4,3.9l0,0h-0.1c-2.8,0-5-2.9-5-6.4C142.4,138.2,144.7,135.2,147.5,135.2z"/>
<path class="st7" d="M149.3,98.3l-67.2,8.8c0,0-13-0.2-15.1,5.1l71.6-6.4C138.6,105.8,147.1,105.4,149.3,98.3z"/>
<g>
	<path class="st17" d="M211.1,125.8c0.5-4.3,1.9-7.8,3.5-8.8c-0.1-0.1-0.2-0.1-0.4-0.1c-2-0.4-4.1,3.7-4.7,9.1
		c-0.6,5.4,0.5,10.1,2.5,10.5c0.4,0.1,0.8,0,1.2-0.2C211.4,135.4,210.5,130.9,211.1,125.8z"/>
	<path class="st18" d="M216.8,127.5c0.6-5.1-0.4-9.6-2.2-10.5c-1.6,1-3,4.5-3.5,8.8c-0.6,5.1,0.4,9.5,2.1,10.4
		C214.8,135.3,216.3,131.8,216.8,127.5z"/>
</g>
<g>
	<path class="st17" d="M230.7,124c0.6-4.7,2.2-8.4,4-9.5c-0.1-0.1-0.3-0.1-0.4-0.1c-2.3-0.4-4.6,4-5.3,9.8
		c-0.7,5.8,0.6,10.8,2.8,11.3c0.4,0.1,0.9,0,1.3-0.2C231.1,134.3,230,129.5,230.7,124z"/>
	<path class="st18" d="M237.1,125.7c0.7-5.5-0.4-10.4-2.5-11.2c-1.8,1.1-3.4,4.9-4,9.5c-0.6,5.4,0.4,10.2,2.4,11.2
		C234.9,134.2,236.6,130.5,237.1,125.7z"/>
</g>
<g>
	<path class="st17" d="M190.4,128.5c0.4-3.9,1.6-7,3-7.9c-0.1,0-0.2-0.1-0.3-0.1c-1.7-0.3-3.5,3.3-4,8.1s0.4,9,2.1,9.4
		c0.3,0.1,0.7,0,1-0.2C190.8,137,190,133,190.4,128.5z"/>
	<path class="st18" d="M195.3,130c0.5-4.6-0.3-8.6-1.8-9.4c-1.3,0.9-2.6,4-3,7.9c-0.5,4.5,0.3,8.5,1.8,9.3
		C193.6,137,194.9,133.9,195.3,130z"/>
</g>
<g id="back_wheel_1_">
	<path class="st9" d="M189.8,212.6c0,6.5-2.1,10.7-4.7,10.9c-1.5,0.1-4.6,0-4.6,0l-0.1-23.2c0,0,3.2-0.3,4.7,0
		C187.7,200.9,189.8,206.1,189.8,212.6z"/>
	<path class="st10" d="M185.2,212.6c0,6.5-2.1,11.4-4.7,10.9c-2.5-0.5-4.5-5.9-4.5-12.2s2-11.2,4.5-11
		C183.1,200.6,185.2,206.1,185.2,212.6z"/>
	<path class="st7" d="M182.8,212.4c0,3.7-1.2,6.5-2.7,6.3c-1.4-0.2-2.6-3.4-2.6-7s1.2-6.4,2.6-6.3
		C181.6,205.6,182.8,208.7,182.8,212.4z"/>
</g>
<g id="back_wheel">
	<path class="st9" d="M177.5,213.3c0,6.5-2.1,10.7-4.7,10.9c-1.5,0.1-4.6,0-4.6,0l-0.1-23.2c0,0,3.2-0.3,4.7,0
		C175.3,201.6,177.5,206.8,177.5,213.3z"/>
	<path class="st10" d="M172.9,213.3c0,6.5-2.1,11.4-4.7,10.9c-2.5-0.5-4.5-5.9-4.5-12.2s2-11.2,4.5-11
		C170.8,201.3,172.9,206.8,172.9,213.3z"/>
	<path class="st7" d="M170.5,213.1c0,3.7-1.2,6.5-2.7,6.3c-1.4-0.2-2.6-3.4-2.6-7s1.2-6.4,2.6-6.3
		C169.3,206.2,170.5,209.4,170.5,213.1z"/>
</g>
<path class="st6" d="M219.7,179.5c10.1,0.2,12.4-9.1,2.7-11.2c-0.2,0-0.4-0.1-0.5-0.1c-17.2-3.4-231.1,4.6-231.1,4.6l4.8,2.6
	L219.7,179.5z"/>
<line class="st4" x1="191.6" y1="196.5" x2="189.2" y2="196.3"/>
<line class="st4" x1="189.2" y1="199.9" x2="189.2" y2="197.1"/>
<path class="st7" d="M181.5,175.4c0,0-6.4,30.5-5,31.2s11.3-31.2,11.3-31.2H181.5z"/>
<path class="st16" d="M219.2,169.3l-224.3,6.1l2.4,1.4l219.6,4.7c0,0,11.4-1.2,12.3-5.4C229.2,176.2,230.5,170,219.2,169.3z"/>
<g>
	<path class="st17" d="M288.9,185.9c0,0-12.9-21.9-10.9-57.2c0.6-11.3,3.6-21.3,8.3-33.4l-18.5,4c-4.7,1-9.4,9.5-11.2,15.7
		c-6.3,20.5-7,45.6,8.8,70.4L288.9,185.9z"/>
	<path class="st16" d="M268,108.1l14.8-3.2c0,0,1.3-4.1,3.5-9.6l-18.6,4c-4.7,1-9.4,9.5-11.3,15.7c-6.3,20.5-7,45.7,8.8,70.5h6
		C271.3,185.5,245.3,144.9,268,108.1z"/>
</g>
<g id="stair">
	<path class="st7" d="M288.7,187.3c0,0-27.1,24.3-40.8,51c0,0,22.9,4.3,33.3-20.5C287.8,202,288.7,187.3,288.7,187.3z"/>
	<polygon class="st8" points="288.9,186.7 265.2,186.5 221.6,235.1 247.9,238.3 	"/>
	<polygon class="st7" points="251,229.6 234.9,228.5 235.3,223.8 254.9,224.8 	"/>
	<polygon class="st7" points="256.8,222.6 240.6,221.8 241,216.9 260.6,217.8 	"/>
	<polygon class="st7" points="262.4,215.8 246.2,215.3 246.6,210.6 266.3,210.9 	"/>
	<polygon class="st7" points="268.6,208.8 252.4,208.2 252.8,203.5 272.4,203.9 	"/>
	<polygon class="st7" points="274.8,201.4 258.5,200.9 258.9,196.1 278.6,196.5 	"/>
	<polygon class="st7" points="280.6,194.5 264.4,194 264.8,189.3 284.4,189.6 	"/>
</g>
<g>
	<line class="st4" x1="259.9" y1="220.4" x2="259.9" y2="216.8"/>
</g>
<path class="st19" d="M330.2,98.6"/>
<path class="st20" d="M278.3,132.1"/>
<polygon class="st21" points="172.9,148.1 252.3,140.5 252.3,144.9 171.6,150.4 "/>
<polygon class="st21" points="277.7,138 391.7,128.6 388.9,133.3 277.8,141.9 "/>
<path class="st22" d="M464.1,103.1c-44.5,5-32.7,68.3,1.4,68.3"/>
<g id="Girl">
	<path class="st23" d="M228.6,175.6l-6.8,1.6c-0.3,0.1-0.7-0.1-0.7-0.5l-0.7-3.3c-0.1-0.3,0.1-0.7,0.5-0.8l6.8-1.6
		c0.3-0.1,0.7,0.1,0.7,0.5l0.7,3.3C229.2,175.2,228.9,175.6,228.6,175.6z"/>
	<path class="st24" d="M235.7,191.5c0,0,9.1,21.4,9.6,23.9s-1.4,7-1.4,7l4-4.4l-7.6-29.4"/>
	<path class="st25" d="M245,143.5c0,0-0.4,3.2,0.1,3.7c0.6,0.7,2.8-0.5,4.8,0.3c3.2,1.2,6.1,1.6,6.1,1.6l-5-11.6l-3.7-1.3l2-2.1
		l3.4,2.4c0,0,11.2,16.5,7.8,16.5c-3.4,0.1-11.5-1.7-12.3-1.2c-0.8,0.4-2.9,9.1-2.9,9.1L245,190c0,0,2.2,6.4,0.7,12.9
		c-0.6,3.8-5.3,26.1-5.3,26.1l-1.5,0.2c0,0,2.6-31.5,1.7-36.4c-0.8-4.5-3.5-38-3.5-38s-2.3,6.4-2.9,7.6c-0.7,1.2-7.3,9.7-7.3,9.7
		s-1,1.2-2,1.7s1-1.9,0.4-1.9s-2.4,0.5-2.4,0.5l1.7-1.8l2.1-0.2c0,0,5.1-9.4,5.5-10s3.5-10.1,4.6-11.2s4.1-1.2,4.5-1.6
		c0.4-0.4,0.3-3.5,0.3-3.5L245,143.5z"/>
	<path class="st26" d="M228.7,141.4c2.1-2,6.3-2.5,9.3-2.7c0.8,0,1.4-0.1,2-0.1c2.8-0.2,11.5-5.7,11.5-5.7s4.5-2.6,4.3,0
		c-0.3,2.6-2.5,8.5-6.9,9.6C233.9,146,226,144,228.7,141.4z"/>
	<path d="M239.7,138.8c0,0-6.7,2.4-7.8,5.1c-3.1,7.6-10,0.5-10,0.5s0.6,4.5,3.2,6c2.5,1.5,8.2-0.1,9.7-1s6.6-4.9,6.6-4.9"/>
	<path class="st24" d="M243.1,146.2c0.7-0.2,1.8-1.7,1.8-1.7l0.1-1.5l-3.6,1.2v1.3C241.4,145.4,242.4,146.4,243.1,146.2z"/>
	<path class="st25" d="M246.3,140.1c0,2.8-1.6,5-2.9,5c-1.4,0-4.2-2.1-4.4-5c-0.2-2.8,1.6-5,3.6-5
		C244.7,135.1,246.3,137.3,246.3,140.1z"/>
	<path class="st27" d="M246.5,138.3c0,0,0,2.6-1,2.6s-2.1-1.1-2.1-1.1s-1.6,1.4-2.4,1.4s-1.2-1.9-1.2-1.9l-1.3,0.2v-0.3L246.5,138.3
		z"/>
	<ellipse transform="matrix(0.976 -0.2178 0.2178 0.976 -24.883 55.4516)" class="st25" cx="239.1" cy="140.6" rx="0.6" ry="1.3"/>
	<path class="st26" d="M242.2,142.2c0,0,0.5,0.4,1.3,0.3c0.7-0.1,1.3-0.6,1.3-0.6s-0.4,1.1-1.2,1.2
		C242.9,143.2,242.2,142.2,242.2,142.2z"/>
	<path class="st26" d="M241.1,133.8c3.7-1.3,4.9,2.9,4.9,2.9s-2.2,1.8-3.5,2.2s-4.5,0.5-4.5,0.5S237.9,134.9,241.1,133.8z"/>
	<path class="st28" d="M232.4,139.5l8-0.4c0,0,2.7,0.2,5.4-2c2.7-2.2,3.1-2.7,3.1-2.7s-7,3.7-8.8,3.8
		C235.3,138.7,232.4,139.5,232.4,139.5z"/>
	<path class="st26" d="M246.2,162.6c-0.6-1.7,1.6-10.5,1.6-10.5l-2.5-0.7l1.7-4.1h-1.2l-1.9,4.1l-5.8-0.2l1.2-3.1l-1,0.2l-1.3,2.9
		c0,0-2.1,1.1-2.3,2.8c-0.4,2.1,3,6,1.9,8.8s-5.2,11.1-12.3,12.5c-7,1.4-10.9,12.4-10.9,12.4s7.8-0.5,12.8,4s11.2-2.3,14.5-2
		c3.4,0.3,6,2.2,6,2.2s2.5-16,2.5-20.7C249.3,166.4,246.8,164.4,246.2,162.6z"/>
	<path class="st25" d="M248.2,135.7l2.5,1.3l1.8,3.7l2.3-1.1l-2.6-3.8l-1.2-2.6c0,0-1.8,0-2.3,0.2s-1.3,1.8-1.3,1.8L248.2,135.7z"/>
	<path class="st26" d="M239,228.1l-2.5,4.3c0,0,2.3-0.2,2.9-0.7c0.5-0.5,1.4-2.8,1.4-2.8l-0.2,1.6l0.4-0.1c0,0,0-1.7,0.3-2.4
		s-0.4-1.1-0.4-1.1l-0.8,2L239,228.1z"/>
	<path class="st26" d="M244.8,219.7c0,0,1.2,0,1.8-0.9c0.5-0.9,0.9-2.1,0.9-2.1l0.4,1.1l-0.7,3.3l-0.3,0.1v-1.8c0,0-0.5,1.5-1.2,1.9
		s-2.3,1.3-2.3,1.3L244.8,219.7z"/>
</g>
<path class="st29" d="M310.9,238.3"/>
<g>
	<rect x="807.9" y="187.3" class="st30" width="301.9" height="30.1"/>
	<rect x="807.9" y="187.3" class="st7" width="301.9" height="30.1"/>
	<path class="st6" d="M794.4,200.2c0.3-2.8,0.7-5.4,1-7.7c0.7-5.1,4.2-8.3,4.2-8.3c7.5-8.3,60.6-8.7,60.6-8.7l6.1,0.1
		c0,0,24-15.9,30.7-19.1c0.7-0.3,1.5-0.7,2.2-1c6.9-2.8,14.2-4.2,21.6-4.3l87.4,1.4l1.5,74.8l-155.6,0.4c3.6-17.4-4.2-25-11.3-28.3
		c-5.9-2.7-12.6-2.8-18.6-0.3c-16.5,7-11.6,28.6-11.6,28.6h-15.7c0,0-2.2-11.1-2.7-17.3C793.8,207,794,203.5,794.4,200.2"/>
	<path class="st6" d="M794.4,199.8c0.3-2.8,0.7-5.4,1-7.7c0.7-5.1,4.2-8.3,4.2-8.3c7.5-8.3,60.6-8.7,60.6-8.7l6.1,0.1
		c0,0,24-15.9,30.7-19.1c0.7-0.3,1.5-0.7,2.2-1c6.9-2.8,14.2-4.2,21.6-4.3l87.4,1.4l1.5,74.8l-155.6,0.4c3.6-17.4-4.2-25-11.3-28.3
		c-5.9-2.7-12.6-2.8-18.6-0.3c-16.5,7-11.6,28.6-11.6,28.6h-15.7c0,0-2.2-11.1-2.7-17.3C793.9,206.7,794.1,203.1,794.4,199.8"/>
	<path class="st6" d="M1129.2,198.7c0,0-3.7-14-5.4-16.3c-1.7-2.4-1.9-4.9-7.3-5.8c-5.4-0.9-18.5-2.5-18.5-2.5s-27.5-16.2-32.6-18.2
		s-13.6-3.2-25.8-3.4c-12.1-0.3-50.8,0-50.8,0v74.8h71.1c0,0-0.8-30.1,24.2-29.9c25.1,0.2,22.1,28.8,22.1,28.8s21-1.3,24.2-8
		c3.1-6.7,2.1-18.5,2.1-18.5L1129.2,198.7z"/>
	<path class="st31" d="M1129.2,198.6h-4.9l-3.8-12.3l1-7.4c0,0,2.5,3.4,3.3,5.6S1129.2,198.6,1129.2,198.6z"/>
	<path class="st11" d="M1070.4,178l-14.7-17.3c-0.8-0.9-2-1.4-3.2-1.4H1022V178H1070.4z"/>
	<path class="st11" d="M944,159.3l-5.3,18.9h-54.3c0,0,17.4-12.1,21.3-14.6c3.9-2.5,8.6-4.6,13.7-4.3
		C924.4,159.6,944,159.3,944,159.3z"/>
	<path class="st11" d="M900.3,154.7l6.2,3.1l-30.3,20.3l-9.9-3l0,0C878.5,166.9,894.2,156.8,900.3,154.7z"/>
	<path class="st31" d="M795.1,194.5h8c0,0,1.1-6.8-0.8-9c-2-2.2-2.6-1.6-2.6-1.6s-2.7,2.8-3.4,5.3S795.1,194.5,795.1,194.5z"/>
	<polygon class="st11" points="1011.9,159.3 1009.9,178.2 939.3,178.2 939.3,159.3 	"/>
	<g>
		<polygon class="st7" points="944,159.3 962.9,159.3 957.6,178.2 938.6,178.2 		"/>
		<path class="st32" d="M953.9,177.4L953.9,177.4c0.6,0.1,1.2-0.2,1.3-0.9l3.4-14.6c0.1-0.6-0.2-1.2-0.8-1.4l0,0
			c-0.6-0.1-1.2,0.2-1.3,0.9l-3.4,14.6C953,176.6,953.3,177.2,953.9,177.4z"/>
		<path class="st32" d="M950.2,177.4L950.2,177.4c0.6,0.1,1.2-0.2,1.3-0.9l3.4-14.6c0.1-0.6-0.2-1.2-0.8-1.4l0,0
			c-0.6-0.1-1.2,0.2-1.3,0.9l-3.4,14.6C949.3,176.6,949.6,177.2,950.2,177.4z"/>
		<path class="st32" d="M946.5,177.4L946.5,177.4c0.6,0.1,1.2-0.2,1.3-0.9l3.4-14.6c0.1-0.6-0.2-1.2-0.8-1.4l0,0
			c-0.6-0.1-1.2,0.2-1.3,0.9l-3.4,14.6C945.6,176.6,945.9,177.2,946.5,177.4z"/>
	</g>
	<g>
		<polygon class="st7" points="1007.4,159.3 1025,159.3 1022.4,178.2 1002,178.2 		"/>
		<path class="st32" d="M1015.2,177.7L1015.2,177.7c0.6,0.1,1.2-0.3,1.3-0.9l2.6-14.8c0.1-0.6-0.3-1.2-0.9-1.3l0,0
			c-0.6-0.1-1.2,0.3-1.3,0.9l-2.6,14.8C1014.2,177,1014.6,177.6,1015.2,177.7z"/>
		<path class="st32" d="M1011.6,177.7L1011.6,177.7c0.6,0.1,1.2-0.3,1.3-0.9l2.6-14.8c0.1-0.6-0.3-1.2-0.9-1.3l0,0
			c-0.6-0.1-1.2,0.3-1.3,0.9l-2.6,14.8C1010.6,177,1011,177.6,1011.6,177.7z"/>
		<path class="st32" d="M1007.9,177.7L1007.9,177.7c0.6,0.1,1.2-0.3,1.3-0.9l2.6-14.8c0.1-0.6-0.3-1.2-0.9-1.3l0,0
			c-0.6-0.1-1.2,0.3-1.3,0.9l-2.6,14.8C1006.9,177,1007.3,177.6,1007.9,177.7z"/>
	</g>
	<g>
		<g>
			<g>
				<g>
					<g>
						<g>
							<g>
								<g>
									<g>
										<g>
											<g>
												<ellipse class="st10" cx="1083.5" cy="220.2" rx="20.3" ry="21"/>
											</g>
										</g>
									</g>
								</g>
							</g>
						</g>
					</g>
				</g>
			</g>
		</g>
		<g>
			<g>
				<g>
					<g>
						<g>
							<g>
								<g>
									<g>
										<g>
											<g>
												<path class="st10" d="M1103.8,219.7C1103.8,219.7,1103.8,219.8,1103.8,219.7c0.2,11.7-8.6,21.3-19.8,21.5
													c-11.2,0.3-20.4-8.9-20.7-20.5c0,0,0,0,0-0.1L1103.8,219.7z"/>
											</g>
										</g>
									</g>
								</g>
							</g>
						</g>
					</g>
				</g>
			</g>
		</g>
		<g>
			<g>
				<g>
					<g>
						<g>
							<g>
								<g>
									<g>
										<g>
											<g>
												<path class="st6" d="M1097.7,219.9c0.2,8.1-6.1,14.9-13.9,15.1c-7.9,0.2-14.4-6.3-14.5-14.4
													c-0.2-8.1,6.1-14.9,13.9-15.1C1091.1,205.3,1097.6,211.8,1097.7,219.9z"/>
											</g>
										</g>
									</g>
								</g>
							</g>
						</g>
					</g>
				</g>
			</g>
		</g>
		<g>
			<g>
				<g>
					<g>
						<g>
							<g>
								<g>
									<g>
										<g>
											<g>
												<path class="st10" d="M1092.2,220c0.1,5-3.7,9.1-8.5,9.2c-4.8,0.1-8.7-3.8-8.8-8.8c-0.1-5,3.7-9.1,8.5-9.2
													C1088.1,211.1,1092.1,215.1,1092.2,220z"/>
											</g>
										</g>
									</g>
								</g>
							</g>
						</g>
					</g>
				</g>
			</g>
		</g>
	</g>
	<g>
		<g>
			<g>
				<g>
					<g>
						<g>
							<g>
								<g>
									<g>
										<g>
											<g>
												<ellipse class="st10" cx="833.7" cy="220.2" rx="20.3" ry="21"/>
											</g>
										</g>
									</g>
								</g>
							</g>
						</g>
					</g>
				</g>
			</g>
		</g>
		<g>
			<g>
				<g>
					<g>
						<g>
							<g>
								<g>
									<g>
										<g>
											<g>
												<path class="st10" d="M853.9,219.7C853.9,219.7,853.9,219.8,853.9,219.7c0.2,11.7-8.6,21.3-19.8,21.5
													c-11.2,0.3-20.4-8.9-20.7-20.5c0,0,0,0,0-0.1L853.9,219.7z"/>
											</g>
										</g>
									</g>
								</g>
							</g>
						</g>
					</g>
				</g>
			</g>
		</g>
		<g>
			<g>
				<g>
					<g>
						<g>
							<g>
								<g>
									<g>
										<g>
											<g>
												<path class="st33" d="M847.9,219.9c0.2,8.1-6.1,14.9-13.9,15.1c-7.9,0.2-14.4-6.3-14.5-14.4
													c-0.2-8.1,6.1-14.9,13.9-15.1S847.7,211.8,847.9,219.9z"/>
											</g>
										</g>
									</g>
								</g>
							</g>
						</g>
					</g>
				</g>
			</g>
		</g>
		<g>
			<g>
				<g>
					<g>
						<g>
							<g>
								<g>
									<g>
										<g>
											<g>
												<path class="st10" d="M842.3,220c0.1,5-3.7,9.1-8.5,9.2c-4.8,0.1-8.7-3.8-8.8-8.8s3.7-9.1,8.5-9.2
													S842.2,215.1,842.3,220z"/>
											</g>
										</g>
									</g>
								</g>
							</g>
						</g>
					</g>
				</g>
			</g>
		</g>
	</g>
	<polygon class="st32" points="995.6,159.3 1002.8,178.2 995.6,178.2 988.3,159.3 	"/>
	<polygon class="st32" points="982.4,159.3 989.7,178.2 987.4,178.2 980.2,159.3 	"/>
	<polygon class="st32" points="1046.5,159.3 1053.8,178.2 1046.5,178.2 1039.2,159.3 	"/>
	<polygon class="st32" points="1033.3,159.3 1040.6,178.2 1038.3,178.2 1031.1,159.3 	"/>
	<polygon class="st32" points="928,159.5 935.2,178.2 928,178.2 920.9,159.5 	"/>
	<polygon class="st32" points="919.8,159.5 926.9,178.2 924.7,178.2 917.5,159.5 	"/>
	<path class="st5" d="M1138.3,243H799c-0.9,0-1.7-0.8-1.7-1.7l0,0c0-0.9,0.8-1.7,1.7-1.7h339.3c0.9,0,1.7,0.8,1.7,1.7l0,0
		C1140,242.3,1139.3,243,1138.3,243z"/>
</g>
<g>
	<rect x="1164.3" y="31.6" class="st0" width="40.8" height="25.5"/>
	<rect x="1164.3" y="60.6" class="st34" width="40.8" height="25.5"/>
	<rect x="1164.3" y="89.6" class="st3" width="40.8" height="25.5"/>
	<rect x="1164.3" y="117.6" class="st32" width="40.8" height="25.5"/>
	<rect x="1164.3" y="146.6" class="st11" width="40.8" height="25.5"/>
	<rect x="1164.3" y="173.6" class="st35" width="40.8" height="25.5"/>
	<rect x="1164.3" y="200.6" class="st36" width="40.8" height="25.5"/>
	<rect x="1164.3" y="201.6" class="st36" width="40.8" height="25.5"/>
	<rect x="1164.3" y="202.6" class="st36" width="40.8" height="25.5"/>
	<rect x="1164.3" y="232.6" class="st37" width="40.8" height="25.5"/>
</g>
<polygon class="st11" points="330.2,85 355.2,81.6 357.7,101.2 327.9,106.1 "/>
<rect x="45.4" y="72" class="st0" width="12.5" height="3"/>
<rect x="45.4" y="76" class="st0" width="12.5" height="3"/>
<rect x="45.4" y="80" class="st0" width="12.5" height="3"/>
<rect x="45.4" y="84" class="st0" width="12.5" height="3"/>
<rect x="45.4" y="88" class="st0" width="12.5" height="3"/>
<rect x="45.4" y="105" class="st0" width="12.5" height="3"/>
<rect x="45.4" y="109" class="st0" width="12.5" height="3"/>
<rect x="45.4" y="113" class="st0" width="12.5" height="3"/>
<rect x="45.4" y="117" class="st0" width="12.5" height="3"/>
<rect x="45.4" y="121" class="st0" width="12.5" height="3"/>
<rect x="15.1" y="124.6" class="st0" width="2.9" height="38.1"/>
<rect x="45.4" y="136.7" class="st0" width="20.5" height="4.2"/>
<rect x="563.5" y="129.3" class="st0" width="12.8" height="4"/>
<rect x="563.5" y="136.3" class="st0" width="12.8" height="4"/>
<rect x="563.5" y="143.3" class="st0" width="12.8" height="4"/>
<rect x="563.5" y="149.3" class="st0" width="12.8" height="4"/>
<rect x="563.5" y="156.3" class="st0" width="12.8" height="4"/>
<rect x="563.5" y="163.3" class="st0" width="12.8" height="4"/>
<rect x="563.5" y="170.3" class="st0" width="12.8" height="4"/>
<rect x="563.5" y="176.3" class="st0" width="12.8" height="4"/>
<rect x="113.7" y="129.2" class="st0" width="3.7" height="33.4"/>
<line class="st38" x1="807.2" y1="183.8" x2="877.2" y2="180.7"/>
<path class="st39" d="M877.7,180.5c0,0,26.9-18,29.4-19.7s5.5-3.1,10.4-3.5s134.7-0.3,137.5,0.1s19.3,20.2,19.3,20.2v18.9
	c0,0-6.4,2.6-11.1,9.4c-4.7,6.8-5.5,18.7-5.5,18.7h-180V180.5z"/>
<line class="st38" x1="796.2" y1="212.7" x2="810.8" y2="212.5"/>
<line class="st38" x1="856.3" y1="211.2" x2="876.2" y2="211.2"/>
<line class="st38" x1="1012.4" y1="178" x2="1012.4" y2="224.2"/>
<line class="st38" x1="947" y1="178" x2="947" y2="224.2"/>
<path class="st38" d="M939.1,188.7h-8.7c-0.9,0-1.6-0.7-1.6-1.6l0,0c0-0.9,0.7-1.6,1.6-1.6h8.7c0.9,0,1.6,0.7,1.6,1.6l0,0
	C940.8,188,940,188.7,939.1,188.7z"/>
<path class="st38" d="M1063.9,188.6h-10.4c-0.8,0-1.5-0.7-1.5-1.5l0,0c0-0.8,0.7-1.5,1.5-1.5h10.4c0.8,0,1.5,0.7,1.5,1.5l0,0
	C1065.4,187.9,1064.8,188.6,1063.9,188.6z"/>
<path class="st40" d="M882.4,181c0,0,1.5-2.6,3.3-4s3.2-2.1,9.2-2s6.9,9.3,3.5,9.5s-14.3-0.3-14.3-0.3L882.4,181z"/>
</svg>
