<svg xmlns="http://www.w3.org/2000/svg" viewBox="0 0 1024 245"><g data-name="Vacation rentals"><path fill="#fff" d="M-.01 0h1023.98v245H-.01z"/><path fill="#e8f0fe" d="M39.19.1h984.8v106.66H39.19z"/><path fill="#aecbfa" d="M652.83 152.92h83v6.67h-83z"/><path d="M656.31 154.31c-.41 1.09.27 3.48.27 4.42m3.68-5.01c-.4 1.14-.07 2.84-.07 4M664 159c0-1.08-.3-2.14-.27-3.21m3.01-1.58c-.13.24 0 .7 0 1a10.93 10.93 0 00.21 3.08m2.79-4.15c0 .76.13 1.53.17 2.29a11.85 11.85 0 00.11 2.31m2.86-4.6a21.42 21.42 0 00.14 4.74m1.67-2.79a6.56 6.56 0 01-.06 1.6m2.65-3.83a13.57 13.57 0 00.41 4.32m2.37-3.77a18.26 18.26 0 00.07 4.05m2.31-4.18v2.44m2.37-2.51a18.18 18.18 0 00.14 4m2.3-1.77V158m1.95-4.07a10.39 10.39 0 01.14 2.3m2.37-2.09c0 1.31.18 2.6.28 3.9m3.56-1.74a6.75 6.75 0 00.07 1.74m2.3-4.18c.37 1.44.05 2.92.56 4.39m3.06-4.11a12.32 12.32 0 01-.2 2.09m3.48-1.95c.06 1.34-.58 2.89-.07 4.18m3.42-3.84c0 1.18-.13 2.37-.07 3.56m3.21-1.88a5.64 5.64 0 00.07 2.09m2.62-4.53a16.2 16.2 0 01-.07 2.51m3.24-2.16a12.19 12.19 0 00.42 4.25m2.99-2.37c0 .66-.15 1.29-.14 1.95m1.68-3.63a3.8 3.8 0 01-.07 1.12m2.16-1.74a20 20 0 00.7 4.6m2.65-4.11c-.19 1.34-.27 2.69-.49 4" fill="none" stroke="#8ab4f7" stroke-linecap="round" stroke-linejoin="round"/><path fill="#aecbfa" d="M662.84 159.59h6.15v10.33h-6.15z"/><path fill="#8ab4f7" d="M669 162.36l-6.16 2.77v-5.54H669v2.77z"/><circle cx="307.39" cy="81.49" r="39.31" fill="#fff"/><circle cx="453.24" cy="86.14" r="40.88" fill="#fff"/><circle cx="356.5" cy="75.05" r="24.05" fill="#fff"/><circle cx="393.36" cy="96.46" r="21.87" fill="#fff"/><circle cx="512.88" cy="79.41" r="28.4" fill="#fff"/><circle cx="554.87" cy="86.14" r="20.69" fill="#fff"/><path d="M307.33 41.65a39.85 39.85 0 0136.41 23.63m32.94 16.3A22.18 22.18 0 01393.2 74a22.56 22.56 0 0121.54 15.85m69.18-10.3a29.13 29.13 0 0129.13-29.13M537 74.69A21.28 21.28 0 01554.91 65" fill="none" stroke="#e8f0fe" stroke-linecap="round" stroke-linejoin="round"/><circle cx="726.8" cy="71.18" r="35.57" fill="#fff"/><circle cx="786.37" cy="55.83" r="40.61" fill="#fff"/><circle cx="847.82" cy="57.84" r="40.61" fill="#fff"/><circle cx="919.34" cy="72.01" r="61.9" fill="#fff"/><path d="M743.36 128h-383l-71.23 10.51v10.39h-40.31v8.14H183.7l1.57 4.44.93-.53a5.54 5.54 0 012.8-.73h87a.91.91 0 00.92-.83.88.88 0 00-.88-.93h-3.51a.92.92 0 01-.94-.83.89.89 0 01.89-.93h29.48a.92.92 0 01.92.72.89.89 0 01-.87 1h-3.55a.89.89 0 00-.88.7.88.88 0 00.86 1.06h43.34a1.74 1.74 0 001.76-1.64 1.69 1.69 0 00-1.69-1.74H325.7a1 1 0 01-1-.93 1 1 0 011-1h9.63a1.4 1.4 0 001.41-1.22 1.36 1.36 0 00-1.35-1.5h-19.75a1.42 1.42 0 01-1.42-1.57 1.47 1.47 0 011.48-1.29h110.48a2.64 2.64 0 002.67-2.41 2.59 2.59 0 00-2.58-2.76h-5.06a1.66 1.66 0 01-1.68-1.56 1.61 1.61 0 011.61-1.66h69.24a1.66 1.66 0 011.68 1.56 1.61 1.61 0 01-1.61 1.66h-9.61a2.64 2.64 0 00-2.67 2.41 2.59 2.59 0 002.58 2.76h88.66a1.33 1.33 0 001.33-1.32 1.33 1.33 0 00-1.33-1.33h-9.35a1.3 1.3 0 01-1.29-1.3 1.29 1.29 0 011.29-1.29h35.16a1.3 1.3 0 011.29 1.34 1.31 1.31 0 01-1.29 1.25h-2.44a1.33 1.33 0 00-1.33 1.33 1.33 1.33 0 001.33 1.32h49.27a1.75 1.75 0 001.79-1.66 1.71 1.71 0 00-1.71-1.77h-23.81a1.18 1.18 0 01-1.18-1 1.14 1.14 0 011.13-1.25h42.54a2.39 2.39 0 002.41-2.18 2.33 2.33 0 00-2.33-2.49H654a1.76 1.76 0 01-1.78-1.66 1.71 1.71 0 011.71-1.76h37.44a.79.79 0 00.8-.72.76.76 0 00-.76-.81h-7.6a1 1 0 01-1-.92 1 1 0 011-1h59.68a2 2 0 002-2.13 2 2 0 00-2.13-1.94z" fill="#e8f0fe"/><path d="M278.75 138.53v1.22h-16.43v2.69h-22.19v7.78h-68.26l.37 15.56h25.21a1.92 1.92 0 001.46-.68 3.32 3.32 0 012.51-1.23h8.19a1 1 0 001-.91 1 1 0 00-1-1h-22.28a2.5 2.5 0 01-2.53-2.28 2.45 2.45 0 012.44-2.61h71.5a1.72 1.72 0 001.71-1.71 1.72 1.72 0 00-1.71-1.71h-7.47a1.71 1.71 0 01-1.71-1.71 1.71 1.71 0 011.71-1.71h45.53a4 4 0 004-3.7 3.9 3.9 0 00-3.89-4.08h-5.59a1.38 1.38 0 01-1.4-1.21 1.35 1.35 0 011.34-1.48h84a1.23 1.23 0 001.23-1.22z" fill="#aecbfa"/><path d="M171 165.78h21.55a2.58 2.58 0 01-2.58 2.58H171v-2.58z" fill="#e8f0fe"/><path fill="none" d="M329.35 154.87h10.14v1.96h-10.14z"/><path d="M868.21 53.43a35.38 35.38 0 00-5.88-1.54c-1.3-.12-2.66.17-4 0-2-.26-4.11-1.34-6.06-2-2.55-.82-5.25-1.24-7.73-2.1-1.48 1.75-3.84 3.08-5.56 4.6s-3.58 2.76-5.29 4.33a10.62 10.62 0 00-3.93-.91l-.78 4.3 2.66-1.05-4.52 4.52-2.12-3.77-.21.25a66.08 66.08 0 00-6.05-3.06l-7.59-3.7-.16.11-3.21 6.2 3.1.52-4.23 3.47h1.86l-5.88 4.47 3.4-.46-5.66 5.52V70l-4.11-4.12 1.48-.41-.51-1.76a62.31 62.31 0 01-9.11-1.17l-3.64 6.74-2-3.3-.48 1.78-2-2.05-.63.33s-2.82-.11-4-.23c-3.13-.34-6.37-1.2-9.38-1.51-2.38-.24-4 2-5.75 3.45-2.87 2.34-6.66 4.51-9 7.25a8.16 8.16 0 01-.76 2.84c-1.13 2.68.07 6.25 2 8.41 3 3.4 6.11 3 10.12 3 11.82.13 23.56 1.71 35.29 3.07 5.51.65 10.45.93 15.73 2.49 5.72 1.69 11.42 3.33 17.44 3.58 3.3.14 6.78-.65 10-.39a2.47 2.47 0 011.34.33 12.88 12.88 0 011.66-.84c3.11-1.68 5.59-4.81 7.88-7.41a152.62 152.62 0 0012.24-16.18c1.83-2.73 3.41-5.62 5.4-8.26 1.73-2.3 3.7-4.43 5.49-6.69.67-.84 1-3.17 2.31-3.14-2.51-1.35-6.38-1.6-9.17-2.38z" fill="#e8f0fe"/><path d="M782.5 66l2 3.3 3.64-6.74c-.26-.07-.5-.14-.72-.22s-.16-.13-.25 0c-.37-.42-4.52 1.93-5.39 2.39l-1.8 1 2 2.05zm13.76-.1l4.11 4.1v3.11l5.63-5.5-3.4.46 5.88-4.47h-1.86l4.23-3.47-3.1-.52 3.21-6.2c-.8.58-4.57 3.31-5.43 4.07-2.5 2.2-7.82 6.28-7.82 6.28h-.51l.51 1.76zm35.43-6.82L829 60.13l.78-4.3a1.23 1.23 0 00-.28 0c-1.63 1.52-3.28 2.46-4.52 4l2.16 3.79z" fill="#d2e3fc"/><path d="M978.64 52.65c-1.82-.78-4.32-2.81-6.59-3.58v4.33l-2.42 2.42-1.63-3.65-.07.1c-1.75-.85-4.33-3.07-6.38-4.31-3.32-2-6.43-4.08-9.63-6.05l-.08.05-1 7.91 2.6 1.56-18.68 24.19-4.16-18.36a26.82 26.82 0 00-2.22 7.64c-1.07 8.88 2.63 17.75 5.86 25.79 3.87 9.67 7.69 18.7 13.91 27.13 2 2.72 6.91 9.12 10.91 9.27 1.89.08 1.62-1 2.25-2.87 5.21-15.92 9.61-32.07 14.52-48.07 2.06-6.68 4.87-12.84 7.49-19.28.72-1.77 1-4.32 2.63-5.46a41.65 41.65 0 00-7.31 1.24z" fill="#e8f0fe"/><path d="M953.42 51.43l-2.6-1.56 1-7.91c-2.59 1.42-4.76 3.55-7.35 4.87s-5.08 2.77-7.64 4.12c-1.23.65-3.1 1.24-4 2.26-.13 1.23-1.5 2.36-2 3.49-.09.18-.17.37-.25.56l4.16 18.36zM972 53.41v-4.33c-.89.84-3.25 2.06-4 3.09l1.62 3.66zm-491.6 75.01V94.26a1.25 1.25 0 01-.4-.94c0-.3-.1-.62-.44-.68-.61-.11-1 .69-1.15 1.13s-.23.83-.8 1a1.14 1.14 0 00-.87.64c-.1.25 0 .63-.41.68s-.68-.5-1.05-.57c-.59-.11-1 .34-1.51.36-.39 0-.51-.13-.73-.4s-.05-.21-.28-.23-.54.22-.7.36c-.35.3-.44.6-.92.68a1.92 1.92 0 00-1.08.47 1.25 1.25 0 01-1.07.41c-.62 0-1-.55-1.66-.34s-.93.71-1.48.5c-.28-.12-.47-.58-.74-.64s-.51.23-.68.34a3.69 3.69 0 01-1.07.53c-.64.16-.85-.29-1.35-.45-.7-.23-1.27.9-1.69 1.33-.3-.28-.77.43-.95.64-.43.51-.8.81-1.4.39-.42-.3-.54-.32-.93.12a4.48 4.48 0 00-.75 1.37c-.08.16-.13.31-.33.36s-.26-.11-.41-.11c-.42 0-.57.61-1 .6s-.66-.56-1.07-.61-.76.55-1.28.54c-.68 0-1.25-1.16-1.91-.66-.46.34-.67.94-1.18 1.24a3.07 3.07 0 01-2.11.24 1.1 1.1 0 01-.87-.84c-.11-.37 0-.82-.38-1-1.17-.68-2.44 1.39-3.08 2-.79.8-1.65.43-2.6.48-.59 0-1 .7-1.55.46a2 2 0 00-1.24-1c-.44 0-.74.56-1.15.67s-.84-.32-1.25-.13-.3.55-.75.54c-.27 0-.54-.3-.77-.25s-.33.46-.6.52-.35-.31-.54-.5-.68-.16-.94-.37-.2-.56-.41-.79c-.62-.66-1 .2-1.19.74-.08.22-.15.67-.43.71s-.38-.41-.52-.64-.47-.4-.54-.68.11-.45 0-.68-.49-.47-.67-.69-.35-.54-.8-.48-.72.51-1.12.72-.63 0-1-.18-.77.11-1.18-.13-.52-.76-1-.78-.92.54-1.39.71a2 2 0 01-1.84-.27c-.29-.26-.36-.72-.73-.92s-.65.13-1.05.15c-.79 0-.93-1.51-1.93-1.15s-.88 2.27-1.88 2.29c-.45 0-.51-.63-1.09-.44s-.58.71-1.07.24c-.27-.25-.3-.75-.69-.87-.54-.16-1 .5-1.51.16s-.33-.82-.6-1.17-.79-.22-1.15 0-.75.65-1.21.46-.52-.7-.67-1.07-.2-.64-.52-.71-.61.36-.84.63c-.58.68-.86.09-1.27-.3a3.48 3.48 0 00-1.48-1c-.56-.14-.75-.07-1.08-.56s-.71-.43-1.27-.62-.46-.65-.57-1.09c-.16-.69-.71-2.09-1.67-1.55-.65.36-.7 1.23-1.62 1-.25-.08-.49-.25-.76-.2s-.44.26-.64.39c-.63.41-.74-.08-1.21-.4s-1.26.1-1.65-.5c-.25-.37-.21-.88-.44-1.24s-.77-.3-1-.58-.11-.55-.15-.75a6.47 6.47 0 00-.18-.73 1.05 1.05 0 00-1-.78c-.49 0-.7.53-1.17.47s-.76-.54-1.21-.39-.61.88-1.27.87c-.39 0-.46-.24-.71-.44a.48.48 0 00-.62-.07c-.31.15-.42.25-.78 0s-.57-.68-1.1-.76-.73.14-1.15.29c-.87.31-.57-.91-.9-1.34-.63-.81-1.52 0-2.23.13s-.73-.82-1.35-1c-.31-.09-.62.18-.94.07s-.32-.39-.52-.6c-.57-.6-1.43-.1-1.77-.94-.11-.27-.16-.45-.47-.56a1.09 1.09 0 00-1.18.24c-.22.25-.22.44-.55.2s-.28-.36-.45-.51a1.17 1.17 0 00-.91-.33c-.4 0-.66.27-1 .34-1 .2-1.16-1.29-1.49-1.93s-1.06-.76-1.71-.33a1.62 1.62 0 01-1.45.27 2.79 2.79 0 00-1.24-.15 1.93 1.93 0 01-.91.21c-.76-.11-.84-.93-1.49-1.08s-.87.42-1.35.7c-.69.39-.79-.28-1-.76-.14-.3-.33-.35-.61-.53a1.52 1.52 0 01-.61-1 2.54 2.54 0 00-1-1.73c-.77-.4-1.13.22-1.43.84s-.75 1.39-1.72 1c-.49-.21-.31-.86-.7-1s-.66.54-1.05.64c-.63.18-1-.52-1.41-.79a1.58 1.58 0 00-1.26 0c-.43.1-.9.2-1.15-.22s-.31-.94-1-.88c-1 .1-.62 1.77-1.75 1.39-.39-.13-.39-.52-.73-.67s-.8.24-1.23-.1c-.26-.2-.31-.58-.65-.68s-.72.29-1 .57-.42.31-.7 0-.45-.29-.93-.37-.4-.33-.67-.59-.56-.11-.91 0c-.9.14-.77-1.53-1.27-2-.26-.27-.63-.56-1-.43s-.4.33-.69.35-.52-.22-.84-.17a1 1 0 00-.54.31c-.7.54-.83.06-1.42-.19a1.06 1.06 0 00-1.2.43c-.21.31-.27.72-.76.57-.21-.07-.3-.26-.55-.24s-.41.24-.68.24c-.86 0-.75-1.82-1.86-1.19-.85.49-.89 2-1.89 2.27s-1.45-1.1-2.27-1.3c-.38-.09-.58.16-.89.15s-.47-.4-.75-.49-.68.14-1 0a2.08 2.08 0 01-.79-.74c-.47-.56-.81-1.29-1.64-1.25-.36 0-.57.1-.73-.27s-.1-.71-.52-.81a3.69 3.69 0 01-1.56-.51 1.79 1.79 0 01-.49-.77c-.06-.24 0-.48 0-.71-.22-.6-1-.46-1.37-.18-.21.15-.37.47-.6.57s-.87-.1-1.14-.23c-.66-.34-.6-.8-.93-1.35s-.84-.4-1.25-.05a2.22 2.22 0 01-.53.44 3.67 3.67 0 00-.61.23 1.92 1.92 0 01-1.5.51c-.82-.08-1.19-.64-1.86-.94s-.83.65-1 1.13a.87.87 0 01-1.35.45c-.22-.11-.29-.31-.54-.36s-.56 0-.86 0-.68-.61-1.1-.67c-.62-.1-1.14.15-1.68-.35a2.92 2.92 0 00-.44-.42c-.3-.2-.72-.17-1-.43-.49-.47-.34-1.32-.67-1.87-.49-.8-1-.22-1.3.35s-.54 1.09-1.08.59c-.33-.3-.25-.35-.71-.43s-.4-.27-.64-.53-.47-.14-.77-.14a3.08 3.08 0 01-1-1.2c-.14-.3-.24-.49-.61-.49s-.52.25-.77.51c-.53.56-1.24-.77-2-.49-.31.12-.47.54-.78.63a1.11 1.11 0 01-1-.43c-.21-.26-.31-.64-.65-.77a1.16 1.16 0 00-1.11.33 6.15 6.15 0 00-1.13 2c-.33.68-.53 1.06-1.36.9a2.92 2.92 0 00-.92-.2c-.2 0-.36.17-.57.13-.46-.09-.9-.92-1.42-.5-.31.24-.48 1.53-1.08.88-.44-.47-.19-1.44-1-1.65s-1.17.76-1.44 1.27a1 1 0 01-1.24.58 1.68 1.68 0 01-1.48-1.86c-.1-.55-.22-1.71-1-1.45s-.53 1.34-1.23 1.43-.84-1-1-1.44-.28-1.23-.5-1.76-.7-.18-1.11-.06a.88.88 0 01-1.06-.45c-.14-.2-.48-.79-.39-1a6.4 6.4 0 00-.51-1.47.76.76 0 00-.67-.43c-.34 0-.62.24-.95.29a1.54 1.54 0 01-1.11-.18 3.07 3.07 0 01-1.09-1.06.84.84 0 00-.68-.37 1 1 0 01-.94-.36c-.13-.17-.17-.42-.35-.57a.92.92 0 00-.88 0c-.25.08-.4.32-.64.38-.5.14-.84-.55-1-.9s-.49-.94-1.09-.95-.82.47-1.21.83-.85.26-1.15.57c-.14.15-.2.35-.35.49a1.54 1.54 0 01-.74.35 14.14 14.14 0 00-1.71.17 3.84 3.84 0 00-.84.53c-.2.14-.41.22-.6.35a1.15 1.15 0 01-1.12-.46 1.07 1.07 0 00-.33-.48c-.4-.27-.66-.09-.87.29-.14.23-.19.42-.47.5a1.72 1.72 0 01-.75 0c-.48-.06-.87.44-1.35.21-.23-.1-.16-.26-.27-.43s-.2-.14-.38-.17c-.45-.07-.65-.38-.8-.8s-.22-1-.52-1.18-.81.17-1.15.29c-.57.18-.76-.17-1-.57s-.51-.3-.87-.29a.9.9 0 01-.9-.55c-.23-.38-.34-.57-.82-.59s-.88.09-1.2-.45a2.81 2.81 0 00-.63-1 .81.81 0 00-.83-.13c-.37.15-.49.5-.8.69-.54.32-.82-.58-1.37-.46a3.31 3.31 0 00-.94.59c-.15.11-.69.35-.72.47-1.79 1.13-3.67-.27-5.12-1.28-.52-.36-1-.69-1.62-.44a4 4 0 01-2.2-.21 2 2 0 01-1.06-.74c-.49-.64-.61-1.76-1.43-2.1a2.86 2.86 0 01-1-.47 3.21 3.21 0 00-.89-.71c-.48-.18-.71-.23-.95-.73s-.51-1.27-1-1.4c-.29-.08-.48 0-.74.12a1.87 1.87 0 01-.91.05 2.52 2.52 0 01-1.47-.93c-.34-.44-.6-.94-.93-1.38-.16-.21-.41-.48-.71-.43s-.45.56-.82.66c-.77.21-.95-.61-1.49-.92-1.12-.64-1.1 1.16-1.72 1.61-.47.34-1.12 0-1.62-.06a1.63 1.63 0 00-1.38.71c-.2.23-.35.6-.67.67-.58.11-.84-.53-1.12-.91a1.6 1.6 0 00-1.19-.76c-.34 0-.58.32-.85.5s-.55 0-.77-.26c-.34-.46-.57-1-.93-1.42a4.23 4.23 0 00-1-.75 2.05 2.05 0 01-.66-1c-.21-.46-.54-1.69-1.21-1.67-1.17 0-.94-1.59-1.48-2.21s-1.33.53-2 0c-.23-.19-.29-.54-.55-.7s-.69-.08-1-.26a1.81 1.81 0 01-.54-.81 2.05 2.05 0 00-.8-1 1 1 0 00-.94 0c-.24.12-.39.37-.67.4s-.53-.31-.67-.62a2.57 2.57 0 00-.66-1.05c-.59-.45-1.36 0-1.73.52a5.25 5.25 0 01-.47.69 1.36 1.36 0 01-.78.29 2 2 0 01-1.37-.24c-.25-.19-.46-.55-.8-.36a1.82 1.82 0 01-2.33-.92c-.29-.58-.54-1.63-1.28-1.78-.47-.1-.78.26-1.22.29-.67.06-1.28-.87-1.62-1.32s-.69-.94-1-1.43-.49-.92-.76-1.37c-.38-.62-.69-1.52-1.33-1.93-.41-.26-1 0-1.41-.14s-.69-.79-.76-1.27-.09-.89-.61-.83-.62.46-1 .53c-.64.12-1-.91-1.25-1.32s-.31-.55-.71-.21-.63.89-1.24.76a4.56 4.56 0 00-.66-.21c-.28 0-.49.23-.68.4-.39.39-1.08 1.75-1.75 1.1-.23-.21-.37-.5-.7-.27a2.06 2.06 0 00-.53 1.24 1.46 1.46 0 01-.32.91c-.3.29-.85.11-1.18-.07s-.5-.5-.82-.64-.62 0-.86-.26c-.72-.79 0-2.19-1.15-2.72a.91.91 0 00-1.21.26c-.24.32-.35.86-.74 1.05s-.86-.26-1.13-.52c-.48-.49-.94-1-1.44-1.48s-.83-.31-1.61-.25a1.37 1.37 0 01-1.07-.4 5.38 5.38 0 00-.87-.85c-.77-.48-1.39 0-2 .43-.43.33-.68.67-1.26.58-.79-.14-.87-.85-1.39-1.31a1.11 1.11 0 00-1.64 0 1.33 1.33 0 01-1.39.33 3.56 3.56 0 01-1.77-1.09c-.43-.5-.61-1.25-1.11-1.68s-.82-.13-1.16.24a1.71 1.71 0 01-.56.44 4.35 4.35 0 01-.58.13c-.71.2-.86-.34-1.19-.77s-1.19-.35-1.67 0c-.32.24-.64.71-1.08.76-.29 0-.3-.28-.53-.33s-.63.75-.76 1c-.34.55-.67 1.05-1.39 1.11-.42 0-1.13.09-1.31-.36-.1-.23-.13-.53-.44-.49s-.43.29-.62.38a2.11 2.11 0 01-1 .2c-.27 0-.51-.17-.78-.16a2.12 2.12 0 00-.6.2c-.6.22-.69-.43-.82-.85s-.42-.72-.89-.59-.8.59-1.22.3-.25-.44-.71-.49a1.16 1.16 0 01-1-.62c-.18-.37-.15-.86-.45-1.16a.92.92 0 00-1.12-.06c-.35.21-.8.5-1.18.17s-.29-.81-.63-1-.75.11-1.07.2a.85.85 0 01-1.1-.37 1.11 1.11 0 00-1-.52c-.41 0-.57.29-.82.57s-.53.44-.81.14-.3-.46-.71-.31-.74.43-1.07.33-.46-.59-.66-.82c-.62-.7-1.22.25-1.3.87 0 .39.09 1.08-.18 1.4s-.85 0-1.15-.25-.45-.44-.79-.34-.55.63-.63 1.05a.55.55 0 01-.9.38c-.25-.16-.37-.47-.64-.62a1.44 1.44 0 00-.64-.22 1.16 1.16 0 00-.92.48c-.17.19-.41.4-.67.22s-.26-.41-.39-.58a1.79 1.79 0 00-.45-.46 1 1 0 00-.8-.21c-.39.13-.75.67-1.19.5a1.4 1.4 0 01-.68-.7c-.23-.37-.46-.76-1-.76s-.7.48-1.19.38-.64-.74-1.09-1a1.14 1.14 0 00-1.22 0c-.25.15-.48.41-.81.36s-.56-.43-.89-.55c-1-.36-1.82.89-2.52 1.38a1 1 0 01-.92.16c-.49-.09-.68.36-.94.71s-.66.93-1.12 1.07-.42-.17-.65-.37c-.85-.73-1.26.94-1.65 1.4a.85.85 0 01-1 .23c-.34-.18-.43-.63-.88-.53-1 .23-.32 2-1.43 2a5.89 5.89 0 00-1.11 0 1.88 1.88 0 00-.79.52c-.16.18-.26.43-.41.64s-.18.29-.31.34-.24-.06-.38 0-.41.59-.48.82a6.36 6.36 0 01-.43 1.2c-.34.57-.77.59-1.36.57a.78.78 0 00-.89.62c-.22.6-.18 1.3-.72 1.72s-1.18.22-1.46.78 0 1.36-.25 2c-.12.26-.21.28-.49.25a1 1 0 00-.88.26c-.22.21-.31.45-.64.48s-.57-.28-.79-.57c-.52-.72-1.17-.23-1.81 0s-1.16-.65-1.59-1.1a.87.87 0 00-.82-.24c-.35.07-.57.35-.87.48s-.63.16-.82-.15-.09-.51-.3-.71c-.49-.47-1 0-1.24.47-.37.64-.66 0-.84-.42a.7.7 0 00-1.26-.21c-.12.14-.21.39-.44.3s-.25-.48-.27-.66c-.06-.62.08-1.43-.41-1.91s-1 .11-1.29.57c-.1.2-.49.74-.76.41l-2.62 8.58 31 90.69h183.39v4.4h7.59v5.71h108.65a2.86 2.86 0 002.85-2.86 2.85 2.85 0 00-2.85-2.85h-10.46a2.21 2.21 0 01-2.2-2.2 2.21 2.21 0 012.2-2.2z" fill="#d2e3fc"/><path d="M479.72 94.82c.89-.91 2.35-1 2.64.43.16-.87 1.56-.78 2 0a.81.81 0 011.06-.69c.14-.7.23-4.64 1.32-4.66s1.2 4 1.42 4.66a2.65 2.65 0 011.38-1.8 7.89 7.89 0 011.16-.22c.46 0 .79-.08 1 .4.18-.92 1.5-1.43 2-.43-.05-1 1.62-.75 1.79.11.32-.55 1.45-1.25 1.9-.5.13-1.26.3-3.92 1.35-4.86 1.56-1.41 1.65 2.25 1.73 3a2.06 2.06 0 01.94.76c.48-1.14 1.95-.92 2.33-1.69.3-.61 0-3 .1-3.72s.6-2.74 1.67-1.44c.6.73.63 2.87.65 3.78a1.7 1.7 0 012.65.22c0 .08 0 .08 0 0 .47-.77 1.31-.32 1.81.17.11-.83 1.21-.83 1.8-.53-.16-1 .66-2.3 1.77-1.77-.17-.88 1-1.3 1.58-.85 0-2 1.86-2 1.93-.09a1.56 1.56 0 012.82-.22c.33-1.11 1.84-.88 2.47-.14-.08-.92 1.34-.73 1.6-.08a1.49 1.49 0 012.48 1.34c.73-1 2.56-2.06 3.29-.35.12-1 2.07-.31 1.89 0a4.64 4.64 0 012.18-2.53c.81-.3 2.17.25 2.05 1.15a2.4 2.4 0 012.41.52c-.07-1 1.13-1.36 1.87-.88s.84 1.5 1 2.37c1-1.07 2.12-2.45 3.64-1.43.49.33.6 1 1.19.66.42-.21.43-1.13.74-1.48a2.46 2.46 0 011.51-.61c.79-.17.66.16 1.08-.71s1-3.45 2.41-2.4c.45.34.38 1.45.76 1.83s1.33.53 1.77.86a2.86 2.86 0 013.7-.2c.94-1.06 1.79-.2 2.72.12a9.35 9.35 0 003.08.28c.19-1.88 1.78-1 2 .32a5.19 5.19 0 011.46.33c.3-.77.66-2.33 1.32-2.86.82-.64 2.07-.2 2 .75.15-3 3.57-2.52 5.18-4 .65-.6 1.95-4.5 3.08-1.82.82.19.47-.48.91-.75a1.69 1.69 0 011.28-.2c.3-1 .54-2.59 2-1.68.35-.73 1.88-.45 1.93.11a13.34 13.34 0 011.62-3c.37-.48 2.42-1.93 2-.38a1.27 1.27 0 011.28.64 2.85 2.85 0 011.44-.53c.24-2.1 3.69-2.52 3.52-.1.28.09.53.18.81.29.32-.7 1.64-2.38 2.45-.85.6-.78 2.17-.32 2 .57.55-.26 1.43.32 1.91.73.56-1.49 2.43-.46 2.82.53.09-1.62 2.76-.45 2.25.75 1-.73 2.51.43 2.15 1.62a2.57 2.57 0 011.76 1.3c.48-.71.68-2.42 2.12-1.68.81.42.85 2.11.94 2.88a2 2 0 01.77 0c.16 0 .37.11.52.11s.19-.09.33-.09a1.33 1.33 0 011.47 1.27c0 .08 0 0 .09 0a1.25 1.25 0 011.8.1 1.22 1.22 0 01.27.7c0 .2-.06.46.06.43a2.13 2.13 0 012.22.61 1.82 1.82 0 01.86-1.85c.72-.3 1.27.41 1.36 1-.08-1.51 2.38-1 2.32.39a3.61 3.61 0 011.28-.19c.55.08.7.5 1.08.8 1.54.1 2.34-1.52 3.05-2.74.37-.63.71-1.48 1.44-1.78.49-.21 1.8.07 1.47.79.5-.57 1.59.22 2.2.1a2.11 2.11 0 012.15.61 5.3 5.3 0 011.36-2.09c.54-.45 1.92-.74 2 .29.57-.74 1.54.17 2 .57.77-1 2.21-1.66 3.07-.33.35-.86.5-2 1.49-2.43a1.08 1.08 0 011.41.63c.13.28.14 1.31.27 1.37a1.3 1.3 0 011 0c.4.26.28.59.47 1 .33.61.89.23 1.27-.19a4.94 4.94 0 011-1c.48-.3.82-.14 1.33-.19.84-.08.88-1.34 1.57-1.8.87-.58 1.25.34 2 .34s.86-.77 1.61-.52.93.63 1.41-.09.71-.29 1.31-.59c.82-.42.74-1.69 1.6-2.06 1.2-.51 1.27 1 2 1.42.37-.3.28-.86.77-1.08a1.37 1.37 0 011.74.69c.5-.45 1.1-.85 1.74-.29.35.3.44.91.92 1 .64.19 1.25-.3 1.87-.24a1.56 1.56 0 01.81.38c.23.21.3.58.6.71.52.23 1-.35 1.54-.12s.81.68 1.12 0c.09-.2.07-.39.24-.58s.51-.32.72-.54c.44-.48.94-1.26 1.67-.69.51.4.75 1.82 1.24 2 .32-.13.52-.37.91-.38s.67.24 1 .28a5.53 5.53 0 001.29-.1 3.77 3.77 0 011.69.38 3.53 3.53 0 001.17 0c.52 0 .81.35 1.2.6s.7.52 1.08.39.43-.45.85-.51 1.09.35 1.56.23a4.25 4.25 0 001.09-.62c.39-.73.89-2.67 2-2.46s.68 1.84.72 2.6c.26.06.56 0 .81.09.41.11.46.45.79.63.9.49 1.13-1.11 1.23-1.67s.2-1.75 1-2c.94-.33 1.51.73 1.68 1.47a1.88 1.88 0 00.45 1.17c.25.23.59.53.52.91.21-.37.63-.52.84-.91s.31-1 1-1.08c.25 0 .46.1.69 0s.28-.33.44-.46a1.13 1.13 0 011.42 0c.4-.3.47-.77 1-.94s1.23.32 1.8.12c.31-.11.42-.36.62-.58s.43-.31.8-.45c.62-.23.56-.87 1.05-1.31a1.74 1.74 0 011.27-.44c.32 0 .6.32.9.1.57-.45.53-1 1.33-1 .63 0 1-.49 1.66-.19.25.12.41.37.74.34s.51-.37.78-.52c.72-.4 1.32.43 1.93.06.11-.06.1-.25.22-.33s.39 0 .54-.11a1.63 1.63 0 00.77-.86c.25-.46.43-.82 1-.84a1.18 1.18 0 011.12.91c.13.5 0 .58.42.89s.62.78 1 .85.53-.2.72-.33c.42-.3.42-.31 1-.2a8.69 8.69 0 001.25 0c.62 0 .41-.23.64-.7a.6.6 0 011-.19c.31.33.08.82.58 1 .51-.21.71 0 1.06.38s.61.1 1 .29.27.66.87.46.57-.24 1.08.07c.33.2.22.1.56.13a1.62 1.62 0 01.9.38c.55.35 1.23.14 1.57.76s.56 1.53 1 2.26c.24.38.45.89.89 1.09a3.77 3.77 0 001 .11 2 2 0 00.73.17c.29 0 .44-.18.75-.07.68.23.59 1.1 1.19 1.44s1-.06 1.55-.19a11.1 11.1 0 011.61.09c.5 0 1 .42 1.39.29.25-.08.34-.26.62-.29s.54.18.84 0 .16-.35.6-.32a1.57 1.57 0 01.94.49c.15.16.23.41.43.52s.65-.06.88.11.11.37.24.52.4.11.64.15c.61.1.65.56 1.17.8s.6-.21 1.09-.4c.68-.27 1.16.55 1.74.7a1.61 1.61 0 001.54-.2c.54-.39 1 .31 1.1.75s.12.74.51.84.48-.21.77-.21.46.45.84.46.32-.28.58-.43c.73-.39.89.67 1.4.91s.73-.05 1.14 0c.6.07.61.5 1 .89s.78.14 1.18.38.38.69.79.81.51-.15.74-.36.35-.25.5-.4c.5-.51.48-2.07 1.74-1.33.44.25.29.88.7 1.17s.75.12 1.08.24a1.86 1.86 0 00.9.21c.39 0 .4-.18.73-.32.67-.28 1.07.59 1.47-.25.16-.33.18-.86.6-1s.8.11 1.16-.2.5-1 1-1c.34 0 .51.44.9.33s.32-.48.49-.75c.36-.56.93-.53 1.51-.39s1 .22 1.42-.29.55-1.12 1.25-1.28.71.31 1.23.52.79-.23 1.27-.44.75.21 1.23.26.7-.28 1.07-.53c.61-.41.81-.08 1.39.11s.86-.25 1.31-.56c1.18-.82 2 .44 3.1.7a7.31 7.31 0 001.81-.1c.65 0 .86.37 1.35.7.74.5 2.44.67 3.12 0 .36.15.61 0 1 .32s.56.73 1 .87.82-.2 1.3-.34c.68-.19.79.07 1.11.57.59.94 1.51.17 2.31.66.45.27.52.84.87 1.2s.49.13.9.17.28.29.46.7c.25.56.52.29 1 .34.8.09.36 1 .91 1.28.16.09.33 0 .49 0a4.15 4.15 0 011.33.27c.56.25.69.57 1 1s.64 1 1.15.56c1 .38.67 1.56 1.66 1.75.24 0 .4 0 .61.12s.22.51.43.67c.39.32.49 0 .83-.14s.63 0 .82.38c.32.62.61 1.36 1.5 1.33.65 0 1-.83 1.63-.76s1 .87 1.69.51.61-1.09 1.15-1.44c.8-.53 1.14.45 1.92.56 1 .15.79-.83.92-1.47.07-.35.49-1.78 1-1.16.26.31.06 1.15.05 1.51a2.23 2.23 0 001.89 2.3 1.4 1.4 0 011.08.41c.32.36.31.86.62 1.22.73.85 1.36-.39 2.17-.24s.6 1 1.35 1c.52 0 .5 0 .76.45a26.29 26.29 0 012.15 4.11 32 32 0 011.73 13.94c-.27 2.18-.72 5.27-2.35 6.88a4.5 4.5 0 00-.71 1.42 28.17 28.17 0 01-1.87 5.11c-3.75 6.38-11.51 7-18.21 6.94-1.2 0-2.45-.08-3.65-.1-7.16-.13-14.31.24-21.47.15-3.8-.05-7.54-.37-11.31-.78-3.29-.35-6.51-1-9.77-1.46a67.83 67.83 0 00-17.14-.5 11.93 11.93 0 00-1.19.1 73.51 73.51 0 01-7.57.18c-5.53 0-11.07 0-16.6-.27-5.75-.28-11.49-.85-17.22-1.45a155.11 155.11 0 00-33.3-.27c-9 1-18.06 1.68-27.11 1.9-.11-.1-.18 0-.34-.06a10.44 10.44 0 00-3.57 0c-4.13.22-8.26.24-12.4.28-5.52.06-11 .18-16.57.07s-10.74-.39-16.09-.88c-5.69-.52-11.36-1-17.08-1-4.54 0-9 .23-13.57.58s-9.17-.21-13.77 0c-.12-.12-.38 0-.56 0a7.37 7.37 0 00-1.62-.17c-1.57-.09-3.13-.21-4.69-.32a243 243 0 00-30.05 0c-8.5.45-17 .42-25.48.72-5.43.19-11.31.66-16.53-1.21a11.69 11.69 0 01-6.9-6.19 19.32 19.32 0 01-1.33-10.62c.51-3.55 2-7.61 4.49-10.25.8-.7 1.43-.94 2.15-1.65z" fill="#d2e3fc"/><path fill="#e8f0fe" d="M233.53 101.75h75.7v22.14h-75.7z"/><path fill="#8ab4f8" d="M208.2 101.75h25.33v28.36H208.2z"/><path fill="#aecbfa" d="M236.95 105.78h15.03v15.03h-15.03z"/><path fill="#8ab4f8" d="M236.95 105.78h15.03v.98h-15.03z"/><path fill="#8ab4f8" d="M249.79 105.78h2.18v15.03h-2.18z"/><path fill="#aecbfa" d="M255.24 105.78h15.03v15.03h-15.03z"/><path fill="#8ab4f8" d="M255.24 105.78h15.03v.98h-15.03z"/><path fill="#8ab4f8" d="M268.08 105.78h2.18v15.03h-2.18z"/><path fill="#aecbfa" d="M273.52 105.78h15.03v15.03h-15.03z"/><path fill="#8ab4f8" d="M273.52 105.78h15.03v.98h-15.03z"/><path fill="#8ab4f8" d="M286.36 105.78h2.18v15.03h-2.18z"/><path fill="#aecbfa" d="M291.17 105.78h15.03v15.03h-15.03z"/><path fill="#8ab4f8" d="M291.17 105.78h15.03v.98h-15.03z"/><path fill="#8ab4f8" d="M304.01 105.78h2.18v15.03h-2.18zm-81.92-7.29h3.07v3.26h-3.07z"/><path fill="#e8f0fe" d="M225.16 98.49h5.74v3.26h-5.74zm64.96 25.41h1.86v12.49h-1.86z"/><path fill="#8ab4f8" d="M291.98 125.46l-1.86 1.56v-3.12h1.86v1.56z"/><path fill="#e8f0fe" d="M303.08 123.9h1.86v12.49h-1.86z"/><path fill="#8ab4f8" d="M304.94 125.46l-1.86 1.56v-3.12h1.86v1.56z"/><path fill="#e8f0fe" d="M259.43 123.9h14.09v10.69h-14.09z"/><path fill="#8ab4f8" d="M259.43 123.9h14.09v1.15h-14.09z"/><path fill="none" stroke="#fff" stroke-linecap="round" stroke-miterlimit="10" stroke-width=".51" d="M246.27 108.91l-2.05 2.05m1.73.3l-1.64 1.65m21.58-4l-.82.83m-1.21 1.22l-2.98 2.98m21.33-5.03l-1.59 1.59m-.76.76l-.57.57m3.18-1.33l-4.01 4m22.87-5.18l-1.64 1.64m-.93.93l-.37.37"/><path d="M311.78 136.39H216v2.14h15.83l-1.12 2.66 8.79 3.82a72.23 72.23 0 019.82 1.35c7.64 1.34 12-2 12-2s4.28-4.27 8-3.22a14 14 0 008.34 0c1.35-.58 1.91-1.83 6.08-1.83a8.8 8.8 0 003-.44 7 7 0 012.31-.39h22.8z" fill="#8ab4f8"/><path d="M285.38 136.39A13.93 13.93 0 01281 134c-1.39-1.39-2.2-2.75-6-3.79s-8.74-2.56-11.06-4.88-7.94-5.56-11.94-5.56-10.22.82-12.83-.89c0 0-7.11-1.72-12.1 1.22s-6.28 3-8.12 6.08c0 0-1.43-.19-.54-2.07s2.24-3.17-1.64-5.73-6.94-3.75-11.19-2.12c0 0-5.32 1.23-8 3.92s-4.58 4.25-4.58 6.95l32.53 9.4z" fill="#aecbfa"/><path d="M211.09 120.06s-4.69 6.68-4.15 11m-.72-9.44s2 3 1.3 5.4m5.11-1.02a7.56 7.56 0 00-4.43 5.06m51.72-5.06s-4.1 7-4.1 10.51m-1.63-4.74s2.09.3 2.09 2.09m-24.13-10.55s4.51 7.24 3.61 13.2m3.4-11.3s-4.29 3.21-3.83 5.62m-4.67-4.83s3.15-.07 3.76 2m25.98 2.14s-2.49-.46-3.3 1.63" fill="none" stroke="#8ab4f8" stroke-miterlimit="10"/><path d="M308 138.55c-.24-.43.3-1.56.51-2a4.91 4.91 0 012.19-2 7.71 7.71 0 013.66-.77c1.44 0 2.82.6 4.23.61a2.42 2.42 0 001.79-.91 5.56 5.56 0 012.5-1.48 4.85 4.85 0 012.67 0c.9.31 1.57 1 2.44 1.38s1.56-.14 2.29.2 1.25 1.16 2.15.87 1.42-1.51 2-2a3.85 3.85 0 012.72-.93c1.41.07 2.27 1.51 3.72 1a3.59 3.59 0 012-.3 1.53 1.53 0 001.41-.19c1.57-1 3.07-2.24 5.1-1.43a5.42 5.42 0 012 1.5c.11.13.2.37.36.44s.47-.11.68-.05a1.22 1.22 0 01.56.45 2.68 2.68 0 012.06 0c.41.22.59.62.88.94 1.13-.93 3-.72 4.3-.33a13.76 13.76 0 002.05.07 7.25 7.25 0 012.93 1.07c.49.32 1.85 1.17 1.94 1.78 2-.21 5.2 0 6.27 2.08zM695.73 113s.02 0 0 0z" fill="#8ab4f8"/><path d="M771.81 120.44c0-1.12-1.65-1.42-2.37-.8a4 4 0 00-1.62-.6c-.88-.21-1.1-.77-1.68-1.41s-3.26-1.61-3.42.08c-.65-1-1.91-2.12-3.17-1.55-1.23-.37-2.29-1.49-3.68-1.33a4.18 4.18 0 00-3.37 2.48c-.46 1.16-1.26 1.35-2 2.32-.51.64-1.28 2.4-.65 3.17-.63.22-1.39.72-1.33 1.48a4.37 4.37 0 00-1.77-2.75 3.55 3.55 0 00-3.35-.07 6.3 6.3 0 00-1.6-1.39 4.52 4.52 0 00-2.48-2.22c-1-.38-2.18 0-3.11-.43s-2-1.19-3.19-.4c-.25.17-.39.63-.61.75s-.76 0-1.09.12c-.91.38-1 1.31-1.27 2.09-.66 0-4 .39-4.2 0s.43-1 .61-1.17a8 8 0 001.4-1.76c1.07-2.16.25-4.27-1.54-5.71a13.22 13.22 0 00-6.39-2.51c-1.12-.11-2 .32-2.71-.74-1.31-2-3.59-1.34-5.32-.46-.62.32-.55.21-1.2 0a3 3 0 00-2 .22c-1.36.4-2-1-3.33-1.1-.56-.07-.89.28-1.4.44s-.92-.11-1.48-.2a3.6 3.6 0 00-3.61 2c-1.31-1.26-4.24 0-5 1.43-.62 1.27-.18 2.74-.26 4.09s-.15 0-.08 0c.33.31-1.22.77-1.64.84a4.6 4.6 0 01-2.52-.13c-.93-.36-1.88-1.34-2.88-1.4-1.27-.08-2.3 1-3.31 1.49a5.08 5.08 0 01-4-.11 19.45 19.45 0 01-4.62-2.61 4.62 4.62 0 00-2.2-.92c-2.19-.22-3.19 2.3-5.11 2-.95-.16-1.92-.65-2.93-.07a4.62 4.62 0 00-1.66 2.24c-.35.78-2.4.86-3.11 1.56-.55.55-.74 1.52-1.5 1.72-1 .27-2.51-.65-3.41-1.07a11.58 11.58 0 00-7.5-1.08c-.93-.91-2.08-2.14-3.46-2.34s-1.77.78-2.83 1.11a5.6 5.6 0 01-1.53 0 3.91 3.91 0 00-2.11.54c-.84.49-2.19 1.48-2.3 2.5-.55-1.19-2-2.76-3.37-2.68a4.08 4.08 0 00-2.94-2.76c-1.61-.31-2.92.65-4 1.63-1.6-.27-3.44-.82-4.55 1-.39.63-.42 1.48-.93 2a9.31 9.31 0 01-1.74 1.21c-1.48-1.37-4.2-1.85-5.78-.49-.69.6-.69 1-1.72.74s-1.94-.92-3-1.21c-1.85-.53-3.87.26-5.36-1.06-1.66-1.48-3.26-3.2-5.81-2.66-.32.06-.86.53-1.11.52-.44 0-.6-.32-1-.56-.53-.36-1.55-.81-2.06-.37a3.66 3.66 0 00-3.71-1.94 6 6 0 01-1.64.32 14 14 0 01-1.46-.51c-1.72-.36-2.78.74-4 1.53-.93.58-1.69-.27-2.69.1-1.31.49-2.57 1.9-1.89 3.25a5.79 5.79 0 00-4.11.33 5.32 5.32 0 00-2.54 3.37c-.69-.29-1.38 0-2.05 0-.9-.12-1.49-1-2.39-1.16-.72-.15-1.19.2-1.87.19s-1.55-.74-2.28-1c-1.71-.64-2.42.45-4 .67-1.34.18-2.31-.85-3.54-1s-2.8.51-3.1 1.73a10.93 10.93 0 00-2-1.64c-.52-.25-1.28-.24-1.7-.62-.89-.83-.63-2.35-2.26-2.14-.41-.34-.36-1.1-.68-1.6a4.21 4.21 0 00-1.66-1.35c-1.58-.73-3-.25-4.47.36a5 5 0 00-2.39-2.09 4.19 4.19 0 00-3.38.09c-1 .44-1 1.31-1.66 1.81a12.13 12.13 0 01-1.64.54 3.43 3.43 0 00-1.6 1.21 4.32 4.32 0 00-.62 2.24s.24-.07.07.06c-1.57.07-3.86.62-4.14 2.43-1.07-.64-3.42-.81-3.6 1-.38-1-1.59-1.36-2.71-1.73a11.82 11.82 0 01-2.12-1.3c-.84-.49-1.37-.16-2.24 0a3.23 3.23 0 00-1.66.56c-.35.29-.57.65-1 .82s-1 0-1.41.34a5.86 5.86 0 00-.79.87 4 4 0 00-3.43-1.25c-.52-1-2.81-2.27-3.62-.86-1-.72-2-1.48-3.3-1.21a6.07 6.07 0 00-1.91-1.66c-.84-.39-1.87 0-2.59-.26-1.51-.45-2.36-2.81-4.37-2.09-.57.2-.88.86-1.56.77s-1.18-1-2-1-1 .43-1.57.75a1.77 1.77 0 01-1.62.07 2.5 2.5 0 00-3.27 1.76c-1.14-1.89-4.39-1.84-6.22-1.38a5.55 5.55 0 00-3.69 2.85c-.35.56-1.31 2.15-.95 2.76a22.63 22.63 0 00-4 0c-1 .19-1.06.52-1.74 1.08-1.61 1.34-4.79.55-6.53-.22-1.94-.86-3.56-2.07-5.8-1.73-1.9.28-3 1.78-5 1.49-1.26-.19-3.91-.35-4.3 1.35l.14.12c0 .14-.07 0-.17 0v-.1c-1.12-.88-4-.11-3.92 1.46a4.88 4.88 0 00-1.73.6c-.69.25-.59.08-1.35-.3a4.51 4.51 0 00-4.45.41c-1.09.64-2 .2-3.1-.43a3.18 3.18 0 00-2.26-.53c-.52.11-.92.57-1.4.65-1 .18-1.36-1.57-2.33-1.07-1.23-.17-1.71.24-2.76-.61a2.93 2.93 0 00-2.71-.76 6.33 6.33 0 01-2.46.16c-.79-.19-1.2-.74-2.07-.6a3.67 3.67 0 00-2.37 1.52c-.69.9-.77 1.13-1.77 1.53a2.6 2.6 0 00-1.55 1.64c-.35.83-.77.91-1.37 1.53s-.54 1.36-1 2c-.12.16-.28.31-.43.48h371.72z" fill="#aecbfa"/><path d="M441.63 119.48a.86.86 0 00-.14-.13.36.36 0 000 .1c.07-.01.1.16.14.03z" fill="#8ab4f8"/><path d="M131.93 111a2.38 2.38 0 011.93-.11.87.87 0 001-.15 3.24 3.24 0 013.6-.78.62.62 0 00.85-.57v-1.49a2.06 2.06 0 012-1.86c1.8 0 2.3 1.66 2.3 3.16v1.48a.84.84 0 00.72.83 2.17 2.17 0 011.24.6 3.78 3.78 0 011.72-.45 1.07 1.07 0 001-.54 2.32 2.32 0 013.89-.16s1.86-1 3.12.25a5.69 5.69 0 011.07 1.91 1.09 1.09 0 001 .75 3.25 3.25 0 012.75 1.44 3.91 3.91 0 012 .2 1.85 1.85 0 001.29.08 3.42 3.42 0 013.87 1s1.05 2.21 2.05 2.61a2.72 2.72 0 011.62-1.41 1.66 1.66 0 00.92-.53 2.32 2.32 0 012.68-.62s2.46.9 1.61 6.07a4.33 4.33 0 014.2-.15 1.37 1.37 0 001.1.14 3.43 3.43 0 012.58.22 4.2 4.2 0 015-2.27 5.06 5.06 0 013.16 1.93 1.68 1.68 0 001.35.72 3.14 3.14 0 012.67 1.77 3.1 3.1 0 013 .77 1.79 1.79 0 001.39.52 2.86 2.86 0 012.8 1.62 3.88 3.88 0 015.06-.3 4.92 4.92 0 011.69 2.36 1.38 1.38 0 001.35 1 3.29 3.29 0 011.13.18 2.92 2.92 0 012.86-.55 3.12 3.12 0 013.56 0 4.12 4.12 0 014.73 3.3 1.5 1.5 0 001.33 1.12 4.59 4.59 0 012.32 1 3.5 3.5 0 013.66 0 4.46 4.46 0 011.85 2.69 1.6 1.6 0 002 1.13c1.59-.49 4.14-.61 7.12 1.65 0 0 3.51 2.36 3.51 9h-71l-26.3-14.28-17-23.5z" fill="#e8f0fe"/><path d="M190.28 129.09s-10 10-6.47 21.43m-4.23-17.6s4.09 5 3.68 9.91m3.41-14.54s.57 4.09-.74 6.85m-38.07-20.67s14.11 13.67 13.65 27.15m-6.34-24.7s-1.17 4.52.5 7.3m-2.31 3.28s5.78 2.35 6.67 5.42" fill="none" stroke="#d2e3fc" stroke-miterlimit="10"/><path d="M171.87 121.62s-1.41 5.75-5.36 8.59-5.43 5.55-5.22 7.67m14.2-9.59s-6.34-.31-9 1.92m51.87 9.6s4.38.72 4.32 4.31" fill="none" stroke="#d2e3fc" stroke-miterlimit="10"/><path d="M717 188.13c-2.73-12.38 4.26-26.32 12.83-35.14 5.15-5.3 11.09-7.93 18-10.14 4.77-1.53 11.11-1.58 15.12-5 5.78-4.91 7-14.07 12-19.86 8.7-10 19.08-16.46 32.63-14.63a41.64 41.64 0 0119.68 8.64 28.07 28.07 0 017 8.5c1.08 1.84 3.18 4.5 3.1 6.44l-43.85 63.76z" fill="#e8f0fe"/><path d="M778.5 183.51c1-2.13 1.31-4.7 1.85-7 1-4.21 2.19-8.31 2.77-12.63 1.41-10.31.6-20.32.7-30.69a49.18 49.18 0 012.55-16.66M745 152.92c-1.43 1.64-1.7 6-2.12 8.3-1.76 9.35 1 17.08 4.69 25.7m-16.85-13.84c4.69 1 9.37 6 12.06 10.28" fill="none" stroke="#d2e3fc" stroke-miterlimit="10"/><path d="M760.88 148.52c3 .43 7 3.13 9.37 5a27.08 27.08 0 017.11 8.8c1.78 3.54 3.77 7.94 3.73 11.87m2.81-28.33c-.29-3.36 1.34-7.82 2.67-10.81a30.54 30.54 0 014.41-6.77c1.56-1.92 5.25-5 5.28-7.55m-12.36 5.33a11 11 0 00-1.4-5.19M768 151.89a11.18 11.18 0 01-.42-3.65m-24.95 12.36c.12-1.47-.78-3.37-1.4-4.64m51.09-29.2c1.32-1.44 4.4-1.57 6.18-1.82m-64.01 49.97a6.55 6.55 0 01-.28-3.37" fill="none" stroke="#d2e3fc" stroke-miterlimit="10"/><path d="M0 .1V245h170.69v-50.88c0-1.51 4.71-6.31 5.5-8a21.12 21.12 0 001.89-11.3c-.33-3.18-1.64-6.21-1.81-9.42-.18-3.48 1-6.91.11-10.37-1.22-4.76-4.59-8.48-8.51-11.28-5.72-4.08-12.73-6.33-18.26-10.57-3.76-2.87-6.36-7-9.08-10.77-4-5.56-8.27-10.9-12.37-16.39s-7.42-11.47-12-16.49C106.7 79 93.44 77 80 80.15a101.43 101.43 0 01-25-46.86S54 11.27 50.07.1z" fill="#fff"/><path d="M35.65 196.62s-.83-42.71 7.76-70.71-5.82-58-13-80.7S24.56 7 24.56 7" fill="none" stroke="#e8f0fe" stroke-linecap="round" stroke-linejoin="round"/><path d="M75.47 103.82S69.56 125.67 54 141.27a63.67 63.67 0 00-17.88 33.83m20.45-36.6s14-13.49 23.66-17.76M41.17 77.45S33.61 61 48.05 35.52M42 49.08a52.1 52.1 0 00-2.81-24.58M41 135.19s-2.26-17.39-9.1-32.59-16.72-29.46-11.21-55.68m7.08 46.97s-2.3-8.72-13.2-16.44m4.72-10.86A37.35 37.35 0 008.41 40.7m104.04 168.69s8.87-39.39-4.32-64.39m6.08 19.58a59.55 59.55 0 0111.21-41.65" fill="none" stroke="#e8f0fe" stroke-linecap="round" stroke-linejoin="round"/><path d="M115.33 183.91s.76-16.15 19-25.48c0 0 9.79-5.69 28.67-3.64m-31.9 5.45s12.29-6.58 13.89-16.48m5.46 70.41s-1.14-24.57 17.55-40.73m-8.8 10.1a18.66 18.66 0 001.49-14.41m-8.22 29.73s3.21-7.21 10.49-10.17" fill="none" stroke="#e8f0fe" stroke-linecap="round" stroke-linejoin="round"/><path d="M75.28 74.05S100.51 100 94.59 148" fill="none" stroke="#d2e3fc" stroke-linecap="round" stroke-linejoin="round"/><path d="M218.9 134.67a18.33 18.33 0 013.71 13" fill="none" stroke="#d2e3fc" stroke-miterlimit="10"/><path d="M714.85 189.82c.15-1.74 2.46-3.89 3.68-5a20.55 20.55 0 015.91-4.36c6-2.48 12.84-1.52 19-.11 6.61 1.51 12.45 4.85 19.38 4.87a23.87 23.87 0 009.68-2.43 63.31 63.31 0 0110.64-3.47c5.19-1.31 9.85-2.64 14.49-5.45 2.48-1.5 5.72-4.82 6.39-7.67 1.66-7 5.06-14.24 8-20.95 3.56-8.27 10.72-13.78 18-18.44 3.42-2.18 5-4.46 6.15-8.41 2-6.57 2.46-14 2.88-20.93.46-7.48.86-16.78 4.63-23.47 4-7.17 10.16-10.84 17.75-13.3 5.13-1.67 11.78-2.3 15.79-6.08 1.5-1.41 2.3-3.6 3.23-5.4a37.36 37.36 0 017-9.18c5.14-5.17 12.36-9.92 19.91-9.56s15.26 5.04 20.5 10.52 6.77 13.68 8.47 21c2 8.47.68 17.27 4.87 25.18 2.35 4.45 6.34 7.75 8.92 12.07a39 39 0 014.56 12.47c.28 1.34.07 3.49.6 4.55a111.52 111.52 0 0113.82-39.63c9.25-15.82 20.89-29.83 23.82-48.52 1.51-9.57.24-18.36.24-28H1024V245H714.05z" fill="#fff"/><path d="M799.79 208.46c2.07-3.85 2.91-8.34 3.7-12.63 1-5.48-1.66-10.82-6-14.18" fill="none" stroke="#e8f0fe" stroke-linecap="round" stroke-linejoin="round"/><path d="M801.57 176.93c1.64 4.38 3.43 9.58 2.74 14.3-.15 1-.4 2.07-.61 3m40.92.65a146.38 146.38 0 00-.87-18.72 97.43 97.43 0 00-4-19.2c-2.61-7.68-7.19-14.05-11.76-20.65m12.89 24.17c-1.08-3.52-1-7.1-1.13-9.25a46.63 46.63 0 01.69-11.18c1.44-9.08 6.12-19.05 4.49-28.38" fill="none" stroke="#e8f0fe" stroke-linecap="round" stroke-linejoin="round"/><path d="M844.62 188.64c-1.32-4.46-4.1-8.33-7.2-11.85-1.45-1.63-3.21-2.93-4.79-4.41-3.83-3.59-5.3-7.49-5.65-12.79M890 193.82c-4-14.33-5.21-30-4.59-45 .43-10.47.36-21.53 2.84-31.77a272 272 0 0110-31.45c4.18-11.15 9.32-22.36 11.1-34.21m-7.57 86.82c1.1-2.48 7-5.08 9.48-6.59 3.79-2.29 7.81-4.25 11.7-6.37 4.4-2.4 8.65-5.07 13-7.5 3.27-1.81 7.35-4.1 9.31-7.45" fill="none" stroke="#e8f0fe" stroke-linecap="round" stroke-linejoin="round"/><path d="M887.22 182.1c-1.48-9 1.13-19.77 5.1-27.85 2.74-5.57 5.51-11.2 9.46-16s8.07-9.82 11.78-14.92A133.23 133.23 0 00930 93.72m-41.57 22.36c-.49-1.09-.15-3.41-.15-4.69a44.15 44.15 0 00-1.37-10.6c-1.91-7.78-6-14.71-8.37-22.28M925.2 124c3.56-2.42 9.52.78 12.82 2.27m-51.77-28.42a19.75 19.75 0 01-.68-4.16c-.09-1.36-.05-2.74 0-4.11 0-3.3 1.1-6.31 2.07-9.43m98.26 110.51c-3.35-12.78-1.84-26.28-.2-39.25 1.37-10.86 3.25-21.62 3.85-32.57.81-15 .67-30.69-2.72-45.36" fill="none" stroke="#e8f0fe" stroke-linecap="round" stroke-linejoin="round"/><path d="M986.68 144.11a31.46 31.46 0 011.87-8.12c4.09-10.9 11.77-19.34 19.43-27.93m-18.27 7.45a32.26 32.26 0 01.9-7.38c1.1-4.92 2.39-9.78 3.67-14.67 1.69-6.46 3.4-12.91 5.29-19.33 3.54-12 4.81-24.37 5.48-36.83m-3.72 29.4c2.75-9.78 9-17.83 15.83-25.14m-60.97 65.69s-3.58 17-5.18 53.53" fill="none" stroke="#e8f0fe" stroke-linecap="round" stroke-linejoin="round"/><path d="M931.73 46.28c2.71 4.84 4.17 10.47 5.39 15.73" fill="none" stroke="#d2e3fc" stroke-linecap="round" stroke-linejoin="round"/><path d="M859.87 60.66c5.13-1.67 13.35-2.3 17.36-6.08 1.5-1.41 2.3-3.6 3.23-5.4a37.36 37.36 0 017-9.18c5.14-5.17 12.36-9.92 19.91-9.56" fill="none" stroke="#e8f0fe" stroke-linecap="round" stroke-linejoin="round"/><path d="M802.11 201.9c1.12-2.16 3.19-3.34 5.17-4.68" fill="none" stroke="#e8f0fe" stroke-linecap="round" stroke-linejoin="round" stroke-width="1.29"/><path d="M803.09 180.83a5.75 5.75 0 011.6-2.72" fill="none" stroke="#e8f0fe" stroke-linecap="round" stroke-linejoin="round"/><path d="M222.6 176.34h-42a1.59 1.59 0 00-1.6 1.6 1.6 1.6 0 001.6 1.6h11.85a.92.92 0 01.92.91.92.92 0 01-.92.92h-3.35a1.13 1.13 0 00-1.14 1 1.09 1.09 0 001.09 1.19h27.75a1.12 1.12 0 001.13-1 1.09 1.09 0 00-1.09-1.19h-11.16a.92.92 0 01-.92-.92.92.92 0 01.92-.91h16.92a1.6 1.6 0 001.6-1.6 1.6 1.6 0 00-1.6-1.6zm91.64-5.19a1.27 1.27 0 00-1.27-1.27h-59.83a1.27 1.27 0 00-1.26 1.27 1.26 1.26 0 001.26 1.26h7.63a1.42 1.42 0 011.41 1.42 1.41 1.41 0 01-1.41 1.41h-12.66a1.22 1.22 0 00-1.22 1.22 1.23 1.23 0 001.22 1.23h42.48a1.22 1.22 0 001.22-1.23 1.22 1.22 0 00-1.22-1.22h-6.92a1.42 1.42 0 01-1.42-1.41 1.43 1.43 0 011.42-1.42H313a1.26 1.26 0 001.24-1.26z" fill="#d2e3fc"/><path fill="none" stroke="#d2e3fc" stroke-linecap="round" stroke-linejoin="round" d="M269.61 180.48h4.91m-46.32-11.65h4.91m-12.44-4.21h3.89m16.97 2.68h4.91m49.45-2.31h4.91m8.23 0h2.09m70.46-10.12h4.91m8.22 0h2.09"/><path fill="none" stroke="#fff" stroke-linecap="round" stroke-linejoin="round" d="M321.74 144.76h4.91m7.22-.04h2.09m38.21-2.74h4.91m12.82-11.04h1.46m-4.37 11.04h2.91"/><path fill="none" stroke="#fff" stroke-linecap="round" stroke-linejoin="round" stroke-width=".77" d="M640.01 141.21h4.91"/><path fill="none" stroke="#d2e3fc" stroke-linecap="round" stroke-linejoin="round" d="M279.18 180.48h1.58m382.55-8.05h2.66m2.1 0h.79m-2.51 2.36h1.58m-.8 2.35h.4"/><path fill="none" stroke="#fff" stroke-linecap="round" stroke-linejoin="round" d="M395.32 130.94h.48m104.2 0h1.46m1.97 0h.48m40.15 0h1.46m2.64 1.63h1.46m-2.13-1.63h.47m45.2 0h1.46m2.64 1.63h1.46m2.98-1.63h.48m-179.99 0h1.46m10.95 0h.48"/><path d="M534.7 50.33c1.38-.86 3.72-.9 5.44-1.29 9.31-2.1 18.7-4.5 27.83-7.32C600.52 31.68 632.54 18 661.7.1M651 6.42c-6.13 6.12-12.93 12.58-15.4 21.31M596.62 47.7c1.67-.7 3.93-.8 5.81-1.19a158.89 158.89 0 0027-8.68c11.63-4.7 23.31-9.59 34.53-15.19A329.75 329.75 0 00702.34 0m-48.69 84.38c.73-4.73 5-9.79 7.38-13.9 5.07-8.83 11.87-15.2 19.87-21.28s16.55-11 24-17.82c9.72-8.83 16.92-20 23.87-31.25m-57.84 19.15c-1.85.73-3.46 3.32-4.8 4.79a164.59 164.59 0 00-10.45 13A123.84 123.84 0 00646 52.5c-5.21 9.86-12 17.43-20.35 24.77" fill="none" stroke="#8ab4f8" stroke-linecap="round" stroke-linejoin="round" stroke-width="1.28"/><path d="M695.12 70.74a77.15 77.15 0 015.53-14.83c2.83-6.07 6.91-11.48 9.55-17.63a76.79 76.79 0 004.65-13.62c.57-2.56.13-3.52 1.42-5.82M739.35.13a20 20 0 01.2 8.88c-.64 4.18-2 8.19-2.71 12.37-1.33 8.21-1.94 15.91-.43 24.21m5.18 14.02c-.62-1.85 2.31-5.89 3.31-7.45a74.36 74.36 0 017.2-9.64c4.06-4.59 8.89-8.42 13.21-12.77 3.38-3.43 6.76-7 8.74-11.44a45.23 45.23 0 002.25-6.52A72.77 72.77 0 01781 0" fill="none" stroke="#8ab4f8" stroke-linecap="round" stroke-linejoin="round" stroke-width="1.28"/><path d="M711.06 35.6c.05 3.86-1.3 8.76-.68 13.16.48 3.42 1.78 6.59 2.27 10a43.08 43.08 0 01-1.4 17.19M778.84 4.5c-1.13 3.23-1.22 8.1-1.15 11.53.1 5 1.48 10 2.26 15a105.38 105.38 0 01-2.64 43.59" fill="none" stroke="#8ab4f8" stroke-linecap="round" stroke-linejoin="round" stroke-width="1.28"/><path d="M538.13 49.63c0-1-1.31-2-2.19-2.33-1.63-.59-3 .19-4.47 1-1 .53-2 1.3-.6 2.09a7.22 7.22 0 004.06.57c.56-.08 3.7-.73 3.2-1.33zm29.38-7.81c-1.6.24-5.13 4.71-3 5.91 2.34 1.33 6.49-3.93 5.3-6.12-.59-1.03-2.49-.31-2.3.21zM560.67 44a7.77 7.77 0 01-3.67-2.59c-.62-.78-1.9-2.44-1.76-3.52s1.52-.93 2.37-.5a7.16 7.16 0 013.39 4.37c.1.62 0 3.59-.33 2.24zm26.59-8.8a4.57 4.57 0 00-2.78 4.8c1.11.25 3.2-1.49 3.67-2.4s.21-3.39-.89-2.4zm-7.05 2.74a5.46 5.46 0 01-5.07-3.59c-1-3.05 3.45-.81 4.36.2s1.79 2.57 1 3.75c-.12.01-.21-.02-.29-.36zm17.92-6.51c-1.5 1.26-1.66 6 .64 4 .82-.7 1.64-2.07 1.15-3.2a1.41 1.41 0 00-2.46-.4m7.69-3.31c-3.19-.43-2.54-4.36-2.69-6.8 1.54.91 3.46 1.17 4.13 3.14.6 1.74.18 3.3-1.59 3.85-.16-.35-.29-.12.15-.19zm14.85-6.7c-1.55.83-4 3.5-2.82 5.39s4.63-2.52 4.43-4.25c-.19-1.36-1.51-1.71-1.61-1.14zm5.05-2.07a4.72 4.72 0 01-3.07-6.4c1.44.18 3.15 1.78 3.82 3.06.4.77.3 4.45-.75 3.34zm10.83 5.75c-1.83.79-5.65 5.63-1.62 4.85 2.74-.53 4.32-5.04 1.62-4.85zm5.12-8.76c-1.65-.65-5.83.26-5.91 2.54 1.69.52 5.69-.37 5.91-2.54zm3.37-3.37a4 4 0 00-.31 3.9c.94 1.55 1.65.13 2.19-1 .48-1 1.26-3.26-.17-3.91s-2.5 1.82-2.52 2.93m-4.31-2.73c-2.33.14-4.66-.92-5.24-3.48 2.18-.13 6.51.55 5.21 3.73-.22.13-.12-.09.03-.25zm-39.1 34.1c-.34-1.68-3.64-1.44-4.87-1.21a7.44 7.44 0 00-5 3.1c1.2 1.39 4.27 1.75 6 1.36 2-.44 3.27-1.14 3.87-3.12-.15-.09-.26-.18 0-.13zm17.39-4.17a6.36 6.36 0 00-4.35 3.9c-.6 1.64-.79 3.49 1.26 2.46 1.68-.84 3.41-2.11 3.8-4 .23-1.22-.03-2.54-.71-2.36zm7.55-3.24c-2 0-6.08-.37-5.93-3.24.12-2.36 6.13-.72 7.11.72a1.57 1.57 0 01-1.18 2.52zm9.57-3.1c-3.26.57-3.72 7.56-.6 6.26 1.68-.71 3.62-3.39 2.91-5.25-.52-1.37-2.37-1.77-2.31-1.01zm4.45-2.43c-.55-1.65-4.68-3.15-6-1.71-2.11 2.18 4.26 3.24 6 1.71zm14.16-5.79c-1.58.89-3.46 3.49-2.14 5.23 1.83.34 3.59-1.77 3.92-3.39.41-1.96-1.48-2.97-1.78-1.84zm10.11-5.4c-1.21-.87-6.73-4.24-7.27-1.14s5.71 2.66 7.27 1.14zm-36.53 53.25c-2.91-.21-6.65 1.37-8.1 4-2.09 3.75 5.19.77 6.51-.19.6-.47 2.98-3.39 1.59-3.81zm11.86-11.73c-.34.18-.28 2.85-.57 3.67-.36 1-1.06 3.1-2.16 3.58-1.26.55-1.27-.7-1.15-1.82.23-2.16 1.79-3.36 3.88-5.43zm5.79-9.16a24.39 24.39 0 00-5.13.13c-1 .22-4.34 1.78-3 3.35 1.63 2.01 7.08-1.9 8.13-3.48zm9.44-15.77a6.08 6.08 0 00-1.32 4.68c.26 1.28 1.43 3.11 2.8 2.27 2.58-1.57.46-8.9-1.48-6.95zm28.71-26.97c-1.16-.28-3.72.1-4.34-1.18-.74-1.5 1.79-1.69 2.78-2.1 1.15-.47 3.55-1.59 4.28.1s-2.73 3.88-4.06 2.91" fill="#8ab4f8"/><path d="M698.83 2.45c-2.72 3.55-3.83 8.89-3.91 13.34A30.3 30.3 0 01693 26.31c-3.09 7.85-10.13 12.45-16.83 17" fill="none" stroke="#8ab4f8" stroke-linecap="round" stroke-linejoin="round" stroke-width="1.28"/><path d="M653.67 82.93c-.74 1.06-1.72 1.76-2.13 3.12-.26.88-.46 3.41.78 3.42s2.34-2.59 2.55-3.48c.34-1.4.26-3.13-1.2-3.06zm10.52-17.12c.35 1.32 2.53 4 1.07 5.46-1.67 1.62-2.74-3.83-1.07-5.46zm8.35-10.11c-1.76.65-7.33-.45-7.72 2.56-.37 2.85 7 .36 7.72-2.56zm9.98-7.82a6.66 6.66 0 00-1.89 4.12c-.07 1.35.08 3 1.76 2.33s2.82-3.48 2.49-5.13-1.88-2.54-2.36-1.32zm-5.39-5.66c-1.7-.58-7 1-5.53 3.57.7 1.28 2.91.22 3.77-.4s2.91-3.39 1.76-3.17zm10.11-7.15c-1 1-1.88 6.16.74 4.81 1.32-.69 1.7-3 1.14-4.25-.9-1.94-1.86-1-3.23-.15" fill="#8ab4f8"/><path d="M694.65 15.79a17.07 17.07 0 00-5.93 2.5A22.48 22.48 0 00684.4 22c-.74.89-1.35 1.88-2 2.83a47.5 47.5 0 01-6.75 7.29" fill="none" stroke="#8ab4f8" stroke-linecap="round" stroke-linejoin="round" stroke-width="1.28"/><path d="M693.84 23.07c-1.7-.18-6 1.32-5.66 3.51.18 1.4 1.44 1 2.4.53 1.8-.8 3.21-2.68 3.26-4.04zm2.83-15.77c-1 2.07 2.57 5.85 4.22 3.22 1.79-2.88-4.22-7.34-5.3-2M688.58 18c-1 .23-6.3.28-4.54-2.12s7.13.81 4.68 2.12m-12.13 12.62c-1.15.55-2.15.24-3.21 1.11-.75.62-2.14 2.6-1.17 3.53 1.93 1.89 4.73-3.2 4.38-4.64zM696.27 65c-1.21 1.52-2.73 2.57-3.27 4.58-.41 1.5.17 3.87 2.26 3.17s2.83-6.21 1.01-7.75zm6.47-12.54a5.89 5.89 0 000 4.39c.8 1.31 1.91 1 2.4-.23 1.02-2.53-2.22-7.41-2.4-4.16zM712 72.82a9.38 9.38 0 00-3 3.55c-.53 1.35-.77 4.29 1.55 4s3.58-6.05 1.45-7.55zm-1.44-24.67c.31 1.65 1.64 2.43 3 3.29.84.54 2.38 1.46 1.53 2.65-.67.93-2 .42-2.7-.14-1.61-1.26-1.56-3.61-1.83-5.8zm.44-12.94c-1.56.06-7.88 2.08-5.87 4.52 1.67 2.07 6.25-2.73 5.87-4.52zm.5-10.65c-1.68-.11-5.06-.94-6.17 1.07-1.61 2.9 5.76 2.22 6.17-1.07zm-8.63 8.08c-1.77.62-4.93-1.38-6.13 1-1.59 3.02 5.26 1.79 6.13-1zm16.05-17.12c-.47 1.39.51 6.84 2.86 4.62 1.7-1.59-1.38-6.79-2.86-4.62zM724.17 7c0-2.34-6-3.6-7.58-1.26-2.14 3.26 6.95 3.89 7.58 1.26zM736 44.44c-.25 1.18-1 2.58-.82 3.87s1.18 2 2.25 1.07c1.63-1.38.57-6.66-1.43-4.94zm-.45-14.09c-1.1.6-7.14 4.13-4.46 5.88 2.3 1.51 5.12-4.29 4.46-5.88zm1.22-7.59c-.93 2.35 2.79 5.82 2.57 2 0-.82-.47-2.62-1.35-3-1.84-.83-1.62 2.29-1.63 3.33m2.71-14.52c-1.39-.11-7.67 3.13-5.79 5.4 1.72 2.03 7.43-3.89 5.79-5.4z" fill="#8ab4f8"/><path d="M740 4.5c1.7 0 3.19 3.92 3.78 5.26 1.64 3.69 1.31 7.16.76 11.11" fill="none" stroke="#8ab4f8" stroke-linecap="round" stroke-linejoin="round" stroke-width="1.28"/><path d="M742.32 55.55c-1 1.53-2.05 2.55-2.47 4.47-.31 1.45-.15 5.53 2.28 4 3.04-1.93.2-6.1.19-8.47zm2.31-36.04c-1.3 1-2.89 6.26.14 5 1.77-.73 1.84-4.6 0-5.15M750.86 44a8.44 8.44 0 00-.86 4.7c.25 1.19 1 1.92 1.92 1s1.41-6.95-1.06-5.7zm6.91-7.69c-1.56-.5-6.13-1-6.79 1.26-.74 2.6 5.79.87 6.79-1.26zm7.04-6.09c-.79 1.12-1.71 6.47 1.06 4.85 1.86-1.09.65-6.42-1.46-4.85m10.97-16.8a11.88 11.88 0 00-3.8.43c-1.17.39-4 2.1-3.31 3.69s3.28.33 4.26-.25a4.93 4.93 0 002.85-3.87zm2.44 58.66c-1.26.87-4.73 4.58-2.31 5.89 1.24.66 2.12-.83 2.45-1.83a5.76 5.76 0 00-.14-4.06zm2.57-11.52c.32.95 1.72 4.56 2.84 2.31.86-1.72-1.46-3.61-2.84-3.79-.2.16-.2.31-.27.54m.14-6.78c-.87.67-4.71 1.79-3.59 3.59.57.92 1.67.21 2.26-.26 1.37-1.09 1.46-2.33 1.46-4m.68-10.57c.08 1.75 3.57 5.88 3.39 2.44-.16-2.95-4.87-5.85-3.12-.41m-2.57-16.39c-1.73-.59-6.57 5.75-3 6.23 1.46.2 2.67-1.86 3.08-3a4.28 4.28 0 00-.08-3.23zm-.68-8.54c.41 1 4 7.12 4.74 3.39.31-1.67-1.46-3.52-2.85-4.11-1.12-.47-2.57-.44-1.89.72z" fill="#8ab4f8"/><path d="M445.52 133.22l-4 3.36a2.29 2.29 0 00-.14 3.38l3.64 3.6 3.37-7.33z" fill="#edbfa5"/><path fill="#e8b393" d="M457.24 138.68l1.27-4.65 1.7.74-.18 5.76-2.79-1.85z"/><ellipse cx="458.92" cy="134.43" rx="1.29" ry="1.54" fill="#e8b393"/><path d="M443.57 145.35l5.09 3.56 5.27-3.89-1.34 1.34c2.07-1.75.09-3.67.21-5.53l.1-2.91.34-1.34-3.31-.24-.93-4.57h-3.25l-1.57 6.34a22.9 22.9 0 00-.61 7.24z" fill="#edbfa5"/><path d="M453.52 143.93s4.23-.08 7.26 6.78l-8-2.17z" fill="#edbfa5"/><path d="M471.68 157.5a3 3 0 00-.52-2.6l-10-13.25a1.14 1.14 0 01-.19-.86 2.33 2.33 0 000-.7 2.11 2.11 0 00-4.2.31 2.1 2.1 0 001 1.81 1.75 1.75 0 01.7.75l4 8.44-2.77-2.48a8 8 0 00-4.84-2l-1.25-.08-9.2.06a11.12 11.12 0 00-6.7 3.36l-7.3 7.66a2.28 2.28 0 00-.39 2.83 2.22 2.22 0 002.87.81l7.6-3.8.51 11.27h18.58l.51-11 9.07 1.33c1.27.22 2-.63 2.43-1.84" fill="#c58f8c"/><path fill="none" stroke="#a25b4b" stroke-linecap="round" stroke-miterlimit="10" d="M450.31 154.02v13"/><path fill="none" stroke="#aecbfa" stroke-linecap="round" stroke-miterlimit="10" d="M441.57 171.26h5.85m2.22 0h5.99m-2.09 2.43h4.18m-10.46 2.61h3.23"/><path d="M439.6 158.23l-.17-6.1a.5.5 0 111 0l.15 5.63zm21.81-9.23l5.07 4.8a.5.5 0 010 .71.49.49 0 01-.36.15.48.48 0 01-.34-.13l-3.24-3.12" fill="#a25b4b"/><path d="M454.37 144.45a1.15 1.15 0 00-1-.59.9.9 0 00-.56.21 8 8 0 01-5.09 1.86 7.84 7.84 0 01-4-1.08.25.25 0 00-.36.26 5 5 0 004.86 4.72h1.75a4.45 4.45 0 003.07-1.26l.72-.68a3.35 3.35 0 00.63-.86 2.68 2.68 0 00-.08-2.56z" fill="#35a853"/><path d="M457.25 141.08l-3.15-2-5.35-3-2.1-4.06 1.63-.07h2v-.09 1.61a4.18 4.18 0 012.93.8l6.13 5.06a1.38 1.38 0 01-.33 1.83 1.37 1.37 0 01-1.76-.08z" fill="#edbfa5"/><path d="M449.39 128.79l-1.81 3.39a3.83 3.83 0 001.81.46c3 0 3.7-1.34 3.7-3.46a5.54 5.54 0 00-.08-1.68z" fill="#edbfa5"/><path fill="#e8b393" d="M450.29 132.59h-1.57l1.59.72-.02-.72z"/><path d="M449.92 129.68a1 1 0 01.86-1 .83.83 0 01.75.55 17 17 0 001.48-1.7 3.84 3.84 0 10-5.43 4.68l.14-.07a17.13 17.13 0 001.71-1.1 1.29 1.29 0 00.49-1.2z" fill="#3b4064"/><circle cx="446.24" cy="132.22" r="2.73" fill="#3b4064"/><path d="M442.65 141.26a21.59 21.59 0 01.64-4.29.49.49 0 01.6-.37.5.5 0 01.37.6 21.9 21.9 0 00-.71 5z" fill="#e8b393"/><path d="M445.52 133.22l-4 3.36a2.29 2.29 0 00-.14 3.38l3.64 3.6 3.37-7.33z" fill="none"/><path d="M447.66 143.87a24.44 24.44 0 01-.08-5.46" fill="none" stroke="#e8b393" stroke-linecap="round" stroke-linejoin="round"/><path d="M496.36 142.16h-6.43l-6.8-24.16 1.52-1.72c.16-.18.24-.55.05-.71s-.41-.29-.79 0l-.24.17a.66.66 0 01-1-.4c-.31-1.65-1.08-3.11-2.18-2.47-1.3.76-1.05 1.68-.89 2.87a6.54 6.54 0 00.56 1.85 10 10 0 01.81 2.22l5.84 34.19h17.43v-3.92a7.88 7.88 0 00-7.88-7.92z" fill="#ecbfa5"/><path fill="#ecbfa5" d="M491.28 138.44h4.88v4.77h-4.88z"/><path d="M498.7 132h-7v7.85h3.84c1.47 0 2.48-1.07 2.69-3z" fill="#ecbfa5"/><path d="M499.15 132.26c-.23-1-1.08-2.42-4.09-1.77a4.38 4.38 0 00-5 1.58c-1.66 2.43-1.17 5.19.83 7.63a.62.62 0 001.08-.18v-.1a1.16 1.16 0 00-.44-1.34 2.15 2.15 0 01-.51-.53 1.33 1.33 0 112.13-1.44 2.11 2.11 0 01.31.71 11.52 11.52 0 015.09-3.52.89.89 0 00.6-1.04z" fill="#ba5b09"/><path d="M491.19 135.44a1.52 1.52 0 00-.13 2.11 1.77 1.77 0 001.4.84 10.1 10.1 0 011-1.57 2.11 2.11 0 00-.31-.71 1.51 1.51 0 00-1.96-.67z" fill="#edc0a5"/><path fill="none" stroke="#e8b393" stroke-linejoin="round" d="M501.26 153.97v-6.24"/><path fill="#e8b393" d="M490.79 145.86l-.86-3.7h.99l.84 3.46-.97.24zm5.37-6.11h-3.38l3.38 2.41v-2.41"/><path fill="none" stroke="#aecbfa" stroke-linecap="round" stroke-miterlimit="10" d="M488.62 156.79h4.4"/><path fill="none" stroke="#d2e3fc" stroke-linecap="round" stroke-linejoin="round" d="M502.09 156.79h.51m-9.93 3.92h.51m2.98 0h3.48m-2.22-3.92h2.39"/><path fill="none" stroke="#aecbfa" stroke-linecap="round" stroke-miterlimit="10" d="M496.88 163.51h2.57"/><path fill="none" stroke="#d2e3fc" stroke-linecap="round" stroke-linejoin="round" d="M457.77 171.26h.51m-5.59 5.04h.51"/><path d="M542.65 160.64l-4.66-3a2.76 2.76 0 01-1-1.2 3 3 0 01-2.5-1.6h-2.86v.49a2.89 2.89 0 01-1.51 2.51l-5.15 2.8a8.81 8.81 0 00-4.08 7.43v.3h25.53v-.59a8.78 8.78 0 00-3.77-7.14z" fill="#ee7870"/><path fill="none" stroke="#1aad4d" stroke-linecap="round" stroke-linejoin="round" stroke-width="1.02" d="M528.44 164.95l1.55-6.8m9.73 7.48l-1.33-7.48"/><path fill="none" stroke="#d35c59" stroke-linejoin="round" d="M525.89 168.4v-4.89m16.07 4.89v-4.89"/><path d="M542.47 168.4v-.15a4.26 4.26 0 00-2.69-3.76l-.17-.09-5.22 3.34-5.67-3.34a4.08 4.08 0 00-2.3 3.62v.38" fill="#1aad4d"/><path d="M539.93 147h-8.36v7.92h4.88a3 3 0 002.83-2 11.13 11.13 0 00.56-3.18z" fill="#ee7870"/><circle cx="529.16" cy="146.06" r="3.5" fill="#f1c459"/><path d="M539.66 148.07a1.24 1.24 0 001.28-1.22 1.88 1.88 0 00-1.88-1.88 1.24 1.24 0 00-.27 0 1.87 1.87 0 00-1.6 1.85 1.84 1.84 0 00.68 1.44l.75-.14a5.69 5.69 0 01.71-.07h.33zm-.03.42l.01-.01h-.01v.01z" fill="#f1c459"/><path d="M537.19 146.85a1.87 1.87 0 011.6-1.85 5.3 5.3 0 00-8.9 3.91 5.51 5.51 0 001.68 3.87 2 2 0 00.23-1.61v-.06a1.37 1.37 0 01.83-1.72 1.26 1.26 0 011.36.7 9.39 9.39 0 013.89-1.79 1.87 1.87 0 01-.69-1.45z" fill="#f1c459"/><path d="M536.65 154.82H536a5.3 5.3 0 00.64.05z" fill="#ee7870"/><path d="M536.65 155.21v-.34a5.3 5.3 0 01-.64-.05 3.44 3.44 0 01-1.94-.73 4.28 4.28 0 00.36.75 3 3 0 002.5 1.6 2.89 2.89 0 01-.28-1.23z" fill="#d35c59"/><path fill="none" stroke="#aecbfa" stroke-linecap="round" stroke-miterlimit="10" d="M523.32 170.88h4.58m4.55 0h3.32"/><path fill="none" stroke="#d2e3fc" stroke-linecap="round" stroke-linejoin="round" d="M538.84 170.88h.07m-9.77 2.81h3.44m4.25 0h9.22"/><path fill="none" stroke="#e8f0fe" stroke-linecap="round" stroke-linejoin="round" d="M563.11 152.78h9.22"/><path fill="none" stroke="#d2e3fc" stroke-linecap="round" stroke-linejoin="round" d="M528.83 176.03h1.93"/><path fill="none" stroke="#e8f0fe" stroke-linecap="round" stroke-linejoin="round" d="M576.15 152.78h1.92"/><path d="M654 113a1.13 1.13 0 01-.16-1.47l.6-.85a.35.35 0 00.06-.27.33.33 0 00-.52-.2l-.48.36a.21.21 0 01-.34-.17l-.06-2.37a.85.85 0 00-.63-.83.8.8 0 00-.94.64l-.75 3.76a2.93 2.93 0 00.58 2.41l14 17.51 4.33-4.15z" fill="#cd8c8a"/><path d="M658.18 143.14s-.38-3.77 2.57-5.64 3.53-2.74 4.3-6.39c0 0 1.37-4.09 4.66-4.5v-2.1l3.82-.38v2.94a6.25 6.25 0 012.68 3.92c.81 3 1.66 9 2.87 11.48s3.57 7.25 3.57 7.25l.12.24a2.57 2.57 0 001.89 1.4 8.93 8.93 0 012.82.94.33.33 0 01-.15.62H682a1.51 1.51 0 01-1.25-.68l-7.42-11.6A57.63 57.63 0 01670 148c-1.61 2.7-12.86-4.95-12.86-4.95" fill="#cd8c8a"/><path d="M651.18 142.21l-25.37-3a1.18 1.18 0 01-1-.79l-1.76-4.94a.75.75 0 00-.71-.5.76.76 0 00-.75.62l-1.23 7a1.57 1.57 0 001.55 1.85h1.37a8.66 8.66 0 012.48.37l23.74 7.06z" fill="#bc6e6b"/><path d="M644.92 152.92h17.44l-9-8.16-10.06 2.86a7 7 0 00-5 6.42l-.63 14.56h3.35z" fill="#cd8c8a"/><path d="M670 148a9.28 9.28 0 01-8.58 5h-7.16l-2.4-7.75-1.91.54.94-3.54 7.27 1S664.93 148 670 148z" fill="#f1c459"/><path fill="#ecb34d" d="M649.97 145.71l.3-1.12 4.5-1.32.29 1-5.09 1.44z"/><path d="M673.56 124.51l-4.35.94a1.73 1.73 0 01-2.1-1.5v-.08a14.23 14.23 0 01-.06-2.61l.18-2.75h6.34z" fill="#cd8c8a"/><path d="M667.74 119.05a.88.88 0 01-1.12-.77 3.18 3.18 0 012.17-3.41s1.29-.71 2.77.78a5 5 0 002.7-.32 1.49 1.49 0 011.8 1.1 3.81 3.81 0 00.83 1.53c.58.59.94 2.19 0 4a16.38 16.38 0 01-3.33 3.87v-4.49a1.08 1.08 0 00-1.09-1.08 1.08 1.08 0 00-1.06 1.08v.66a.48.48 0 01-.82.33 4.48 4.48 0 01-1.06-2 4.73 4.73 0 01-.11-1.24c0-.23-.26-.44-1.68-.04z" fill="#343659"/><path d="M669.73 125.34a4 4 0 002.2-1.37s-.64 2.21-2.22 2.64zm3.07 16.72l-3.24-8.58.93-.38 2.87 7.54-.56 1.42zm-28.13 11.85h-1.77v-1l2.02.01-.25.99zm19.69-23.64a5.92 5.92 0 012.83-3.09l.41.92a5.62 5.62 0 00-2.55 3z" fill="#bc6e6b"/><circle cx="659.78" cy="140.87" r=".48" fill="#bc6e6b"/><path fill="none" stroke="#aecbfa" stroke-linecap="round" stroke-miterlimit="10" d="M637.58 171.54h3.33"/><path fill="none" stroke="#d2e3fc" stroke-linecap="round" stroke-linejoin="round" d="M636.72 174.1h1.25m2.32 0h.36m-2.51 2.67h1.25"/><path d="M693.13 137.47l1.3 2.25a3 3 0 00.25.37c1 1.4 1.12 4.26 1.18 5.93l.2 5.28c-.9 0-1.28.73-1.28 1.62h1.83a.34.34 0 00.34-.34l.24-1.28L699 142zm24.22-.7l-7.51.31 3.86 8.66a6.52 6.52 0 01.57 2.68v2.89c-.86 0-1.23.73-1.23 1.61h2.47a.34.34 0 00.34-.34l.15-.58.09-.5v-.17l.69-3.76s-1.9-3.57.57-10.8zm-29.83-9.01l.81 2 1.48-.46-2-1.72a.15.15 0 00-.29.18z" fill="#1f2238"/><circle cx="715.04" cy="135.35" r="4.08" fill="#343659"/><circle cx="688.91" cy="131.42" r="2.84" fill="#343659"/><path d="M711.35 137.08l3.86 8.66a6.68 6.68 0 01.57 2.68V152h1.7l.81-4.43s-1.9-3.58.56-10.77z" fill="#343659"/><path d="M701.35 142l-1.8 9.33h-1.13l-.2-5.28a7.67 7.67 0 00-1.8-4.66.44.44 0 00-.15-.12 12.19 12.19 0 01-3.21-2.78 25.86 25.86 0 00-4.88-4.3l2.7-4.79 9.93 2a16.12 16.12 0 006.25 0c3.77-.65 6.66-1.4 10.42.67l-5.43 6.56z" fill="#343659"/><path d="M697.71 152.92H699a.34.34 0 00.34-.34l.24-1.28h-1.13c-.89 0-1.28.73-1.28 1.62zm17.9 0H717a.34.34 0 00.34-.34l.24-1.28h-1.78c-.89 0-1.27.73-1.27 1.62zm-32.05-20.77l2.83-1.65 1.79 3.66-3.18.2a.78.78 0 01-.58-.23l-1-1a.6.6 0 01.14-.98zm5.5-2.65l-.27-2.48a.15.15 0 01.27-.11l3.19 3.59z" fill="#343659"/><path d="M717.13 132.81s2.18.78 3.46 5.93a14 14 0 002 4.71" fill="none" stroke="#343659" stroke-linecap="round" stroke-miterlimit="10" stroke-width="1.41"/><path d="M225.27 94.4S217.56 75 223.72 46s-2.39-46-2.39-46h3.72s7.6 17.37 5 43.1c-1.56 15.48-6.99 30.6-4.78 51.3z" fill="#fff"/></g></svg>