<?xml version="1.0" encoding="utf-8"?>
<!-- Generator: Adobe Illustrator 22.0.1, SVG Export Plug-In . SVG Version: 6.00 Build 0)  -->
<svg version="1.1" id="Layer_1" xmlns="http://www.w3.org/2000/svg" xmlns:xlink="http://www.w3.org/1999/xlink" x="0px" y="0px"
	 viewBox="0 0 1088 298" style="enable-background:new 0 0 1088 298;" xml:space="preserve">
<style type="text/css">
	.st0{fill:#EEF5FE;}
	.st1{fill:#FFFFFF;}
	.st2{fill:#D5E6FE;}
	.st3{fill:#AFC8FD;}
	.st4{fill:#F47458;}
	.st5{fill:#E25A44;}
	.st6{fill:#13375B;}
	.st7{fill:#C5DDF9;}
	.st8{fill:#83AAFD;}
	.st9{display:none;}
	.st10{display:inline;fill:#F7A491;}
	.st11{display:inline;fill:#F47458;}
	.st12{display:inline;}
	.st13{fill:#F7A491;}
	.st14{display:inline;fill:#FFFFFF;}
	.st15{display:inline;fill:#D6B96E;}
	.st16{display:inline;fill:#F7CC7F;}
	.st17{fill:#F48C7F;}
	.st18{fill:#EA988B;}
	.st19{fill:#F7CC7F;}
	.st20{fill:#FAE0B2;}
	.st21{fill:#231F20;}
	.st22{fill:#50D589;}
	.st23{fill:#73DEA1;}
	.st24{fill:#4C33B1;}
	.st25{fill:#DFEEFF;}
</style>
<g id="Layer_1_1_">
	<g>
		<rect x="-1.3" y="2" class="st0" width="1088" height="280.6"/>
		<g id="cloud">
			<ellipse class="st1" cx="1086.5" cy="145.2" rx="52.5" ry="49.5"/>
			<ellipse class="st1" cx="1093.3" cy="86.5" rx="36.3" ry="30.5"/>
			<ellipse class="st1" cx="871" cy="172" rx="53" ry="50"/>
			<ellipse class="st1" cx="563.2" cy="201.4" rx="51.2" ry="46.5"/>
			<circle class="st1" cx="619.7" cy="171.9" r="33.8"/>
			<circle class="st1" cx="46" cy="137.1" r="76"/>
			<circle class="st1" cx="148.9" cy="153.7" r="41.9"/>
			<ellipse class="st1" cx="117.6" cy="113.4" rx="35.7" ry="41.5"/>
			<circle class="st1" cx="3" cy="63" r="33"/>
		</g>
		<path class="st1" d="M871.3,247.3c3-24.9,14.7-43.7,28.6-43.7c2.6,0,5.1,0.6,7.4,1.8c6.9-28.2,21.8-47.8,39.2-47.8
			c4.5,0,8.8,1.2,12.9,3.7c9.3-29.6,26.3-49.5,45.6-49.5c23,0,42.6,28,50.1,67.2c5.3-5.7,11.3-8.8,17.8-8.8
			c20.2,0,36.6,31.5,36.6,70.1c0,2.2-0.1,4.5-0.2,6.7H871.3V247.3z"/>
		<polygon class="st2" points="534.8,259.9 534.8,210.8 561.7,210.8 561.7,174.5 587.5,174.5 587.5,190.6 608.9,190.6 608.9,185.4 
			608.9,153.4 643.9,153.4 643.9,187.4 654.4,187.7 654.4,153.3 666.6,153.3 666.6,138.7 674,138.7 674,128.9 702.6,128.9 
			702.6,138.7 709.9,138.7 709.9,153.3 722.1,153.3 722.1,171.9 727.8,172.1 729.5,117.1 767.2,117.1 767.2,146.4 780.5,146.6 
			780.5,100.8 785,100.8 785,91.1 824.8,91.1 824.8,100.8 829.3,100.8 829.3,162.5 837.7,162.5 837.7,143.3 844.7,143.3 
			844.7,133.9 854.8,133.9 854.8,106.4 869.5,106.4 869.5,133.9 879.6,133.9 879.6,143.3 886.6,143.3 886.6,175.8 891.5,175.8 
			895.3,175.8 895.3,138.1 998.7,138.7 998.7,223.6 1007.4,223.6 1007.4,212.5 1038.9,212.5 1038.9,233.9 1047.9,233.9 1047.9,226 
			1067.8,226 1067.8,239.6 1067.8,242 1087.8,242 1087.8,259.9 		"/>
		<rect x="-1.3" y="259.9" class="st3" width="1087.8" height="57.4"/>
		<polygon class="st2" points="0.7,241.9 0.7,239.5 0.7,84.7 25,84.7 25,92.6 36,92.6 36,153.6 74.2,153.6 74.2,164.7 106.7,164.7 
			106.7,138.6 157.9,138 157.9,175.7 162.6,175.8 168.5,175.8 168.5,143.2 177,143.2 177,133.8 189.3,133.8 189.3,106.3 
			207.2,106.3 207.2,133.8 219.5,133.8 219.5,143.2 228,143.2 228,162.5 238.2,162.5 238.2,100.7 243.7,100.7 243.7,91.1 
			292.1,91.1 292.1,100.7 297.7,100.7 297.7,146.5 313.8,146.3 313.8,117 359.7,117 361.8,172.1 368.6,171.9 368.6,153.3 
			383.5,153.3 383.5,138.7 392.4,138.7 392.4,128.8 427.2,128.8 427.2,138.7 436.2,138.7 436.2,153.3 451,153.3 451,187.6 
			463.8,187.4 463.8,153.4 506.4,153.4 506.4,185.4 506.4,190.6 534.8,190.6 534.8,259.9 -23.5,259.9 -23.5,241.9 		"/>
		<path class="st1" d="M347.3,88.7c-0.5-1.3-2.3-2.3-4.5-2.3c-0.4,0-0.8,0-1.2,0.1c-1.1-1.5-3.4-2.5-6.1-2.5c-0.7,0-1.4,0.1-2,0.2
			c-1.5-1.6-4.1-2.6-7.1-2.6c-3.6,0-6.7,1.5-7.8,3.6c-0.8-0.3-1.8-0.5-2.8-0.5c-3.2,0-5.7,1.7-5.7,3.7c0,0.1,0,0.2,0,0.4L347.3,88.7
			L347.3,88.7z"/>
		<path class="st1" d="M470.5,116.9c0.7-1.9,3.3-3.3,6.4-3.3c0.6,0,1.1,0,1.7,0.1c1.5-2.1,4.9-3.6,8.8-3.6c1,0,2,0.1,2.9,0.3
			c2.1-2.2,5.9-3.7,10.2-3.7c5.2,0,9.5,2.1,11.2,5.1c1.2-0.4,2.5-0.7,4-0.7c4.5,0,8.2,2.4,8.2,5.3c0,0.2,0,0.3,0,0.5
			C523.9,116.9,470.5,116.9,470.5,116.9z"/>
		<path class="st1" d="M726.7,71.9c-1.4-4-6.9-7-13.5-7c-1.2,0-2.4,0.1-3.5,0.3c-3.3-4.5-10.3-7.6-18.5-7.6c-2.1,0-4.2,0.2-6.1,0.6
			c-4.4-4.7-12.4-7.9-21.5-7.9c-10.9,0-20.1,4.5-23.6,10.7c-2.5-0.9-5.3-1.4-8.4-1.4c-9.5,0-17.3,5-17.3,11.2c0,0.4,0,0.7,0.1,1.1
			H726.7z"/>
		<g>
			<g>
				<path class="st4" d="M232.8,194.3c0,0,0.4-0.1,0.7,0.1"/>
			</g>
		</g>
		<g>
			<g>
				<rect x="95" y="168.5" class="st5" width="1.9" height="13.6"/>
				<rect x="109.3" y="168.5" class="st5" width="1.9" height="13.6"/>
				<rect x="123.7" y="168.5" class="st5" width="1.9" height="13.6"/>
				<rect x="138" y="168.5" class="st5" width="1.9" height="13.6"/>
				<rect x="152.3" y="168.5" class="st5" width="1.9" height="13.6"/>
				<rect x="166.7" y="168.5" class="st5" width="1.9" height="13.6"/>
				<rect x="181" y="168.5" class="st5" width="1.9" height="13.6"/>
				<rect x="91.2" y="167.3" class="st6" width="95.5" height="1.2"/>
			</g>
			<polygon class="st1" points="-26.1,133.7 56.4,183.3 -13.9,181.9 -60.3,133.7 			"/>
			<polygon class="st7" points="-30.1,160.7 -16,175.6 43.1,176.8 16.9,161 			"/>
			<polygon class="st8" points="188.5,183.3 219,216 -5.2,205.6 10.7,186.8 			"/>
			<polygon class="st7" points="112.2,213.2 85.8,213.2 123.9,186.1 150.2,186.1 			"/>
			<polygon class="st7" points="130.7,214.3 122.8,214.3 163.8,185.1 171.8,185.1 			"/>
			<polygon class="st8" points="-73.6,202.5 -83.2,232.8 116.4,232.8 88,209.6 			"/>
			<polygon class="st7" points="-27.4,232.6 -40.2,232.6 -18,205.6 -5.2,205.6 			"/>
			<polygon class="st7" points="-18.5,233.7 -22.4,233.7 1.6,204.5 5.5,204.5 			"/>
			<path class="st1" d="M-86.8,198.8c45.7,1.7,404.3,15.5,404.3,15.5l12.3,9.1l-216,15.3l-33.4-24l-164-8.1
				c-2.5-0.1-5.1-1.8-6.1-3.9l0,0C-90.7,200.5-89.4,198.7-86.8,198.8z"/>
			<path class="st1" d="M-37.3,197.8l15.3-16.2c0.4-0.4,1.1-0.7,1.8-0.7h224.3c1.8,0,3.9,1.3,4.7,2.9l0,0c0.7,1.6-0.2,2.9-2,2.9
				H12.1c-0.9,0-1.6,0.3-1.9,0.9l-11.7,17c-0.4,0.6-1.3,0.9-2.3,0.8l-29.2-2.5C-36.2,202.7-38.8,199.5-37.3,197.8z"/>
			<path class="st7" d="M322,217.7c-1.2-0.9-241.7-3-241.7-3l33.4,24l216-15.3L322,217.7z"/>
			<path class="st5" d="M-23.3,135h-37.2c-0.6,0-1.3-0.4-1.5-0.9l0,0c-0.3-0.5,0.1-0.9,0.6-0.9h37.2c0.6,0,1.3,0.4,1.5,0.9l0,0
				C-22.4,134.6-22.7,135-23.3,135z"/>
			<g>
				<g class="st9">
					<path class="st10" d="M296.3,199c-0.2-0.2-1.4,0.5-1.8,0.3c-0.3-0.1,1.1-1.2,1-1.4c-0.3-0.4-1.7,1.1-1.8,1
						c-0.2-0.2,1.2-1.8,0.7-1.8c-0.4-0.1-1.1,1.8-1.4,1.6c-0.3-0.1,0.9-1.7,0.4-2c-0.3-0.2-1.4,2.8-1.8,3c-0.4,0.1-0.9-1.2-1.3-1.1
						c-0.4,0.1,1.3,2.4,1.2,2.6c-0.1,0.2-1.7,4-2.5,5.2c-0.5-0.2-1.1-0.4-1.6-0.6c-0.2,0.9-0.7,1.7-1,2.6c1.8,0.6,3.9,1.2,4.4,1.1
						c1.6-0.4,2.4-6.3,2.6-7.4c0.3-1.1,1-1.3,1.3-1.9C295.1,199.4,296.4,199.2,296.3,199z"/>
					<path class="st10" d="M282.8,203.9l-2.3,2.1c0,0,4,1.7,7,2.7c0.3-0.9,0.4-1.7,0.6-2.6C285.7,205.1,282.8,203.9,282.8,203.9z"/>
					<path class="st10" d="M261.4,198.8c0.2-0.2,1.4,0.5,1.8,0.3c0.3-0.1-1.1-1.2-1-1.4c0.3-0.4,1.7,1.1,1.8,1
						c0.2-0.2-1.2-1.8-0.7-1.8c0.4-0.1,1.1,1.8,1.4,1.6c0.3-0.1-0.9-1.7-0.4-2c0.3-0.2,1.4,2.8,1.8,3c0.4,0.1,0.9-1.2,1.3-1.1
						c0.4,0.1-1.3,2.4-1.2,2.6c0.1,0.2,1.7,4,2.5,5.2c0.5-0.2,1.1-0.4,1.6-0.6c0.2,0.9,0.8,1.7,1.1,2.6c-1.8,0.6-3.9,1.1-4.5,1
						c-1.6-0.4-2.4-6.3-2.6-7.4c-0.3-1.1-1-1.3-1.3-1.9C262.7,199.3,261.2,199,261.4,198.8z"/>
					<path class="st10" d="M273.3,204.2l2.3,4.3c0,0-1.8-1.2-4.8-0.2c-0.3-0.9-0.7-1.7-1-2.6C272.4,204.7,273.3,204.2,273.3,204.2z"
						/>
					<path class="st10" d="M277.7,200.6l-0.5,2.8c0,0,2,3.4,3.2,3.1c1.1-0.2,0.4-3.2,0.4-3.2s-0.5-1.6-0.4-2.4
						C280.5,200.1,277.7,200.6,277.7,200.6z"/>
					<path class="st11" d="M280.4,200.9c0.2-0.8-2.7-0.3-2.7-0.3l-0.1,0.2c0.1,0.2,0.2,0.3,0.4,0.4c0.6,0.5,1.7,0.8,2.5,0.9
						C280.4,201.7,280.4,201.2,280.4,200.9z"/>
					<g class="st12">
						<path class="st13" d="M277.2,196.6c-0.1,0-0.6,3.2,0.4,4.1c1.1,0.9,3.2,1.2,3.9,0.5c0.8-0.8,0.8-4.3-0.9-5.2
							C279,195.1,277.2,196.6,277.2,196.6z"/>
						<path class="st6" d="M280.1,194.3c-1.3,0.2-2.1,0.8-2.5,1.1c-0.6,0.1-1.4,0.3-2.2,1.4c-1.1,1.3-0.3,2.7,0.9,3.4
							s1.1,1.5,1.1,1.5l0.2-0.4c0.2-0.3,0.2-0.7,0.2-1c0-0.2-0.1-0.4-0.2-0.6c-0.3-0.5,0.6-0.8,0.9-1.2c0.2-0.3,0.2-1,0.5-1.5
							l0.4-0.4c0,0,0.9-0.5,1.7-0.4C281.8,196.4,281.7,194,280.1,194.3z"/>
						<path class="st13" d="M278.4,199c0,0.4-0.3,0.7-0.5,0.7c-0.3,0-0.5-0.3-0.5-0.7s0.3-0.7,0.5-0.7S278.4,198.6,278.4,199z"/>
					</g>
					<path class="st14" d="M281.5,200.1l-1.4,0.2c0,0,0.2,0.4,0.8,0.3C281.7,200.5,281.5,200.1,281.5,200.1z"/>
					<path class="st10" d="M277.7,203.3c0,0-3.9,0.3-5,1.1l2,7.7c0.2,0.6,0.2,1.2,0.2,1.8c-0.1,1.6-0.2,5,0,6
						c0.4,3,10.7,0.1,12.3-0.3c0,0-2.3-13.4-3.9-15.5c-0.5-0.7-2.9-0.7-2.9-0.7L277.7,203.3z"/>
					<path class="st15" d="M276.6,219.4l3,8.5l9-1.1l-1.5-8.2C287.1,218.5,282.6,219.6,276.6,219.4z"/>
					<path class="st16" d="M274.6,219.3c-0.2,0.2-0.5,5.8-0.6,6.8c-0.1,1,0.1,1.9,0.1,1.9l8.2,0.2l1-9.1L274.6,219.3z"/>
				</g>
				<g>
					<path class="st17" d="M237.2,209.6c-0.4-0.1-1.3-0.8-1.7-0.8c-0.3-0.1-0.8-0.1-1.1-0.2c-0.3-1.1-1.8-7.4-1.9-9.2
						c-0.1-1.1-1.4-15.1-4.5-15.6l-2.5,3.4c0.4-0.2,1.5,5,1.5,5c0.3,0.2,0.7,0.3,1.1,0.4c0.4,2.2,1,5,1.1,6.7
						c0.4,2.8,3.2,8.9,3.5,9.6l0,0c0.1,1,0.5,0.6,0.5,0.6l0.7,0.2c0,0,2.5,0.3,2.7,0.3C237.1,210.1,237.5,209.6,237.2,209.6z"/>
					<path class="st18" d="M225.8,198.4l-3.2,9.8c0,0,5.2,1.1,7.2,1.4c1.9,0.4,12.8,0.9,13.1,1.1c0.2,0.2,3.9,11,3.9,11
						c1.1,0.3,2.4,2.7,3.4,2.4c-0.5-6.1-2.3-17.5-3-18.5C246.1,203.9,225.8,198.4,225.8,198.4z"/>
					<path class="st4" d="M231,203.5c0-1.2,1-2.8,2.3-3c-3.1-0.9-7.5-2.1-7.5-2.1l-3.2,9.8c0,0,5.2,1.1,7.2,1.4
						c0.6,0.1,2.2,0.3,4,0.4C232.8,209.1,230.9,206.8,231,203.5z"/>
					<path class="st19" d="M227.8,177.8c-0.6-1.6-1.3-3.3-2.9-4.1c-1.3-0.7-2.7-0.4-3.9,0.5c-3.3,2.7-0.4,5.7-4.2,10.8
						c-1.1,1.6-2.6,2.9-3.3,4.7c-1,2.6,0.2,3.9,2.1,5.1c9,6,13.9-6.3,13.7-9.1C228.9,183.7,228.1,178.9,227.8,177.8z"/>
					<path class="st18" d="M246.7,221.6c0.7,2.1,1.1,4.1,1.1,4.3c0,0.1,0.3,1.2,0.3,1.3c1.5,2.2,2.7,0.4,2.6,0.1
						c-0.1-0.5-0.7-2.7-1-5.7C248.7,222.2,248,221.8,246.7,221.6z"/>
					<path class="st13" d="M238.5,225.9c0.4,2.2,0.4,4.2,0.4,4.5c0,0.1-0.3,0.6-0.3,0.8c1.1,2.4,3.1,3.2,4.8,3.7
						c-0.7-1.1-1.9-2.2-1.9-2.5c0-0.5-0.2-2.7,0.1-5.8C240.3,226.9,239.7,226.3,238.5,225.9z"/>
					<path class="st13" d="M223.1,181.2c0,0,0.4,2.4,0.4,3.3c-0.1,0.9,0.4,3.9,2.2,4c1.8,0,0.4-3.8,0.2-4.7
						c-0.2-0.9-0.2-3.7-0.2-3.7L223.1,181.2z"/>
					<path class="st4" d="M225.7,181.4c0-0.8,0-1.4,0-1.4l-2.5,1.2c0,0,0.1,0.5,0.2,1.1C224.5,182.5,225.3,182.1,225.7,181.4z"/>
					<path class="st13" d="M222.3,174.7c0,0-1,0.6-1.3,1.8c-0.4,1.2,0.1,4.4,2.5,5.2s3.5-1.7,3-3.7C226,176,224.9,173.5,222.3,174.7
						z"/>
					<path class="st13" d="M226.8,177.2c-0.1,0.5-0.4,0.9-0.6,0.9c-0.3,0-0.4-0.5-0.4-1c0.1-0.5,0.4-0.9,0.6-0.9
						C226.7,176.2,226.8,176.6,226.8,177.2z"/>
					<path class="st19" d="M222.5,174.5c0,0-0.4,3.5-1.5,4.2c-1.1,0.6-0.6,2.2-0.6,2.2s-1-3.6-0.1-4.8
						C221.1,174.9,222.5,174.5,222.5,174.5z"/>
					<path class="st13" d="M221.7,179.2c0.3,0.5,0.3,1,0,1.2s-0.8,0-1.1-0.5c-0.3-0.5-0.3-1,0-1.2
						C221,178.5,221.4,178.7,221.7,179.2z"/>
					<path class="st1" d="M225.3,179.4l-1.8,0.5c0,0,0.2,0.7,1,0.5C225.4,180.2,225.3,179.4,225.3,179.4z"/>
					<path class="st13" d="M209,208.9c0-0.1,0.1-0.1,0.2-0.1c0.7,0,1.4-0.1,2-0.2c0.1,0,0.3,0,0.4-0.1c0.2-0.1,0.4-0.1,0.5,0
						c0.1,0,0.2,0,0.4,0c0.4,0,1.3-0.4,1.8-0.5c0.1,0,0.2-0.1,0.3-0.2c0.5-2.1,1.6-6.8,1.7-8.4c0.2-2,1.6-10.8,1.6-10.8l3.1-1.1
						c0,0-1.1,8.5-1.6,11.7c-0.3,2.5-2.6,7.7-3.3,9.3c-0.4,1.1-1.1,1.2-1.3,1.2c-0.1,0-0.2,0.1-0.3,0.2c-0.1,0.2-0.3,0.3-0.4,0.4
						c-0.1,0.1-0.2,0.2-0.3,0.3c-0.2,0.2-0.3,0.5-0.4,0.7c-0.1,0.2-0.2,0.2-0.3,0.2c-0.2,0-0.2-0.1-0.2-0.3c0-0.3,0.1-0.5,0.2-0.7
						c0.1-0.2,0.1-0.3,0-0.5c-0.1-0.1-0.2-0.2-0.3-0.3c-0.1-0.1-0.2-0.2-0.4-0.1c-0.3,0.1-0.5,0.1-0.8,0.1h-0.2h-0.1
						c0,0-0.4,0-0.5,0c-0.1,0-0.3,0-0.4,0c-0.1,0-0.4-0.1-0.4-0.1c-0.1,0-0.3-0.1-0.4-0.1l-0.1-0.1c0-0.1,0.1-0.1,0.1-0.1
						c0.1,0,0.5-0.1,0.5-0.1c-0.1,0-0.5,0-0.6,0C209.3,209.2,209.1,209.1,209,208.9C209,209,208.9,208.9,209,208.9z"/>
					<path class="st13" d="M220,183.8c-2,0.1-3,9.5-3,9.5s2.4-3.9,3.3-4.5c0,0,2.1-1.8,2.5-1.6L220,183.8z"/>
					<path class="st18" d="M255.2,227.5c-0.2,0-0.8-0.1-0.8-0.1c-0.6-0.2-1.9-0.4-1.9-0.4c-0.1,0-1.4-0.3-1.7-0.6
						c0,0-0.5-0.7-0.6-1.2c0,0-2.4,0.1-2.4,0.2c0,0.4-0.1,1.6-0.1,1.8c-0.1,0.5-0.3,0.6-0.1,1.4c0,0.2,0.2,0.3,0.4,0.4
						c0.3,0.2,0.7,0.2,1,0.1c0.4-0.2,1.2-0.4,1.5-0.4c0.4,0,2.1-0.1,2.5-0.2l2.4-0.4c0.3,0,0.5-0.4,0.4-0.7v-0.1
						C255.6,227.4,255.4,227.5,255.2,227.5z"/>
					<path class="st13" d="M245.3,234.5c-0.2-0.1-0.7-0.3-0.7-0.3c-0.5-0.4-1.8-1.1-1.8-1.1c-0.1-0.1-1-0.9-1.1-1.3
						c0-0.1-0.5-0.7-0.5-1.2l-2.3-0.6c-0.1,0.4-0.5,1.5-0.6,1.7c-0.2,0.5-0.4,0.5-0.5,1.3c0,0.2,0.1,0.4,0.2,0.5
						c0.3,0.3,0.6,0.4,1,0.4c0.5,0,1.3,0,1.5,0.1c0.3,0.1,2,0.6,2.5,0.7l2.4,0.4c0.3,0.1,0.6-0.2,0.6-0.5v-0.1
						C245.8,234.5,245.6,234.6,245.3,234.5z"/>
					<path class="st13" d="M222,198.9l-1.2,2.3c-1.9,3.5-0.4,8,3.1,9.5c0,0,0,0,0.1,0c1.8,0.8,12.5,3.5,12.7,3.7
						c0.2,0.2,1.6,10,2.1,13.2c1.1,0.5,1.7,1.3,2.7,1.1c0.5-6.1,0.8-17.3,0.4-18.5C241,208.4,222,198.9,222,198.9z"/>
					<path class="st5" d="M222.2,209.7c1.2-1.6,4.4-5,8.8-6.1c-4.7-2.5-8.9-4.6-8.9-4.6l-1.2,2.3
						C219.2,204.1,219.9,207.7,222.2,209.7z"/>
					<path class="st13" d="M225.9,183.7L225.9,183.7L225.9,183.7c0.1,0,0.2,0,0.3-0.1c0.4-0.1,1.4-0.2,2.2,0.1
						c1,0.4,2.4,4.3,2.3,8.3c0,0.6-0.1,1.2-0.1,1.5c-0.3,3-0.9,9.1-0.9,9.2c-1.1,0.8-7.6-2.1-8.1-2.8c-0.4-0.6-1-9-1.2-9.4l-0.4-6.8
						C220.5,183.6,224.6,183.7,225.9,183.7z"/>
					<path class="st5" d="M229.5,187.5L229.5,187.5c-1.3-2.6-3.2-3.9-3.3-3.9c0,0-0.3-0.1-0.4,0.1c0,0,2.1,1.4,3.3,3.9
						c-0.6,0.3-1.1,1.2-1.1,2.4c0,0.1,0,0.1,0,0.2l-1.1,0.2c0-1.3-0.9-2.4-2-2.4c-0.1,0-0.3,0-0.4,0c-0.6-2.6-1-4.3-1-4.4
						c-0.2-0.1-0.3,0-0.3,0s0.4,1.8,1.1,4.5c-0.8,0.3-1.4,1.3-1.4,2.4c0,0.1,0,0.2,0,0.3l-2.5,1c0,0-0.1,0.1,0,0.2l2.5-1
						c0.2,1.1,1,1.9,1.9,1.9c1.1,0,1.9-1,2-2.3l1.1-0.2c0.1,1.2,0.7,2,1.4,2c0.8,0,1.5-1.1,1.5-2.5
						C231,188.6,230.3,187.5,229.5,187.5z"/>
				</g>
				<path class="st1" d="M-108.6,271.6h362l101.5-48.2H123l-19,5.8H-86c-3,0-5.3,1.2-6.1,3.3L-108.6,271.6z"/>
				<path class="st8" d="M76.2,263.3h-181.4l6.2-14.7H69.3c4.7,0,10,3.3,11.9,7.4l0,0C83.1,260,80.8,263.3,76.2,263.3z"/>
				<path class="st20" d="M129.6,271.6l12.1-13.8c5.4-6.2,9.8-7.5,20.5-7.8l139.2-1.3l-48,22.9H129.6z"/>
				<polygon class="st5" points="-94.6,238.4 323.1,238.5 329.7,235.4 -93.3,235.4 				"/>
			</g>
		</g>
	</g>
	<g id="jumping_man">
		<path class="st13" d="M337.4,182.5c1.3,1,2.3,2,2.8,2.6c1.5,2,3.7,23.8,3.7,23.8s8.1,2.1,7.1,2.1s-10.9-0.7-10.9-0.7
			s1.2-3.4-0.8-7.6c-3.2-6.7-3.7-12.3-3.5-12.2c0.1,0-1.1-0.9-2.5-2C334.5,186.4,336,184.4,337.4,182.5L337.4,182.5z"/>
		<path class="st13" d="M336.1,155.6c-0.3,1.7,0.6,3.2,1.8,3.4c1.8,0.3,2.5-2.4,2.5-2.4l0.7-0.2c0,0,0.4-3.2-0.9-3.4
			C339,152.8,336.4,154,336.1,155.6z"/>
		<path class="st21" d="M336.1,152.1c1.2-0.8,2.2-1.8,4.2-0.2s3,0.7,3,0.7s-0.4,1.2-2.9,1.5c-0.8,0.1-1.7,0.1-2.9-0.1
			c-1.5-0.2-1.8,2.4-1.8,2.4S334.9,152.8,336.1,152.1z"/>
		<path class="st13" d="M326.4,164.1c1.6-4.9,7.9-15.5,7.9-15.5s14.3-15.4,15.8-14.5c1.5,1-2.6,4.9-2.6,4.9s2.7-0.6,2.4,0
			c-0.3,0.5-3.6,1.4-4.3,1.9c-1.7,1.2-7.4,8.2-7.4,8.2l-1.3,8.3l1.7,1l6.8-3.7c0,0,6.1-8.5,6.4-8.7c0.3-0.2,1.4-2.6,1.4-2.6l0.5,0.9
			c0,0,2.2-2.4,3.2-1.5s-4,5.2-4,5.2l-4.9,8.6l-9.1,6.5c0,0-1.2,6.8-2.4,8.5c-0.7,1-2.8,2.8-4.3,4.1c-4.2,0-7.4-2.3-11.2-4.2
			C322.4,168.7,325.2,167.7,326.4,164.1z"/>
		<path class="st22" d="M328.8,185.1c0,0,0.9,1.5,1.9,3.6h-6.9c-1-2.4-3.2-8.5-3.2-8.5S325.6,184,328.8,185.1z"/>
		<path class="st23" d="M319.4,179c-1.8-4.2,0.9-6.6,1.4-7.5c3.8,1.9,11.2,4.2,11.2,4.2l-1.8,1.4c0,0,4.2,2.9,7.2,5.4
			c-1.3,2-2.9,4-4.1,5.9C331.4,187,320.3,181.1,319.4,179z"/>
		<path class="st13" d="M330.7,188.7c1.7,3.5,3.8,8.3,2.6,9.5c-2,1.9-18.4-3.3-18.4-3.3l-4.3,5.9c0,0,1.9-10.8,3.5-10.6
			s1.4,1.4,4.6,1.5c3.2,0.1,7.3,1.4,7.3,1.4s-1-1.9-2.1-4.5C326.1,188.7,328.6,188.7,330.7,188.7"/>
		
			<ellipse transform="matrix(0.8726 -0.4884 0.4884 0.8726 -49.9303 207.7475)" class="st13" cx="373.3" cy="199.6" rx="3.2" ry="4.1"/>
		<path class="st21" d="M368.7,197.9c-0.4-2.1,4-4.6,5.8-4.7c2.9-0.2,2.8-0.5,2.8-0.5s-0.9,3.3-3.1,5.2S369.5,201.7,368.7,197.9z"/>
		<path class="st13" d="M383.5,211.7c0,0-0.5-2.6-3.5-5.2c-2.9-2.6-10.8-5-10.8-5l-2-5.5c0,0,0.4-2.9,0.1-3.2
			c-0.4-0.3-1.1,1.5-1.1,1.5s-1.4-2.6-2.3-1.4c-0.5,0.7,1.8,3.1,1.9,3.8s0.8,5.8,1.4,6.7c0.6,0.9,5.3,3.7,5.3,3.7l3.7,5.3
			L383.5,211.7z"/>
		<polygon class="st24" points="383.5,211.8 375.9,212.5 374.4,218.8 380.1,220.7 381.6,218 384.8,219.4 387.8,214.1 		"/>
		<path class="st13" d="M379,220.4l-4.2-1.3l-1.2,4.3c0,0-1-2.8-3.5-4.3c-0.8-0.5-1.6-2.3-2.3-2.3s-2.1,2.6-2.1,3.2
			c0,0.6,1.9-0.4,1.9-0.4s4.8,7.8,6.8,7.8C376.3,227.4,379,220.4,379,220.4z"/>
		<path class="st13" d="M387.8,214.6c0,0,3,1.9,3.9,3.8c0.9,1.9-4.4,7.7-4.4,7.7s2.4,2.5,2,2.9s-4.6-1-4.7-2.3c0-0.6,1-1.5,1.3-2.4
			c1.2-3.7,2.5-4,2.5-4l-2.8-1.7L387.8,214.6z"/>
	</g>
	<path class="st3" d="M840.5,233.8c0-0.2,1.1-2.3,1.1-2.5c-0.3-1.5-1.1-3,1.7-5.7c9.6-9.2,20.6-9.6,21.7-9.6c0.2,0,4.5-2.7,5.9-3
		c1.1-0.3,3.8-0.1,3.8,0.6c0,0.2-1.4,0.6-1.7,0.9c-1.5,1.7-0.8,3.4-0.8,3.4s7.4,6.3,8.7,8.1c6,8.1,6.5,17.1,6.3,18
		c0,0.2,4.7,2.6,6.3,5.1c0.4,0.6,0.6,2.4,0.2,2.1c-2.2-2.5-4.7-1.5-5-1.4c-0.4,0.1-1.3-0.3-1.3-0.4c0,0-0.2,0.6-0.5,0.7
		c-0.8,0.4-2.6,0.8-2.9,1.2c-0.3,0.4-1.3,2.5-1.4,2.3c-0.1-0.2-0.5-1.5-0.5-2.1c0.5-5.1,2.6-7.2,2.4-7.5c-1.1-2.3-2.8-7.5-7.1-10.4
		c-2.5-1.7-5.5-3.5-9.4-3.7c-2.2-0.1-10-0.6-10.1-0.6c0,0.1,1.9,1.5,3.8,1.7s-2.2,1.6-3.5,1.5c-2-0.1-6.4-2.3-6.5-2.3
		c-0.3,0.1-7.7,3.2-7.9,3.4s-1.5,1.3-2,1.5c-1.2,0.5-1.3-0.5-1.3-0.6C840.5,234.2,840.5,234,840.5,233.8z"/>
	<path class="st3" d="M800.8,255.5c0,0,0.7-2,2.2-3.4c0,0-0.8-3.2,3-5.3c0,0,8.1-5.4,12.6-6.6c0,0,4.7-4.7,7.3-3.6
		c0,0,0.8,0.6-0.3,1.2c0,0-1.5,1.7-0.4,3.8c0,0,9.9,2.3,17.9,8c0,0,3-2.9,6.9-0.8c0,0-4.5,1.4-4.8,4.1c0,0-1.4,2.8-0.2,6.4
		c0,0-2.3-2.8-2.8-6.8c0,0-11.5-3.4-17.5-1.3c0,0-4.6,1.2-9.5,2c0.6,0.7,1.7,1.7,3.8,2.2c0,0,3.2,2.2-3.4,1.1c0,0-1.9,0.1-5-2.8
		c-0.8,0.1-1.6,0.1-2.4,0.1c0,0-3.8,2.7-6.8,2.5C801.4,256.3,800.5,256,800.8,255.5z"/>
</g>
<g id="Layer_2_1_">
	<g>
		<path class="st25" d="M18.7,278.5c5.2-1.1,10.3-1.6,15.5-2c2.6-0.2,5.2-0.3,7.8-0.4s5.2-0.1,7.8-0.1s5.2,0.1,7.8,0.1
			c2.6,0.1,5.2,0.2,7.8,0.4c5.2,0.4,10.3,0.9,15.5,2l0,0c0.1,0,0.1,0.1,0.1,0.2s-0.1,0.1-0.1,0.1l-31,0.1l-31-0.1
			c-0.1,0-0.1-0.1-0.1-0.1C18.5,278.6,18.6,278.5,18.7,278.5L18.7,278.5z"/>
	</g>
	<g>
		<path class="st25" d="M95.3,281.2l5.4-0.4l5.4-0.3l10.9-0.6l21.8-0.7l5.4-0.2l5.4-0.1l10.9-0.2l21.8-0.1l21.8,0.1
			c7.3,0.1,14.5,0.2,21.8,0.5l21.8,0.7l10.9,0.6l5.4,0.3l5.4,0.4l0,0c0.1,0,0.1,0.1,0.1,0.2s-0.1,0.1-0.1,0.1l-87,0.1l-87-0.1
			C95.3,281.5,95.3,281.4,95.3,281.2C95.2,281.3,95.2,281.2,95.3,281.2L95.3,281.2z"/>
	</g>
	<g>
		<path class="st25" d="M290.7,278.5c6.3-1.1,12.6-1.6,18.8-2c3.1-0.2,6.3-0.3,9.4-0.4s6.3-0.1,9.4-0.1s6.3,0.1,9.4,0.1
			c3.1,0.1,6.3,0.2,9.4,0.4c6.3,0.4,12.6,0.9,18.8,2l0,0c0.1,0,0.1,0.1,0.1,0.2s-0.1,0.1-0.1,0.1l-37.7,0.1l-37.7-0.1
			c-0.1,0-0.1-0.1-0.1-0.1C290.5,278.6,290.6,278.5,290.7,278.5L290.7,278.5z"/>
	</g>
	<g>
		<path class="st25" d="M298.7,288.5c9.1-1.1,18.1-1.6,27.2-2c4.5-0.2,9.1-0.3,13.6-0.4L353,286c4.5,0,9.1,0.1,13.6,0.1
			c4.5,0.1,9.1,0.2,13.6,0.4c9.1,0.4,18.1,0.9,27.2,2l0,0c0.1,0,0.1,0.1,0.1,0.2s-0.1,0.1-0.1,0.1L353,289l-54.4-0.1
			c-0.1,0-0.1-0.1-0.1-0.1C298.5,288.6,298.6,288.5,298.7,288.5L298.7,288.5z"/>
	</g>
	<g>
		<path class="st25" d="M384,280.5c3.8-1.1,7.7-1.6,11.5-2c1.9-0.2,3.8-0.3,5.8-0.4c1.9-0.1,3.8-0.1,5.8-0.1c1.9,0,3.8,0.1,5.8,0.1
			c1.9,0.1,3.8,0.2,5.8,0.4c3.8,0.4,7.7,0.9,11.5,2l0,0c0.1,0,0.1,0.1,0.1,0.2s-0.1,0.1-0.1,0.1l-23,0.1l-23-0.1
			c-0.1,0-0.1-0.1-0.1-0.1C383.9,280.6,383.9,280.5,384,280.5L384,280.5z"/>
	</g>
	<g>
		<path class="st25" d="M125.3,294.5c4.8-1.1,9.6-1.6,14.3-2c2.4-0.2,4.8-0.3,7.2-0.4s4.8-0.1,7.2-0.1s4.8,0.1,7.2,0.1
			c2.4,0.1,4.8,0.2,7.2,0.4c4.8,0.4,9.6,0.9,14.3,2l0,0c0.1,0,0.1,0.1,0.1,0.2s-0.1,0.1-0.1,0.1L154,295l-28.7-0.1
			c-0.1,0-0.1-0.1-0.1-0.1C125.2,294.6,125.2,294.5,125.3,294.5L125.3,294.5z"/>
	</g>
	<g>
		<path class="st25" d="M216,293.9c5.1-1.1,10.1-1.6,15.2-2c2.5-0.2,5.1-0.3,7.6-0.4s5.1-0.1,7.6-0.1s5.1,0.1,7.6,0.1
			c2.5,0.1,5.1,0.2,7.6,0.4c5.1,0.4,10.1,0.9,15.2,2l0,0c0.1,0,0.1,0.1,0.1,0.2s-0.1,0.1-0.1,0.1l-30.4,0.1l-30.4-0.1
			c-0.1,0-0.1-0.1-0.1-0.1C215.9,293.9,215.9,293.9,216,293.9L216,293.9z"/>
	</g>
	<g>
		<path class="st25" d="M274.7,307.2c6.1-1.1,12.2-1.6,18.3-2c3.1-0.2,6.1-0.3,9.2-0.4s6.1-0.1,9.2-0.1s6.1,0.1,9.2,0.1
			c3.1,0.1,6.1,0.2,9.2,0.4c6.1,0.4,12.2,0.9,18.3,2l0,0c0.1,0,0.1,0.1,0.1,0.2s-0.1,0.1-0.1,0.1l-36.7,0.1l-36.7-0.1
			c-0.1,0-0.1-0.1-0.1-0.1C274.5,307.3,274.6,307.2,274.7,307.2L274.7,307.2z"/>
	</g>
</g>
</svg>
