<?xml version="1.0" encoding="utf-8"?>
<!-- Generator: Adobe Illustrator 22.0.1, SVG Export Plug-In . SVG Version: 6.00 Build 0)  -->
<svg version="1.1" id="Layer_1" xmlns="http://www.w3.org/2000/svg" xmlns:xlink="http://www.w3.org/1999/xlink" x="0px" y="0px"
	 viewBox="0 0 1088 298" style="enable-background:new 0 0 1088 298;" xml:space="preserve">
<style type="text/css">
	.st0{fill:#E2EBFE;}
	.st1{fill:#C5D8FE;}
	.st2{fill:#EFF4FD;}
	.st3{fill:url(#SVGID_1_);}
	.st4{fill:#ADC7F6;}
	.st5{fill:#FFFFFF;}
	.st6{fill:#F4A0AC;}
	.st7{fill:#F7FBFE;}
	.st8{fill:#BCD7FE;}
	.st9{fill:#ABCDFE;}
	.st10{fill:#7EACEF;}
	.st11{fill:url(#SVGID_2_);}
	.st12{fill:url(#SVGID_3_);}
	.st13{fill:#7CB166;}
	.st14{fill:url(#SVGID_4_);}
	.st15{fill:#5391EA;}
	.st16{fill:url(#SVGID_5_);}
	.st17{fill:#7A96E5;}
	.st18{fill:#4E73DD;}
	.st19{fill:#DEE5FA;}
	.st20{fill:#9DB2EE;}
	.st21{fill:#F05A38;}
	.st22{fill:#94BBFF;}
</style>
<g>
	<rect class="st0" width="1088" height="298"/>
	<rect x="0.3" y="231.3" class="st1" width="1087.8" height="66.7"/>
	<path class="st2" d="M0,165.6c0,0,82.6-40.2,149.7-23.2s123.5,51.2,123.5,51.2s33-28.7,74.9-23.4s199.3,56.4,199.3,56.4
		s305.2-43.7,350.4-36.9c45.3,6.8,84.2,23.4,84.2,23.4l106-55.6V235L0,231.4V165.6z"/>
	
		<linearGradient id="SVGID_1_" gradientUnits="userSpaceOnUse" x1="1080.9797" y1="-120.8576" x2="1129.6251" y2="-97.8151" gradientTransform="matrix(-0.8944 0 0 -1 1765.3132 0)">
		<stop  offset="0" style="stop-color:#D6ECF8"/>
		<stop  offset="1" style="stop-color:#FFFFFF"/>
	</linearGradient>
	<path class="st3" d="M856.9,116.4c0,0-45.2-21.8-81.2-22c-36-0.2-50.7,2.8-50.7,2.8l-23.1,7.9l144.7,21.8L856.9,116.4z"/>
	<path class="st4" d="M855.7,117.6c0,0-57.5-22.6-68.3-20.1c-14.9,3.4-7.3,10.4-7.3,10.4l65.5,19.4L855.7,117.6z"/>
	<g>
		<polygon class="st5" points="718,108.1 722.8,108.2 726.7,108.2 734.3,108.3 754.6,108.6 757.1,79.4 745.3,79.4 737.8,103.6 
			726.8,107.4 728.6,87.9 725,87.9 722.6,87.8 		"/>
		<polygon class="st6" points="756.2,89.5 742.2,89.5 740.4,95.3 755.6,95.2 		"/>
		<polygon class="st4" points="753.9,112.8 757.1,79.4 756.3,79.4 750.3,108.1 726.7,108.4 728.6,87.9 727.7,87.9 722.8,108.2 		"/>
	</g>
	<path class="st7" d="M637,158.9l108.4,25.9l5.6,1.3l32.5,6.6l0,0l115.7,3.5c0,0,0.6-17.8,0.4-25.7c0-1.2-0.1-2.2-0.2-2.8
		c-0.1-0.4-0.1-0.7-0.2-0.8c-1-1.7-6.4-3-6.4-3v-8.6l-7.7-2.6l0.1-1.3l0.8-11l2.8-0.9l0.5-1.9l-103.1-37l-96.8,3.8l0,0l-4.5,4.6
		l-0.3,0.3l-1.1,1.2l0,0L669.6,125l-1.3,1.3l0,0l-3.2,3.3l-5.6,5.8l-4,4.1L637,158.9z"/>
	<path class="st8" d="M659.6,135.3l106.7-0.2c5,0,9.9,0.3,14.8,0.9c5.2,0.6,10.4,1.6,15.4,2.9l96.2,24.9v-8.6l-7.7-2.6l0.1-1.3
		l0.9-12.5L785.2,106l-100.7,3.3l-15,15.6l-1.3,1.3l0,0l-3.2,3.3L659.6,135.3z"/>
	<path class="st9" d="M637,158.9l108.4,25.9l38,8l0,0l115.7,3.5c0,0,0.9-23.6,0.2-28.6c0,0-122.6-29.2-130.7-29.2l-113,0.9
		L637,158.9z"/>
	<path class="st10" d="M781,139.2l2,38.5l-10.4,1.6l-4.3-17.3l-17-7.9l-4.3,28.2l4,3.9l2.8,2.8l9,0.1l136.5,1v-19.5l0.2,0.1
		c0-1.2-0.1-2.2-0.2-2.8c-0.1-0.4-0.1-0.7-0.2-0.8c-1-1.7-6.4-3-6.4-3v-7.7h0.1l0.7-2.6l-8.4-2.3l0.8-11l2.8-0.9l0.5-1.9l-103.1-37
		l-0.8,5.4l-1.4,1.8l-0.5,0.7l-1.2,15.5l-0.3,4.2l-0.6,7.7L781,139.2"/>
	<polygon class="st5" points="786.2,100.6 673.3,105.1 675.2,109.4 785.3,106.1 	"/>
	
		<linearGradient id="SVGID_2_" gradientUnits="userSpaceOnUse" x1="974.6347" y1="-140.15" x2="1230.0013" y2="-140.15" gradientTransform="matrix(-0.8944 0 0 -1 1765.3132 0)">
		<stop  offset="0" style="stop-color:#D6ECF8"/>
		<stop  offset="1" style="stop-color:#FFFFFF"/>
	</linearGradient>
	<polygon class="st11" points="665.2,129.6 781.8,128.3 782.6,128.3 892.8,156.2 892.9,156.2 893.6,153.6 885.2,151.4 782.8,124.1 
		782.1,124.1 668.4,126.3 668.4,126.3 	"/>
	
		<linearGradient id="SVGID_3_" gradientUnits="userSpaceOnUse" x1="968.3735" y1="-165.2" x2="1271.3699" y2="-165.2" gradientTransform="matrix(-0.8944 0 0 -1 1765.3132 0)">
		<stop  offset="0" style="stop-color:#D6ECF8"/>
		<stop  offset="1" style="stop-color:#FFFFFF"/>
	</linearGradient>
	<path class="st12" d="M628.2,158.3l99.7,21.5l7.4,1.8l0,0l11.8,0.7l0.3-2l0,0l3.7-23.3c0,0,19.9-2.2,34.5,0.3
		c13.2,2.3,113.6,26.5,113.6,26.5v-0.6c0,0-94.1-23.2-112.2-27c-18.1-3.8-35.7-1.9-35.7-1.9l-19.2-7.7H637L628.2,158.3z"/>
	<polygon class="st4" points="711,180.3 734.9,183.2 747.3,184.2 751.2,154.1 732,146.4 711.1,179 	"/>
	<polygon class="st13" points="733.7,153 729.8,157.8 745.7,161.2 744.4,167.9 725.7,164.2 722.1,170.5 743.4,174.9 742.2,181.6 
		745.3,182.6 748.9,158 	"/>
	
		<linearGradient id="SVGID_4_" gradientUnits="userSpaceOnUse" x1="1071.1145" y1="-138.2686" x2="1139.1274" y2="-106.052" gradientTransform="matrix(-0.8944 0 0 -1 1765.3132 0)">
		<stop  offset="0" style="stop-color:#D6ECF8"/>
		<stop  offset="1" style="stop-color:#FFFFFF"/>
	</linearGradient>
	<polygon class="st14" points="886.1,138.9 784.4,107.9 683.5,110.6 675.2,109.4 785.3,106.1 	"/>
	<polygon class="st4" points="784.4,107.9 683.5,110.6 675.2,109.4 785.3,106.1 	"/>
	<polygon class="st15" points="784.4,107.9 861,132.9 861,144.8 882.9,150.8 882.9,150.8 885.2,151.4 886,140.4 888.7,139.5 
		882.9,137.6 882.9,137.6 785.3,106.1 	"/>
	<polygon class="st15" points="899.6,192 899.3,167.7 847,155 889.9,166.7 890.8,181.8 803.5,161.1 890.8,183.4 891,189.9 	"/>
	<path class="st10" d="M770.7,138.5l-115,0.9l-1.1,1.2c0,0,115.5-1.7,122.7-0.5c1.5,0.3,2.7,0.5,3.7,0.6c0-0.6,0-0.8,0-1.4
		C777.1,138.8,773.6,138.5,770.7,138.5z"/>
	<path class="st15" d="M781,139.3c0,0.6,0,0.8,0,1.4h0.1c3.4,0.6,3.4,0.6,3.4,0.6l54.3,11.4C838.8,152.7,803.7,142.3,781,139.3z"/>
	
		<linearGradient id="SVGID_5_" gradientUnits="userSpaceOnUse" x1="1159.0221" y1="-161.2431" x2="1169.2826" y2="-217.8412" gradientTransform="matrix(-0.8944 0 0 -1 1765.3132 0)">
		<stop  offset="0" style="stop-color:#D6ECF8"/>
		<stop  offset="1" style="stop-color:#FFFFFF"/>
	</linearGradient>
	<path class="st16" d="M550.8,170.9L550.8,170.9c2.3,4.6,4.2,8,4.2,8s26.9,34,32.6,55.4H881c17.1-12.6,29.9-41.7,29.9-41.7
		l-113.2-19.3l-9.7,1.1c0,0-5.4,10-18.4,11.9c-3.7,0.6-21.8-3.4-46.2-9.2c-60.6-14.3-160.2-39.9-175.9-35.2
		C539.3,144.3,545.9,160.8,550.8,170.9z"/>
	<path class="st4" d="M550.8,170.9c0,0-4.7-15.2,0.1-11.4c4.7,3.9,18.6,14.1,29.9,30.9c11.4,16.8,16.4,39.9,16.4,39.9l279.6,3.9
		c12.9-3.5,34.1-41.7,34.1-41.7l-112.3-17.7l-10.4,6.6c0,0-5.7,2.8-18.7,4.8c-3.7,0.6-21.8-3.4-46.2-9.2
		c-60.6-14.3-159.4-38.1-175.2-33.4C540,146,545.9,160.8,550.8,170.9z"/>
	<path class="st5" d="M769.7,186.2c18.4,0.7,28.1-13,28.1-13l-9.7,1.1C788.1,174.3,782.7,184.3,769.7,186.2z"/>
	<g>
		<path class="st17" d="M609.2,171.7c-15-1-5.1,24.3,8.5,24.1C631.2,195.6,624.2,172.7,609.2,171.7z"/>
		<path class="st18" d="M617.9,183.9c-5.3-0.6-2.9,8.5,1.9,8.7C624.6,192.7,623.2,184.5,617.9,183.9z"/>
		<path class="st18" d="M616.5,195.7c-15.3-5.4-10-20.7,1.1-19.9c0.5,0,0.9,0.1,1.3,0.2c-2.6-2.4-5.9-4.1-9.7-4.3
			C594.6,170.7,603.5,194.5,616.5,195.7z"/>
	</g>
	<g>
		<path class="st19" d="M855.3,211.3l4.7,0.4l8.3,0.8c0.7,0.1,1.3-0.2,1.7-0.6l3-3.3c0.6-0.7,0.1-1.6-1-1.8l-12.8-2.4
			c-0.8-0.2-1.6,0.1-2,0.6l-0.1,0.1l-3.1,4.4C853.4,210.3,854.1,211.2,855.3,211.3z"/>
		<path class="st10" d="M855.3,211.3l4.7,0.4c0.2-0.1,0.4-0.2,0.6-0.4l3-3.3c0.6-0.7,0.1-1.6-1-1.8l-5.5-1.1l-3.1,4.4
			C853.4,210.3,854.1,211.2,855.3,211.3z"/>
	</g>
	<g>
		<path class="st19" d="M832.7,209.5l6.1,0.5l8.6,0.7c1.2,0.1,2.5-0.3,3-1l2.8-3.9c0.7-1-0.2-2.2-1.9-2.5L837,201
			c-1.3-0.2-2.6,0.2-3.2,0.9c-0.1,0.1-0.1,0.1-0.2,0.2l-3.1,5C829.8,208.2,830.9,209.4,832.7,209.5z"/>
		<path class="st10" d="M832.7,209.5l6.1,0.5c0.4-0.2,0.7-0.4,0.9-0.7l2.8-3.9c0.7-1-0.2-2.2-1.9-2.5l-6.8-1.1
			c-0.1,0.1-0.1,0.1-0.2,0.2l-3.1,5C829.8,208.2,830.9,209.4,832.7,209.5z"/>
	</g>
	<g>
		<path class="st19" d="M802.5,205.8l12.9,1.1l7.2,0.6c1.4,0.1,2.7-0.4,3.2-1.2l3-4.5c0.7-1.1-0.3-2.4-2.2-2.7l-20.7-2.9
			c-1.3-0.2-2.6,0.2-3.3,0.9c-0.1,0.1-0.2,0.3-0.3,0.5l-2.4,5.6C799.4,204.4,800.6,205.6,802.5,205.8z"/>
		<path class="st10" d="M802.5,205.8l12.9,1.1c0.2-0.2,0.4-0.3,0.5-0.5l3-4.5c0.8-1.1-0.3-2.4-2.2-2.7l-14.1-1.9
			c-0.1,0.1-0.2,0.3-0.3,0.5l-2.4,5.6C799.4,204.4,800.6,205.6,802.5,205.8z"/>
	</g>
	<g>
		<path class="st20" d="M882.8,220.6c0,0-63.7-7.3-116.3-15.3c-63.1-9.5-139.4-21.6-139.4-21.6c2.1,9.3,0.7,16-6.6,18.4
			c0,0,90.7,4.4,144.8,9.1c49.2,4.3,111.6,12.3,111.6,12.3L882.8,220.6z"/>
		<path class="st10" d="M751.5,198.2c-0.4,0.8-0.2,1.6,0.4,1.8c0.7,0.1,1.5-0.4,2-1.3c0.4-0.8,0.2-1.6-0.4-1.8
			C752.8,196.8,752,197.3,751.5,198.2z"/>
		<path class="st10" d="M746.4,197.5c-0.4,0.9-0.2,1.7,0.5,1.8s1.6-0.4,2-1.3c0.4-0.9,0.2-1.7-0.5-1.8
			C747.8,196,746.9,196.6,746.4,197.5z"/>
		<path class="st10" d="M741.3,196.8c-0.5,0.9-0.2,1.8,0.5,2s1.7-0.5,2.2-1.4s0.2-1.8-0.5-2C742.7,195.2,741.8,195.9,741.3,196.8z"
			/>
		<path class="st10" d="M736.3,196c-0.5,0.9-0.2,1.8,0.5,2s1.7-0.5,2.2-1.4s0.2-1.8-0.5-2C737.8,194.5,736.8,195.1,736.3,196z"/>
		<path class="st10" d="M730.5,195.2c-0.5,1-0.3,1.9,0.5,2c0.8,0.2,1.8-0.5,2.3-1.5s0.3-1.9-0.5-2C732,193.6,731,194.2,730.5,195.2z
			"/>
		<path class="st10" d="M724.2,194.4c-0.5,1-0.3,1.9,0.5,2.1c0.8,0.2,1.8-0.5,2.3-1.5s0.3-1.9-0.5-2.1
			C725.7,192.8,724.7,193.4,724.2,194.4z"/>
		<path class="st10" d="M717.8,193.4c-0.5,1-0.3,2,0.5,2.1c0.8,0.2,1.9-0.5,2.4-1.5s0.3-2-0.5-2.1
			C719.4,191.7,718.3,192.4,717.8,193.4z"/>
		<path class="st10" d="M710.5,192.5c-0.5,1.1-0.3,2.1,0.6,2.3c0.9,0.2,2-0.6,2.5-1.6c0.5-1.1,0.3-2.1-0.6-2.3
			C712.1,190.7,711,191.4,710.5,192.5z"/>
		<path class="st10" d="M703.6,191.3c-0.6,1.1-0.3,2.2,0.6,2.4c0.9,0.2,2.1-0.6,2.7-1.7c0.6-1.1,0.3-2.2-0.6-2.4
			C705.4,189.4,704.2,190.2,703.6,191.3z"/>
		<path class="st10" d="M696.7,190.3c-0.6,1.1-0.3,2.2,0.6,2.4c0.9,0.2,2.1-0.6,2.7-1.7c0.6-1.1,0.3-2.2-0.6-2.4
			C698.4,188.4,697.2,189.2,696.7,190.3z"/>
		<path class="st10" d="M690.1,189.4c-0.6,1.1-0.3,2.2,0.6,2.4c0.9,0.2,2.1-0.6,2.7-1.7c0.6-1.1,0.3-2.2-0.6-2.4
			S690.7,188.3,690.1,189.4z"/>
		<path class="st10" d="M683.6,188.3c-0.6,1.2-0.3,2.3,0.6,2.5c1,0.2,2.2-0.6,2.8-1.8s0.3-2.3-0.6-2.5
			C685.5,186.2,684.2,187.1,683.6,188.3z"/>
		<path class="st10" d="M676.7,187.2c-0.6,1.2-0.3,2.3,0.6,2.5c1,0.2,2.2-0.6,2.8-1.8s0.3-2.3-0.6-2.5
			C678.6,185.1,677.3,186,676.7,187.2z"/>
		<path class="st10" d="M669.7,186c-0.6,1.2-0.3,2.3,0.6,2.5c1,0.2,2.2-0.6,2.8-1.8s0.3-2.3-0.6-2.5
			C671.6,184,670.3,184.8,669.7,186z"/>
	</g>
</g>
<path class="st5" d="M174.6,298c0,0,10.6-80.4-63-158.7l12-10c0,0,56.5,58.5,71.3,140.1c0,0,21.3-75.1,91.5-105.1l5.2,7.2
	c0,0-83.9,23.1-73.7,126.4L174.6,298L174.6,298z"/>
<g>
	<path class="st5" d="M127,124.3l41.9-16.7V90.9l16.2,11.6l26.6-8.3V83.3l12,9.1l40.2-9.1c0,0-34.2-33.3-92.4-14.2
		C113.3,88.5,127,124.3,127,124.3z"/>
	<path class="st5" d="M95.5,128.9l-36.8,12.3L49,130.4l-3.7,16.5l-22,9.2l-6.3-7l-2.4,12.5l-31.2,16.3c0,0,0-33.9,48.7-53.6
		S95.5,128.9,95.5,128.9z"/>
	<path class="st5" d="M108.2,116.3l27.3-47.9l-12.8-14.9l24.6-2.3l18.9-28.3l-8.4-9.7l18.6-1.2l31.5-39.9c0,0-48.6-5.1-90.5,57.3
		C82.9,80.6,108.2,116.3,108.2,116.3z"/>
	<path class="st5" d="M106.4,139.3l-17.1,25.8H79.1l5.1,10.9l-8.6,17.5h-9.4l4.2,9.1l-23.1,39.2C47.4,241.8,16.6,148.6,106.4,139.3z
		"/>
	<path class="st5" d="M97.8,115.5L67.9,106l-2.6-9.7l-9.5,7.6l-19.6-3.6l-2.4-8.9l-8.1,6.4L-19,86C-19,86,65.8,33.3,97.8,115.5z"/>
</g>
<g>
	<path class="st5" d="M286.5,162.1l-21.9-15.2l2.3-9.7l-11,4.6l-14.2-8.3l1.5-6.3l-8.2,3.7l-22-10.5c0,0,24.4-14.7,55.4,4
		C299.4,143.2,286.5,162.1,286.5,162.1z"/>
	<path class="st5" d="M304,168.8l19.5,12l7.1-4.9l-0.1,10l11.4,8.2l4.6-3.2l-0.3,7.6L362,212c0,0,4.7-19.7-20.7-37.4
		C316,156.8,304,168.8,304,168.8z"/>
	<path class="st5" d="M298.5,159.9l-9.1-31.3l9.5-6.9l-13.9-4.6l-7-18.9l6.2-4.5l-10.6-3.2L261,63.3c0,0,28.7,3.5,44.3,45
		C318.1,142.5,298.5,159.9,298.5,159.9z"/>
	<path class="st5" d="M296.3,173.5l6.3,17.1l6,1.3l-4.5,5.6l2.5,11.2l5.4,1.2l-3.7,4.7l7.9,25.7
		C316.2,240.5,346.9,190.6,296.3,173.5z"/>
	<path class="st5" d="M304.6,160.7l18.6-1.5l2.8-5.3l4.4,5.6l11.8,0.4l2.6-4.8l3.7,4.7L376,159C376.2,159.1,334.5,117.5,304.6,160.7
		z"/>
</g>
<path class="st5" d="M0,276.9c0,0,154.9-4.8,217.2-0.2c62.3,4.6,202.1,21.3,202.1,21.3H0V276.9z"/>
<path class="st2" d="M350.8,292.7c0,0,4.4-9.8,16.6-13.3s20-1.5,20-1.5s-23.8,4.9-27.4,11.6S350.8,292.7,350.8,292.7z"/>
<path class="st5" d="M346.9,295c0,0-4.5-18.1-10-24.5c-2.6-3-7.6-8-10.5-9.4c0,0,14.6,4.6,19.1,11.4S346.9,295,346.9,295z"/>
<path class="st5" d="M347.2,300c0,0-2.3-4.9-7.8-11.2c-2.6-3-12.2-15-12.2-15s11.1,7.5,15.6,14.2S347.2,300,347.2,300z"/>
<path class="st5" d="M348.5,298.8c0,0,4.9-10.8,5.8-19.2c0.5-4.2,4.8-17.6,3.2-20.4c0,0,2.7,12.1,2.6,20.2
	C360,287.6,348.5,298.8,348.5,298.8z"/>
<path class="st2" d="M127.4,276.5c0,0,4.4-9.8,16.6-13.3s20-1.5,20-1.5s-23.8,4.9-27.4,11.6S127.4,276.5,127.4,276.5z"/>
<path class="st5" d="M123.5,278.8c0,0-4.5-18.1-10-24.5c-2.6-3-7.6-8-10.5-9.4c0,0,14.6,4.6,19.1,11.4S123.5,278.8,123.5,278.8z"/>
<path class="st5" d="M123.8,283.8c0,0-2.3-4.9-7.8-11.2c-2.6-3-12.2-15-12.2-15s11.1,7.5,15.6,14.2S123.8,283.8,123.8,283.8z"/>
<path class="st5" d="M125.1,282.6c0,0,4.9-10.8,5.8-19.2c0.5-4.2,4.8-17.6,3.2-20.4c0,0,2.7,12.1,2.6,20.2
	C136.6,271.4,125.1,282.6,125.1,282.6z"/>
<path class="st2" d="M35.8,278.8c0,0,4.4-9.8,16.6-13.3s20-1.5,20-1.5s-23.8,4.9-27.4,11.6S35.8,278.8,35.8,278.8z"/>
<path class="st5" d="M31.9,281.1c0,0-4.5-18.1-10-24.5c-2.6-3-7.6-8-10.5-9.4c0,0,14.6,4.6,19.1,11.4S31.9,281.1,31.9,281.1z"/>
<path class="st5" d="M32.2,286.1c0,0-2.3-4.9-7.8-11.2c-2.6-3-12.2-15-12.2-15s11.1,7.5,15.6,14.2S32.2,286.1,32.2,286.1z"/>
<path class="st5" d="M33.5,284.9c0,0,4.9-10.8,5.8-19.2c0.5-4.2,4.8-17.6,3.2-20.4c0,0,2.7,12.1,2.6,20.2
	C45,273.7,33.5,284.9,33.5,284.9z"/>
<path class="st2" d="M14.8,281.6c0,0-3.6-16-13.7-21.8c-10-5.7-16.5-2.5-16.5-2.5s19.6,8,22.5,19C10.2,287.4,14.8,281.6,14.8,281.6z
	"/>
<path class="st5" d="M18,285.4c0,0,3.7-29.6,8.2-40.1c2.1-4.9,6.3-13.1,8.6-15.4c0,0-12,7.5-15.7,18.7C15.4,259.7,18,285.4,18,285.4
	z"/>
<path class="st5" d="M17.7,293.6c0,0,1.9-8,6.4-18.3c2.1-4.9,10-24.6,10-24.6S25,263,21.3,274S17.7,293.6,17.7,293.6z"/>
<path class="st5" d="M16.7,291.6c0,0-4-17.7-4.8-31.4c-0.4-6.9-3.9-28.8-2.6-33.4c0,0-2.2,19.8-2.1,33.1
	C7.2,273.3,16.7,291.6,16.7,291.6z"/>
<g>
	<path class="st9" d="M934.7,79.8c0-6.6,2.6-9.9,4.4-11.4c-0.4,0.1-0.7,0.2-1.1,0.4c-1.9,1-7,4.5-7,12.5c0,9.9,10.3,21.4,11.7,23
		c0.5,0.4,0.7,0.7,0.7,0.7S934.7,91.2,934.7,79.8z"/>
	<path class="st9" d="M954.2,69.6c-0.7-0.4-1.3-0.7-2-0.9c1.7,1.6,4.1,4.8,4.1,11.1c0,10.6-7.5,23.3-8.6,25c0.3-0.3,0.8-0.8,1.5-1.5
		c2.9-3.4,10.7-13.3,10.7-21.9C959.9,74.8,956.5,71.3,954.2,69.6z"/>
	<path class="st5" d="M938,68.8c-4.6,1.8-8.3,5.5-8.5,12.7c-0.2,9.4,10.3,20,13.2,22.8c-1.4-1.5-11.7-13-11.7-23
		C931.1,73.3,936.2,69.8,938,68.8z"/>
	<path class="st5" d="M961.2,81.7c0-6.2-3-10-7-12.1c2.3,1.6,5.7,5.1,5.7,11.7c0,8.7-7.8,18.5-10.7,21.9
		C952.9,99.4,961.2,90,961.2,81.7z"/>
	<path class="st9" d="M948,67.7c-0.9-0.1-1.8-0.2-2.6-0.2s-1.7,0-2.5,0.1c-1.3,1.4-3,4.6-2.9,11.5c0.2,9.6,3.5,22.6,4.4,25.8h2.1
		c0.9-3.2,4.3-16.2,4.4-25.8C950.9,72.3,949.2,69.2,948,67.7z"/>
	<path class="st5" d="M942.8,67.7c-1.2,0.1-2.5,0.4-3.7,0.8c-1.8,1.4-4.4,4.7-4.4,11.4c0,11.4,8.7,25.2,8.7,25.2h0.9
		c-0.9-3.2-4.3-16.2-4.4-25.8C939.9,72.3,941.6,69.1,942.8,67.7z"/>
	<path class="st5" d="M952.2,68.7c-1.4-0.5-2.8-0.8-4.2-1c1.3,1.4,3,4.6,2.9,11.5c-0.2,9.6-3.5,22.6-4.4,25.8h1c0,0,0.1-0.1,0.2-0.2
		c1-1.7,8.6-14.4,8.6-25C956.2,73.6,953.9,70.3,952.2,68.7z"/>
	<polygon class="st9" points="941.8,105.8 948.9,105.8 947.6,109.9 943,109.9 	"/>
</g>
<g>
	<path class="st21" d="M996.7,102.8c0-8.5,3.3-12.6,5.6-14.4c-0.5,0.1-0.9,0.3-1.4,0.5c-2.4,1.3-8.9,5.7-8.9,15.9
		c0,12.6,13.1,27.3,14.8,29.2c0.6,0.5,0.9,0.8,0.9,0.8S996.7,117.3,996.7,102.8z"/>
	<path class="st21" d="M1021.4,89.9c-0.8-0.4-1.7-0.8-2.6-1.2c2.2,2,5.2,6.1,5.2,14.1c0,13.4-9.6,29.6-10.9,31.8c0.4-0.3,1.1-1,2-2
		c3.7-4.3,13.6-16.9,13.6-27.9C1028.7,96.4,1024.3,91.9,1021.4,89.9z"/>
	<path class="st5" d="M1000.9,88.8c-5.8,2.2-10.6,7-10.8,16.2c-0.3,12,13.1,25.5,16.8,29c-1.8-1.9-14.8-16.6-14.8-29.2
		C992,94.5,998.5,90.1,1000.9,88.8z"/>
	<path class="st5" d="M1030.3,105.2c0-7.9-3.9-12.7-8.9-15.4c2.9,2,7.3,6.5,7.3,14.9c0,11-9.9,23.5-13.6,27.9
		C1019.7,127.8,1030.3,115.7,1030.3,105.2z"/>
	<path class="st21" d="M1013.5,87.4c-1.1-0.1-2.2-0.2-3.3-0.2c-1,0-2.1,0.1-3.2,0.2c-1.6,1.8-3.8,5.8-3.7,14.6
		c0.2,12.2,4.5,28.8,5.6,32.8h2.6c1.1-4.1,5.4-20.6,5.6-32.8C1017.3,93.3,1015.1,89.2,1013.5,87.4z"/>
	<path class="st5" d="M1007,87.4c-1.6,0.2-3.2,0.5-4.8,1c-2.2,1.8-5.6,6-5.6,14.4c0,14.4,11.1,32,11.1,32h1.2
		c-1.1-4.1-5.4-20.6-5.6-32.8C1003.2,93.2,1005.3,89.2,1007,87.4z"/>
	<path class="st5" d="M1018.8,88.7c-1.7-0.6-3.5-1-5.3-1.3c1.6,1.8,3.8,5.9,3.6,14.6c-0.2,12.2-4.5,28.8-5.6,32.8h1.3
		c0,0,0.1-0.1,0.3-0.2c1.3-2.2,10.9-18.3,10.9-31.8C1024,94.9,1021,90.7,1018.8,88.7z"/>
	<polygon class="st9" points="1005.6,135.8 1014.6,135.8 1013.1,141.1 1007.2,141.1 	"/>
</g>
<g>
	<path class="st22" d="M845.3,66c0.2-1.1,0.9-2.1,1.8-2.9c0.9-0.8,2-1.4,3.2-1.6c1.1-0.3,2.3-0.4,3.5-0.3c0.6,0,1.2,0.2,1.8,0.3
		c0.6,0.2,1.1,0.3,1.8,0.7l-1.5,1c-0.1-1.3,0-2.5,0.5-3.8c0.5-1.2,1.5-2.4,2.8-2.8c0.7-0.2,1.2-0.2,1.8-0.3c0.6,0,1.2,0,1.8,0
		c1.2,0.1,2.3,0.3,3.3,0.9c-1.1-0.1-2.2,0-3.3,0.1c-0.5,0.1-1.1,0.2-1.6,0.3s-1.1,0.3-1.5,0.4c-0.8,0.4-1.3,1.1-1.6,2
		s-0.4,2-0.3,2.9l0.2,2l-1.7-1c-0.3-0.2-0.8-0.4-1.3-0.5s-1-0.2-1.5-0.3c-1-0.2-2-0.1-3.1-0.1c-1,0.1-2,0.4-2.9,0.9
		C846.8,64.3,846,65.1,845.3,66z"/>
</g>
<g>
	<path class="st22" d="M873.6,79.6c0.5-0.7,1.2-1.1,2-1.4s1.7-0.3,2.6-0.1c0.8,0.2,1.6,0.5,2.4,1c0.4,0.2,0.7,0.5,1,0.9
		c0.3,0.3,0.6,0.6,0.9,1.2h-1.8c0.4-0.9,0.9-1.6,1.6-2.2c0.4-0.3,0.8-0.6,1.3-0.8c0.5-0.2,1-0.3,1.6-0.2c0.3,0,0.5,0.1,0.7,0.2
		s0.4,0.2,0.6,0.3c0.4,0.2,0.8,0.4,1.1,0.7c0.7,0.5,1.3,1.1,1.7,1.8c-0.7-0.4-1.4-0.7-2.2-1c-0.4-0.1-0.7-0.2-1.1-0.3l-0.5-0.1
		c-0.2,0-0.3,0-0.4,0c-0.3,0-0.5,0.1-0.7,0.2s-0.5,0.3-0.7,0.6c-0.4,0.5-0.8,1.1-1.1,1.7l-0.9,1.9l-0.9-1.9
		c-0.1-0.2-0.3-0.5-0.5-0.7s-0.5-0.5-0.7-0.7c-0.5-0.4-1.1-0.8-1.7-1.1c-0.6-0.3-1.3-0.4-2-0.4C875.1,79.1,874.3,79.3,873.6,79.6z"
		/>
</g>
<g>
	<path class="st22" d="M897.7,73.6c-0.1-0.8,0.1-1.6,0.5-2.4s1.1-1.4,1.9-1.8c0.7-0.4,1.6-0.7,2.4-0.8c0.4-0.1,0.9-0.1,1.3-0.1
		c0.5,0,0.9,0.1,1.4,0.3l-1.3,1.2c-0.3-0.9-0.4-1.8-0.3-2.7c0.1-0.5,0.2-1,0.4-1.4c0.2-0.5,0.6-0.9,1-1.2c0.2-0.1,0.5-0.3,0.7-0.4
		s0.4-0.2,0.6-0.2c0.4-0.1,0.8-0.2,1.3-0.3c0.8-0.1,1.7-0.1,2.5,0.2c-0.8,0.2-1.5,0.4-2.2,0.7c-0.3,0.2-0.7,0.3-1,0.5l-0.5,0.3
		c-0.1,0.1-0.2,0.2-0.3,0.3c-0.2,0.2-0.3,0.4-0.4,0.7c-0.1,0.3-0.1,0.6-0.1,0.9c0,0.6,0.1,1.4,0.3,2l0.6,2l-1.9-0.8
		c-0.2-0.1-0.5-0.1-0.8-0.2c-0.3,0-0.6,0-1,0c-0.7,0-1.3,0.2-2,0.4c-0.6,0.2-1.2,0.5-1.7,1C898.4,72.2,898,72.8,897.7,73.6z"/>
</g>
<g>
	<path class="st22" d="M660.4,75.5c-0.1-0.8,0.1-1.6,0.5-2.4s1.1-1.4,1.9-1.8c0.7-0.4,1.6-0.7,2.4-0.8c0.4-0.1,0.9-0.1,1.3-0.1
		c0.5,0,0.9,0.1,1.4,0.3l-1.3,1.2c-0.3-0.9-0.4-1.8-0.3-2.7c0.1-0.5,0.2-1,0.4-1.4c0.2-0.5,0.6-0.9,1-1.2c0.2-0.1,0.5-0.3,0.7-0.4
		s0.4-0.2,0.6-0.2c0.4-0.1,0.8-0.2,1.3-0.3c0.8-0.1,1.7-0.1,2.5,0.2c-0.8,0.2-1.5,0.4-2.2,0.7c-0.3,0.2-0.7,0.3-1,0.5l-0.5,0.3
		c-0.1,0.1-0.2,0.2-0.3,0.3c-0.2,0.2-0.3,0.4-0.4,0.7c-0.1,0.3-0.1,0.6-0.1,0.9c0,0.6,0.1,1.4,0.3,2l0.6,2l-1.9-0.8
		c-0.2-0.1-0.5-0.1-0.8-0.2c-0.3,0-0.6,0-1,0c-0.7,0-1.3,0.2-2,0.4c-0.6,0.2-1.2,0.5-1.7,1C661.2,74.1,660.8,74.8,660.4,75.5z"/>
</g>
<g>
	<path class="st22" d="M813.6,65.3c-0.1-0.8,0.1-1.6,0.5-2.4c0.4-0.8,1.1-1.4,1.9-1.8c0.7-0.4,1.6-0.7,2.4-0.8
		c0.4-0.1,0.9-0.1,1.3-0.1c0.5,0,0.9,0.1,1.4,0.3l-1.3,1.2c-0.3-0.9-0.4-1.8-0.3-2.7c0.1-0.5,0.2-1,0.4-1.4c0.2-0.5,0.6-0.9,1-1.2
		c0.2-0.1,0.5-0.3,0.7-0.4c0.2-0.1,0.4-0.2,0.6-0.2c0.4-0.1,0.8-0.2,1.3-0.3c0.8-0.1,1.7-0.1,2.5,0.2c-0.8,0.2-1.5,0.4-2.2,0.7
		c-0.3,0.2-0.7,0.3-1,0.5l-0.5,0.3c-0.1,0.1-0.2,0.2-0.3,0.3c-0.2,0.2-0.3,0.4-0.4,0.7c-0.1,0.3-0.1,0.6-0.1,0.9
		c0,0.6,0.1,1.4,0.3,2l0.6,2l-1.9-0.8c-0.2-0.1-0.5-0.1-0.8-0.2c-0.3,0-0.6,0-1,0c-0.7,0-1.3,0.2-2,0.4c-0.6,0.2-1.2,0.5-1.7,1
		C814.4,64,813.9,64.6,813.6,65.3z"/>
</g>
<g>
	<path class="st22" d="M703.2,54.1c0.4-0.7,1.1-1.2,1.9-1.5c0.8-0.3,1.7-0.4,2.6-0.2c0.9,0.1,1.7,0.5,2.4,0.9
		c0.4,0.2,0.7,0.5,1.1,0.8c0.3,0.3,0.6,0.6,0.9,1.1l-1.8,0.1c0.4-0.9,0.8-1.6,1.5-2.3c0.3-0.3,0.8-0.6,1.2-0.9
		c0.5-0.2,1-0.3,1.6-0.3c0.3,0,0.5,0.1,0.7,0.2c0.2,0.1,0.4,0.1,0.6,0.2c0.4,0.2,0.8,0.4,1.1,0.6c0.7,0.5,1.4,1,1.8,1.8
		c-0.7-0.4-1.4-0.7-2.2-0.9c-0.4-0.1-0.7-0.2-1.1-0.2l-0.6-0.1c-0.2,0-0.3,0-0.4,0c-0.3,0-0.5,0.1-0.7,0.3s-0.5,0.4-0.7,0.6
		c-0.4,0.5-0.8,1.1-1,1.7l-0.8,1.9l-1-1.8c-0.1-0.2-0.3-0.5-0.5-0.7s-0.5-0.4-0.7-0.6c-0.5-0.4-1.1-0.7-1.8-1
		c-0.6-0.2-1.3-0.4-2-0.3S703.9,53.8,703.2,54.1z"/>
</g>
<g>
	<path class="st22" d="M882.1,71.6c0.1-0.8,0.5-1.5,1.1-2.1s1.3-1,2.1-1.3c0.7-0.3,1.5-0.5,2.3-0.7c0.8-0.1,1.6-0.2,2.6,0l-0.9,1
		c-0.2-0.5-0.2-0.9-0.2-1.4s0.1-0.9,0.3-1.4c0.4-0.9,1.3-1.5,2-1.7s1.5-0.4,2.3-0.5s1.5-0.1,2.3,0.1c-1.5,0.3-2.8,0.9-4.1,1.5
		c-0.6,0.3-1,0.7-1.2,1.2s-0.1,1.1,0,1.6l0.5,1.2l-1.3-0.2c-0.6-0.1-1.4-0.1-2,0c-0.7,0.1-1.4,0.2-2.1,0.4c-0.7,0.2-1.4,0.4-2,0.8
		C883.1,70.4,882.5,70.9,882.1,71.6z"/>
</g>
</svg>
