<svg xmlns="http://www.w3.org/2000/svg" xmlns:xlink="http://www.w3.org/1999/xlink" version="1.2" baseProfile="tiny" id="Layer_1" x="0px" y="0px" viewBox="0 0 1088 298" xml:space="preserve">
<g>
	<polygon fill="#EEF5FE" points="1088,0 0,0 0,298 1088,298  "/>
	<path fill="#FFFFFF" d="M300,80c292.7,102.3,629,73.7,788.3-80.4L1088,258H407.7C516.2,240.4,300,80,300,80z"/>
	<g id="_271768552">
		<path id="_271769008" fill="#D5E6FE" d="M1088,205.5c-0.3,0-0.5,0-0.8,0c-6.3,0-12.2,1.6-17.6,4.5c-9.1-14.7-23.9-24.3-40.5-24.3    c-5.9,0-11.6,1.2-16.9,3.4c-9-15.3-24.1-25.3-41.2-25.3c-21.6,0-40.1,16.1-47.1,38.8c-18.8,0.4-35.9,9.6-48.5,24.3    c-4.4-1.7-9.1-2.6-14-2.6c-15.7,0-29.6,9.5-38,24.1c-7.7-7.1-17.4-11.3-27.8-11.3c-14,0-26.5,7.5-35,19.4    c-7-10.9-17.9-17.9-30.2-17.9c-8.9,0-17.1,3.7-23.6,9.9c-10.2-17-26.8-28-45.5-28c-16.2,0-30.7,8.3-41,21.5    c-7.3-9.2-17.7-15-29.3-15c-2.4,0-4.8,0.3-7.1,0.7c-4.8-19-19.3-32.8-36.5-32.8c-15.4,0-28.6,11-34.7,26.9    c-2.5-0.5-5.2-0.8-7.8-0.8c-9.1,0-17.5,3.2-24.6,8.6c-4.3-4.8-10.1-7.7-16.4-7.7c-6.2,0-11.9,2.8-16.2,7.4    c-11.4-9.3-25-14.8-39.8-14.8c-15.1,0-29.1,5.7-40.6,15.4c-6.6-6.6-15.1-10.6-24.3-10.6c-0.6,0-1.1,0-1.7,0    c-2.9-4.2-6.2-8.1-9.7-11.5c2-4.3,3.1-9.2,3.1-14.4c0-16.4-11-29.7-24.5-29.7c-7.5,0-14.2,4.1-18.7,10.5    c-5.7-3.7-12.4-5.9-19.4-5.9c-4.2,0-8.2,0.8-12,2.2c-6.9-8.7-16.6-14.1-27.4-14.1c-6.5,0-12.5,1.9-17.9,5.4    c-5.8-24.9-25.2-43.3-48.3-43.3l-0.2,0c-1.5-31-23.3-55.6-50-55.6c-7.8,0-15.1,2.1-21.7,5.8c-9-10-21.1-16.1-34.4-16.1    c-6.9,0-13.5,1.6-19.5,4.6C38.8,31,21.9,9.7,0,5v116c3.7-0.8,7.2-2,10.5-3.7c1,12.2,5.2,23.4,11.5,32.3c-1.7-0.3-3.5-0.5-5.3-0.5    c-6,0-11.7,1.8-16.7,5V274h1088L1088,205.5L1088,205.5z M79.5,164c8.7,9.9,20.4,16,33.3,16l0.2,0c0.5,10.7,3.4,20.7,8,29.1    c-4,3.2-7.7,6.8-11,10.9c-3.9-3.5-8.7-5.6-13.9-5.6c-5.8,0-11.1,2.6-15.3,6.9c-9.6-7.7-19.9-14-30.9-18.6c0.7-3.5,1.1-7.2,1.1-11    c0-9-2.2-17.4-6-24.3c4.3,1.5,8.8,2.3,13.4,2.3C66,169.8,73.2,167.7,79.5,164L79.5,164z"/>
		<path fill="#E2EDFE" d="M459.4,293.1c-12.2-14.7-28.7-23.8-46.9-24.2c-6.8-22.5-24.6-38.6-45.6-38.6c-16.5,0-31.1,10-39.9,25.2    c-5.1-2.2-10.6-3.4-16.3-3.4c-16.1,0-30.4,9.5-39.3,24.2c-5.2-2.9-11-4.5-17-4.5c-3.8,0-7.4,0.6-10.9,1.8    c-4.3-22.9-32.1-34.8-50.3-40.7c15-46.6-39.1-95-73.8-68.8c0,0,0,0,0,0h0c0,0,0,0,0,0c1-37.3-23.6-55.5-52.2-46.2    c3.6-30.5-24.7-54.3-45.8-50c0.2-2.3,0.3-4.6,0.3-6.9c0-20.5-8.7-38.5-21.8-49v153.5c0.4,0.4,0.7,0.8,1.1,1.1    c-0.4,1.4-0.8,2.7-1.1,4.1v127h495.2c-6.6-4.7-14.2-7.4-22.3-7.4C468.2,290.5,463.7,291.4,459.4,293.1z"/>
		<path fill="#FFFFFF" d="M188.8,289.8c-0.2-26.5-25-48-40.1-48c-15.2,0-16.1,3.1-22.5,8.4c-0.5-15.8-16.9-28.5-24.5-28.5    c-7.6,0-3.7,0.3-5.5,0.8c-8.9-37.1-39.7-46.2-67.5-39.1c7.9-11,9.4-39.5-6.5-51.5C41,101.3,25.6,69.5,0,69v229.5h199.9    C197.1,294.3,193.3,291.1,188.8,289.8z"/>
		<path fill="#FFFFFF" d="M390.4,265c-6.3,0-12,3.2-16.1,8.3c-2.9-2.8-6.6-4.5-10.6-4.5c-6.1,0-11.4,3.9-14.4,9.8    c-6.1-12.1-17.2-20.2-29.8-20.2c-18.6,0-33.8,17.6-34.8,39.7h127.6c0.4-1.9,0.5-3.9,0.5-5.9C412.8,277.1,402.8,265,390.4,265z"/>
	</g>
	<g>
		<path fill="#FFFFFF" d="M204.3,69.5c4,0.3,16.5-0.5,16.5-0.5s1.2-4.1,5.8-4c4.6,0.2,7,2.1,7,2.1l8.4-2.4c0,0-7.7-3.2-10.3-5.1    c-2.5-1.9-6.9-6.9-4.6-11.2c2.3-4.3,5.3-7.7,13.8-6.1c8.5,1.6,37.6,17.3,37.6,17.3s1.7-3.6,6.2-3c4.5,0.6,5.4,2.1,5.4,2.1    s0.8-0.1,2.2-0.2c1.3-3.1,5-12,5.7-12.2c0.9-0.3,3.1,0.5,3.1,0.5c0.2,0.5-0.8,8.2-1.2,10.8c4.5-0.5,9.7-1.1,13.3-1.6    c7.9-1.1,52.9-9.6,52.9-9.6c2.3-0.3,2.2,0.1,0,1c-2.3,0.9-29.6,7.7-29.6,7.7l1.1,1.7l-6.8,1.9c0.6,1.2,1.3,1.9,1,2.1    c-0.3,0.2-1.6-0.3-2.3-1.7l-13.1,3.6c0.5,1.1,1.1,1.6,0.9,1.8c-0.3,0.2-1.4-0.2-2.2-1.4l-8.6,2.4l-1-1.6l-4.2,1.3L302,67l-3.6,1.1    l-0.5,4l2.6,3.2c0,0,25.7-3.3,27.8-3.1c2.1,0.2,2.2,1-0.2,1.2c-2.4,0.3-26.2,4.5-26.2,4.5s0.9,1.8,0.3,2.8c-0.7,1-5.1,1.7-8.5,2.1    c-3.1-0.1-5.2-0.6-7.8-1.2c-2.6-0.6-11.8-3.1-12.8-3.4c-1-0.3-6.8-1-7.9-1.5c-1.1-0.5-5-1.4-5-1.4L246,75.4    c0.4,0.6,0.8,1.1,0.6,1.2c-0.3,0.2-1.4-0.2-2.1-1.3l-7.6-0.5c0,0-0.9,4.2-4.4,4.4c-3.6,0.2-9-2-10-3.3c-1-1.2-1.3-2.4-1.3-2.4    l-2.9-0.1l-0.5-1.2c0,0-12.7-1.2-14.6-1.7C201.2,70.1,200.2,69.2,204.3,69.5z"/>
		<path fill="#ABCDFE" d="M221.4,70.6c-0.1,2.7,1.6,5,3.9,5.1c2.3,0.1,4.2-2,4.3-4.7c0.1-2.7-1.6-5-3.9-5.1    C223.4,65.8,221.5,67.9,221.4,70.6L221.4,70.6z"/>
		<path fill="#ABCDFE" d="M234.7,44.7c1-0.1,2.8,1,2.7,1.4c-0.1,0.3-0.9,0.3-1.6,0.3c-0.5,0-1,0-1.2-0.1    C234.3,46,234.2,44.9,234.7,44.7z"/>
		<path fill="#ABCDFE" d="M233.9,44.8c0.1,0.2,0,1.4-0.3,1.5c-0.4,0.1-2.7,0.2-2.8,0c-0.1-0.3,0.2-1.5,0.9-1.6    C232.3,44.5,233.8,44.6,233.9,44.8z"/>
		<path fill="#ABCDFE" d="M229.5,44.9c0.4-0.1,0.9-0.1,1,0c0.2,0.2-0.2,1.4-0.6,1.5c-0.2,0.1-1.1,0.1-1.7,0.1    C228.6,45.9,229,45.4,229.5,44.9z"/>
		<path fill="#C5DCFE" d="M293.4,66.3c0,0,0.2-2.8-1.6-5.3l-0.9-1.2c2.1-0.2,5.7-0.5,9.3-0.9c5.6-0.6,25.6-4,28.9-4.6    c3.3-0.7,23.6-4.7,27.5-5.5c3.2-0.7,8.4-2,10.2-2.5c1.3-0.1,1,0.3-0.9,1.1c-0.3,0.1-1.2,0.4-2.4,0.7c-7.2,2-27.2,7-27.2,7l1.1,1.7    l-6.8,1.9c0.6,1.2,1.3,1.9,1,2.1c-0.3,0.2-1.6-0.3-2.3-1.7l-13.1,3.6c0.5,1.1,1.1,1.6,0.9,1.8c-0.3,0.2-1.4-0.2-2.2-1.4l-8.6,2.4    l-1-1.6l-4.2,1.3L302,67l-3.6,1.1l0,0l-6.8,1.4C293,68.3,293.4,66.3,293.4,66.3L293.4,66.3L293.4,66.3L293.4,66.3z"/>
		<path fill="#C5DCFE" d="M279,67.4c0.9,1.1,5.6,3.1,9.1,3.3c0,0.1,0,0.1,0,0.2c0,0.5,3,2.5,5.6,3.3c2.3,0.6,4.7,1.2,6.2,1.3    c-0.2,0.3,0.5,0.5,0.5,0.5s6.2-0.8,10.9-1.4s15.5-2.1,16.7-2.1c0.8,0,1.5,0.3,1.8,0.5c-0.2,0.2-0.8,0.3-1.7,0.4    c-2.4,0.3-26.2,4.5-26.2,4.5s0.9,1.8,0.3,2.8c-0.7,1-5.1,1.7-8.5,2.1c-3.1-0.1-5.2-0.6-7.9-1.2c-0.7-0.2-0.7-0.2-1.9-0.5    c-2.8,0-11.5,0.5-11.9,0.5c-0.4,0-3.4-0.1-2.7-0.5c0.7-0.4,6.5-1.4,8.2-1.7c-2-0.5-4.3-1.2-4.7-1.4c-1-0.3-6.8-1-7.9-1.5    c-1.1-0.5-4.7-1.3-4.7-1.3L246,75.4c0.5,0.7,0.8,1.1,0.6,1.2c-0.3,0.2-1.4-0.2-2.1-1.3l-7.6-0.5c0,0,0,0,0,0s0.2-2.8-1.6-5.3    l-1.3-1.7c3.3-0.8,9-2.6,9-2.6l-1.2-0.6l0,0c-0.8-0.3-7.8-3.3-10.2-5c-2-1.5-5.2-5-5.2-8.6c0.7,2.8,3.1,3,4.4,2.8    c2.1-0.3,3.4-1.7,6.3-2.5c2.9-0.8,5.9-0.6,9.3,0.8c3.4,1.4,20,8.8,20,8.8l5.1-0.5l6-0.4c-0.1,0.1-0.1,0.2-0.1,0.3l0,0    c0,0-0.1,1.2,0,2.5c0.1,1.1,0.3,2,0.4,2.2l0,0C277.7,65.1,278,66.2,279,67.4L279,67.4z"/>
		<path fill="#C5DCFE" d="M220.7,69.6c0,0.5,0,1.1,0.1,1.8c0.1,1.1,0.3,2,0.4,2.2l-2.9-0.1l-0.5-1.2c0,0-12.7-1.2-14.6-1.7    c-1-0.3-1.7-0.6-1.7-0.9c0.3,0,0.7,0.1,1,0.1c2,0.2,10.8,0.2,15.7,0C218.9,69.8,219.8,69.7,220.7,69.6L220.7,69.6z"/>
		<path fill="#FEFEFE" d="M223.5,70.8c-0.1,1.2,0.7,2.2,1.7,2.3c1,0,1.8-0.9,1.9-2.1c0.1-1.2-0.7-2.2-1.7-2.3    C224.4,68.7,223.5,69.6,223.5,70.8z"/>
		<path fill="#FFFFFF" d="M276.5,60.4c0.1-0.4,1.5-4.6,6.4-4.4c5.1,0.2,7.8,2.3,7.8,2.3l0,0c0.2,0.3,0.8,1.1,2.1,2.8    c2.1,2.8,1.8,5.9,1.8,5.9l0,0l0,0c0,0-1,4.7-4.9,4.9c-4,0.2-10-2.3-11.1-3.6c-1.1-1.4-1.4-2.6-1.4-2.6l0,0    c-0.1-0.3-0.3-1.3-0.4-2.5C276.4,61.7,276.5,60.4,276.5,60.4L276.5,60.4z"/>
		<path fill="#ABCDFE" d="M277.2,62.2c-0.1,3,1.8,5.6,4.3,5.7c2.5,0.1,4.7-2.2,4.8-5.3c0.1-3-1.8-5.6-4.3-5.7    C279.5,56.9,277.4,59.2,277.2,62.2L277.2,62.2z"/>
		<path fill="#FEFEFE" d="M279.8,62.4c-0.1,1.3,0.8,2.5,1.9,2.5c1.1,0.1,2.1-1,2.1-2.3c0.1-1.3-0.8-2.5-1.9-2.5    C280.8,60,279.8,61,279.8,62.4z"/>
		<polygon fill="#ABCDFE" points="245.4,47.2 246.1,46.6 274.7,59.7 272.6,59.7   "/>
	</g>
</g>
<path fill="#C5DCFE" d="M700.5,230.1c-0.2-1.4,0.2-2.6,1.1-3.6l-0.8-0.5c-2.4,2.6-6.7,3.6-10.5,2.2c-0.3-0.9-0.1-1.6,0.5-2.2  l-0.5-0.8c-5.6,4.8-16.8,1.2-23-0.5c0,0,0,0,0,0h0v-12.4c4.9-0.1,13.7-2,16.8-7.1c0,0-2,0-2.5-0.5c0,0,1.1-1.1,0.5-1.8l0.6-1.2  l-0.5-0.8c-2.8,2.7-6.6,3-10.8,2.4c0,0,0.2-1.1-0.3-1.4l1.1-1l-0.7-1c-8.5,5.7-25.4-2.3-33.3-5.9c-1.1-2.4,1.3-5.4-3.9-4.7  c1.4,6.9-28.3,6.6-27.1,0c-5-0.6-3,2.3-3.9,4.7c-8.2,3.8-24.7,11.6-33.3,5.9l-0.7,1l1.1,1c-0.5,0.3-0.3,1.4-0.3,1.4  c-4.1,0.6-8,0.4-10.8-2.4l-0.5,0.8l0.6,1.2c-0.6,0.8,0.5,1.8,0.5,1.8c-0.5,0.5-2.5,0.5-2.5,0.5c3.1,5.1,11.5,6.9,16.8,7.1v12.4h0  c0,0,0,0,0,0c-6.2,1.8-17.4,5.3-23,0.5L551,226c0.6,0.6,0.8,1.3,0.5,2.2c-3.9,1.5-8.1,0.7-10.5-2.2l-0.8,0.5c0.9,1,1.3,2.2,1.1,3.6  l-2.9,0.8c1.6,0.7,2.7,1.9,2.9,3.5l18.8,8.6l0.1,22.5h121.6l0.1-22.5l18.8-8.6c0.2-1.5,1.3-2.7,2.9-3.5L700.5,230.1z"/>
<path fill="#ABCDFE" d="M901.8,246.7l-0.8-27.5h0.6v-2.4h1.6c0-0.9,0-1.9,0-2.8h0l-2.4-1.4l-0.7-26.5h0.6v-2.3h1.4  c0-0.9,0-1.7,0-2.6h0L900,180l-0.8-28.2h1.1v-2.3h1.3c0-0.9,0-1.7,0-2.6h0l-1.8-1.2v-10.2c1.4,0.2,2.8,0.2,2-1.1l-1.8-0.9l0,0  c0,0,0,0,0,0h0c0.2-3-2.6-6.1-4.6-8.1h0v-0.3c0.7-0.5,0.7-0.9,0-1.4v-0.3c0.8-0.7,0.8-1.3,0-1.9v-0.9c0.3-0.3,0.3-0.5,0-0.8  c0-1.2-0.1-2.5-0.2-3.7c-0.1,1.2-0.2,2.5-0.2,3.7c-0.3,0.3-0.3,0.5,0,0.8v0.9c-0.8,0.6-0.8,1.2,0,1.9v0.3c-0.7,0.5-0.7,0.9,0,1.4  v0.3h0.1c-0.4,0.4-0.8,0.8-1.2,1.2c0,0,0,0,0,0c-0.4,0.4-0.7,0.7-1,1.2h0c-1.9,1.7-2.7,3.6-2.5,5.8c2.3,0,4.6,0,6.9,0  c-2.3,0-4.6,0-6.9,0l-1.9,0.8c-0.9,1.1-0.1,1.4,1.9,1.1v9.8h0l-1.7,1.5h0c0,0.9,0,1.7,0,2.6h1.3v2.3h1.1l-0.8,28.1h-0.3l-1.9,1.5h0  c0,0.9,0,1.7,0,2.6h1.4v2.3h0.6l-0.7,26.3l-2.1,1.6h0c0,0.9,0,1.9,0,2.8h1.6v2.4h0.2l-0.8,27.5c-4.2,0-8.4,0-12.6,0l-0.6-20.9h0.5  V224h1.2c0-0.7,0-1.4,0-2.1h0l-1.8-1.1l-0.5-19.9h0.4v-1.7h1.1c0-0.7,0-1.3,0-2h0l-1.6-1l-0.6-21.2h0.8v-1.7h1c0-0.7,0-1.3,0-2h0  l-1.3-0.9v-7.6c1.1,0.2,2.1,0.1,1.5-0.8l-1.4-0.7h0l0,0h0c0.1-2.2-2-4.7-3.4-6.1h0v-0.2c0.5-0.3,0.5-0.7,0-1v-0.3  c0.6-0.5,0.6-1,0-1.4v-0.7c0.2-0.2,0.2-0.4,0-0.6c0-0.9,0-1.9-0.1-2.8c-0.1,0.9-0.2,1.8-0.1,2.8c-0.2,0.2-0.2,0.4,0,0.6v0.7  c-0.6,0.5-0.6,0.9,0,1.4v0.3c-0.5,0.3-0.5,0.7,0,1v0.2h0.1c-0.3,0.3-0.6,0.6-0.9,0.9h0c-0.3,0.3-0.5,0.6-0.8,0.9h0  c-1.4,1.3-2,2.7-1.9,4.4l5.2,0c-1.7,0-3.4,0-5.1,0l-1.4,0.6c-0.6,0.8-0.1,1.1,1.5,0.8v7.4h0l-1.3,1.1h0c0,0.7,0,1.3,0,2h1v1.7h0.8  l-0.6,21.1h-0.2l-1.4,1.1h0c0,0.7,0,1.3,0,2h1.1v1.7h0.4l-0.5,19.7l-1.6,1.2h0c0,0.7,0,1.4,0,2.1h1.2v1.8h0.2l-0.6,20.9h-16.1  c0-20.9,0-41.8,0-62.7h0v-13.7c1.1-0.5,1.1-0.9-0.1-1.2l-0.6-4.1l-0.7,3.5v-4c1.4-0.6,1.4-1.3-0.1-1.7l-0.7-5.9l-1.1,5.9  c-1.5,0.5-1.7,1.1-0.2,1.7v10h-3v-5.3c1.1-0.5,1.2-1-0.1-1.4l-0.6-4.7l-0.9,4.7c-1.2,0.4-1.3,0.9-0.1,1.4v6.5l-4.3,8.3h-2v-8.5  c0.8-0.4,0.9-0.7,0-1.1c0-1.2,0-2.5,0-3.7h-2.7c1.3-7-4-13.2-8.3-18h0.2v-0.4c0.9-0.7,0.9-1.4,0-2v-0.5c1.1-0.9,1.1-1.9,0-2.8v-1.3  c0.4-0.4,0.4-0.8,0-1.1c0-1.8-0.1-3.6-0.2-5.4c-0.2,1.8-0.2,3.6-0.2,5.4c-0.4,0.4-0.4,0.8,0,1.1v1.3c-1.1,0.9-1.1,1.8,0,2.8v0.5  c-0.9,0.7-0.9,1.4,0,2v0.4h0c-4.5,4.3-9.9,11.4-8.4,18h-2.5v-6.4h0.3v-3.2h-0.3v0l0.3,0c0.7-1.4,1.5-3.5,2.2-5.3l0,0  c0.1-0.4,0.2-0.8,0.4-1.2h0c0.2-0.6,0.4-1.3,0.5-1.9h0.3c3.2-16.2-5.8-30-15.6-41.7c0,0.1,0,0.1,0,0.2c-0.3-0.3-0.5-0.6-0.7-0.9h0  c-3.6-4.1-7.3-8.1-11.2-11.8V98c1.7-1.1,1.7-2.3,0-3.4v-0.8c2-1.6,2-3.1,0-4.7V87c0.8-0.6,0.8-1.3,0-1.9v-2.5c1-0.2,3.5-1.9,0-0.8  l-0.3-4.9l-0.3,4.9c-3.5-1.1-1,0.6,0,0.8v2.5c-0.8,0.6-0.8,1.3,0,1.9v2.1c-2,1.5-2,3.1,0,4.7v0.8c-1.7,1.1-1.7,2.3,0,3.4v0.5  c-3.9,3.7-7.6,7.8-11.2,11.8h0c-10.5,12.3-20.7,27.2-15.5,44.3h0c0.1,0.4,0.3,0.8,0.4,1.2l0,0c0.6,1.8,1.5,3.9,2.2,5.3l0.3,0v0h-0.3  v3.2h0.3v6.4h-2.4c1.3-7-4-13.2-8.3-18h0.2v-0.4c0.9-0.7,0.9-1.4,0-2v-0.5c1.1-0.9,1.1-1.9,0-2.8v-1.3c0.4-0.4,0.4-0.8,0-1.1  c0-1.8-0.1-3.6-0.2-5.4c-0.2,1.8-0.2,3.6-0.2,5.4c-0.4,0.4-0.4,0.8,0,1.1v1.3c-1.1,0.9-1.1,1.8,0,2.8v0.5c-0.9,0.7-0.9,1.4,0,2v0.4  h0l-2.2,2.5c0,0,0,0,0,0c-3.9,3.7-7.4,9.9-6.2,15.5h-2.8c0,1.2,0,2.5,0,3.7c-0.8,0.4-0.9,0.7,0,1.1v8.5h-1.8l-4.3-8.3v-6.5  c1.1-0.5,1.2-1-0.1-1.4l-0.9-4.7l-0.6,4.7c-1.2,0.4-1.3,0.9-0.1,1.4v5.3h-3v-10c1.4-0.7,1.4-1.3-0.2-1.7l-1.1-5.9l-0.7,5.9  c-1.5,0.5-1.6,1.1-0.1,1.7v4l-0.7-3.5l-0.6,4.1c-1.1,0.4-1.2,0.8-0.1,1.2V184H728c0,20.9,0,41.8,0,62.7h-16.4l-0.6-20.9h0.4V224h1.2  c0-0.7,0-1.4,0-2.1h0l-1.8-1.1l-0.5-19.9h0.4v-1.7h1.1c0-0.7,0-1.3,0-2h0l-1.6-1l-0.6-21.2h0.8v-1.7h1c0-0.7,0-1.3,0-2h0l-1.3-0.9  v-7.6c1.1,0.2,2.1,0.1,1.5-0.8l-1.4-0.7h0l0,0h0c0.1-2.2-2-4.7-3.4-6.1h0v-0.2c0.5-0.3,0.5-0.7,0-1v-0.3c0.6-0.5,0.6-1,0-1.4v-0.7  c0.2-0.2,0.2-0.4,0-0.6c0-0.9,0-1.9-0.1-2.8c-0.1,0.9-0.2,1.8-0.1,2.8c-0.2,0.2-0.2,0.4,0,0.6v0.7c-0.6,0.5-0.6,0.9,0,1.4v0.3  c-0.5,0.3-0.5,0.7,0,1v0.2h0.1c-0.3,0.3-0.6,0.6-0.9,0.9c0,0,0,0,0,0c-0.3,0.3-0.5,0.6-0.8,0.9h0c-1.4,1.3-2,2.7-1.9,4.4  c1.7,0,3.4,0,5.2,0c-1.7,0-3.4,0-5.1,0l-1.4,0.6c-0.6,0.8-0.1,1.1,1.5,0.8v7.4h0l-1.3,1.1h0c0,0.7,0,1.3,0,2h1v1.7h0.8l-0.6,21.1  h-0.2l-1.4,1.1h0c0,0.7,0,1.3,0,2h1.1v1.7h0.4l-0.5,19.7l-1.6,1.2h0c0,0.7,0,1.4,0,2.1h1.2v1.8h0.2l-0.6,20.9c-4.2,0-8.4,0-12.7,0  l-0.8-27.5h0.6v-2.4h1.6c0-0.9,0-1.9,0-2.8h0l-2.4-1.4l-0.7-26.5h0.6v-2.3h1.4c0-0.9,0-1.7,0-2.6h0l-2.2-1.3l-0.8-28.2h1.1v-2.3h1.3  c0-0.9,0-1.7,0-2.6h0l-1.8-1.2v-10.2c1.4,0.2,2.8,0.2,2-1.1l-1.8-0.9l0,0c0,0,0,0,0,0h0c0.2-3-2.6-6.1-4.6-8.1h0v-0.3  c0.7-0.5,0.7-0.9,0-1.4v-0.3c0.8-0.7,0.8-1.3,0-1.9v-0.9c0.3-0.3,0.3-0.5,0-0.8c0-1.2-0.1-2.5-0.2-3.7c-0.1,1.2-0.2,2.5-0.2,3.7  c-0.3,0.3-0.3,0.5,0,0.8v0.9c-0.8,0.6-0.8,1.2,0,1.9v0.3c-0.7,0.5-0.7,0.9,0,1.4v0.3h0.1c-0.4,0.4-0.8,0.8-1.2,1.2c0,0,0,0,0,0  c-0.4,0.4-0.7,0.7-1,1.2h0c-1.9,1.7-2.7,3.6-2.5,5.8c2.3,0,4.6,0,6.9,0c-2.3,0-4.6,0-6.9,0l-1.9,0.8c-0.9,1.1-0.1,1.4,1.9,1.1v9.8h0  l-1.7,1.5h0c0,0.9,0,1.7,0,2.6h1.3v2.3h1.1l-0.8,28.1h-0.3l-1.9,1.5h0c0,0.9,0,1.7,0,2.6h1.4v2.3h0.6l-0.7,26.3l-2.1,1.6h0  c0,0.9,0,1.9,0,2.8h1.6v2.4h0.2l-0.8,27.5h-3v19.1c58.1,0,116.2,0,174.3,0c19.4,0,38.7,0,58.1,0v-19.1H901.8z M744.4,174.5H744V173  h19.4v11h-1.1v-10.7h-17V184H744v-8.5C744.6,175.5,744.9,174.5,744.4,174.5z M833.8,174.5c-0.7,0.4-0.8,0.7,0,1.1v8.5h-1.3v-10.7  h-17V184h-1.1v-11h19.4V174.5z"/>
<path fill="#B5D3FF" d="M988.1,209.3c-0.4-0.2-0.3-1.2-0.3-1.2c0.3-1.4-0.3-1.2-0.3-1.2c-0.4,0.4-1.9,0.8-1.9,0.8  c-4.2,1.6-5.6,5.6-5.6,5.6c-1.8,3.1-1.1,7-1.1,7c0.3,2.1-0.1,2.5-0.1,2.5l-0.7,0.9c-0.4,0.4-1.1,0.2-1.1,0.2  c-1.3-0.2-2.7-1.4-2.7-1.4c-2.3-2.3-6-4.3-6-4.3c-3.1-1.4-7,1.8-7,1.8c-2,1.6-4.4,0.2-4.4,0.2c-4.7-2.6-9-0.4-9-0.4  c-1.7,1.1-3.5,0.3-3.5,0.3c-6.3-2.6-12.5,2.4-12.5,2.4c-7.2,5-8.6,12.1-8.6,12.1c-1.7,5.6-3.8,9.7-3.8,9.7c-0.8,1.8-2.1,3-2.1,3  c-0.9,0.4-1.4,1.8-1.4,1.8c1.4-0.2,2.1-1.4,2.1-1.4l1.6-1.9c2.1-2.1,4.1-8.6,4.1-8.6c0.3-0.9,1-1,1-1l-0.3,7.3c-0.2,2.2,0.7,5,0.7,5  c0.5,1.3-0.6,4.1-0.6,4.1c-1.6,3.9-1.2,7-1.2,7c0.2,1.9,0,3.6,0,3.6c-0.8,2,0.7,2.2,0.7,2.2l6.3,0.2c1.1,0,0.5-1.4,0.5-1.4  c0.7-0.5,0.1-1.4,0.1-1.4l-1.4-1.7c-1-1.2-0.8-2.3-0.8-2.3c0.6-3,3.4-5.8,3.4-5.8c2.4-1.7,2.7-4.2,2.7-4.2c0.2-0.8,0.7-0.7,0.7-0.7  c2.4,0.4,6.2,0.3,6.2,0.3c2.9,0.4,5.3-1.3,5.4-1.4c0-0.1,0.9-0.2,0.9-0.2c1.2,1.8,1.1,6.9,1.1,6.9c-0.1,5.2-0.3,7.7-0.3,7.7  c-0.1,0.5-0.5,1.3-0.5,1.3c-0.8,1.6,0.6,2,0.6,2l6.4,0.2l0.6,0.4l5.2,0.1c1.1-0.1,1.5-0.5,1.5-0.6c0,0,0-0.8,0-0.8  c-0.5-1.1-1.7-2.2-1.7-2.2c-0.4-0.5-0.5-0.2-0.5-1.1c0-0.9-0.4-4.4-0.4-4.4l0-6.5c1.2-5.3,0.4-10.4,0.4-10.4c0-0.7,0.2-0.8,0.2-0.8  c3.3-1.6,6.1-3.5,6.1-3.5l0.4,0l1.9,2.3c0.6,1,0.9,0.6,0.9,0.6c0.5-0.3-0.1-1.2-0.1-1.2c-1.5-1.6-1.4-3.1-1.4-3.1  c1.7-0.4,3.2-1.7,3.2-1.7c0.6-0.6,1.1-0.3,1.1-0.3c1.4,1,2.8,0.7,2.8,0.7c0-0.8,0.3-0.8,0.3-0.8l2.3,0.1c4.8,1.7,7.5-1.1,7.5-1.1  c0.8-0.8,0.2-1.4,0.2-1.4c-1.3,1.5-4.6,1.1-4.6,1.1l0.8-0.8c0.5-0.4,0.2-0.7,0.2-0.7c-2.2,1.6-3.5,0.5-3.5,0.5  c2.9-0.7,4.2-2.6,4.2-2.6c2.1-2.6,0.7-6.9,0.7-6.9c-0.6-1.7-0.6-3.3-0.6-3.3c0.2-5.4,4.1-6.7,4.1-6.7  C988.3,209.7,988.1,209.3,988.1,209.3z M954.9,263.1c-1.5-1.8-1.8-3-1.8-3c0.6-0.4,0.6-1.5,0.6-1.5l1-6.2c1,2.7,0.5,5.2,0.5,5.2  c-0.5,1.3,0.4,2.9,0.4,2.9C955.7,261.7,954.9,263.1,954.9,263.1z"/>
<ellipse fill="#ACCDFC" cx="767.7" cy="281.3" rx="94.8" ry="4.6"/>
<g>
	<g>
		<path fill="#E0ADA6" d="M741.1,208.2c0,0-8.3,14.7-13.8,18.7c0,0-1.8,1.2-2.1,2.7c-0.4,1.6,0.7,2.7,0.7,2.7l1.3-1.8l1.4,0.7    l-1,1.7c0,0,2-0.8,2.3-2c0.3-1.2,0.7-2.5,1.6-3.7c0.8-1.2,4-2.3,6.4-4.7C740.2,220.1,741.1,208.1,741.1,208.2"/>
		<g>
			<path fill="#141D3C" d="M712.4,248c0,0,5.3,1.8,4.4,4c-0.9,2.3-11.6,26.6-15.2,26.2c-3.6-0.4-9.6-4-8.9-6.6     c0.7-2.6,11.5-21.1,11.5-21.1S706.4,244.7,712.4,248z"/>
			<path fill="#141D3C" d="M699.5,278.3c0,1.1,0.9,2.1,2.1,2.1c1.1,0,2.1-0.9,2.1-2.1s-0.9-2.1-2.1-2.1     C700.4,276.2,699.5,277.2,699.5,278.3z"/>
			<polygon fill="#FBB03B" points="714,248.7 698.3,277.4 697.5,277 713.4,248.4    "/>
			<polygon fill="#FBB03B" points="712.1,247.8 696.4,276.5 695.6,276.1 711.4,247.5    "/>
		</g>
		<polygon fill="#141D3C" points="728.5,231.2 715.4,252.1 714.4,250.8 727.2,230.5   "/>
		<path fill="#0C0F1A" d="M732.6,191.3c0,0,4.7-3.6,4.7-3.6l3.9,1.2l-0.1,0.3l-3.7-1.1l-4.3,3.4L732.6,191.3z"/>
		<path fill="#151C40" d="M729.9,188.8c0.2-0.1,6.7,2.7,6.7,2.7l-6.2,8.2l-2.9-1.9L729.9,188.8z"/>
		<path fill="#141D3C" d="M744.1,229.9c0,0-3.5,16.6,1.3,27c4.8,10.4,17.3,18.4,17.3,18.4l2.9-2.2c0,0-12.4-15.1-12.7-21.2    c-0.3-6.1,0.8-22.1,0.8-22.1H744.1z"/>
		<path fill="#141D3C" d="M738.6,229.9l-15.4,47.4l3.4,0.6c0,0,13.7-25.3,17.6-36.6c3.9-11.3,3-13.8,3-13.8l-1.1-0.9L738.6,229.9z"/>
		<path fill="#E0ADA6" d="M749.3,201c-1.3,0.8-0.7-0.4-1.7,0.8c-0.6-0.3-1.2-0.5-1.8-0.7c-0.6-0.4-1.1-0.8-1.7-1.1    c-0.9-0.7-1.4-0.4-2.5-1c-0.4-1.2-1.2-3.6-1.5-5.4c-0.7-4.2,2.4-7.4,2.4-7.4l-1.5-1.6l3.7-1.3c1.9-0.3,4.5-1.6,4.5-1.6    s-0.7-0.6,2.9,1.9c3.6,2.5-3,10-3.8,14C748.2,199.6,749.1,200.3,749.3,201z"/>
		<path fill="#151C40" d="M748.3,183.1c0,0-2.4,2.6,0.1,5.4c2.6,2.7,1,6.7,1,6.7s2.5,0.5,3.7-3.5c1.3-4,0.9-9.5-4.1-10.9    c-5.1-1.4-3.9-2.9-3.9-2.9S743.9,181.5,748.3,183.1z"/>
		<path fill="#0C0F1A" d="M745.2,184.8c0,0,1.3,0.6,0.7,2.7C745.9,187.5,746,186,745.2,184.8z"/>
		<path fill="#E0ADA6" d="M748.8,189.9c0,0,2.1-0.4,1.9,1.3c-0.2,1.8-2.2,0.6-2.2,0.6L748.8,189.9z"/>
		<path fill="#13F2B8" d="M741.3,197.6c0,0,5,0.9,7.2,0c0,0,2.2,0.5,3.3,9.8c1.1,9.3,2.4,22.9,2.4,22.9s-12.9,4.2-17.6,0    c0,0,2.8-24.7,3.4-27.9C740.6,199.1,741.3,197.6,741.3,197.6z"/>
		<path fill="#141D3C" d="M723.2,277.2l3.4,0.6l-1.1,3.3l-1.2-0.2l0.4-1.3c0,0-1-0.1-1.5,0.8c-0.5,1-4.6,1.1-7.1,1    c0,0,1.1-1.9,3.1-1.9c2,0,2.8-0.8,3.2-1.2C722.7,277.9,723.2,277.2,723.2,277.2z"/>
		<path fill="#141D3C" d="M762.7,275.3l2.9-2.2c0,0,0.7,0.6,0.8,1.5c0.1,0.9,0.7,2.7,0.7,2.7l-1.3,0.7l-0.4-2c0,0-0.9-0.3-1.4,1.6    c-0.5,1.9-1,3.8-2,3.9c-1,0.1-2.2,0.4-2.2,0.4s-0.5-1.1,0.5-1.7C761.3,279.7,762.9,277.5,762.7,275.3z"/>
		<path fill="#674A6E" d="M750.1,199.6c0,0-9.8,0.7-8.9,9.3c0.9,8.6,12.3,13.4,12.3,13.4l-0.1-1.2c0,0-10.7-5.3-11.4-12.2    c-0.6-6.9,8.4-8.4,8.4-8.4L750.1,199.6z"/>
		<path fill="#E0ADA6" d="M742.1,207.8c0,0,0.1,1.5-1.3,1.1c-1.4-0.5-5.4-12.4-5.4-12.4s0.5-2.2-1.4-2.9c-1.9-0.7-6-1.5-6.2-1.2    c-0.2,0.4,0.9,0.5,0.9,0.5l0,0.3c0,0-1.4,0-1.1,0.4c0.3,0.4,1.1,0.4,1.1,0.4l-0.1,0.2c0,0-1.4,0-1.2,0.4c0.3,0.4,0.9,0.4,0.9,0.4    v0.3c0,0-1.1,0.2-0.7,0.6c0.4,0.5,2.6,0.1,3.5,0.2c0.9,0.1,1.5,3.5,1.9,5.3c0.4,1.9,3.4,16.1,9.9,15.7c6.5-0.5,5.7-8.5,5.7-8.5    L742.1,207.8z"/>
		<g>
			<path fill="#674A6E" d="M749.6,198.7c0,0,5-2.5,6.2-1.1c1.1,1.4,2.7-1.2,4.7,0.4c2,1.5,3.7,5.9,3.5,9.5s-1.5,9.7,0,12     c1.5,2.3-2.1,5.3-5.5,5.6c-3.4,0.4-4.4,1-5.1-1.6C752.7,220.8,751.9,203.6,749.6,198.7z"/>
			<path fill="#141D3C" d="M750.6,201.9c0,0,6.9,1,11.7-1.5l0.1,0.2c0,0-5.2,2.8-11.9,1.4V201.9z"/>
			<path fill="#141D3C" d="M758,211c0,0-2.8-1.4-3.3,2.4c-0.5,3.9,1.2,9.6,3.9,8.3C761.1,220.5,759.9,211.6,758,211z M758.4,221.4     c-2.5,1.2-4.1-4.2-3.6-7.9c0.5-3.7,3.1-2.3,3.1-2.3C759.8,211.8,760.9,220.2,758.4,221.4z"/>
		</g>
	</g>
	<g>
		<path fill="#E0ADA6" d="M764.7,251.5c0,0-1.3-1.4,0.4-2.5c1.7-1.1,6.2,0.1,8.2-0.5c2-0.6,5.6-2.5,6.8-4.2c1.2-1.7,1.3-2.1,1.4-1.8    c0.1,0.3-0.7,1.7-0.7,1.7s2.3-2.4,2.1-1.9c-0.2,0.5-1.4,1.8-1.4,1.8s1.8-1.6,1.8-1.2c0,0.3-1.2,1.3-1.2,1.3s1.5-1,1.3-0.6    c-0.2,0.3-1.1,1-1.1,1s1-0.7,0.9-0.3c-0.1,0.4-1,1.2-1.5,1.6c-0.5,0.4-1.6,1.3-2.2,2.1c-0.7,0.8-3.8,3.9-7.3,4.3    C768.7,252.5,766,252.2,764.7,251.5z"/>
		<path fill="#E0ADA6" d="M761.5,267.1c0,0-1.3,0.9-1.7,6.2c-0.4,5.3,0.2,6.5,0.2,6.5h2.2c0,0-0.2-5.2,0.8-7.6    c1-2.4,3.6-5.1,3.6-5.1H761.5z"/>
		<path fill="#E0ADA6" d="M768.4,267.9c0,0-1.8,4.3,3.3,6.1c5.1,1.8,7.6,1.5,7.6,1.5l0.3-2.4c0,0-7.2-0.7-7.5-5.1    C771.8,263.6,768.4,267.9,768.4,267.9z"/>
		<path fill="#161C40" d="M760,279.8h2.3c0,0,0.3,2.3-0.3,2.5c-0.6,0.1-0.8-0.3-0.8-0.3s-1.4,0.4-1.7,0.7c-0.3,0.3-3.3,0-3.3,0    s0.5-1,1.7-1.4C759.1,280.9,760,279.8,760,279.8z"/>
		<path fill="#161C40" d="M779.1,275.3l0.4-2.3c0,0,2.4,0.1,2.4,0.7c0,0.6-0.4,0.8-0.4,0.8s0.2,1.4,0.4,1.8c0.3,0.4-0.6,3.2-0.6,3.2    s-0.9-0.7-1.1-1.9C780.1,276.4,779.1,275.3,779.1,275.3z"/>
		<path fill="#E0ADA6" d="M765.2,235c0,0-2.3,1.7-3.6,1.3c0,0,0,1,0.6,1.4l-0.3,0.2c0,0,0.3,1.2,1.7,1c0,0-1.2,0.9-2,0.4    c0,0-0.9,2.1,0.8,3.5c1.7,1.4,2.6,2,2.5,4.5c0,0,5.4,0,5.3,0c0,0,0.1-4.2,0.1-4.2l2.7-2.1c0,0-1.9-3.5-2-3.6    c-0.1-0.1-0.8-1.5-1-1.7c-0.2-0.2-2.8-1.3-2.8-1.3L765.2,235z"/>
		<path fill="#F2511F" d="M764.9,247.2c0,0-2.8,4.9-5.7,12c-2.9,7.1-2.5,6.6-3,10.8c0,0,1.8-0.9,3.6-0.3c4.3,1.3,11,2.5,14.9,0.9    c3.9-1.6,7.1,0,7.1,0s1.2-1.1-3.9-5.2c-5.1-4.1-6.8-17-6.8-17l-0.9-1.3H764.9z"/>
		<path fill="#161C40" d="M766.7,235.7c0,0-1.1,1.7,0.8,3.2c0,0,1-0.7,1.5,0c0.5,0.7-0.4,1.5-2,2.3c-1.6,0.8-1.7,2.8-0.7,4.5    c1,1.7,2.3,2.9,6.8,1.9c4.5-1,4.5-4.8,2.2-7.4c-2.4-2.5-2.9-3.5-3.8-5.8c-1-2.2-7.1-3.3-7.7-0.9C763.1,236,764,236.3,766.7,235.7z    "/>
		<path fill="#141D3C" d="M770.7,248.1c0,0,2-0.8,2.8,1.6c0.8,2.4,3.4,7.5,3.4,9.4c0,1.9-3.1,3.2-4.7-0.6    C770.6,254.7,770.7,248.1,770.7,248.1z"/>
		<path fill="#141D3C" d="M771.2,249.6c0,0-2.9-2.9-5.1-0.6c-2.2,2.3,0.3,7.7,6.4,8.1l-0.2-0.8c0,0-5.5-1.3-5.8-5.3    c-0.3-4,4.6-0.7,4.6-0.4c0,0.3,0.6-0.3,0.6-0.3L771.2,249.6z"/>
		<path fill="#E0ADA6" d="M769.5,250.1c0,0-0.6-1.8-2.4-0.8c-1.8,0.9-3,5.5-4.5,6.9c-1.5,1.5-5,3.7-7.1,3.8    c-2.1,0.2-2.5,0.1-2.3,0.3c0.2,0.3,1.9,0.2,1.9,0.2s-3.2,0.8-2.8,0.9c0.5,0.1,2.3-0.3,2.3-0.3s-2.3,0.8-2,0.9    c0.3,0.2,1.7-0.4,1.7-0.4s-1.6,0.8-1.2,0.8c0.4,0,1.4-0.5,1.4-0.5s-1.1,0.5-0.7,0.6c0.4,0.1,1.6-0.3,2.2-0.6c0.6-0.3,2-0.7,3-0.9    c1-0.2,5.4-1.3,7.4-4.2C768.4,254,769.6,251.5,769.5,250.1z"/>
		<g>
			<path fill="#161C40" d="M764.7,236.5c0,0.2,0,0.4,0.1,0.6c0.2,0.2,0.4,0.3,0.7,0.3c0.1,0,0.1-0.2,0-0.2c-0.2,0-0.3,0-0.5-0.2     c-0.1-0.1-0.1-0.3-0.1-0.4C764.9,236.4,764.7,236.3,764.7,236.5L764.7,236.5z"/>
		</g>
	</g>
	<g>
		<g>
			<path fill="#E0ADA6" d="M788.8,255.9c0,0-1.3,7-1.1,10.4c0.2,3.4-0.7,11.5-1.3,12.5l2.4,0.4c0,0,3.3-4.5,4.7-9.8     c1.4-5.3,0.1-8.9,0.6-10.2c0.5-1.3,0.8-2.9,0.8-2.9L788.8,255.9z"/>
			<path fill="#E0ADA6" d="M805.7,254.5c0,0,3.8,6.3,4.8,8.5c1,2.2,7.9,11.5,8.3,13.5l2.5-1.3c0,0-2.2-8.3-3-11.3     c-0.8-2.9-2.4-5-3.7-6.1c-1.3-1.1-2.1-4-2.1-4L805.7,254.5z"/>
			<path fill="#161C40" d="M786.2,277.6l3.9,0.1l-1,3.7h-1.1c0,0,0.5-1.7,0.1-1.8c-0.4,0-1.7,1.8-1.7,1.8h-5.1c0,0,0.5-1.1,1.8-1     c1.2,0.1,2-0.3,2.4-0.9C785.7,278.9,786.2,277.6,786.2,277.6z"/>
			<path fill="#151C40" d="M818.5,275.7l2.8-1.7l1.5,3.4l-0.5,0.5c0,0-0.9-1.6-1.2-1.4c-0.3,0.1-0.6,1.5-0.7,3     c-0.1,1.4-4.3,2.1-4.7,1.9c-0.4-0.2,0.9-0.9,1.2-1.3c0.3-0.3,1.5-1,1.6-2.2C818.7,276.7,818.5,275.7,818.5,275.7z"/>
			<path fill="#E0ADA6" d="M800.3,211.2c0,0,8.3,14.7,13.8,18.7c0,0,1.8,1.2,2.1,2.7c0.4,1.6-0.7,2.7-0.7,2.7l-1.3-1.8l-1.4,0.7     l1,1.7c0,0-2-0.8-2.3-2c-0.3-1.2-0.7-2.5-1.6-3.7c-0.8-1.2-4-2.3-6.4-4.7C801.2,223,800.3,211.1,800.3,211.2"/>
			<path fill="#E0ADA6" d="M792.1,195l-0.4,0.9l-2.5,1.2l0.9,0.9c0,0-1.4,2.3-0.6,3.3c0.8,1,3.1,0.7,3.2,2.5v3.4h7.2l2.7-7.5     c0,0-0.6-2.8-0.7-2.8c-0.1,0-3.8-2.1-3.8-2.1l-1.8-0.9L792.1,195z"/>
			<path fill="#151C40" d="M792.5,196c0,0-0.1,0.8,1.3,0.7C793.8,196.7,792.2,197.1,792.5,196z"/>
			<path fill="#151C40" d="M791.1,192.9c0,0-1.5,1.1-0.3,2.1c1.1,1,3.8,0.7,4.2,2.5c0.4,1.7,1.1,1.2,1.8,1c0.7-0.2,1.1,1-0.4,1.7     c-1.4,0.7-2.1,5,3,7.5c5.1,2.4,6.6,2.7,6.9,5.5c0.3,2.9,1.5,5.1,3.3,5.8c1.9,0.7,10.2-1.7,12.1,0.6c2,2.3,6.7-4.6,2.5-8.7     c-4.2-4.1-5.7-1.2-6.5-5.5c-0.9-4.3-1.8-10.8-6.6-9.9c-4.8,0.9-5.4,0.6-7-0.9c-1.6-1.6-1.8-3.1-5.7-2.6c-3.9,0.6-4.7,1.1-5.5,0.8     C792,192.3,791.8,192.3,791.1,192.9z"/>
			<path fill="#F2E71F" d="M792.7,207.1c0,0,0,1.7-0.1,2c-0.2,0.4-3.7,3.9-3.8,5.3c-0.1,1.3,3.5,3.3,3.4,6.3     c-0.1,2.9-1.6,8.2-1.5,8.1c0.2-0.1,14.9-0.8,14.9-0.8s-4.1-13.5-4.6-17c-0.5-3.5-1.2-3.9-1.2-3.9H792.7z"/>
			<path fill="#6309FF" d="M790.7,228.8l-2,27.1c0,0,3.2,3.9,10.7,1c7.5-2.9,16.5-1.8,21.1,2.1l-14.9-31L790.7,228.8z"/>
			<path fill="#E0ADA6" d="M798.7,210.2c0,0-1.7-2.6-4.2-0.4c-2.5,2.2-2.6,10.1-4.5,13c-1.8,3-6.6,8-9.9,9.1     c-3.3,1.1-4.1,1.1-3.7,1.5c0.4,0.4,3.1-0.5,3.1-0.5s-5,2.6-4.1,2.5c0.8-0.1,3.6-1.5,3.6-1.5s-3.4,2.2-2.8,2.3     c0.6,0.1,2.7-1.4,2.7-1.4s-2.3,2-1.7,1.9c0.6-0.1,2.1-1.3,2.1-1.3s-1.5,1.3-0.9,1.3c0.6,0,2.5-1.1,3.3-1.8     c0.8-0.7,2.9-1.9,4.4-2.7c1.6-0.7,8.2-4.3,10.3-9.8C798.5,217,799.4,212.5,798.7,210.2z"/>
		</g>
		<g>
			<path fill="#141D3C" d="M829,251c0,0-5.3,1.8-4.4,4c0.9,2.3,11.6,26.6,15.2,26.2c3.6-0.4,9.6-4,8.9-6.6     c-0.7-2.6-11.5-21.1-11.5-21.1S835,247.7,829,251z"/>
			<path fill="#141D3C" d="M841.9,281.3c0,1.1-0.9,2.1-2.1,2.1c-1.1,0-2.1-0.9-2.1-2.1c0-1.1,0.9-2.1,2.1-2.1     C841,279.2,841.9,280.2,841.9,281.3z"/>
			<polygon fill="#FBB03B" points="827.4,251.7 843,280.4 843.8,280 828,251.4    "/>
		</g>
		<polygon fill="#141D3C" points="812.8,234.2 825.9,255 826.9,253.7 814.2,233.5   "/>
	</g>
</g>
<path fill="#C5DCFE" d="M540.6,259.3c0-1.7-3.9-2.7-4.9-4c-1.4-1.8-1.4-3.4-1.7-5.5c-0.6-4.4,1-9.4,0-13.7  c-1.3-5.8-20-9.4-12.9-16.4l1,4.6c0.8-2.7,1.8-9.3,1.4-12.2c-0.5-3.6-3-4.9-4.5-7.6c-2.9-5.1-1.3-12-3-17.6  c-1.7,5.6-0.1,12.5-3,17.6c-1.5,2.8-4,4-4.5,7.6c-0.4,2.8,0.6,9.5,1.4,12.2l1-4.6c5.9,5.9-4.2,8.6-7.7,10.4  c-7.1,3.7-5,10.2-5.2,17.4c-0.2,6.4-2.5,9.2-7.9,11.8c-3,1.4-7.9,1.1-7.1,6.1c0.5,3.3,3.8,3.5,6.4,3.8c11.2,1.5,23.3,0,34.7,0  c6,0,13.7,1.4,19.5,0C553,267.1,548.2,258.8,540.6,259.3z M506.9,256.5c-1,2.1-4.1,2.6-6.3,2.5c1-3.1,3-5.6,3.6-9.1  c0.3-1.5-0.5-7.1,0.9-7.7C510.3,240,507.4,254.5,506.9,256.5z M531.4,258.9c-6.7,0.5-11.5-12.1-6.6-16.5c3.5-3.1,2.7,4,2.8,5.1  C528,252,529.9,255.2,531.4,258.9z"/>
<path fill-rule="evenodd" fill="#C5DCFE" d="M917.2,263.9c54.4-3.5,71.9-1.3,94.2,2c-7.9-23-4.6-45.4,0.1-61.2  c-1,0.4-2.9-0.5-2.5-2.7c-0.9,1.7-1.2,6.7-1.6,9.4c-1-1.7-1.9-4.1-2.1-5.6c-0.3,2.7-0.4,4.7-0.1,7.8c-1-1.1-2.1-3.5-2.7-4.7  c-0.5,3-0.4,5.5,0.6,9.3c-1.4-1.3-2.7-4-3.3-6.2c-0.3,2.4,0,6.1,0.6,10.8c-1.4-1.5-2.2-4.7-2.7-7.4c-1.2,3-0.5,5.7-0.3,9.3  c-5.7-10.8-4.7-20.3,11.4-27.8c-2.8-0.3-6.7,0.9-8.6,2.7c0.5-1.1,2.4-3.4,3.1-4.2c-2.2,0.1-5.9,2.5-7.8,4.5c0.2-2,1.7-3.8,3.3-4.9  c-2.1,0.2-5.9,3.6-8.1,7c0.2-2,1.4-4.2,2.6-6.1c-1.9,1.1-6,6.9-6.5,8.8c0.6-4.2,2.8-9.3,6-11.9c4.4-3.4,11.7-2.3,16.8-0.8  c0-0.2,0-0.5,0-0.7c-1.2-0.7-2.8-1.4-5.3-1.5c0.4-0.9,2.6-1.9,4-2.1c-0.4-0.4-7.7,0.1-8.5,0.5c0.9-1.3,3.1-2.7,3.9-2.7  c-3.2-0.4-5.5,0.2-8.2,2c0.2-1.6,2.1-2.8,3.7-3c-2.6-0.3-5.7,0-8.7,1.3c4.5-4.9,14.3-4.9,20.2-0.1c2.8-8.7,10.8-14.6,27.3-16.2  c-3.6-1.8-9.3-2-12.8-0.5c1.3-1.3,4.8-3.4,6.1-4.2c-3-0.8-9,0.5-12.5,2.3c1.2-2.6,4-4.3,6.6-5c-2.9-0.7-9.5,2-14,5.5  c1.2-2.6,3.8-5,6.3-6.9c-3,0.6-11.2,6.4-12.7,8.7c2.7-5.3,7.9-11.2,13.5-13c8.7-2.9,19.6,4.1,25.4,9c-1.7-1.9-2.9-5.3-8.7-7.4  c1-1,4.4-1.3,6.3-0.9c-0.3-0.7-10.4-3.5-11.6-3.4c1.8-1.3,5.3-2.1,6.4-1.7c-4.2-2-7.4-2.4-12-1.2c1-2.1,4.1-2.8,6.3-2.3  c-3.3-1.6-7.6-2.7-12.2-2.4c11.5-6.1,32.2,5.2,29.9,21.9c0.7-1.5,2.1-3.5,1.3-6.7c0.3-0.9,2.2-2.3,3-1.6c0-1.1-0.4-2-1.4-2.8  c0.2-0.5,1.5-0.8,2.7,0.7c0.4-1.7,0.8-2.9-0.5-4.4c0.6-0.5,1.6-0.6,2.3,1.2c0.8-1.7,1-3,1-4.9c3.3,4.8-5.1,16.6-6.4,19  c6.2-2,15.1,0.4,19.8,5.7c3.3,3.8,5.5,9.2,0.9,17.8c0-4.7-0.6-8.3-1-9.3c0.3,5.1-1.4,7.3-2.5,9c0.1-3.7-0.3-9.4-2.4-12  c0.9,2.1-1,5.1-1.8,6.5c0.2-1.9-0.6-5.6-3-7.7c0.1,1.7-0.2,4.5-0.8,4.6c-1.7-3.9-4.3-5.4-6.2-6.5c10.1,11.3,10.5,31.4-0.4,40.8  c1.3-4.6,4.8-11.9,4.1-17.3c-1.6,4.9-6.5,11.2-9.3,12.7c2.4-5.1,5.8-13,6.4-18.7c-3.5,7.3-6.8,12.2-9,13.7  c2.9-6.3,7.5-14.1,6.4-21.2c-2.5,5.9-4.8,8.2-7.6,9.7c2.6-3.1,4.4-9.9,3.1-13.4c-0.5,3.1-4.1,2-3.9-0.4c-3.1,3.9-5.9,8.2-8.4,12.8  c1.3,1.9,1.9,4.6,1.3,8.7c-1-3-2.1-5.2-2.7-5.9l0,0c1.3,3.2,0.6,5.1,0.3,6.5c-0.4-1.2-0.9-2.6-1.6-3.9c-1,2-1.9,4.1-2.7,6.3  c3,5.8,3.6,12.9,0.4,18.3c-0.2-3.3,0.5-9.1-1.2-12.5c0,3.7-1.8,9-3.3,10.7c0.2-1.8,0.4-3.9,0.5-6.2c-4.9,16.8-6.1,34.9-2.1,50.8  c1.9,1.4,4.6,2.3,6,3.7c-50.8-0.7-82.9-1.3-136.2-1.9 M1012.7,191.3c0.2,0.3,0.3,0.6,0.4,0.9c0.1-0.6,0.2-1.2,0.3-1.8  C1013.2,190.7,1012.9,191,1012.7,191.3L1012.7,191.3z M1016.2,191.1c-0.3,1.6-0.7,2.9-0.8,3.5c0.8-0.6,1.8-1.1,2.8-1.5  c-0.4-2-0.5-4.3-0.5-6.1C1017.2,188,1016.7,189.4,1016.2,191.1L1016.2,191.1z M1019.9,192.5c3.2-0.8,6.8-0.5,9.7,1  c2.3-3.8,4.8-7.4,7.2-10.9c-1.5,0.1-3.7-2-2.1-4.9c-1.9,1.8-4.6,8.4-6.4,11.8c-0.6-2.7-0.7-6.3-0.2-8.5c-1.7,3.4-2.7,6.1-3.7,10.4  c-0.8-1.9-1.2-5.6-1.4-7.5C1021.4,186.7,1020.5,189.2,1019.9,192.5L1019.9,192.5z M1025.9,199.8c-0.5-0.4-1-0.7-1.5-0.9  c0.3,0.8,0.6,1.9,0.6,2.6C1025.3,201,1025.6,200.4,1025.9,199.8L1025.9,199.8z M1024.7,202c-2-2.1-4-2.5-5.5-2.8  c1.8,1,3.5,2.3,4.9,3.9L1024.7,202L1024.7,202z M1021.3,209.1c-0.2-0.9-0.5-1.8-1-2.7c-0.3,4.5-1.4,6.6-2.9,8.3c1-2.7,0.7-7.6-1-9.7  c0.3,2.2-2.3,2.3-2.7,0.7c-4.2,12.2-5,27.1-2.1,40.7C1013,232,1016.5,219.8,1021.3,209.1L1021.3,209.1z"/>
<polygon fill="#B5D3FF" points="946.7,198.7 937.8,203.7 953.6,206.4 "/>
<ellipse fill="#B5D3FF" cx="945" cy="206.4" rx="3" ry="3.3"/>
<path fill="#B5D3FF" d="M936.7,222.2c-0.1-0.4-0.1-0.8,0-1.2c1.1-6.6,1.7-10.2,4.8-12.5c0.4-0.3,2.5-1.9,3.6-1.2  c1.2,0.8-0.5,3.7,0,7.2c0.9,5.8,7.3,7.6,6.6,9.6C950.6,226.6,937.8,226.1,936.7,222.2z"/>
</svg>
