<?xml version="1.0" encoding="utf-8"?>
<!-- Generator: Adobe Illustrator 22.0.1, SVG Export Plug-In . SVG Version: 6.00 Build 0)  -->
<svg version="1.1" id="Layer_1" xmlns="http://www.w3.org/2000/svg" xmlns:xlink="http://www.w3.org/1999/xlink" x="0px" y="0px"
	 viewBox="0 0 1088 298" style="enable-background:new 0 0 1088 298;" xml:space="preserve">
<style type="text/css">
	.st0{fill:#EEF5FE;}
	.st1{fill:#D5E6FE;}
	.st2{fill:none;}
	.st3{fill:#DEE9FF;}
	.st4{fill:#FFFFFF;}
	.st5{display:none;}
	.st6{display:inline;}
	.st7{fill:#E0ADA6;}
	.st8{fill:#141D3C;}
	.st9{fill:#FBB03B;}
	.st10{fill:#0C0F1A;}
	.st11{fill:#151C40;}
	.st12{fill:#13F2B8;}
	.st13{fill:#674A6E;}
	.st14{fill:#161C40;}
	.st15{fill:#F2511F;}
	.st16{fill:#F2E71F;}
	.st17{fill:#6309FF;}
	.st18{fill:#BFD3FD;}
	.st19{fill:#DB9C94;}
	.st20{fill:#010101;}
	.st21{fill:#04FF9D;}
	.st22{fill:#FF5236;}
	.st23{fill:#8EA3CF;}
	.st24{fill:#95B6FC;}
	.st25{fill:none;stroke:#39B54A;stroke-miterlimit:10;}
	.st26{fill:#AAC5FD;}
	.st27{fill:#ACC6FE;}
	.st28{fill:#FF0000;}
	.st29{fill:#ABCDFE;}
</style>
<rect x="0.1" class="st0" width="1087.9" height="298"/>
<g>
	<polygon class="st1" points="530.2,138.9 530.2,120.1 522,120.1 522,94.1 517.5,94.1 517.5,67 513.3,67 513.3,94.1 508.8,94.1 
		508.8,120.1 500.6,120.1 500.6,138.9 489.6,138.9 489.6,272.7 541.2,272.7 541.2,138.9 	"/>
	<polygon class="st1" points="434.3,174.9 434.3,189.1 414.8,189.1 414.8,138 357.1,99.4 357.1,272.7 414.8,272.7 479.2,272.7 
		479.2,189.1 479.2,174.9 	"/>
	<g>
		<polygon class="st1" points="585.2,146.6 585.2,135 569.1,135 569.1,146.6 569.1,187.6 541.2,187.6 541.2,272.7 569.1,272.7 
			601.4,272.7 633.6,272.7 633.6,120.1 601.4,146.6 		"/>
		<polygon class="st1" points="710.8,146.6 710.8,60.5 710.8,31.9 677.6,31.9 677.6,60.5 656.1,60.5 656.1,272.7 710.8,272.7 
			710.8,272.7 746,272.7 746,146.6 		"/>
		<rect x="627.7" y="220.9" class="st1" width="46.2" height="51.8"/>
	</g>
	<line class="st2" x1="489.6" y1="272.7" x2="541.2" y2="272.7"/>
	<polyline class="st1" points="357.1,272.7 414.8,272.7 479.2,272.7 	"/>
	<polygon class="st1" points="768.4,117.7 768.4,89.4 751.8,89.4 751.8,117.7 751.8,272.7 797.8,272.7 797.8,117.7 	"/>
	<polygon class="st1" points="806.2,168.9 822.8,168.9 822.8,135.5 864.7,95.7 864.7,273.7 806.2,273.7 	"/>
	<polyline class="st1" points="872.7,274.1 872.7,145.4 883.6,145.4 883.6,104.8 898,104.8 898,69.8 904,69.8 904,31.9 909.2,31.9 
		909.2,70.3 913.9,70.3 913.9,105.4 925.6,105.4 925.6,147 934.8,147 934.8,274.1 872.7,274.1 	"/>
	<path class="st1" d="M1072.2,141.9v-21c0-9.1-7.4-16.5-16.7-17.1V91.3h-4.7v12.6c-8.3,1.5-14.6,8.5-14.6,16.9v17.9h-12.1v137.7
		h63.5V141.9H1072.2z"/>
	<g>
		<polyline class="st1" points="943.2,273.4 943.2,181.6 964.2,181.6 964.2,124 978.1,110.8 978.1,88.9 1003.7,88.9 1003.7,158.2 
			1038,158.2 1038,273.4 943.2,273.4 943.2,273.4 943.2,273.4 		"/>
		<rect x="974.4" y="142.8" class="st1" width="2.2" height="85.9"/>
		<rect x="980.4" y="130.7" class="st1" width="2.2" height="98.1"/>
		<rect x="992.3" y="130.7" class="st1" width="2.2" height="98.1"/>
		<rect x="1008.7" y="167.5" class="st1" width="25.8" height="3.4"/>
		<rect x="1008.7" y="174.6" class="st1" width="25.8" height="3.4"/>
		<rect x="1008.7" y="203.2" class="st1" width="25.8" height="3.4"/>
	</g>
	<rect x="288.9" y="256.2" class="st1" width="798.6" height="33.5"/>
	<g>
		<path class="st1" d="M349.9,231.2v-71h-0.2c0.1-0.8,0.2-1.5,0.2-2.3c0-6.6-4.1-11.9-9.4-12.6v-12.5h-2.3v12.5
			c-5.3,0.7-9.4,6.1-9.4,12.6c0,0.8,0.1,1.6,0.2,2.3h-0.2v13.9h-25v34.8h-13.5v57.2h44H350h30.3v-34.9L349.9,231.2L349.9,231.2z"/>
		<rect x="308.8" y="192.3" class="st1" width="4.6" height="10.2"/>
	</g>
</g>
<g>
	<g>
		<rect x="662.8" y="74.7" class="st0" width="14.8" height="3.8"/>
		<rect x="681.9" y="74.7" class="st0" width="23.2" height="3.8"/>
		<rect x="690.3" y="162.8" class="st0" width="14.8" height="3.8"/>
		<rect x="690.3" y="154" class="st0" width="14.8" height="3.8"/>
		<rect x="690.3" y="145.3" class="st0" width="14.8" height="3.8"/>
		<rect x="725.2" y="154" class="st0" width="14.8" height="3.8"/>
		<rect x="662.8" y="81.3" class="st0" width="14.8" height="3.8"/>
		<rect x="681.9" y="81.3" class="st0" width="23.2" height="3.8"/>
		<rect x="662.8" y="87.5" class="st0" width="14.8" height="3.8"/>
		<rect x="662.8" y="93.7" class="st0" width="14.8" height="3.8"/>
		<rect x="681.9" y="93.7" class="st0" width="23.2" height="3.8"/>
		<rect x="681.9" y="87.5" class="st0" width="23.2" height="3.8"/>
		<rect x="496" y="146.6" class="st0" width="2.3" height="73.6"/>
		<rect x="502" y="146.6" class="st0" width="2.3" height="73.6"/>
		<rect x="527.9" y="146.6" class="st0" width="2.3" height="73.6"/>
		<rect x="533.6" y="146.6" class="st0" width="2.3" height="73.6"/>
		<rect x="507.6" y="131.6" class="st0" width="2.3" height="88.6"/>
		<rect x="512.1" y="131.6" class="st0" width="2.3" height="88.6"/>
		<rect x="363.3" y="135" class="st0" width="33.7" height="5.8"/>
		<rect x="363.3" y="146.6" class="st0" width="33.7" height="5.8"/>
		<rect x="376.5" y="158.2" class="st0" width="33.7" height="5.8"/>
		<rect x="439.9" y="184.7" class="st0" width="33.7" height="5.8"/>
		<rect x="439.9" y="198.2" class="st0" width="33.7" height="5.8"/>
		<rect x="624.4" y="138" class="st0" width="3.3" height="92.1"/>
		<rect x="617.5" y="149.9" class="st0" width="3.3" height="56.9"/>
		<rect x="583.8" y="166.6" class="st0" width="25" height="1.9"/>
		<rect x="583.8" y="160.8" class="st0" width="25" height="1.9"/>
		<rect x="583.8" y="172.4" class="st0" width="25" height="1.9"/>
		<rect x="583.8" y="198.5" class="st0" width="25" height="1.9"/>
		<rect x="583.8" y="203.8" class="st0" width="25" height="1.9"/>
	</g>
	<rect x="906.7" y="173.4" class="st0" width="2.2" height="71.4"/>
	<rect x="756.3" y="125.1" class="st0" width="2.2" height="71.4"/>
	<rect x="761.7" y="125.1" class="st0" width="2.2" height="71.4"/>
	<rect x="790.2" y="155.7" class="st0" width="2.2" height="71.4"/>
	<rect x="912.3" y="146.2" class="st0" width="2.2" height="71.4"/>
	<rect x="833.4" y="163" class="st0" width="25.8" height="3.4"/>
	<rect x="833.4" y="154.3" class="st0" width="25.8" height="3.4"/>
	<rect x="809.6" y="181.4" class="st0" width="25.8" height="3.4"/>
	<rect x="809.6" y="191.4" class="st0" width="25.8" height="3.4"/>
	<rect x="876.2" y="180" class="st0" width="9" height="3.7"/>
	<rect x="876.2" y="186.5" class="st0" width="9" height="3.7"/>
	<rect x="876.2" y="193.1" class="st0" width="9" height="3.7"/>
	<rect x="1042.6" y="122.1" class="st0" width="3" height="16.1"/>
	<rect x="1050.7" y="122.1" class="st0" width="3" height="16.1"/>
</g>
<g>
	<g id="_271768552">
		<rect x="0.1" y="266.8" class="st3" width="1087.8" height="31.2"/>
		<path id="_271769008" class="st4" d="M1087.9,201.1c-0.3,0-0.5,0-0.8,0c-6.3,0-12.2,1.6-17.6,4.5c-9.1-14.6-23.9-24.1-40.5-24.1
			c-5.9,0-11.6,1.2-16.9,3.4c-9-15.2-24.1-25.1-41.2-25.1c-21.6,0-40.1,16-47,38.5c-18.8,0.4-35.9,9.5-48.4,24.1
			c-4.4-1.7-9.1-2.6-14-2.6c-15.7,0-29.6,9.4-38,23.9c-7.7-7-17.4-11.2-27.8-11.2c-14,0-26.5,7.4-35,19.3
			c-7-10.8-17.9-17.8-30.2-17.8c-8.9,0-17.1,3.7-23.6,9.8c-10.2-16.9-26.8-27.8-45.5-27.8c-16.2,0-30.7,8.2-41,21.3
			c-7.3-9.1-17.7-14.9-29.3-14.9c-2.4,0-4.8,0.3-7.1,0.7c-4.8-18.9-19.3-32.6-36.5-32.6c-15.4,0-28.6,10.9-34.7,26.7
			c-2.5-0.5-5.2-0.8-7.8-0.8c-9.1,0-17.5,3.2-24.6,8.5c-4.3-4.8-10.1-7.6-16.4-7.6c-6.2,0-11.9,2.8-16.2,7.3
			c-11.4-9.2-25-14.7-39.8-14.7c-15.1,0-29.1,5.7-40.6,15.3c-6.6-6.6-15.1-10.5-24.3-10.5c-0.6,0-1.1,0-1.7,0
			c-2.9-4.2-6.2-8-9.7-11.4c2-4.3,3.1-9.1,3.1-14.3c0-16.3-11-29.5-24.5-29.5c-7.5,0-14.2,4.1-18.7,10.4c-5.7-3.7-12.4-5.9-19.4-5.9
			c-4.2,0-8.2,0.8-12,2.2c-6.9-8.6-16.6-14-27.4-14c-6.5,0-12.5,1.9-17.9,5.4c-5.8-24.7-25.2-43-48.2-43h-0.2
			c-1.5-30.8-23.3-55.2-49.9-55.2c-7.8,0-15.1,2.1-21.7,5.8c-9-9.9-21.1-16-34.4-16c-6.9,0-13.5,1.6-19.5,4.6
			C39.8,27.9,23,6.7,1.1,2.1v115.2c3.7-0.8,7.2-2,10.5-3.7c1,12.1,5.2,23.2,11.5,32.1c-1.7-0.3-3.5-0.5-5.3-0.5
			c-6,0-11.7,1.8-16.7,5v119h1086.8V201.1L1087.9,201.1z M80.5,159.9c8.7,9.8,20.4,15.9,33.3,15.9h0.2c0.5,10.6,3.4,20.5,8,28.9
			c-4,3.2-7.7,6.8-11,10.8c-3.9-3.5-8.7-5.6-13.9-5.6c-5.8,0-11.1,2.6-15.3,6.8c-9.6-7.6-19.9-13.9-30.9-18.5
			c0.7-3.5,1.1-7.1,1.1-10.9c0-8.9-2.2-17.3-6-24.1c4.3,1.5,8.8,2.3,13.4,2.3C67,165.7,74.2,163.6,80.5,159.9L80.5,159.9z"/>
	</g>
</g>
<g class="st5">
	<g class="st6">
		<path class="st7" d="M741.1,208.2c0,0-8.3,14.7-13.8,18.7c0,0-1.8,1.2-2.1,2.7c-0.4,1.6,0.7,2.7,0.7,2.7l1.3-1.8l1.4,0.7l-1,1.7
			c0,0,2-0.8,2.3-2s0.7-2.5,1.6-3.7c0.8-1.2,4-2.3,6.4-4.7C740.2,220.1,741.1,208.1,741.1,208.2"/>
		<g>
			<path class="st8" d="M712.4,248c0,0,5.3,1.8,4.4,4c-0.9,2.3-11.6,26.6-15.2,26.2c-3.6-0.4-9.6-4-8.9-6.6
				c0.7-2.6,11.5-21.1,11.5-21.1S706.4,244.7,712.4,248z"/>
			<path class="st8" d="M699.5,278.3c0,1.1,0.9,2.1,2.1,2.1c1.1,0,2.1-0.9,2.1-2.1s-0.9-2.1-2.1-2.1
				C700.4,276.2,699.5,277.2,699.5,278.3z"/>
			<polygon class="st9" points="714,248.7 698.3,277.4 697.5,277 713.4,248.4 			"/>
			<polygon class="st9" points="712.1,247.8 696.4,276.5 695.6,276.1 711.4,247.5 			"/>
		</g>
		<polygon class="st8" points="728.5,231.2 715.4,252.1 714.4,250.8 727.2,230.5 		"/>
		<path class="st10" d="M732.6,191.3l4.7-3.6l3.9,1.2l-0.1,0.3l-3.7-1.1l-4.3,3.4L732.6,191.3z"/>
		<path class="st11" d="M729.9,188.8c0.2-0.1,6.7,2.7,6.7,2.7l-6.2,8.2l-2.9-1.9L729.9,188.8z"/>
		<path class="st8" d="M744.1,229.9c0,0-3.5,16.6,1.3,27s17.3,18.4,17.3,18.4l2.9-2.2c0,0-12.4-15.1-12.7-21.2
			c-0.3-6.1,0.8-22.1,0.8-22.1h-9.6V229.9z"/>
		<path class="st8" d="M738.6,229.9l-15.4,47.4l3.4,0.6c0,0,13.7-25.3,17.6-36.6c3.9-11.3,3-13.8,3-13.8l-1.1-0.9L738.6,229.9z"/>
		<path class="st7" d="M749.3,201c-1.3,0.8-0.7-0.4-1.7,0.8c-0.6-0.3-1.2-0.5-1.8-0.7c-0.6-0.4-1.1-0.8-1.7-1.1
			c-0.9-0.7-1.4-0.4-2.5-1c-0.4-1.2-1.2-3.6-1.5-5.4c-0.7-4.2,2.4-7.4,2.4-7.4l-1.5-1.6l3.7-1.3c1.9-0.3,4.5-1.6,4.5-1.6
			s-0.7-0.6,2.9,1.9c3.6,2.5-3,10-3.8,14C748.2,199.6,749.1,200.3,749.3,201z"/>
		<path class="st11" d="M748.3,183.1c0,0-2.4,2.6,0.1,5.4c2.6,2.7,1,6.7,1,6.7s2.5,0.5,3.7-3.5c1.3-4,0.9-9.5-4.1-10.9
			c-5.1-1.4-3.9-2.9-3.9-2.9S743.9,181.5,748.3,183.1z"/>
		<path class="st10" d="M745.2,184.8c0,0,1.3,0.6,0.7,2.7C745.9,187.5,746,186,745.2,184.8z"/>
		<path class="st7" d="M748.8,189.9c0,0,2.1-0.4,1.9,1.3c-0.2,1.8-2.2,0.6-2.2,0.6L748.8,189.9z"/>
		<path class="st12" d="M741.3,197.6c0,0,5,0.9,7.2,0c0,0,2.2,0.5,3.3,9.8s2.4,22.9,2.4,22.9s-12.9,4.2-17.6,0
			c0,0,2.8-24.7,3.4-27.9C740.6,199.1,741.3,197.6,741.3,197.6z"/>
		<path class="st8" d="M723.2,277.2l3.4,0.6l-1.1,3.3l-1.2-0.2l0.4-1.3c0,0-1-0.1-1.5,0.8c-0.5,1-4.6,1.1-7.1,1c0,0,1.1-1.9,3.1-1.9
			s2.8-0.8,3.2-1.2C722.7,277.9,723.2,277.2,723.2,277.2z"/>
		<path class="st8" d="M762.7,275.3l2.9-2.2c0,0,0.7,0.6,0.8,1.5s0.7,2.7,0.7,2.7l-1.3,0.7l-0.4-2c0,0-0.9-0.3-1.4,1.6s-1,3.8-2,3.9
			s-2.2,0.4-2.2,0.4s-0.5-1.1,0.5-1.7C761.3,279.7,762.9,277.5,762.7,275.3z"/>
		<path class="st13" d="M750.1,199.6c0,0-9.8,0.7-8.9,9.3c0.9,8.6,12.3,13.4,12.3,13.4l-0.1-1.2c0,0-10.7-5.3-11.4-12.2
			c-0.6-6.9,8.4-8.4,8.4-8.4L750.1,199.6z"/>
		<path class="st7" d="M742.1,207.8c0,0,0.1,1.5-1.3,1.1c-1.4-0.5-5.4-12.4-5.4-12.4s0.5-2.2-1.4-2.9s-6-1.5-6.2-1.2
			c-0.2,0.4,0.9,0.5,0.9,0.5v0.3c0,0-1.4,0-1.1,0.4c0.3,0.4,1.1,0.4,1.1,0.4l-0.1,0.2c0,0-1.4,0-1.2,0.4c0.3,0.4,0.9,0.4,0.9,0.4
			v0.3c0,0-1.1,0.2-0.7,0.6c0.4,0.5,2.6,0.1,3.5,0.2c0.9,0.1,1.5,3.5,1.9,5.3c0.4,1.9,3.4,16.1,9.9,15.7c6.5-0.5,5.7-8.5,5.7-8.5
			L742.1,207.8z"/>
		<g>
			<path class="st13" d="M749.6,198.7c0,0,5-2.5,6.2-1.1c1.1,1.4,2.7-1.2,4.7,0.4c2,1.5,3.7,5.9,3.5,9.5s-1.5,9.7,0,12
				s-2.1,5.3-5.5,5.6c-3.4,0.4-4.4,1-5.1-1.6C752.7,220.8,751.9,203.6,749.6,198.7z"/>
			<path class="st8" d="M750.6,201.9c0,0,6.9,1,11.7-1.5l0.1,0.2c0,0-5.2,2.8-11.9,1.4v-0.1L750.6,201.9L750.6,201.9z"/>
			<path class="st8" d="M758,211c0,0-2.8-1.4-3.3,2.4c-0.5,3.9,1.2,9.6,3.9,8.3C761.1,220.5,759.9,211.6,758,211z M758.4,221.4
				c-2.5,1.2-4.1-4.2-3.6-7.9s3.1-2.3,3.1-2.3C759.8,211.8,760.9,220.2,758.4,221.4z"/>
		</g>
	</g>
	<g class="st6">
		<path class="st7" d="M764.7,251.5c0,0-1.3-1.4,0.4-2.5s6.2,0.1,8.2-0.5s5.6-2.5,6.8-4.2s1.3-2.1,1.4-1.8c0.1,0.3-0.7,1.7-0.7,1.7
			s2.3-2.4,2.1-1.9s-1.4,1.8-1.4,1.8s1.8-1.6,1.8-1.2c0,0.3-1.2,1.3-1.2,1.3s1.5-1,1.3-0.6c-0.2,0.3-1.1,1-1.1,1s1-0.7,0.9-0.3
			s-1,1.2-1.5,1.6c-0.5,0.4-1.6,1.3-2.2,2.1c-0.7,0.8-3.8,3.9-7.3,4.3C768.7,252.5,766,252.2,764.7,251.5z"/>
		<path class="st7" d="M761.5,267.1c0,0-1.3,0.9-1.7,6.2c-0.4,5.3,0.2,6.5,0.2,6.5h2.2c0,0-0.2-5.2,0.8-7.6s3.6-5.1,3.6-5.1H761.5z"
			/>
		<path class="st7" d="M768.4,267.9c0,0-1.8,4.3,3.3,6.1c5.1,1.8,7.6,1.5,7.6,1.5l0.3-2.4c0,0-7.2-0.7-7.5-5.1
			S768.4,267.9,768.4,267.9z"/>
		<path class="st14" d="M760,279.8h2.3c0,0,0.3,2.3-0.3,2.5c-0.6,0.1-0.8-0.3-0.8-0.3s-1.4,0.4-1.7,0.7c-0.3,0.3-3.3,0-3.3,0
			s0.5-1,1.7-1.4C759.1,280.9,760,279.8,760,279.8z"/>
		<path class="st14" d="M779.1,275.3l0.4-2.3c0,0,2.4,0.1,2.4,0.7s-0.4,0.8-0.4,0.8s0.2,1.4,0.4,1.8c0.3,0.4-0.6,3.2-0.6,3.2
			s-0.9-0.7-1.1-1.9C780.1,276.4,779.1,275.3,779.1,275.3z"/>
		<path class="st7" d="M765.2,235c0,0-2.3,1.7-3.6,1.3c0,0,0,1,0.6,1.4l-0.3,0.2c0,0,0.3,1.2,1.7,1c0,0-1.2,0.9-2,0.4
			c0,0-0.9,2.1,0.8,3.5s2.6,2,2.5,4.5c0,0,5.4,0,5.3,0l0.1-4.2l2.7-2.1c0,0-1.9-3.5-2-3.6s-0.8-1.5-1-1.7s-2.8-1.3-2.8-1.3
			L765.2,235z"/>
		<path class="st15" d="M764.9,247.2c0,0-2.8,4.9-5.7,12c-2.9,7.1-2.5,6.6-3,10.8c0,0,1.8-0.9,3.6-0.3c4.3,1.3,11,2.5,14.9,0.9
			s7.1,0,7.1,0s1.2-1.1-3.9-5.2c-5.1-4.1-6.8-17-6.8-17l-0.9-1.3h-5.3L764.9,247.2L764.9,247.2z"/>
		<path class="st14" d="M766.7,235.7c0,0-1.1,1.7,0.8,3.2c0,0,1-0.7,1.5,0s-0.4,1.5-2,2.3s-1.7,2.8-0.7,4.5s2.3,2.9,6.8,1.9
			s4.5-4.8,2.2-7.4c-2.4-2.5-2.9-3.5-3.8-5.8c-1-2.2-7.1-3.3-7.7-0.9C763.1,236,764,236.3,766.7,235.7z"/>
		<path class="st8" d="M770.7,248.1c0,0,2-0.8,2.8,1.6c0.8,2.4,3.4,7.5,3.4,9.4s-3.1,3.2-4.7-0.6
			C770.6,254.7,770.7,248.1,770.7,248.1z"/>
		<path class="st8" d="M771.2,249.6c0,0-2.9-2.9-5.1-0.6c-2.2,2.3,0.3,7.7,6.4,8.1l-0.2-0.8c0,0-5.5-1.3-5.8-5.3s4.6-0.7,4.6-0.4
			s0.6-0.3,0.6-0.3L771.2,249.6z"/>
		<path class="st7" d="M769.5,250.1c0,0-0.6-1.8-2.4-0.8c-1.8,0.9-3,5.5-4.5,6.9c-1.5,1.5-5,3.7-7.1,3.8c-2.1,0.2-2.5,0.1-2.3,0.3
			c0.2,0.3,1.9,0.2,1.9,0.2s-3.2,0.8-2.8,0.9c0.5,0.1,2.3-0.3,2.3-0.3s-2.3,0.8-2,0.9c0.3,0.2,1.7-0.4,1.7-0.4s-1.6,0.8-1.2,0.8
			c0.4,0,1.4-0.5,1.4-0.5s-1.1,0.5-0.7,0.6c0.4,0.1,1.6-0.3,2.2-0.6c0.6-0.3,2-0.7,3-0.9c1-0.2,5.4-1.3,7.4-4.2
			C768.4,254,769.6,251.5,769.5,250.1z"/>
		<g>
			<path class="st14" d="M764.7,236.5c0,0.2,0,0.4,0.1,0.6c0.2,0.2,0.4,0.3,0.7,0.3c0.1,0,0.1-0.2,0-0.2c-0.2,0-0.3,0-0.5-0.2
				c-0.1-0.1-0.1-0.3-0.1-0.4C764.9,236.4,764.7,236.3,764.7,236.5L764.7,236.5z"/>
		</g>
	</g>
	<g class="st6">
		<g>
			<path class="st7" d="M788.8,255.9c0,0-1.3,7-1.1,10.4s-0.7,11.5-1.3,12.5l2.4,0.4c0,0,3.3-4.5,4.7-9.8s0.1-8.9,0.6-10.2
				c0.5-1.3,0.8-2.9,0.8-2.9L788.8,255.9z"/>
			<path class="st7" d="M805.7,254.5c0,0,3.8,6.3,4.8,8.5s7.9,11.5,8.3,13.5l2.5-1.3c0,0-2.2-8.3-3-11.3c-0.8-2.9-2.4-5-3.7-6.1
				s-2.1-4-2.1-4L805.7,254.5z"/>
			<path class="st14" d="M786.2,277.6l3.9,0.1l-1,3.7H788c0,0,0.5-1.7,0.1-1.8c-0.4,0-1.7,1.8-1.7,1.8h-5.1c0,0,0.5-1.1,1.8-1
				c1.2,0.1,2-0.3,2.4-0.9C785.7,278.9,786.2,277.6,786.2,277.6z"/>
			<path class="st11" d="M818.5,275.7l2.8-1.7l1.5,3.4l-0.5,0.5c0,0-0.9-1.6-1.2-1.4c-0.3,0.1-0.6,1.5-0.7,3
				c-0.1,1.4-4.3,2.1-4.7,1.9s0.9-0.9,1.2-1.3c0.3-0.3,1.5-1,1.6-2.2C818.7,276.7,818.5,275.7,818.5,275.7z"/>
			<path class="st7" d="M800.3,211.2c0,0,8.3,14.7,13.8,18.7c0,0,1.8,1.2,2.1,2.7c0.4,1.6-0.7,2.7-0.7,2.7l-1.3-1.8l-1.4,0.7l1,1.7
				c0,0-2-0.8-2.3-2s-0.7-2.5-1.6-3.7c-0.8-1.2-4-2.3-6.4-4.7C801.2,223,800.3,211.1,800.3,211.2"/>
			<path class="st7" d="M792.1,195l-0.4,0.9l-2.5,1.2l0.9,0.9c0,0-1.4,2.3-0.6,3.3c0.8,1,3.1,0.7,3.2,2.5v3.4h7.2l2.7-7.5
				c0,0-0.6-2.8-0.7-2.8c-0.1,0-3.8-2.1-3.8-2.1l-1.8-0.9L792.1,195z"/>
			<path class="st11" d="M792.5,196c0,0-0.1,0.8,1.3,0.7C793.8,196.7,792.2,197.1,792.5,196z"/>
			<path class="st11" d="M791.1,192.9c0,0-1.5,1.1-0.3,2.1c1.1,1,3.8,0.7,4.2,2.5c0.4,1.7,1.1,1.2,1.8,1s1.1,1-0.4,1.7
				c-1.4,0.7-2.1,5,3,7.5c5.1,2.4,6.6,2.7,6.9,5.5c0.3,2.9,1.5,5.1,3.3,5.8c1.9,0.7,10.2-1.7,12.1,0.6c2,2.3,6.7-4.6,2.5-8.7
				c-4.2-4.1-5.7-1.2-6.5-5.5c-0.9-4.3-1.8-10.8-6.6-9.9c-4.8,0.9-5.4,0.6-7-0.9c-1.6-1.6-1.8-3.1-5.7-2.6c-3.9,0.6-4.7,1.1-5.5,0.8
				C792,192.3,791.8,192.3,791.1,192.9z"/>
			<path class="st16" d="M792.7,207.1c0,0,0,1.7-0.1,2c-0.2,0.4-3.7,3.9-3.8,5.3c-0.1,1.3,3.5,3.3,3.4,6.3c-0.1,2.9-1.6,8.2-1.5,8.1
				c0.2-0.1,14.9-0.8,14.9-0.8s-4.1-13.5-4.6-17s-1.2-3.9-1.2-3.9L792.7,207.1L792.7,207.1z"/>
			<path class="st17" d="M790.7,228.8l-2,27.1c0,0,3.2,3.9,10.7,1s16.5-1.8,21.1,2.1l-14.9-31L790.7,228.8z"/>
			<path class="st7" d="M798.7,210.2c0,0-1.7-2.6-4.2-0.4c-2.5,2.2-2.6,10.1-4.5,13c-1.8,3-6.6,8-9.9,9.1c-3.3,1.1-4.1,1.1-3.7,1.5
				c0.4,0.4,3.1-0.5,3.1-0.5s-5,2.6-4.1,2.5c0.8-0.1,3.6-1.5,3.6-1.5s-3.4,2.2-2.8,2.3c0.6,0.1,2.7-1.4,2.7-1.4s-2.3,2-1.7,1.9
				s2.1-1.3,2.1-1.3s-1.5,1.3-0.9,1.3s2.5-1.1,3.3-1.8s2.9-1.9,4.4-2.7c1.6-0.7,8.2-4.3,10.3-9.8C798.5,217,799.4,212.5,798.7,210.2
				z"/>
		</g>
		<g>
			<path class="st8" d="M829,251c0,0-5.3,1.8-4.4,4c0.9,2.3,11.6,26.6,15.2,26.2c3.6-0.4,9.6-4,8.9-6.6
				c-0.7-2.6-11.5-21.1-11.5-21.1S835,247.7,829,251z"/>
			<path class="st8" d="M841.9,281.3c0,1.1-0.9,2.1-2.1,2.1c-1.1,0-2.1-0.9-2.1-2.1c0-1.1,0.9-2.1,2.1-2.1
				C841,279.2,841.9,280.2,841.9,281.3z"/>
			<polygon class="st9" points="827.4,251.7 843,280.4 843.8,280 828,251.4 			"/>
		</g>
		<polygon class="st8" points="812.8,234.2 825.9,255 826.9,253.7 814.2,233.5 		"/>
	</g>
</g>
<g>
	<g>
		<rect x="23.8" y="201.3" class="st18" width="8.5" height="62.8"/>
		<rect x="17.1" y="201.3" class="st18" width="22" height="1.1"/>
		<rect x="17.1" y="262.9" class="st18" width="22" height="1.1"/>
	</g>
	<g>
		<rect x="88" y="201.3" class="st18" width="8.5" height="62.8"/>
		<rect x="81.3" y="201.3" class="st18" width="22" height="1.1"/>
		<rect x="81.3" y="262.9" class="st18" width="22" height="1.1"/>
	</g>
	<g>
		<rect x="152.2" y="201.3" class="st18" width="8.5" height="62.8"/>
		<rect x="145.5" y="201.3" class="st18" width="22" height="1.1"/>
		<rect x="145.5" y="262.9" class="st18" width="22" height="1.1"/>
	</g>
	<g>
		<rect x="216.5" y="201.3" class="st18" width="8.5" height="62.8"/>
		<rect x="209.7" y="201.3" class="st18" width="22" height="1.1"/>
		<rect x="209.7" y="262.9" class="st18" width="22" height="1.1"/>
	</g>
	<g>
		<rect x="280.7" y="201.3" class="st18" width="8.5" height="62.8"/>
		<rect x="273.9" y="201.3" class="st18" width="22" height="1.1"/>
		<rect x="273.9" y="262.9" class="st18" width="22" height="1.1"/>
	</g>
	<g>
		<rect x="344.9" y="201.3" class="st18" width="8.5" height="62.8"/>
		<rect x="338.1" y="201.3" class="st18" width="22" height="1.1"/>
		<rect x="338.1" y="262.9" class="st18" width="22" height="1.1"/>
	</g>
	<g>
		<rect x="409.1" y="201.3" class="st18" width="8.5" height="62.8"/>
		<rect x="402.4" y="201.3" class="st18" width="22" height="1.1"/>
		<rect x="402.4" y="262.9" class="st18" width="22" height="1.1"/>
	</g>
	<g>
		<rect x="473.3" y="201.3" class="st18" width="8.5" height="62.8"/>
		<rect x="466.6" y="201.3" class="st18" width="22" height="1.1"/>
		<rect x="466.6" y="262.9" class="st18" width="22" height="1.1"/>
	</g>
	<g>
		<rect x="537.5" y="201.3" class="st18" width="8.5" height="62.8"/>
		<rect x="530.8" y="201.3" class="st18" width="22" height="1.1"/>
		<rect x="530.8" y="262.9" class="st18" width="22" height="1.1"/>
	</g>
	<g>
		<rect x="601.8" y="201.3" class="st18" width="8.5" height="62.8"/>
		<rect x="595" y="201.3" class="st18" width="22" height="1.1"/>
		<rect x="595" y="262.9" class="st18" width="22" height="1.1"/>
	</g>
	<g>
		<rect x="666" y="201.3" class="st18" width="8.5" height="62.8"/>
		<rect x="659.2" y="201.3" class="st18" width="22" height="1.1"/>
		<rect x="659.2" y="262.9" class="st18" width="22" height="1.1"/>
	</g>
	<g>
		<rect x="730.2" y="201.3" class="st18" width="8.5" height="62.8"/>
		<rect x="723.4" y="201.3" class="st18" width="22" height="1.1"/>
		<rect x="723.4" y="262.9" class="st18" width="22" height="1.1"/>
	</g>
	<g>
		<rect x="794.4" y="201.3" class="st18" width="8.5" height="62.8"/>
		<rect x="787.7" y="201.3" class="st18" width="22" height="1.1"/>
		<rect x="787.7" y="262.9" class="st18" width="22" height="1.1"/>
	</g>
	<g>
		<rect x="858.6" y="201.3" class="st18" width="8.5" height="62.8"/>
		<rect x="851.9" y="201.3" class="st18" width="22" height="1.1"/>
		<rect x="851.9" y="262.9" class="st18" width="22" height="1.1"/>
	</g>
	<g>
		<rect x="922.8" y="201.3" class="st18" width="8.5" height="62.8"/>
		<rect x="916.1" y="201.3" class="st18" width="22" height="1.1"/>
		<rect x="916.1" y="262.9" class="st18" width="22" height="1.1"/>
	</g>
	<g>
		<rect x="987" y="201.3" class="st18" width="8.5" height="62.8"/>
		<rect x="980.3" y="201.3" class="st18" width="22" height="1.1"/>
		<rect x="980.3" y="262.9" class="st18" width="22" height="1.1"/>
	</g>
	<g>
		<rect x="1051.3" y="201.3" class="st18" width="8.5" height="62.8"/>
		<rect x="1044.5" y="201.3" class="st18" width="22" height="1.1"/>
		<rect x="1044.5" y="262.9" class="st18" width="22" height="1.1"/>
	</g>
</g>
<g>
	<rect x="0.1" y="194.9" class="st18" width="1087.9" height="9.6"/>
	<rect y="264.3" class="st18" width="1087.9" height="4.8"/>
</g>
<g>
	<path class="st19" d="M765.3,148c0,0,4.9,2.5,2.1,7.5s-8.7,7.1-8,2.4C760.1,153.2,765.3,148,765.3,148z"/>
	<path d="M754.5,150.5c0,0,0.3-6.8,5.6-7.1s8.9,3.3,13.4,4c4.5,0.8-7.7,7-7.7,7s-2,1.1-4.4,1.8C757.4,157.4,752.5,157.7,754.5,150.5
		z"/>
	<path class="st20" d="M733.9,191.1c0,0-4.2,3.7-3.3,14.2c0.8,10.5,2.4,16.2,2.1,24.2c-0.3,8-1.1,13.7,0.5,26.7
		c1.7,12.9,0.9,22,0.8,22.1c-0.1,0.1,6.5,0.1,6.5,0.1s3.9-31,4.4-37.8c0.8-11.7,0-24.6,0-24.6s7.4,17.7,4.6,24.3
		c-2.8,6.6-6.9,22.2-7.1,27.1c-0.2,4.9,9.1,11.1,8.8,10.9c-0.3-0.3-3.8-9.5-3.5-10.2s8.5-14.8,11-26.7c2.5-11.8,1.2-49.3,0.8-49.2
		S733.9,191.1,733.9,191.1z"/>
	<path class="st19" d="M765.1,171.2c0,0-1.5,8.1,3.5,12.8s11.4,11.2,11.4,11.2h6.7c0,0,0-4.4-2.6-5.2c-2.3-0.8-3.1,1.2-3.1,1.2
		s-4.7-8.1-7.3-12.3s-2.6-7.8-2.6-7.8h-6L765.1,171.2L765.1,171.2z"/>
	<path class="st19" d="M738.5,169.6c0,0-3.4,9.2-7.9,14.8c-4.4,5.6-8.3,10.8-8.3,10.8h-7.9c0,0,2.4-7.9,4.2-6s1.8,1.9,1.8,1.9
		s5-11.1,7.4-16.1s3.8-7.2,3.8-7.2L738.5,169.6z"/>
	<path class="st21" d="M731.3,167.9c0,0,2.2-6,5.2-7.3s7.9-4.1,15.5-2.4c0,0,13.1-3,16.3,2.4c3.1,5.4,2.8,10.7,2.8,10.7l-6.8,0.7
		l-4,20.8l-27.8-0.8l4.4-19.3L731.3,167.9z"/>
	<path class="st19" d="M802.9,167.9c0,0-4.9,3.7-3.9,5s2.5,1.8,2.5,1.8s-9.5,14.4-9,17.6c0.1,1.8,0.2,4.1,3.7,2.5
		c3.5-1.7,9.1-17.4,10.5-20.1C807.5,173.2,802.9,167.9,802.9,167.9z"/>
	<path d="M806.7,273.1c0,0,7.6,1.5,9.2-1.9c1.6-3.4,2.6,1.7,2.6,1.7s0.9-2.4,1.1-6.1c-2.3,2.5-5.8,2.9-9,3.6
		C808.7,271.9,806.7,273.1,806.7,273.1z"/>
	<path class="st19" d="M818.8,224.7c0,0-2.1,1.7-6.5,1.4c0,0,2.8,38.6,1.5,41c-0.5,1-1.9,2.2-3.2,3.3c3.2-0.7,6.7-1.1,9-3.6
		c0.3-6.6,0.7-17.4,1.3-26.2C821.2,235.4,818.8,224.7,818.8,224.7z"/>
	<path d="M822.2,267.8c-1,2.4-2.9,5-2.9,5s5.2,0.7,5.4-2.2c0.3-2.9-0.8,2.2,1,2.2c0.6,0,1.6-1.8,1.7-4.7
		C825.4,268.7,824.3,268.6,822.2,267.8z"/>
	<path class="st19" d="M827.3,268.1c0.2-6.7,0.7-19.3,1.4-29.3c0.3-5.4-2.1-16.8-2.1-16.8s-2.1,1.8-6.5,1.5c0,0,3.4,41.9,2.1,44.4
		C822.1,268.2,825.4,268.7,827.3,268.1z"/>
	<path class="st22" d="M821.5,176.9c-4.5-1.3-18.1,1.2-19.5,2.3s-3.8,6-3.8,6l12.3,12.6c5.8-2.2,12.6-3.4,18-6.1
		C827.2,189.9,825.6,178.1,821.5,176.9z"/>
	<path class="st17" d="M860.5,204.6c-5.8-8.9-31.9-12.7-32-12.9c-5.4,2.6-12.2,3.8-18,6.1l1.7,29.3c4.7,2.4,28.2-14.6,43.9-2.8
		C862.9,229.5,866.3,213.5,860.5,204.6z"/>
	<path d="M803,164.3c2.2-6,7.2-2.8,12.1,4.4c2.8,4.1,2,11.1,9.3,9.5c21.8-4.9,31.7,2.4,31.7,2.4s-12.2,2.9-16,7.3
		c-3.7,4.4-12.5,7.2-18.8,6.1C807.5,191.7,799.5,174,803,164.3z"/>
</g>
<path class="st19" d="M548.7,177.9"/>
<g>
	<path class="st23" d="M152.2,252.4c0,0-12.2,29.4-8.3,30.8c3.3,1.2,13.3-28.4,13.3-28.4L152.2,252.4z"/>
	<path class="st23" d="M197.6,252.8c0,0,14.4,28.4,10.7,30.1c-3.2,1.4-15.5-27.4-15.5-27.4L197.6,252.8z"/>
	<path class="st24" d="M151,205.5c-7.1,0.4-10.8,20.5-7.5,38.7s42.1,13.8,59.6,10.7C220.5,251.7,158.1,205.1,151,205.5z"/>
	<path class="st23" d="M391.8,252.4c0,0,12,29.4,8.2,30.8c-3.2,1.2-13.1-28.4-13.1-28.4L391.8,252.4z"/>
	<path class="st23" d="M347.1,252.8c0,0-14.2,28.4-10.6,30.1c3.1,1.4,15.3-27.4,15.3-27.4L347.1,252.8z"/>
	<path class="st24" d="M393.1,205.5c7,0.4,10.7,20.5,7.4,38.7S359,258,341.8,254.8C324.6,251.7,386.1,205.1,393.1,205.5z"/>
	<path class="st23" d="M258.9,283.2h31.7c0,0-38.3-41.1-15.8-42.6C296.4,243,258.9,283.2,258.9,283.2z"/>
	<path class="st25" d="M268.4,206.3c1,3.3,3.5,6.1,4.7,9.4c0.9,2.3,1.1,4.7,1.4,7.2"/>
	<path class="st25" d="M278.8,205.5c-0.4,3.3-1.4,6.1-2,9.4c-0.4,2.3-0.5,4.7-0.6,7.2"/>
	<path class="st25" d="M275.9,201.5c1,3.3-3.3,9.3-2,12.6c0.9,2.3,1.1,4.7,1.4,7.2"/>
	<path class="st26" d="M274.7,239.8L274.7,239.8c-3.2,0-2.2-2.8-2.2-5.4l-3.6-12.7c0-2.7,2.6-4.8,5.8-4.8l0,0c3.2,0,5.8,2.2,5.8,4.8
		l-3.6,12.7C276.9,237.1,277.9,239.8,274.7,239.8z"/>
	<rect x="237.2" y="237.4" class="st27" width="73.3" height="7.1"/>
	<path class="st28" d="M265.5,200.3c0,0-0.8,7.9,3.3,6.3c3.1-1.2-0.8-7.1-0.8-7.1L265.5,200.3z"/>
	<path class="st28" d="M274,194.9c0,0-3.2,8.5,2.2,7.2c4.3-1,1.1-7.1,1.1-7.1L274,194.9z"/>
	<path class="st28" d="M279.7,198.7c0,0,0.2,1.9-0.8,2.4c-1.7,0.8-2.5,3.9,0,4.7s3.3-2.2,3.3-3.9c0-1.6,0.8-2.4,0.8-2.4L279.7,198.7
		"/>
</g>
<path class="st29" d="M246.4,219.8l-0.1,3.1v0.1c0.1,2,1.7,3.6,3.8,3.8v6.6c0,2-3.2,3.7-3.2,4h7.4c0-0.3-3.2-2-3.2-4v-6.6
	c2-0.2,3.7-1.8,3.7-3.8v-0.1l-0.6-11.3h-7.3L246.4,219.8"/>
<path class="st29" d="M297.1,219.8l-0.1,3.1v0.1c0.1,2,1.7,3.6,3.8,3.8v6.6c0,2-3.2,3.7-3.2,4h7.4c0-0.3-3.2-2-3.2-4v-6.6
	c2-0.2,3.7-1.8,3.7-3.8v-0.1l-0.6-11.3h-7.3L297.1,219.8"/>
</svg>
