<!-- <svg viewBox="0 0 50 52" xmlns="http://www.w3.org/2000/svg" fill="currentColor">
    <title>{{ config('app.name') }}</title>
    <path d="M49.626 11.564a.809.809 0 0 1 .028.209v10.972a.8.8 0 0 1-.402.694l-9.209 5.302V39.25c0 .286-.152.55-.4.694L20.42 51.01c-.044.025-.092.041-.14.058-.018.006-.035.017-.054.022a.805.805 0 0 1-.41 0c-.022-.006-.042-.018-.063-.026-.044-.016-.09-.03-.132-.054L.402 39.944A.801.801 0 0 1 0 39.25V6.334c0-.072.01-.142.028-.21.006-.023.02-.044.028-.067.015-.042.029-.085.051-.124.015-.026.037-.047.055-.071.023-.032.044-.065.071-.093.023-.023.053-.04.079-.06.029-.024.055-.05.088-.069h.001l9.61-5.533a.802.802 0 0 1 .8 0l9.61 5.533h.002c.032.02.059.045.088.068.026.02.055.038.078.06.028.029.048.062.072.094.017.024.04.045.054.071.023.04.036.082.052.124.008.023.022.044.028.068a.809.809 0 0 1 .028.209v20.559l8.008-4.611v-10.51c0-.07.01-.141.028-.208.007-.024.02-.045.028-.068.016-.042.03-.085.052-.124.015-.026.037-.047.054-.071.024-.032.044-.065.072-.093.023-.023.052-.04.078-.06.03-.024.056-.05.088-.069h.001l9.611-5.533a.801.801 0 0 1 .8 0l9.61 5.533c.034.02.06.045.09.068.025.02.054.038.077.06.028.029.048.062.072.094.018.024.04.045.054.071.023.039.036.082.052.124.009.023.022.044.028.068zm-1.574 10.718v-9.124l-3.363 1.936-4.646 2.675v9.124l8.01-4.611zm-9.61 16.505v-9.13l-4.57 2.61-13.05 7.448v9.216l17.62-10.144zM1.602 7.719v31.068L19.22 48.93v-9.214l-9.204-5.209-.003-.002-.004-.002c-.031-.018-.057-.044-.086-.066-.025-.02-.054-.036-.076-.058l-.002-.003c-.026-.025-.044-.056-.066-.084-.02-.027-.044-.05-.06-.078l-.001-.003c-.018-.03-.029-.066-.042-.1-.013-.03-.03-.058-.038-.09v-.001c-.01-.038-.012-.078-.016-.117-.004-.03-.012-.06-.012-.09v-.002-21.481L4.965 9.654 1.602 7.72zm8.81-5.994L2.405 6.334l8.005 4.609 8.006-4.61-8.006-4.608zm4.164 28.764l4.645-2.674V7.719l-3.363 1.936-4.646 2.675v20.096l3.364-1.937zM39.243 7.164l-8.006 4.609 8.006 4.609 8.005-4.61-8.005-4.608zm-.801 10.605l-4.646-2.675-3.363-1.936v9.124l4.645 2.674 3.364 1.937v-9.124zM20.02 38.33l11.743-6.704 5.87-3.35-8-4.606-9.211 5.303-8.395 4.833 7.993 4.524z" />
</svg> -->
<!-- <svg xmlns="http://www.w3.org/2000/svg" fill="none" viewBox="0 0 35 32">
  <path fill="url(#prefix__paint0_linear)" d="M15.259 26.865a4.045 4.045 0 01-1.133 2.917 4.005 4.005 0 01-4.432.901 4.027 4.027 0 01-2.445-3.818 3.97 3.97 0 012.027-3.414c-.024.109.09-.055 0 0l1.86-1.652a8.495 8.495 0 002.304-5.793c0-2.926-1.711-5.901-4.17-7.457.094.055-.036-.094 0 0a3.975 3.975 0 01-2.026-3.413 4.042 4.042 0 011.133-2.918 4.006 4.006 0 014.43-.901 4.026 4.026 0 012.445 3.818 8.52 8.52 0 002.348 5.832l.817.8c.326.285.668.551 1.024.798.62.33 1.142.826 1.504 1.431a3.901 3.901 0 01-1.504 5.442c.033-.067-.063.036 0 0a8.968 8.968 0 00-3.024 3.183 9.015 9.015 0 00-1.158 4.244zm4.483-21.742c0 .796.235 1.575.676 2.237a4.01 4.01 0 001.798 1.482 3.99 3.99 0 004.366-.873 4.042 4.042 0 00.869-4.386 4.02 4.02 0 00-1.476-1.806 3.994 3.994 0 00-5.058.501 4.038 4.038 0 00-1.175 2.845zm4.007 17.717c-.792 0-1.567.236-2.226.678a4.02 4.02 0 00-1.476 1.806 4.041 4.041 0 00.869 4.387 3.99 3.99 0 004.366.873A4.01 4.01 0 0027.08 29.1a4.04 4.04 0 00-.5-5.082 4 4 0 00-2.832-1.18v.002zM34 15.994a4.04 4.04 0 00-.675-2.236 4.01 4.01 0 00-1.798-1.483 3.99 3.99 0 00-4.367.873 4.042 4.042 0 00-.87 4.387 4.02 4.02 0 001.477 1.806 3.993 3.993 0 005.058-.502A4.04 4.04 0 0034 15.993v.001z"/>
  <path fill="url(#prefix__paint1_linear)" d="M5.006 11.97c-.793 0-1.567.235-2.226.677a4.022 4.022 0 00-1.476 1.807 4.042 4.042 0 00.87 4.386 4.001 4.001 0 004.365.873 4.01 4.01 0 001.798-1.483 4.038 4.038 0 00-.5-5.08 4.004 4.004 0 00-2.83-1.18z"/>
  <defs>
    <linearGradient id="prefix__paint0_linear" x1="1" x2="34" y1="16" y2="16" gradientUnits="userSpaceOnUse">
      <stop stop-color="#7C3AED"/>
      <stop offset="1" stop-color="#4F46E5"/>
    </linearGradient>
    <linearGradient id="prefix__paint1_linear" x1="5.006" x2="5.006" y1="11.969" y2="20.018" gradientUnits="userSpaceOnUse">
      <stop stop-color="#7C3AED"/>
      <stop offset="1" stop-color="#4F46E5"/>
    </linearGradient>
  </defs>
</svg> -->
<svg xmlns="http://www.w3.org/2000/svg" xmlns:xlink="http://www.w3.org/1999/xlink" version="1.2" baseProfile="tiny" id="Layer_1" x="0px" y="0px" viewBox="0 0 800 400" xml:space="preserve">
<g>
	<path fill="#FB5D20" d="M250,267.9c-9.1-5-16.2-12.2-21.4-21.4c-5.2-9.2-7.8-19.9-7.8-32c0-12.1,2.7-22.8,8-32   c5.3-9.2,12.6-16.4,21.9-21.4c9.2-5,19.6-7.6,30.9-7.6c11.4,0,21.7,2.5,30.9,7.6c9.2,5,16.5,12.2,21.9,21.4c5.3,9.2,8,19.9,8,32   c0,12.1-2.7,22.8-8.2,32c-5.5,9.2-12.9,16.4-22.2,21.4c-9.3,5-19.7,7.6-31.2,7.6C269.3,275.4,259.1,272.9,250,267.9z M295.9,245.5   c4.8-2.6,8.6-6.6,11.4-11.8c2.8-5.3,4.3-11.7,4.3-19.2c0-11.2-3-19.9-8.9-25.9c-5.9-6-13.1-9.1-21.7-9.1s-15.7,3-21.4,9.1   c-5.8,6-8.6,14.7-8.6,25.9c0,11.2,2.8,19.9,8.4,25.9c5.6,6,12.7,9.1,21.2,9.1C286.1,249.4,291.2,248.1,295.9,245.5z"/>
	<path fill="#FB5D20" d="M477.4,155.3l-73.2,174.1h-31.8l25.6-58.9l-47.4-115.2h33.5l30.5,82.5l30.9-82.5H477.4z"/>
	<path fill="#FB5D20" d="M492.8,182.2c4.8-9.2,11.2-16.4,19.4-21.3c8.2-5,17.3-7.5,27.4-7.5c8.8,0,16.5,1.8,23.1,5.3   c6.6,3.6,11.9,8,15.9,13.4v-16.9h30.1v118.2h-30.1v-17.3c-3.8,5.5-9.1,10.1-15.9,13.8c-6.8,3.6-14.5,5.4-23.4,5.4   c-10,0-19-2.6-27.2-7.7c-8.2-5.1-14.6-12.3-19.4-21.7c-4.8-9.3-7.1-20-7.1-32.1C485.7,202,488.1,191.5,492.8,182.2z M574.4,195.8   c-2.8-5.2-6.7-9.2-11.5-11.9c-4.8-2.8-10-4.2-15.6-4.2s-10.7,1.4-15.4,4.1c-4.7,2.7-8.5,6.6-11.4,11.8c-2.9,5.2-4.4,11.3-4.4,18.5   c0,7.1,1.5,13.3,4.4,18.7c2.9,5.3,6.8,9.4,11.5,12.3c4.8,2.8,9.8,4.3,15.3,4.3c5.5,0,10.7-1.4,15.6-4.2c4.8-2.8,8.7-6.8,11.5-11.9   c2.8-5.2,4.3-11.4,4.3-18.7S577.3,201,574.4,195.8z"/>
	<path fill="#FB5D20" d="M683.7,158.9c6.8-3.6,14.5-5.4,23.1-5.4c10.1,0,19.2,2.5,27.4,7.5c8.2,5,14.6,12.1,19.4,21.2   c4.8,9.2,7.1,19.8,7.1,31.9c0,12.1-2.4,22.8-7.1,32.1c-4.8,9.3-11.2,16.5-19.4,21.7c-8.2,5.1-17.3,7.7-27.4,7.7   c-8.7,0-16.3-1.8-22.9-5.3s-12-8-16.1-13.4v73.2H638V155.3h29.9v17.1C671.7,167,677,162.5,683.7,158.9z M726,195.5   c-2.9-5.2-6.8-9.1-11.5-11.8c-4.8-2.7-9.9-4.1-15.5-4.1c-5.4,0-10.5,1.4-15.3,4.2c-4.8,2.8-8.6,6.8-11.5,12.1   c-2.9,5.3-4.4,11.4-4.4,18.6c0,7.1,1.5,13.3,4.4,18.6c2.9,5.3,6.8,9.3,11.5,12.1c4.8,2.8,9.8,4.2,15.3,4.2c5.5,0,10.7-1.4,15.5-4.3   c4.8-2.8,8.6-6.9,11.5-12.2c2.9-5.3,4.4-11.5,4.4-18.8C730.3,206.9,728.9,200.7,726,195.5z"/>
</g>
<path fill="#fff" d="M35,84.3h52.3v54.3h27L142,84.3h84L183.8,164h-25.4l28.7-57.8l-30.8-0.4L127.2,164c0,0-26.6-1-34.7,0.7  c-8.1,1.7-27.7,13.5-27.7,13.5s24,15.5,30.4,15.5s33.2,0,33.2,0l26.6,52.3h30.5L158,192.5l26.2,0.4L226,274h-80.6l-29.6-55.3H86.9  v55.1H35V84.3z"/>
</svg>