<svg xmlns="http://www.w3.org/2000/svg" viewBox="0 0 1024 245"><path fill="#fff" d="M.14 0h1023.72v245H.14z"/><path fill="#e8f0fe" d="M1023.59 109.5H1.53V0h37.15l112.47 1.99L285.9 0h453.75l105.57 2 95.91-2h15.82l36.65 2 29.99-2v109.5z"/><ellipse cx="278.77" cy="92.55" rx="28.65" ry="28.66" fill="#fdfeff"/><ellipse cx="335.18" cy="71.76" rx="43.38" ry="43.39" fill="#fdfeff"/><ellipse cx="387.55" cy="58.45" rx="38.63" ry="38.64" fill="#fdfeff"/><ellipse cx="433.97" cy="57.21" rx="29.3" ry="29.31" fill="#fdfeff"/><ellipse cx="483.13" cy="64.49" rx="45.7" ry="45.71" fill="#fdfeff"/><ellipse cx="535.12" cy="81.77" rx="45.7" ry="45.71" fill="#fdfeff"/><ellipse cx="586.77" cy="93.59" rx="45.7" ry="45.71" fill="#fdfeff"/><ellipse cx="627.96" cy="117.47" rx="45.7" ry="45.71" fill="#fdfeff"/><path d="M278.64 63.33A29.21 29.21 0 01297 69.81m54.66-26.93a39.59 39.59 0 0114.26-17.1m46.16 2.12a39.79 39.79 0 018.18 9.1m13.27-9.81a30.17 30.17 0 0127.59 18m45.74.04a46.29 46.29 0 0128.42-9.7m26.6 19.13A46.31 46.31 0 01587 47.31" fill="none" stroke="#e8f0fe" stroke-linecap="round" stroke-linejoin="round"/><path d="M618 72.12A46.51 46.51 0 01628 71" fill="none" stroke="#e8f0fe" stroke-linecap="round" stroke-linejoin="round" stroke-width="1.47"/><path d="M799.55 55.35s-3.42 5.54-.83 11.05 17.5 10.9 17.5 10.9l13.42 8 4.05-4-4.39-15-5.59-2.79-7.24-1.42s-4.6-.55-6.72-2.67-4.32-2.14-5-2.79a6.11 6.11 0 00-5.2-1.28z" fill="#fff"/><path d="M830.74 62.6a22.52 22.52 0 0110.91 1.22c3.3 1.22 6 2.29 8.68 2.29 4.06 0 13.65 3.39 18.23 4.15s12.2-.27 21 2.21 10.28 3 13.42 2.2A21.48 21.48 0 01919.47 78c6.45 4.4 38 7 41.33 6.69s21.83 1.36 29.07-.51 25.06-6.92 29.83-7.77l-8.29 39.48H304.25v-3.73H319V58.45h7.33v4.73h-3.52v49.15h7V63.25h13.11v24.4h-4.58v24.61H350V87.51h25.73v18.19H384v-66h8.6v68.82h6.63V24.6h11V58h4.52v24.78h-8.89v29.55h6.77v-5.93h13V82.78h8.11v22.5h19.95V36.17h5.08v73h10.36V56.41h11.07v28h-5.57v27.5h5.29V108H499V73.19h33.1v7.48h-10.74v16.78h-8.52v11.14h13.58v4.23h14.91V80.74h7.6v28h4.44V59.86h6.56v9.38h-4v40.9h18.47v-40.9h7v39.63h8.46V61.06h7.48v40.83s4.3-5.57 12-2.68c0 0-.56-4.09 4.09-16.43 0 0 4.09 7.19 4.44 11.71a19.06 19.06 0 012.19-5.79s5 5.36 5.64 9.74c0 0-.14-5 3.66-14.88 0 0 4.94 7.12 5.92 14.52 0 0 1.29-6.13 4.49-10.15a14.93 14.93 0 013.62 6.42s.14-2.75 3.46-10.09c0 0 3 5.5 3.66 9.87 0 0 .64-4 2.4-5.78a21 21 0 013.31 8.39 6.33 6.33 0 014.87.71s0-4.3 2.75-10.86a32.1 32.1 0 012.82 9.73 27.5 27.5 0 009.09-2.26c4.86-2.11 24-11.21 30.17-15.86s26-17.14 34.48-19.61l6.91 8.82 4.69-1.34 4.23 13.11L764 72.7l22.14 16.5L776.11 65c.23.56 10.86-1.64 14.42-4.71 3.39-2.94 7.26-5 9-5 0 0 1.2 8.18 7.48 13.75 0 0 11.21 1.76 14.73 6.84 0 0 4.23 4.8 9.1 5.22l-3.75-8.1-6.44-5.19 7 .73-3.92-5zM28.14 116V81.55S51 89.24 53.75 95.64a17.81 17.81 0 0118.88 5.6s-.32-5.92 3.05-18.41a53 53 0 013.52 18.57s3.36-1.44 5.6.81v-9.45h5.76v-12h15.85v11.52h5.44V71.14h10.73l-.51 31.71s7.55-3.37 10.43-3.37c0 0-.32-6.08 2.56-16.33 0 0 3 6.73 3 12.17 0 0 0-6.56 6.56-6.56 0 0 4-2.57 6.25 1.28 0 0 9.35 1.28 8.67 11.84a13.1 13.1 0 0112.55-2.4c7.43 2.4 16.29-2.56 19.3-4.16s8.3-4.64 23.66.8c0 0 7.7 1 12-1.6s11.75-7.37 22-3.36V100h-15.4v10.25h70.59v5.71z" fill="#aecbfa"/><path d="M742.19 115.92s22.12-12.71 31-11.52 16.65 4.56 38.86-1.79 37.47-11.3 48.37-11.3 15.51-8.92 30.38-6.31 29.73 7.93 47.77 7.93 59.48.79 69.59-2.38v25.4z" fill="#8ab4f7"/><path d="M1011.41 115.92H23.62v48.57h131.65v16.34h1.44v2.95h201.4a4.91 4.91 0 004.9-4.9 4.91 4.91 0 00-4.9-4.91h-39.37a4.74 4.74 0 01-4.74-4.74 4.74 4.74 0 014.74-4.74h234.49a77.19 77.19 0 0133.46 7.62 77.14 77.14 0 0033.45 7.62h204.13v-15.24h187.14z" fill="#e8f0fe"/><path d="M818.08 116h-30.94v-.11H35.08v12.25H98a1.85 1.85 0 011.87 1.86 1.86 1.86 0 01-1.87 1.88H86.48a2.15 2.15 0 00-2.15 2.12 2.16 2.16 0 002.15 2.16h84a2.52 2.52 0 002.52-2.52 2.52 2.52 0 00-2.52-2.52h-1.58a1.49 1.49 0 01-1.49-1.49 1.49 1.49 0 011.49-1.49h122.29v.44a9.07 9.07 0 009.06 9.07h19a1.49 1.49 0 011.51 1.31 1.46 1.46 0 01-1.45 1.6h-13.5a4.39 4.39 0 00-4.39 4.38 4.39 4.39 0 004.39 4.39H398a4.38 4.38 0 004.38-4.39 4.38 4.38 0 00-4.38-4.38h-18.75a1.51 1.51 0 01-1.52-1.41 1.46 1.46 0 011.46-1.5h72.21a3.34 3.34 0 003.37-3.2 3.26 3.26 0 00-3.26-3.31h-16.58a1.54 1.54 0 01-1.56-1.46 1.49 1.49 0 011.5-1.54h274a2 2 0 012 1.86 1.92 1.92 0 01-1.92 2h-2.86a2.31 2.31 0 00-2.33 2.11 2.27 2.27 0 002.26 2.42h70.12a2.31 2.31 0 002.33-2.11 2.27 2.27 0 00-2.26-2.42h-17.43a2 2 0 01-2-1.86 1.92 1.92 0 011.92-2h49.85a1.59 1.59 0 001.61-1.51 1.56 1.56 0 00-1.55-1.6H790a2.81 2.81 0 01-2.85-2.7 2.77 2.77 0 012.76-2.82h28.26a1.76 1.76 0 001.76-1.81 1.81 1.81 0 00-1.85-1.7z" fill="#d2e3fc"/><path fill="none" stroke="#fff" stroke-linecap="round" stroke-linejoin="round" d="M391.02 127.82h8.62m102.01-5.91h8.62m-13.88 3.6h5.3m-18.56 33.97h5.3m7.96-3.39h5.3m71.76-34.77h5.29m99.84 1.33h5.29m47.53-.94h5.29m-12.26 4.42h5.29m-111.84 11.43h5.3m-224.34-14.19h8.62m-40.93-1.46h20.14"/><path fill="none" stroke="#d2e3fc" stroke-linecap="round" stroke-linejoin="round" d="M518.49 134.84h3.25m2.45 0h2.23m18.44-3.67h2.23m.06 2.16h2.22m-27.89 3.96h2.22"/><path d="M531 130.94h-18.81a.31.31 0 00-.2.54l.57.49a4.52 4.52 0 003 1.11H531a1.09 1.09 0 001-.61 1.07 1.07 0 00-1-1.53z" fill="#aecbfa"/><circle cx="523.21" cy="127.06" r=".92" fill="#aecbfa"/><path d="M523 127.82h.19a.88.88 0 01.88.88v2.46h-1.84v-2.58a.76.76 0 01.77-.76z" fill="#aecbfa"/><path d="M521.5 129.21h5.09a.21.21 0 01.22.22.22.22 0 01-.22.22h-5a.22.22 0 01-.23-.22.25.25 0 01.14-.22z" fill="#aecbfa"/><path d="M529.81 129.52a.93.93 0 01-.94.92h-.93a2.9 2.9 0 01-2.12-1 2.91 2.91 0 012.15-.9h.93a.92.92 0 01.91.98zm-11.81-.1a.92.92 0 01.94-.92h.93a2.9 2.9 0 012.12 1 2.91 2.91 0 01-2.15.9h-.93a.92.92 0 01-.91-.98zm37.85-1.7H537a.31.31 0 00-.2.54l.58.5a4.56 4.56 0 003 1.1h15.5a1.09 1.09 0 001-.61 1.08 1.08 0 00-1.03-1.53z" fill="#aecbfa"/><circle cx="547.51" cy="124.42" r=".92" fill="#aecbfa"/><path d="M548.2 125.18l.14.14a.76.76 0 010 1.08l-2.64 1-.48-.49 1.74-1.74a.88.88 0 011.24.01z" fill="#aecbfa"/><path d="M548.55 128.43h-1.84v-2.46a.88.88 0 01.88-.88h.19a.76.76 0 01.76.76v2.58h.01z" fill="#aecbfa"/><path d="M552.23 128.22l-.08-.05-7.66-3.47a.22.22 0 00-.29.11.21.21 0 00.11.3l7.66 3.47a.23.23 0 00.3-.12.24.24 0 00-.04-.24z" fill="#aecbfa"/><path d="M541.41 123.59a.93.93 0 00.48 1.23l.84.38a3 3 0 002.34 0 3 3 0 00-1.58-1.72l-.85-.37a.93.93 0 00-1.23.48z" fill="#aecbfa"/><path d="M7.32 0s10.39 14.5 10.39 45c0 0 1.34 16.47 10.7 29.66s16.23 39.79 13.49 65.94c0 0 30.22-12 52.48 14.48 0 0 22-15.35 47.27 2.14 0 0 27.34-5 44.43 5.8l15.29 5.34v8.94s13.63-1.44 26.82 3.6 15.64 10.1 21.14 10.1 4.46 40.09 4.46 40.09H.14V0z" fill="#fff"/><path d="M153 158.29c0-.27-.38-11.83-.38-11.83" fill="none" stroke="#fff" stroke-miterlimit="10" stroke-width="1.28"/><circle cx="152.61" cy="146.46" r="1.32" fill="#fff"/><path d="M157.18 159.14c.13-.23 5.54-10.45 5.54-10.45" fill="none" stroke="#fff" stroke-miterlimit="10" stroke-width="1.28"/><circle cx="162.72" cy="148.69" r="1.32" fill="#fff"/><path fill="none" stroke="#fff" stroke-miterlimit="10" stroke-width="1.28" d="M152.86 154.08l-5.16-5.16m12.31 4.9l-1.38-3.41m.58 4.91l4.56-1.67"/><path d="M203.33 179.8S189 114 191.43 53.66l14.15-25.76 48-21.62H246l-41.34 17 4.75-17H205l-7.06 19.45-7.56 12.81-1.28-26.38-9.8 3.7 2.37 48.63L168.85 50l-3.68-26.37-2.45.33L164 45l-16.3-18-3.2.87 37.15 48.61s-.23 77 9.78 111.06z" fill="#fff"/><path fill="#fff" d="M137.95 161.58l-11.22-74.07 19.33-65.77h-2.73l-18.51 52.92-6.69-50.05-11.59-1.7 20.19 141.92 11.22-3.25z"/><path d="M38.68 0S54.47 34.7 92.6 25c0 0 42.13 15.86 65.34 2.64 0 0 38-20.24 59.8-21.25 0 0 33.5 2.36 52.11-.84 0 0 11-2.11 16.06-5.54z" fill="#fff"/><path d="M35.45 221.91s9.63-39.18 32.6-55.68M53.87 181a58.6 58.6 0 009.21-27.11" fill="none" stroke="#e8f0fe" stroke-linecap="round" stroke-linejoin="round"/><path d="M44.25 197.83s6.52-14.8-5.59-31.26c0 0-6.22-9.46-24-16m26.04 19.04s-24-35.52-14.94-61.8" fill="none" stroke="#e8f0fe" stroke-linecap="round" stroke-linejoin="round"/><path d="M178.87 205.57v.17a1.2 1.2 0 00.14.59 1.14 1.14 0 00.31.5 1.26 1.26 0 00.5.32 1.19 1.19 0 00.59.13l.41-.06a1.55 1.55 0 00.68-.39l.24-.31a1.75 1.75 0 00.21-.78v-.17a1.2 1.2 0 00-.14-.59 1.11 1.11 0 00-.31-.49 1.16 1.16 0 00-.5-.32 1.09 1.09 0 00-.59-.13l-.41.05a1.68 1.68 0 00-.68.4l-.24.31a1.51 1.51 0 00-.21.77z" fill="#fff"/><path d="M181.26 206.09a1.54 1.54 0 000-3.07 1.54 1.54 0 000 3.07zM703 215.47a50.26 50.26 0 0123.68-31.28 36.29 36.29 0 0112.2-4.46c17-2.54 35.25.2 47.52-9.72 13.8-11.16 28.89-12.4 47.53-12.4a25.16 25.16 0 0120.26-9.61s10.48-8.23 22.55-4.11c0 0 21.91 4.64 40.33-10.54 0 0 6-4.92 17.46-.83 0 0 10.48-8 20.65-4 0 0 7-5.62 20-.52 0 0 11.43-7.45 21.28-3.73l27.4 14.61v90.38H699.47z" fill="#fff"/><path d="M849 152.55c.12-4.78 5.32-12 9.35-14" fill="none" stroke="#fff" stroke-miterlimit="10"/><path d="M846.23 151.46a26.26 26.26 0 01.54-3.14 9.2 9.2 0 00-.14-3.66m-3.33 7.4a6.49 6.49 0 00-.93-3.8m-6.37 9c-.7-2.09-.65-6.35.8-8.07m2.77 4.87a28.75 28.75 0 01.68-3.52 41.22 41.22 0 00.72-6.83 33.45 33.45 0 00-.26-6.71 39.58 39.58 0 00-1.94-8.47m-1.67 6.13c1.59.8 2.46 2.15 3.67 3.27m-.67-4.6a12.76 12.76 0 012.93-3.07M841 142.13c.82-1.31 2.17-1.76 3.27-2.74M840.5 147a12.23 12.23 0 00-3-4.33m31.5 1.59a10.47 10.47 0 00-.54-3.46 14 14 0 00-1.25-2.76c-.12-.19-.34-.63-.34-.58m5.13 6.6a16.36 16.36 0 00-.34-2.79 15.62 15.62 0 00-.88-3.05c-.15-.38-.36-1.3-.72-1.49m-2.63 8.8c-.52-2.1-2.21-3.66-3.8-4.94m-79.77 32.93a7.38 7.38 0 00-.58-2.45 42.81 42.81 0 00-5.36-10.07m8.53 9.72c-.82-1.89-.08-4.67.34-6.53m-11.07 12.07c-.31-1.61-1.91-3-3-4.07m7.74-7.33a26.45 26.45 0 01.4-3.54m1.4 7.74a11.63 11.63 0 00-3.07-1.54m-4.53 6.34a19.45 19.45 0 01.33-2.94m11.46-4c.61-.38 1.1-1 1.74-1.33m165.04-35.75c.51-2.52-3.32-5.43-4.17-7.71m9.48 6.87a13.36 13.36 0 012.4-5.06m-1.14-3.08a26.11 26.11 0 00-4.17 9.36c0-2.92-1.9-6.21-2.28-9.1" fill="none" stroke="#fff" stroke-linecap="round" stroke-linejoin="round"/><path d="M984.46 126.05c.58-1.76 2.52-3.31 3.92-4.43m-8.47 6.38c-.16-2.31 2.86-5.13 4.3-6.45m-6.45 6.78c-.11-2.79 2.25-6.31 3.67-8.48" fill="none" stroke="#fff" stroke-linecap="round" stroke-linejoin="round" stroke-width="1.28"/><path d="M874.07 147l-7.24-82.41-36.26-42.5L799.21 5l3.28-.76 27.57 13.66-4.42-14.42 3.66.89 5.44 15.05 30.79 36.93-3.35-45.28 6.78.76 4.1 47.69s8.47-7.72 9.86-15.94L872.8 16.76l2.38.38 8.5 21.76s.63-11.39.63-15.81l2.28 1.51s0 15.18-1 19.36l13.65-17.71h2.28s-20.87 27.83-23.65 35.8-2.27 20.11-1.14 29.72 7.58 55.23 7.58 55.23z" fill="#fff"/><path fill="#fff" d="M903.28 27.52l4.43 40.72-12.65-7.08-11.38-22.26-2.03 1.31 10.63 21.71 15.43 11.89 7.45 64.7 7.09-1.05-11.13-78.32 18.97-41.37-3.92 1.9-16.19 33.4-2.91-26.95-3.79 1.4zm72.58 107.14s-10.75-33.28-5.94-63.13 11.51-45.92 11.51-45.92l2.78 4.06s-4.37 10.24-6.45 27.7l9.74-3.93 19-9 1.69.76-14.47 7.34 19.1-2.09-1.38 1.37-20.67 2.49-11.87 7.48s-12 25.66 4 70z"/><path d="M976.62 131.14s-4.28-27.33 26.81-45.8c0 0 1.81-25.31 8.26-36.83 0 0-55.94-1.3-54.74-48.51h66.91v151.46zM739.65 0s29.6 19.92 63 6.2c0 0 19.93-2.83 37.49 6.56 0 0 14.15 5.5 25.43 2.66 0 0 22.27 17.55 40.34 14.54S936 18.61 941.13 0z" fill="#fff"/><path d="M989.29 204.31c-3.18-13.87-1.95-28.68-.71-42.84a44.18 44.18 0 0113-27.26" fill="none" stroke="#e8f0fe" stroke-linecap="round" stroke-linejoin="round"/><path d="M1010.88 103.81a204.68 204.68 0 00-11.73 18A79 79 0 00992 138c-1.81 6-3.52 23-3.86 29.2m-.87 20.47c-1.3-12.56-6.74-19.18-11.8-25.11M1002 117c2.59-6 3.51-15.65 2-19m-69.37 110.82s-7.24-32.14 3.53-52.57m-4.97 15.98a48.6 48.6 0 00-9.14-34" fill="none" stroke="#e8f0fe" stroke-linecap="round" stroke-linejoin="round"/><path d="M932.29 188s-.63-13.19-15.48-20.8c0 0-8-4.65-23.4-3m26 4.49s-10-5.38-11.33-13.46m-664.99 54.05h6.43m6.94 0h22.07" fill="none" stroke="#e8f0fe" stroke-linecap="round" stroke-linejoin="round"/><path fill="none" stroke="#e9f0fd" stroke-linecap="round" stroke-linejoin="round" stroke-width="1.28" d="M207.17 209.28h6.44"/><path fill="none" stroke="#e8f0fe" stroke-linecap="round" stroke-linejoin="round" d="M216.59 209.28h2.6"/><path d="M239.19 142.06a12.76 12.76 0 006.58 1c3.81-.43 9.61-2.34 12.26-7.41l2.6.89s-4.42 11.26-18.26 11.26a8.58 8.58 0 00.09 4.74l-.87 2-4.83-3.73v-5.6l1.58-2.9.85-.28" fill="#81392c"/><path d="M236.35 141.42h2.14v-3.7H247a3.45 3.45 0 01-3.09 2.31v1.39h1.68l-.82 5.1-7.72-.18-.67-4.92m14.89 67.77l-5.22-26.28 8-1.64 1.73 25.25 5.66 2.08a1.41 1.41 0 01.92 1.33H252.3a1.09 1.09 0 01-1.03-.74z" fill="#9e5748"/><path fill="none" stroke="#e8f0fe" stroke-linecap="round" stroke-linejoin="round" d="M226.33 209.28h6.43"/><path d="M232.78 209.19l-.2-26.28 8.33-1.64-3.09 25.25 5.26 2.08a1.14 1.14 0 01.68 1.33h-10.09a.86.86 0 01-.89-.74z" fill="#9e5748"/><path d="M254.33 184.84s-.33-12.68-4.08-19.56h-16.49s-2.64 4.9-1.19 9.11v10.45z" fill="#4285f4"/><path d="M241 184.84v-8s-2-1.39-2-5.28" fill="none" stroke="#1a73e8" stroke-miterlimit="10"/><path d="M247 137.72h-8.48v1.49H246a4 4 0 001-1.49z" fill="#81392c"/><path d="M194.72 137.72h105.92a1.72 1.72 0 001.13-3l-3.24-2.79a25.59 25.59 0 00-16.71-6.2h-87.1a6 6 0 00-5.43 3.43 6 6 0 005.43 8.56z" fill="#ea4335"/><path d="M248.11 142.06a12.76 12.76 0 006.58 1c3.81-.43 9.61-2.34 12.26-7.41l2.6.89s-4.42 11.26-18.26 11.26a8.58 8.58 0 00.09 4.74l-.87 2-4.83-3.73v-5.6l1.58-2.9.85-.28" fill="#9e5748"/><ellipse cx="268.96" cy="134.18" rx="3.26" ry="2.75" transform="matrix(.43256 -.9016 .9016 .43256 31.64 318.62)" fill="#9e5748"/><path d="M233.76 165.28s-.8-.31-.8-2.3v-16.62s0-4.52 2.7-4.94h1.09s-.51 3.72 2.37 3.72h2.56a2.71 2.71 0 002-.87 6.94 6.94 0 001.45-2.85 6.81 6.81 0 013 .64 9.76 9.76 0 00-1.35 7.83c1.38 4.55 4 3.21 4.62 2.63 0 0 4.8 12.76-1.13 12.76z" fill="#f9ab00"/><path d="M196.36 128.28a5 5 0 00-4.48 2.85h0m103.91 2.28a21.15 21.15 0 00-13.79-5.13" fill="none" stroke="#f28b82" stroke-linecap="round" stroke-linejoin="round"/><path fill="none" stroke="#f29900" stroke-linecap="round" stroke-linejoin="round" d="M239.85 148.51v12.98"/><path fill="none" stroke="#343659" stroke-linecap="round" stroke-linejoin="round" stroke-width="2.05" d="M653.85 128.18l20.96 9.01"/><path fill="none" stroke="#343659" stroke-miterlimit="10" stroke-width="2.05" d="M677.62 138.4l44.69 19.22"/><path fill="#eca09c" d="M676.05 142.07l-1.56-1.88 2.15-1.6 3.15 3.48h-3.74zm20.5-8.61c-1.35 2.34-4.55 3.83-6.52 2.69s-1.95-4.46-.6-6.8 4-3.3 6-2.17 2.46 3.95 1.12 6.28z"/><path d="M692.1 133.1h4v4.31a2 2 0 01-2 2 2 2 0 01-2-2v-4.31z" fill="#eca09c"/><path d="M692.73 132.44a2.34 2.34 0 01-1.09-1.34 2 2 0 011.11-2.49 10.51 10.51 0 013.38-.65 2.15 2.15 0 012.29 2.2 11.16 11.16 0 01-.15 1.34c-.53 3.17-2.42 3.61-3.73 1.84s-1.81-.9-1.81-.9z" fill="#343757"/><ellipse cx="693.84" cy="132.15" rx="1.65" ry="1.26" transform="matrix(.28234 -.95931 .95931 .28234 371.12 760.43)" fill="#eca09c"/><path d="M696.12 137.19c.07 0 3.39.37 4.46 15.2a.08.08 0 01-.07.08h-15.85a.08.08 0 01-.08-.07v-2.75a.07.07 0 00-.07-.07 4.94 4.94 0 01-3.82-1.82l-4.6-5.64a.07.07 0 010-.1l2.09-1.62a.08.08 0 01.08 0l4.93 2.64h.07l7-4.46a8.81 8.81 0 014.86-1.39h1z" fill="#4285f4"/><path d="M691.26 146.13a.49.49 0 00-.68-.17l-6 3.65v1.17l6.52-4a.49.49 0 00.16-.65z" fill="#1973e8"/><path d="M675.25 140.63c-1.32-.43-2-2.14-1.4-3.8s1.42-1.89 3.24-1.38c1.57.43 2.1 1.28 1.55 3s-2.06 2.62-3.39 2.18z" fill="#eca09c"/><path d="M734.69 152.47H628.76a1.72 1.72 0 00-1.12 3l3.23 2.78a25.64 25.64 0 0016.72 6.21h87.1a6 6 0 005.43-3.44 6 6 0 00-5.43-8.55z" fill="#34a853"/><path d="M640.14 122.12a4.27 4.27 0 015.64-2.2l3.9 1.71a13.4 13.4 0 017.28 7.86 13.45 13.45 0 01-10.72 0l-3.9-1.71a4.29 4.29 0 01-2.2-5.66z" fill="#343659"/><path fill="none" stroke="#d2e3fc" stroke-linecap="round" stroke-linejoin="round" d="M645.21 167.53h23.72m5.25 0h10.16m4.7 8.7h10.15m4.54-8.7h9.9m-17 4.35h23.72"/><path d="M206.22 95.71s-.58-3.46 1.29-8.91a19.82 19.82 0 011.88 8.91zm8.68 2s-.59-5 1.82-12.79a30 30 0 012.46 12.49zm9.26-1.06s-.47-3.69 1.47-9.44a21.05 21.05 0 012.29 8.85z" fill="#aecbfa"/><path d="M227 93.9a24.81 24.81 0 012.34-8.39 20.53 20.53 0 012.52 8.8l-4.86 3.4zm29.18-7.38h14.07v5.41h-7.82v15.88h13.89V91.93h6.48v18.28h-26.62V86.52z" fill="#aecbfa"/><path fill="#e8f0fe" d="M233.66 99.96v10.25h22.52V86.52h-7.12v13.44h-15.4zm28.77-8.03h13.89v15.88h-13.89z"/><path fill="#aecbfa" d="M285.9 110.21V68.4h5.79v37.93h12.56v3.88H285.9z"/><path fill="#e8f0fe" d="M277.59 68.4v23.53h5.21v18.28h3.1V68.4h-8.31zm26.66-9.95h14.79v53.73h-14.79zm18.6 4.8h6.98v49.08h-6.98zm15.51 24.26h11.63v24.75h-11.63zm45.61 18.19h-8.25V87.51h-7.02V39.7h15.27v66zm15.23-81.09h-11.65V39.7h5.02v68.82h6.63V24.61zm26.43 58.17h-19.81v29.55h6.77v-5.93h13.04V82.78zm28.06-46.61h-24.56v46.61h4.61v22.5h19.95V36.17zm5.08 20.24h10.36v52.75h-10.36zm40.27 16.78v34.84h-19.12v3.88h-5.29V84.4h5.57V73.19h18.84zm42.29 7.55h-19.96v16.71h-8.53v11.14h13.58v4.23h14.91V80.74zm12.05-20.88h-7.4v20.88h2.95v27.99h4.45V59.86zm2.53 9.38h18.47v40.9h-18.47zm33.98-8.18h-13.35v8.18h4.89v39.63h8.46V61.06z"/><path d="M776.11 65s-5.27-3.84-7.32-3.84-5 .48-6.91 0-4.25-1.73-6.61-1.86c-1.76-.1-7.55-1.24-9.8-1.55a12.11 12.11 0 00-5.06.8l6.91 8.82 4.68-1.3 4.23 13.11L764 72.7l22.14 16.5z" fill="#fff"/></svg>